<svg width="479" height="542" fill="none" xmlns="http://www.w3.org/2000/svg"><path fill-rule="evenodd" clip-rule="evenodd" d="M192.865 169.176l22.596-14.64 1.448-3.621 5.069 2.173 2.173 2.896 3.621 2.173-24.288 25.929a24.575 24.575 0 01-16.767 6.604h-14.259l7.553-21.514h12.854z" fill="#F5C5B6"/><path d="M59.313 182.285l31.21 83.232c8.877 1.53 14.341 3.615 14.341 5.914v.043l-.016-.044.053.201c.187.962.157 2.009-.091 3.142l.054.004-.169.47c-.243.91-.62 1.872-1.131 2.886-8.274 19.555-26.557 33.349-49.056 33.349-22.153 0-41.068-13.372-49.63-32.446l.502.891c-1.015-1.74-1.704-3.325-2.068-4.756-.044-.128-.092-.261-.139-.394l.046-.003c-.213-.983-.266-1.889-.16-2.72l.114-.623.024-.26c.41-2.284 6.215-4.341 15.36-5.828l31.146-83.058c1.499-4.029 8.1-4.029 9.61 0zm164.642-.011l31.206 83.214c8.452 1.442 13.852 3.386 14.456 5.539l-.086-.175c.494.949.637 2.044.431 3.284l-.131.63a11.68 11.68 0 01-.83 2.215c-8.059 20.167-26.916 34.491-49.851 34.491-22.693 0-41.989-14.033-50.238-33.852-.489-.964-.876-1.887-1.073-2.754l-.02-.091-.003-.009.001-.002-.063-.396c-.081-.7-.038-1.546.13-2.537l.126-.669-.012.058c.006-.038.013-.077.021-.114l.012-.044.006.001c.566-2.225 6.253-4.228 15.142-5.689l31.166-83.1c1.499-4.029 8.101-4.029 9.61 0zM54.508 198.742l-24.45 65.194c7.139-.639 15.297-1.001 23.96-1.001l1.555.004c8.494.043 16.464.434 23.417 1.09l-24.482-65.287zm164.642 0l-24.458 65.21c7.181-.649 15.401-1.017 24.136-1.017l1.555.004c8.424.043 16.334.427 23.247 1.074l-24.48-65.271zM137.551 85.741s12.176 38.203 12.176 44.97c0 4.659-2.69 8.595-6.519 10.662a18.53 18.53 0 018.09 5.227c4.836-4.215 11.961-8.13 22.187-8.13 11.694 0 21.745 5.113 30.615 9.628 2.824 1.436 5.565 2.81 8.101 3.884 1.889-2.004 4.528-3.285 7.484-3.285 5.729 0 10.37 4.67 10.37 10.434 0 5.765-4.641 10.434-10.37 10.434-4.65 0-8.439-3.13-9.753-7.376-3.398-1.302-6.879-3.058-10.462-4.876-7.844-3.988-16.745-8.513-25.985-8.513-8.881 0-14.425 4.143-17.588 7.645.124.889.267 1.767.267 2.686 0 10.341-8.336 18.73-18.613 18.73-10.278 0-18.614-8.389-18.614-18.73 0-.919.143-1.808.267-2.696-3.173-3.513-8.717-7.635-17.588-7.635-9.24 0-18.141 4.536-25.995 8.523-3.573 1.819-7.054 3.575-10.452 4.876-1.314 4.246-5.103 7.377-9.753 7.377-5.73 0-10.37-4.68-10.37-10.445 0-5.764 4.64-10.434 10.37-10.434 2.956 0 5.595 1.291 7.484 3.285 2.536-1.064 5.267-2.438 8.09-3.884 8.871-4.515 18.933-9.628 30.626-9.628 10.226 0 17.351 3.915 22.187 8.13a18.443 18.443 0 018.09-5.227c-3.829-2.067-6.519-5.992-6.519-10.662 0-6.767 12.177-44.97 12.177-44.97z" fill="url(#paint0_linear)"/><path d="M291.262 72.23s-12.632 1.086-21.001 5.608c0 0 33.285-.18 48.777 12.834 0 0-37.673-11.575-81.583 17.17 0 0 69.836-13.38 102.944 15.005 0 0-10.684-19.774-33.154-24.03 0 0 25.566-1.019 34.322 3.237 0 0-7.562-16.29-16.134-20.173V70.268c0-2.352-12.803-14.31-34.171-16.328v18.29z" fill="url(#paint1_linear)"/><path d="M357.228 185.562c11.347-17.659 17.555-33.045 18.625-46.158 16.799 18.667 15.789 40.524 12.935 57.25-1.925-5.382-4.408-10.919-7.45-16.609 2.01 25.789-5.625 39.752-22.905 41.888-2.021-11.913-2.423-24.037-1.205-36.371z" fill="#fff"/><path d="M150.025 11.336c-3.153 4.85-7.775 18.336-13.866 40.457-13.687 15.663-27.076 37.16-40.167 64.489-6.464 2.01-13.32 4.847-20.57 8.511 18.592-34.186 36.784-59.992 54.572-77.422 4.11-13.66 10.787-25.672 20.031-36.035zM187.506 49.472l-46.003 21.705c13.109.22 23.519-2.163 31.231-7.15 7.713-4.987 12.637-9.839 14.772-14.555zM170.532 41.556c-.26-9.486-1.495-14.818-3.705-15.995-2.456-1.097-3.884-3.46-2.456-7.774.881-2.743.615-5.796-.796-9.16L176.054.292l14.044 8.853c.491 3.123-.529 6.004-3.062 8.643 3.062 3.312 3.062 7.587-.485 12.525.099 1.223.167 2.423.206 3.598.058 1.782-.01 4.33-.206 7.646h-16.019z" fill="#FFCDBA"/><path d="M341.338 201.75c-2.2 40.1 6.337 62.889 25.613 68.366 28.914 8.214 67.59 10.612 78.105 71.509 2.613 8.236 1.342 15.804 3.505 23.224a230.034 230.034 0 01-27.491 24.773c-9.611-23.237-21.625-37.587-38.517-47.997-66.571-41.471-80.309-88.095-41.215-139.875zM173.742 329.368c34.86 87.512 90.663 31.439 133.77 51.939 19.71 9.373 30.462 26.579 32.256 51.619-16.806 3.914-34.316 5.979-52.308 5.979-34.887 0-67.965-7.767-97.606-21.67-.108-26.343-5.481-55.632-16.112-87.867z" fill="#FFCDBA" fill-opacity=".4"/><path d="M337.635 59.048c14.06 22.358 20.618 38.895 19.673 49.613-.358 3.873-2.06 8.194-5.106 12.963 10.699-.955 16.049-7.535 16.049-19.739s-10.206-26.483-30.616-42.837zM215.454 84.243c9.043-2.499 16.433-8.14 22.171-16.924-.364 5.23-1.674 9.731-3.93 13.505 26.136-4.701 46.419-20.537 60.85-47.508-26.609-14.468-54.039-4.598-68.742 13.401-9.802 12-13.251 24.508-10.349 37.526z" fill="#FFCDBA"/><path fill-rule="evenodd" clip-rule="evenodd" d="M18.334 355.693l13.933 6.525a2.241 2.241 0 011.285 2.021 2.237 2.237 0 01-2.235 2.235H0v-10.781h18.334zM59.25 349.013l5.242 14.464c.3.813.094 1.729-.523 2.337a2.222 2.222 0 01-3.151 0L38.673 343.67l7.621-7.613 12.957 12.956zM121.936 134.137c1.824-3.104 11.047-4.931 14.609 0 4.188 5.791-.788 10.775-.788 10.775v-4.45h-10.019l-4.35 3.745v4.43a.841.841 0 01-.84.841.812.812 0 01-.813-.676 3.98 3.98 0 00-3.922-3.296c-.343 0-.668.056-.985.137-.368.095-.711.24-1.028.429-.668-2.868-1.079-6.888.934-9.378 2.457-3.052 7.202-2.557 7.202-2.557z" fill="#352C47"/><path fill-rule="evenodd" clip-rule="evenodd" d="M113.8 146.073c.317-.19.66-.335 1.028-.429.317-.082.642-.138.985-.138a3.98 3.98 0 013.922 3.297c.06.393.411.675.813.675a.84.84 0 00.839-.841v-4.43l4.351-3.745h10.019v16.198c0 2.557-2.381 4.449-4.864 3.873l-4.71-1.232v10.122h-11.355v-16.08c0-.018-.009-.034-.026-.039a3.962 3.962 0 01-2.963-3.826c0-1.455.797-2.713 1.961-3.405z" fill="#F5C5B6"/><path fill-rule="evenodd" clip-rule="evenodd" d="M82.398 258.061l-64.064 97.631H0l64.629-113.66h63.387l21.074 40.71c4.796 9.256 1.097 20.645-8.221 25.32l-81.618 40.95-12.957-12.956 77.371-46.463-13.958-31.532H82.398z" fill="#D3D9E2"/><path fill-rule="evenodd" clip-rule="evenodd" d="M99.045 169.417h66.153v.006h15.843l-7.553 21.514h-19.311l-26.161 51.096c-.035.159-63.387 0-63.387 0l7.612-49.612c2.03-13.233 13.42-23.004 26.804-23.004z" fill="#242424"/><path fill-rule="evenodd" clip-rule="evenodd" d="M111.839 181.805l45.961 16.914 48.632-1.66 9.651-6.123 9.728 6.123v11.171l-19.379 4.905-50.277 5.051a18.18 18.18 0 01-8.246-1.082l-57.667-21.775 21.597-13.524z" fill="#F5C5B6"/><path d="M285.581 124.159s5.387 4.699 7.668 9.041c0 0-4.925 4.867-9.631 7.263 0 0 14.258 4.49 18.012 9.802-7.601-2.39-20.584-1.495-23.71 4.961 8.679-.936 13.993 1.306 15.111 4.631 0 0-2.064 2.974-8.382 4.295-6.729 1.408-8.448 4.205-8.448 8.112s5.11 7.479 14.39 7.19c9.268-.297 34.545-4.12 36.456-51.943-1.911-4.497-25-13.679-41.526-13.578l.06 10.226z" fill="#FFCDBA"/><path fill-rule="evenodd" clip-rule="evenodd" d="M403.478 362.445h23.854l-1.502 7.859 9.421 7.504.689.547 6.504 150.539h-17.031l-11.622-146.601h-15.344l-37.143 146.601h-17.03l31.947-166.449h27.257z" fill="#7AC7DF"/><path fill-rule="evenodd" clip-rule="evenodd" d="M357.698 296.662a23.742 23.742 0 0113.58-4.274l19.783-.005-.009.008h8.2v8.456l12.95-8.456h13.637l-.009-.008 10.342.003a23.762 23.762 0 0118.611 9.012l11.505 14.552-12.901 9.708-9.577-11.564-8.559 48.35h-59.03l-9.315-52.609-16.7 12.07-10.062-12.991 17.554-12.252z" fill="#242424"/><path fill-rule="evenodd" clip-rule="evenodd" d="M435.251 362.444l24.979-28.523-6.843-8.263 12.901-9.708 9.615 12.161a9.945 9.945 0 01-.872 13.311l-28.206 27.387-10.886 9.546-.688-.547-9.421-7.505 1.502-7.859h7.919zM289.043 279.848l4.556.805 6.707 1.185 2.278.404v5.891l31.115 25.286 6.445-4.505 10.062 12.99-10.76 7.771a9.95 9.95 0 01-12.668-.84l-34.323-32.512-3.635-2.999-4.323-3.569-1.967-1.622 6.513-8.285zM404.486 259.313s.969 3.982 4.1 6.232a4.444 4.444 0 012.404-.709c.426 0 .833.078 1.221.19 1.89.536 3.276 2.25 3.276 4.306 0 2.055-1.386 3.769-3.276 4.305v18.746l-.01.008-12.949 8.456v-20.21l-5.322 1.395c-2.82.651-5.515-1.49-5.515-4.384V266.98s9.712.014 16.071-7.667z" fill="#F5C5B6"/><path fill-rule="evenodd" clip-rule="evenodd" d="M328.503 536.274l15.771-7.38h17.03v12.197h-31.725a2.53 2.53 0 01-1.076-4.817zM409.643 536.274l15.77-7.38h17.031v12.197h-31.725a2.53 2.53 0 01-2.53-2.527 2.54 2.54 0 011.454-2.29zM403.711 250.856c3.082 0 6.184.911 8.791 2.608.427-.586.892-1.128 1.28-1.567 2.074-2.351 5.147-4.011 8.268-3.723 4.439.411 7.822 4.47 12.232 5.109 4.139.602 8.026-1.925 12.116-2.797 4.343-.925 9.218.209 12.281 3.421 3.063 3.211 3.887 8.546 1.435 12.247-3.17 4.796-10.313 5.309-15.586 3-5.264-2.308-9.286-6.677-13.706-10.358-2.869-2.384-6.146-4.587-9.868-4.841-2.326-.159-4.216.558-6.077 1.427 2.52 2.51 4.178 5.999 4.178 10.358 0 9.456-6.844 14.108-6.844 14.108v-6.211c1.89-.536 3.277-2.25 3.277-4.305 0-2.056-1.387-3.77-3.277-4.306a4.378 4.378 0 00-1.221-.19c-.892 0-1.706.265-2.404.709-3.131-2.251-4.1-6.233-4.1-6.233-6.358 7.682-16.071 7.668-16.071 7.668-3.005-12.869 7.696-16.124 15.296-16.124z" fill="#352C47"/><rect x=".11" y="366.713" width="178.142" height="174.378" rx="10" fill="#EFF2FF"/><defs><linearGradient id="paint0_linear" x1="-17.639" y1="292.18" x2="209.423" y2="79.977" gradientUnits="userSpaceOnUse"><stop stop-color="#FFB36D"/><stop offset="1" stop-color="#F88"/></linearGradient><linearGradient id="paint1_linear" x1="229.406" y1="116.955" x2="297.801" y2="35.317" gradientUnits="userSpaceOnUse"><stop stop-color="#FFB36D"/><stop offset="1" stop-color="#F88"/></linearGradient></defs></svg>