<svg width="192" height="192" fill="none" xmlns="http://www.w3.org/2000/svg"><path d="M192 96c0 53.019-42.981 96-96 96-53.02 0-96-42.981-96-96C0 42.98 42.98 0 96 0c53.019 0 96 42.98 96 96z" fill="#242C3D"/><path d="M34.213 86.71l10.983 29.235c3.123.537 5.046 1.269 5.046 2.077v.01c.08.354.074.742-.019 1.164l.02.001-.062.172a5.292 5.292 0 01-.393 1c-2.91 6.872-9.346 11.72-17.266 11.72-7.804 0-14.466-4.707-17.474-11.418a6.053 6.053 0 01-.542-1.34l-.048-.134.016-.001a2.748 2.748 0 01-.044-1.034l.028-.14.003-.058c.092-.815 2.148-1.551 5.411-2.081l10.96-29.173c.527-1.415 2.85-1.415 3.38 0zm57.936-.003l10.981 29.227c2.978.507 4.879 1.191 5.088 1.948l-.02-.039.045.095c.152.362.168.78.049 1.255h.001a4.122 4.122 0 01-.294.781c-2.836 7.082-9.47 12.112-17.54 12.112-7.983 0-14.772-4.926-17.676-11.883a4.39 4.39 0 01-.38-.975l-.007-.031-.002-.004-.013-.079c-.042-.277-.024-.624.053-1.04l.023-.116.003-.02.008-.037c.188-.785 2.194-1.492 5.336-2.007l10.964-29.188c.527-1.415 2.85-1.415 3.381 0zM72.47 117.9l-.009.037h.001l.008-.037zm-39.947-25.41l-8.602 22.898a96.265 96.265 0 018.43-.351h.344c3.065.01 5.942.148 8.444.384l-8.616-22.931zm57.937 0l-8.606 22.904a95.865 95.865 0 018.492-.357h.344c3.04.01 5.895.146 8.383.378l-8.614-22.925zM61.743 52.8s4.285 13.418 4.285 15.794c0 1.637-.947 3.02-2.294 3.745 1.11.36 2.085.99 2.847 1.836 1.702-1.48 4.209-2.856 7.807-2.856 4.115 0 7.652 1.797 10.774 3.382.993.505 1.958.987 2.85 1.365a3.612 3.612 0 012.634-1.154 3.656 3.656 0 013.649 3.665 3.656 3.656 0 01-3.65 3.665c-1.636 0-2.969-1.1-3.431-2.591-1.196-.457-2.42-1.074-3.682-1.713-2.76-1.4-5.892-2.99-9.144-2.99-3.125 0-5.076 1.455-6.189 2.685.044.312.094.62.094.944 0 3.632-2.933 6.578-6.55 6.578-3.616 0-6.55-2.946-6.55-6.578 0-.323.05-.635.094-.947-1.116-1.234-3.067-2.682-6.189-2.682-3.251 0-6.383 1.593-9.147 2.994-1.258.638-2.482 1.255-3.678 1.712-.463 1.492-1.796 2.591-3.432 2.591-2.016 0-3.65-1.644-3.65-3.668a3.656 3.656 0 013.65-3.665c1.04 0 1.969.453 2.633 1.154.893-.374 1.854-.857 2.847-1.365 3.122-1.585 6.662-3.382 10.777-3.382 3.599 0 6.106 1.376 7.808 2.856a6.491 6.491 0 012.847-1.836c-1.348-.726-2.294-2.105-2.294-3.745 0-2.376 4.284-15.795 4.284-15.795z" fill="url(#paint0_linear)"/><path d="M108.883 44.314s-4.79.411-7.963 2.122c0 0 12.62-.068 18.494 4.857 0 0-14.284-4.38-30.932 6.498 0 0 26.478-5.063 39.031 5.679 0 0-4.051-7.483-12.57-9.094 0 0 9.693-.386 13.013 1.225 0 0-2.867-6.165-6.118-7.635v-4.395c0-.89-4.854-5.415-12.955-6.179v6.922z" fill="url(#paint1_linear)"/><path d="M106.726 63.968s2.043 1.779 2.908 3.422c0 0-1.868 1.842-3.652 2.749 0 0 5.406 1.7 6.829 3.71-2.882-.905-7.804-.566-8.989 1.877 3.29-.354 5.305.494 5.729 1.752 0 0-.782 1.126-3.178 1.626-2.551.532-3.203 1.591-3.203 3.07 0 1.478 1.937 2.83 5.456 2.72 3.514-.112 13.098-1.559 13.822-19.657-.724-1.702-9.479-5.176-15.744-5.138l.022 3.87zM123.636 83.993c4.302-6.682 6.656-12.505 7.062-17.468 6.369 7.065 5.986 15.336 4.904 21.666-.73-2.037-1.672-4.132-2.825-6.286.762 9.76-2.133 15.044-8.684 15.853-.766-4.509-.919-9.097-.457-13.765zM48.724 28.181c-1.195 1.836-2.948 6.94-5.257 15.311-5.513 6.297-10.898 15.084-16.155 26.363-2.548.86-5.252 2.047-8.113 3.563 7.482-14.084 14.792-24.618 21.93-31.6 1.559-5.17 4.09-9.715 7.595-13.637zM62.936 42.61l-17.442 8.213c4.97.084 8.917-.818 11.841-2.706 2.924-1.887 4.791-3.723 5.6-5.508zM56.5 39.616c-.099-3.59-.567-5.607-1.405-6.053-.931-.415-1.472-1.31-.931-2.942.334-1.038.233-2.193-.302-3.466L58.593 24l5.325 3.35c.187 1.182-.2 2.273-1.16 3.271 1.16 1.254 1.16 2.872-.185 4.74.038.463.064.917.078 1.362.023.674-.003 1.639-.078 2.893H56.5z" fill="#fff"/><path d="M118.75 90.905c-.749 13.772 2.155 21.598 8.712 23.479 9.835 2.821 27.321 3.196 26.202 24.559a361.12 361.12 0 012.437 8.064 78.35 78.35 0 01-9.35 8.509c-3.27-7.98-8.236-12.998-13.982-16.573-22.644-14.242-27.317-30.255-14.019-48.038zM55.066 138.417c13.217 33.119 34.374 11.898 50.718 19.656 7.473 3.548 11.55 10.059 12.23 19.536a87.574 87.574 0 01-19.833 2.262c-13.227 0-25.768-2.939-37.006-8.201-.042-9.97-2.079-21.054-6.11-33.253zM80.139 48.863c3.428-.945 6.23-3.08 8.406-6.405-.138 1.98-.635 3.683-1.49 5.111 9.91-1.779 17.6-7.772 23.071-17.979-10.089-5.475-20.489-1.74-26.063 5.072-3.716 4.541-5.025 9.275-3.924 14.201z" fill="#fff"/><defs><linearGradient id="paint0_linear" x1="152.531" y1="12.577" x2="20.606" y2="128.828" gradientUnits="userSpaceOnUse"><stop stop-color="#FFAD61"/><stop offset="1" stop-color="#FF7676"/></linearGradient><linearGradient id="paint1_linear" x1="146.506" y1="24.163" x2="103.073" y2="73.045" gradientUnits="userSpaceOnUse"><stop stop-color="#FFAD61"/><stop offset="1" stop-color="#FF7676"/></linearGradient></defs></svg>