<svg width="24" height="24" fill="none" xmlns="http://www.w3.org/2000/svg"><g fill-rule="evenodd" clip-rule="evenodd"><path d="M12 24c6.627 0 12-5.373 12-12S18.627 0 12 0 0 5.373 0 12s5.373 12 12 12z" fill="url(#paint0_linear)"/><path d="M4.137 16.761S4.1 12.758 7.864 12.32a922.81 922.81 0 011.148 2.828l1.155-2.828s3.698.383 3.698 4.535c-3.743-.023-9.479 0-9.479 0l-.25-.093zm4.875-5.099a2.024 2.024 0 100-4.049 2.024 2.024 0 000 4.049z" fill="#fff"/><path opacity=".668" d="M9.682 14.793s-.036-4.004 3.727-4.442a990.21 990.21 0 011.149 2.828l1.155-2.828s3.697.382 3.697 4.534c-3.742-.022-9.478 0-9.478 0l-.25-.092z" fill="url(#paint1_linear)"/><path opacity=".668" d="M14.558 9.693a2.024 2.024 0 100-4.048 2.024 2.024 0 000 4.048z" fill="#fff"/></g><defs><linearGradient id="paint0_linear" x1="7.442" y1="33.717" x2="30.981" y2="15.121" gradientUnits="userSpaceOnUse"><stop stop-color="#FFB36D"/><stop offset="1" stop-color="#F88"/></linearGradient><linearGradient id="paint1_linear" x1="16.843" y1="18.697" x2="18.691" y2="10.78" gradientUnits="userSpaceOnUse"><stop stop-color="#fff" stop-opacity=".01"/><stop offset="1" stop-color="#fff"/></linearGradient></defs></svg>