<svg width="24" height="24" fill="none" xmlns="http://www.w3.org/2000/svg"><path fill-rule="evenodd" clip-rule="evenodd" d="M12 24c6.627 0 12-5.373 12-12S18.627 0 12 0 0 5.373 0 12s5.373 12 12 12z" fill="url(#paint0_linear)"/><path opacity=".691" d="M8.778 10.44a1.659 1.659 0 10-2.347 2.345 1.659 1.659 0 002.347-2.345z" fill="#fff"/><path opacity=".668" fill-rule="evenodd" clip-rule="evenodd" d="M7.672 13.788h-.176c-1.853.005-3.355 1.524-3.36 3.4v.24c0 .131.106.238.236.238h6.423c.13 0 .236-.107.236-.239v-.24c-.006-1.874-1.506-3.393-3.359-3.399z" fill="url(#paint1_linear)"/><path d="M11.126 5.637a6.462 6.462 0 013.813-1.171 6.462 6.462 0 013.813 1.17c1.012.747 1.638 1.784 1.638 2.94 0 1.157-.624 2.196-1.638 2.943a6.461 6.461 0 01-3.813 1.17c-.485 0-.968-.048-1.443-.146a6.47 6.47 0 01-1.17-.355l-1.99 1.23a.342.342 0 01-.491-.44l.865-1.8a4.028 4.028 0 01-.849-1.098 3.25 3.25 0 01-.373-1.501c0-1.157.625-2.196 1.638-2.942zm3.888 4.875a.456.456 0 00-.454.458c0 .254.203.459.454.459a.456.456 0 00.455-.459.456.456 0 00-.455-.458zm0-4.797a.697.697 0 00-.515.228.71.71 0 00-.182.537l.282 2.929v.012a.419.419 0 00.415.374.419.419 0 00.416-.386l.282-2.93.001-.017a.71.71 0 00-.183-.52.697.697 0 00-.516-.227z" fill="#fff"/><defs><linearGradient id="paint0_linear" x1="7.442" y1="33.717" x2="30.981" y2="15.121" gradientUnits="userSpaceOnUse"><stop stop-color="#FFB36D"/><stop offset="1" stop-color="#F88"/></linearGradient><linearGradient id="paint1_linear" x1="16.651" y1="17.944" x2="14.481" y2="12.467" gradientUnits="userSpaceOnUse"><stop stop-color="#fff" stop-opacity=".01"/><stop offset="1" stop-color="#fff"/></linearGradient></defs></svg>