<svg width="24" height="24" fill="none" xmlns="http://www.w3.org/2000/svg"><circle cx="12" cy="12" r="12" fill="url(#paint0_linear)"/><g clip-path="url(#clip0)" fill-rule="evenodd" clip-rule="evenodd"><path d="M14.2 13.198l.002-.001-.002.001zm.004-.002a.058.058 0 00.004-.003l-.004.003z" fill="#2B2C2A"/><path d="M16.322 12l-2.112 1.193a.344.344 0 01-.007.004c-.002 0-.003.002-.005.003h-.001L12.1 14.386c-2.6-1.47-1.731-.98-4.222-2.386L12.1 9.614c2.608 1.475 1.613.913 4.222 2.386zM5.766 8.42v7.158c4.884 2.758 1.469.83 6.333 3.578l6.334-3.579V8.421l-6.334-3.578L5.766 8.42z" fill="#2B2C2A"/><path d="M12.1 19.157l6.333-3.579v-2.385c-.781.44-5.553 3.137-6.333 3.578l-4.223-2.385V12l4.222-2.386L16.322 12V9.614l-4.223-2.386-6.334 3.579v4.771l6.334 3.579z" fill="url(#paint1_linear)"/><path opacity=".2" d="M12.1 19.157l6.333-3.579v-2.385c-.781.44-5.553 3.137-6.333 3.578l-4.223-2.385V12l4.222-2.386L16.322 12V9.614l-4.223-2.386-6.334 3.579v4.771l6.334 3.579z" fill="#fff"/><path d="M12.099 7.228c.61.346 3.61 2.04 4.223 2.386V12l-4.223 2.386L7.877 12v2.386L12.1 16.77l6.333-3.578V8.42l-6.334-3.578L5.766 8.42v2.386l6.333-3.579z" fill="url(#paint2_linear)"/><path opacity=".5" d="M12.099 7.228c.61.346 3.61 2.04 4.223 2.386V12l-4.223 2.386L7.877 12v2.386L12.1 16.77l6.333-3.578V8.42l-6.334-3.578L5.766 8.42v2.386l6.333-3.579z" fill="#fff"/></g><defs><linearGradient id="paint0_linear" x1="37.125" y1="-10.8" x2="-.95" y2="18.042" gradientUnits="userSpaceOnUse"><stop stop-color="#FFB36D"/><stop offset="1" stop-color="#F88"/></linearGradient><linearGradient id="paint1_linear" x1="17.226" y1="9.512" x2="7.564" y2="18.754" gradientUnits="userSpaceOnUse"><stop stop-color="#FF8989"/><stop offset="1" stop-color="#FFB170"/></linearGradient><linearGradient id="paint2_linear" x1="17.226" y1="7.127" x2="7.564" y2="16.368" gradientUnits="userSpaceOnUse"><stop stop-color="#FF8989"/><stop offset="1" stop-color="#FFB170"/></linearGradient><clipPath id="clip0"><path fill="#fff" d="M5.348 4.433h13.373v15.133H5.348z"/></clipPath></defs></svg>