<svg width="24" height="24" fill="none" xmlns="http://www.w3.org/2000/svg"><g fill-rule="evenodd" clip-rule="evenodd"><path d="M12 24c6.627 0 12-5.373 12-12S18.627 0 12 0 0 5.373 0 12s5.373 12 12 12z" fill="url(#paint0_linear)"/><path opacity=".668" d="M12.511 15.725c0-.308.255-.558.57-.558h4.302c.314 0 .57.25.57.558a.546.546 0 01-.07.268h.817v1.156h-6.937v-1.156h.818a.547.547 0 01-.07-.268z" fill="url(#paint1_linear)"/><path opacity=".668" d="M12.585 5.514l-3.231 2.84a.624.624 0 01-.832-.092l-.216-.243a.618.618 0 01.056-.875l3.142-2.76a.624.624 0 01.879.054l.215.243a.618.618 0 01-.013.833z" fill="url(#paint2_linear)"/><path d="M4.25 15.792l-.006-.054-.004-.052c-.003-.036-.003-.068-.004-.1a1.56 1.56 0 01.03-.349c.041-.207.121-.372.23-.503.027-.033.057-.063.086-.093l.089-.09c.059-.062.119-.12.179-.18a12.534 12.534 0 01.363-.353 30.1 30.1 0 01.37-.344l.188-.17.189-.168a39.602 39.602 0 01.766-.66l.388-.325.392-.32.395-.317.397-.314.4-.311.403-.308.406-.305c.136-.1.271-.202.408-.302l.169.191.63-.428-.95-1.075 3.233-2.85 2.336 2.646-3.234 2.849-.95-1.076-.503.57.168.192-.35.367c-.117.122-.235.243-.354.364l-.356.36-.359.358-.36.355-.365.352-.367.348-.37.345a32.682 32.682 0 01-.752.677l-.19.166-.193.164a27.713 27.713 0 01-.784.64 7.153 7.153 0 01-.2.155l-.102.077c-.033.025-.067.051-.103.074-.144.092-.317.15-.528.166-.106.007-.22.005-.35-.015a1.269 1.269 0 01-.099-.016l-.051-.01-.054-.013a1.928 1.928 0 01-.233-.074 1.918 1.918 0 01-.044-.24z" fill="#fff"/><path opacity=".668" d="M16.747 10.343l-3.142 2.76a.624.624 0 01-.879-.054l-.215-.243a.618.618 0 01.013-.833l3.231-2.84a.624.624 0 01.832.092l.215.243a.618.618 0 01-.055.875z" fill="url(#paint3_linear)"/></g><defs><linearGradient id="paint0_linear" x1="7.442" y1="33.717" x2="30.981" y2="15.121" gradientUnits="userSpaceOnUse"><stop stop-color="#FFB36D"/><stop offset="1" stop-color="#F88"/></linearGradient><linearGradient id="paint1_linear" x1="5.585" y1="16.086" x2="7.48" y2="12.153" gradientUnits="userSpaceOnUse"><stop stop-color="#fff" stop-opacity=".01"/><stop offset="1" stop-color="#fff"/></linearGradient><linearGradient id="paint2_linear" x1=".588" y1="9.161" x2="4.652" y2="1.038" gradientUnits="userSpaceOnUse"><stop stop-color="#fff" stop-opacity=".01"/><stop offset="1" stop-color="#fff"/></linearGradient><linearGradient id="paint3_linear" x1="4.792" y1="13.948" x2="8.857" y2="5.825" gradientUnits="userSpaceOnUse"><stop stop-color="#fff" stop-opacity=".01"/><stop offset="1" stop-color="#fff"/></linearGradient></defs></svg>