<svg width="25" height="24" fill="none" xmlns="http://www.w3.org/2000/svg"><circle cx="12.494" cy="12" r="12" fill="url(#paint0_linear)"/><path d="M4.77 10.839l1.374 3.654c.39.067.63.159.63.26v.001c.01.044.01.093-.002.146h.002l-.007.021a.661.661 0 01-.05.125c-.363.86-1.168 1.465-2.158 1.465a2.396 2.396 0 01-2.184-1.427.756.756 0 01-.068-.168l-.006-.016h.002a.343.343 0 01-.005-.13l.003-.017v-.007c.012-.102.27-.194.677-.26l1.37-3.647c.066-.177.356-.177.423 0zm7.243 0l1.372 3.653c.373.063.61.149.636.243l-.002-.005.005.012a.245.245 0 01.007.157.507.507 0 01-.037.098c-.355.885-1.184 1.514-2.193 1.514a2.397 2.397 0 01-2.21-1.486.545.545 0 01-.047-.121V14.9l-.002-.01a.402.402 0 01.006-.13l.003-.015v-.003l.001-.004c.024-.098.275-.187.668-.251l1.37-3.649c.066-.176.356-.176.423 0zm-2.46 3.899l-.001.004v-.004zM4.559 11.56l-1.075 2.863c.314-.028.673-.044 1.054-.044h.043c.383.001.743.018 1.055.048L4.56 11.56zm7.242 0l-1.075 2.863a12.02 12.02 0 011.061-.044h.043c.38.001.737.018 1.048.047l-1.077-2.866zM8.212 6.6s.536 1.676.536 1.974a.533.533 0 01-.287.468c.139.045.26.123.356.23a1.44 1.44 0 01.976-.358c.514 0 .956.225 1.346.423.125.063.245.123.357.17a.451.451 0 01.329-.144c.252 0 .456.205.456.458a.457.457 0 01-.456.458.45.45 0 01-.43-.323 5.01 5.01 0 01-.46-.215c-.344-.175-.736-.373-1.142-.373a1.01 1.01 0 00-.774.335c.006.04.012.078.012.118a.82.82 0 01-.819.823.82.82 0 01-.819-.823c0-.04.007-.08.012-.118a1.008 1.008 0 00-.774-.335c-.406 0-.798.199-1.143.374a4.95 4.95 0 01-.46.214.45.45 0 01-.429.324.457.457 0 010-.917c.13 0 .246.057.33.144.111-.046.231-.107.355-.17.39-.198.833-.423 1.347-.423.45 0 .764.172.976.357a.811.811 0 01.356-.23.532.532 0 01-.287-.467c0-.298.536-1.975.536-1.975zm5.892-1.06s-.598.05-.995.264c0 0 1.578-.008 2.312.607 0 0-1.786-.547-3.867.813 0 0 3.31-.633 4.88.71 0 0-.507-.936-1.572-1.137 0 0 1.211-.048 1.626.153 0 0-.358-.77-.764-.954v-.55c0-.111-.607-.677-1.62-.772v.865z" fill="#fff"/><path d="M13.835 7.996s.255.222.363.428c0 0-.233.23-.456.343 0 0 .676.213.853.464-.36-.113-.975-.07-1.123.235.411-.045.663.061.716.219 0 0-.098.14-.397.203-.32.066-.4.199-.4.384 0 .184.242.353.681.34.44-.014 1.638-.195 1.728-2.457-.09-.213-1.185-.648-1.968-.643l.003.484zm2.113 2.503c.538-.835.832-1.563.883-2.184.796.883.748 1.917.613 2.709a5.853 5.853 0 00-.353-.786c.095 1.22-.266 1.88-1.085 1.982a6.44 6.44 0 01-.058-1.721zM6.585 3.522c-.15.23-.369.868-.658 1.914-.689.787-1.362 1.886-2.019 3.296a6.878 6.878 0 00-1.014.445c.935-1.76 1.849-3.077 2.741-3.95a4.453 4.453 0 01.95-1.705zm1.776 1.804l-2.18 1.027c.621.01 1.114-.102 1.48-.338.365-.236.599-.466.7-.689zm-.804-.374c-.013-.449-.071-.7-.176-.757-.116-.051-.184-.163-.116-.367a.614.614 0 00-.038-.434L7.818 3l.666.419a.465.465 0 01-.145.409c.145.156.145.359-.023.592.004.058.008.115.01.17.002.085-.001.205-.01.362h-.76z" fill="#fff" fill-opacity=".6"/><path d="M15.338 11.363c-.094 1.722.27 2.7 1.089 2.935 1.23.353 3.415.4 3.275 3.07.111.354.213.69.305 1.008-.36.386-.752.741-1.17 1.064a4.235 4.235 0 00-1.747-2.072c-2.83-1.78-3.415-3.782-1.752-6.005zm-7.961 5.939c1.652 4.14 4.297 1.488 6.34 2.457.934.444 1.444 1.258 1.529 2.442-.797.185-1.627.283-2.48.283a10.88 10.88 0 01-4.625-1.025c-.005-1.246-.26-2.632-.764-4.157zm3.134-11.194c.429-.118.78-.385 1.051-.8-.017.247-.08.46-.186.638 1.239-.222 2.2-.971 2.884-2.247-1.261-.685-2.561-.218-3.258.634-.465.567-.628 1.159-.49 1.775z" fill="#fff" fill-opacity=".6"/><defs><linearGradient id="paint0_linear" x1="37.619" y1="-10.8" x2="-.457" y2="18.042" gradientUnits="userSpaceOnUse"><stop stop-color="#FFB36D"/><stop offset="1" stop-color="#F88"/></linearGradient></defs></svg>