<svg width="24" height="24" fill="none" xmlns="http://www.w3.org/2000/svg"><path fill-rule="evenodd" clip-rule="evenodd" d="M12 24c6.627 0 12-5.373 12-12S18.627 0 12 0 0 5.373 0 12s5.373 12 12 12z" fill="url(#paint0_linear)"/><path d="M10.147 15.243c0 .38.311.691.691.691h3.585l-.46 2.194a.773.773 0 00.21.711l.55.55 3.414-3.413a1.03 1.03 0 00.305-.733v-4.491c0-.574-.463-1.037-1.037-1.037h-4.666c-.428 0-.797.26-.954.632l-1.565 3.657a1.038 1.038 0 00-.073.376v.864z" fill="#fff" fill-opacity=".6"/><path d="M13.465 8.886a.693.693 0 00-.691-.691H9.189l.46-2.194a.773.773 0 00-.21-.71l-.55-.551-3.414 3.414a1.032 1.032 0 00-.304.732v4.491c0 .574.462 1.037 1.036 1.037h4.666c.428 0 .797-.259.954-.632l1.565-3.655c.045-.118.073-.242.073-.377v-.864z" fill="#fff"/><defs><linearGradient id="paint0_linear" x1="7.442" y1="33.717" x2="30.981" y2="15.121" gradientUnits="userSpaceOnUse"><stop stop-color="#FFB36D"/><stop offset="1" stop-color="#F88"/></linearGradient></defs></svg>