<svg width="153" height="129" fill="none" xmlns="http://www.w3.org/2000/svg"><path opacity=".6" fill-rule="evenodd" clip-rule="evenodd" d="M147.243 64.088c0 34.865-28.355 63.126-63.332 63.126-34.978 0-63.333-28.261-63.333-63.126C20.578 29.225 48.933.963 83.911.963c34.977 0 63.332 28.262 63.332 63.125z" fill="#F1F6F8"/><mask id="a" maskUnits="userSpaceOnUse" x="34" y="15" width="106" height="113"><path fill-rule="evenodd" clip-rule="evenodd" d="M139.158 38.584c0 48.911-6.85 88.551-55.462 88.551S32.36 42.245 36.02 38.584c3.661-3.661-.936-22.867 47.676-22.867s55.462 22.867 55.462 22.867z" fill="#DDE4E9"/></mask><g mask="url(#a)"><path d="M113.496 90.958H65.969c-6.954 0-11.76 5.804-11.76 12.761l14.331 24.957-15.162 18.734a12.57 12.57 0 004.686 9.796V222.2h2.8l5.178-62.197h47.383l5.178 62.197h2.8v-64.994a12.562 12.562 0 004.685-9.796v-43.859c0-6.954-5.636-12.593-12.592-12.593z" fill="#B6D5E1"/><path d="M122 82.59a16.73 16.73 0 00-16.41-13.474h-9.714c0 3.143-5.355 5.692-11.96 5.692s-11.959-2.549-11.961-5.692H60.147A16.734 16.734 0 0044.46 80.033l-5.163 13.93 14.392 9.799 3.727 24.912h53.001l3.269-21.854 12.783-1.716L122 82.59z" fill="#FF6361"/><path d="M89.709 69.118l.027-.007v-16.83c1.691-.481 2.938-2.02 2.938-3.865 0-1.847-1.247-3.384-2.938-3.866-.35-.1-.715-.17-1.101-.17-.798 0-1.535.238-2.16.636-2.812-2.019-3.682-5.594-3.682-5.594-11.738 0-14.425 6.884-14.425 6.884v9.578a4.04 4.04 0 004.95 3.935l4.784-1.251V69.12H71.96c0 3.143 5.355 5.692 11.96 5.692s11.959-2.549 11.961-5.692H89.71v-.002z" fill="#F5C5B6"/><path d="M91.134 34.997a7.1 7.1 0 10-10.52-6.219c0 1.1.255 2.135.702 3.063-6.746.219-15.543 3.344-12.947 14.462 0 0 2.687-6.883 14.424-6.883 0 0 .87 3.574 3.683 5.594a3.997 3.997 0 012.16-.637c.383 0 .747.07 1.1.17 1.692.482 2.938 2.02 2.938 3.866s-1.246 3.384-2.937 3.866v5.576s6.14-4.177 6.14-12.668c0-4.458-1.93-7.91-4.743-10.19z" fill="#2C2C4E"/><path d="M104.637 87.782l-1.088.236 4.261 19.642 1.088-.236-4.261-19.642zM51.954 88.44l-1.099.183 2.578 15.427 1.099-.184-2.578-15.426zM79.762 44.796a3.82 3.82 0 00-3.75 3.124h-2.114a3.823 3.823 0 00-3.75-3.124 3.824 3.824 0 00-3.823 3.818 3.824 3.824 0 003.823 3.817 3.82 3.82 0 003.75-3.124h2.113a3.823 3.823 0 003.75 3.124 3.824 3.824 0 003.823-3.817 3.826 3.826 0 00-3.822-3.818zm-9.614 6.25a2.436 2.436 0 01-2.435-2.432 2.434 2.434 0 014.87 0 2.438 2.438 0 01-2.435 2.431zm9.614 0a2.436 2.436 0 01-2.435-2.432 2.434 2.434 0 014.87 0c0 1.339-1.091 2.431-2.435 2.431z" fill="#203254"/><path d="M128.315 112.671l-1.849-7.568-42.555 5.711-4.713-2.766-9.171 3.787v10.301h50.855c4.962.002 8.612-4.646 7.433-9.465z" fill="#F5C5B6"/></g><path d="M39.3 100.522l-5.18 13.977-22.552 4.548-5.848-4.435-5.549 5.549v8.537H38.97c4.48 0 8.524-2.689 10.257-6.821l4.761-11.351L39.3 100.522z" fill="#F5C5B6"/><path d="M117.642 118.167h34.528v9.836h-34.528a4.918 4.918 0 110-9.836z" fill="#FF6361"/><path d="M117.644 124.662a1.58 1.58 0 01-1.578-1.578 1.58 1.58 0 011.578-1.578h34.528v3.156h-34.528z" fill="#EBEBE2"/><path d="M118.28 103.58h26.595a7.293 7.293 0 110 14.585H118.28V103.58z" fill="url(#paint0_linear)"/><path d="M118.28 114.826v-7.905h26.595a3.956 3.956 0 013.951 3.951 3.955 3.955 0 01-3.951 3.951H118.28v.003z" fill="#EBEBE2"/><path fill-rule="evenodd" clip-rule="evenodd" d="M73.054 122.105L62.981 82.347H.17l11.716 46.233h85.98v-6.475H73.055z" fill="url(#paint1_linear)"/><defs><linearGradient id="paint0_linear" x1="126.375" y1="101.465" x2="139.019" y2="123.423" gradientUnits="userSpaceOnUse"><stop stop-color="#FFD3AA"/><stop offset="1" stop-color="#FF9696"/></linearGradient><linearGradient id="paint1_linear" x1="-7.382" y1="124.627" x2="33.714" y2="56.024" gradientUnits="userSpaceOnUse"><stop stop-color="#FFB36D"/><stop offset="1" stop-color="#F88"/></linearGradient></defs></svg>