<svg width="16" height="16" viewBox="0 0 16 16" fill="none" xmlns="http://www.w3.org/2000/svg">
<path d="M8.51662 11.6206C11.0728 11.6206 13.1451 9.54587 13.1451 6.98657C13.1451 4.42727 11.0728 2.35254 8.51662 2.35254C5.9604 2.35254 3.88818 4.42727 3.88818 6.98657C3.88818 9.54587 5.9604 11.6206 8.51662 11.6206Z" fill="url(#paint0_linear)"/>
<path d="M11.8139 5.72252C12.1455 6.17234 12.273 6.57836 12.273 7.13C12.273 7.79936 11.9973 8.41762 11.5278 8.91812L11.8134 9.98621H12.6811L13.5946 8.94906L13.8394 7.4316L13.8906 6.52722L12.9873 5.50555C12.1846 5.40846 11.7933 5.48106 11.8139 5.72252Z" fill="url(#paint1_linear)"/>
<mask id="mask0" mask-type="alpha" maskUnits="userSpaceOnUse" x="1" y="4" width="13" height="12">
<path d="M1.71459 10.1088L1.87265 10.7374C1.87265 10.7374 3.74061 14.5744 7.94552 15.9999C7.94552 15.9999 11.7712 14.3648 13.4703 11.5906L11.1248 9.54168C11.1248 9.54168 10.002 10.4358 8.33336 10.4358C6.66471 10.4358 4.39905 9.43944 4.39905 7.38536C4.39905 5.33129 6.74632 4.58029 6.74632 4.58029L5.746 4.33496H3.18909L1.56641 8.24892L1.71459 10.1088Z" fill="white"/>
</mask>
<g mask="url(#mask0)">
<path d="M8.18582 14.9827C11.8478 14.9827 14.8164 12.0141 14.8164 8.35221C14.8164 4.69027 11.8478 1.72168 8.18582 1.72168C4.52389 1.72168 1.5553 4.69027 1.5553 8.35221C1.5553 12.0141 4.52389 14.9827 8.18582 14.9827Z" fill="url(#paint2_linear)"/>
</g>
<mask id="mask1" mask-type="alpha" maskUnits="userSpaceOnUse" x="0" y="0" width="16" height="12">
<path d="M15.8453 5.79537C15.774 5.72407 15.1315 2.41632 9.45159 0.459338C9.27206 0.336461 3.27736 -0.630211 4.19265 0.676303C-1.08305 2.0232 0.117431 5.61838 0.117431 5.79537C0.117431 5.97238 0.872515 8.63226 1.36259 9.71534C1.40339 9.8073 2.05668 10.9621 2.5416 11.5907C2.25597 10.9621 1.94458 10.4157 1.94458 9.47561C1.94458 6.82393 3.99592 4.66759 6.56269 4.57567C6.6241 4.57567 6.69026 4.57567 6.75168 4.58081L6.1392 3.96772C6.1392 3.96772 8.60415 3.554 11.768 5.46973C11.768 5.46973 11.8139 5.56682 11.768 5.85294C11.768 5.85294 13.2579 6.49654 13.3855 7.74851C13.513 9.00044 12.7219 9.7158 12.0841 9.81761C12.0841 9.81761 12.4157 9.30162 11.9054 9.02578C11.798 8.96437 11.6705 8.939 11.5429 8.94417C10.5683 8.94417 10.4558 10.0582 10.4558 10.0582C10.4455 10.1145 10.4455 10.1708 10.4455 10.2266C10.4455 10.2266 10.2823 11.8567 13.1806 11.8257C13.1806 11.8257 14.6504 10.16 15.0382 8.66319C15.1813 8.11152 15.2831 7.69737 15.3496 7.39103C15.5129 6.95668 15.6714 6.31695 15.8243 5.8521L15.8453 5.79537Z" fill="white"/>
</mask>
<g mask="url(#mask1)">
<path d="M8.07123 15.0778C11.6712 15.0778 14.5895 12.0736 14.5895 8.36774C14.5895 4.66189 11.6712 1.65771 8.07123 1.65771C4.47126 1.65771 1.55292 4.66189 1.55292 8.36774C1.55292 12.0736 4.47126 15.0778 8.07123 15.0778Z" fill="black"/>
</g>
<path d="M10.5073 5.96512C10.5481 5.9445 10.6809 5.87834 10.8338 5.71982C11.14 5.76062 11.4411 5.85771 11.4411 5.85771C10.8849 5.52046 10.1246 5.3211 9.28235 5.32627C9.28235 5.32627 9.60406 5.78599 10.497 5.97501C10.497 5.97543 10.5022 5.97029 10.5073 5.96512Z" fill="black"/>
<path d="M8.06002 14.7982C11.7096 14.7982 14.6681 11.8396 14.6681 8.19009C14.6681 4.54056 11.7096 1.58203 8.06002 1.58203C4.41049 1.58203 1.45197 4.54056 1.45197 8.19009C1.45197 11.8396 4.41049 14.7982 8.06002 14.7982Z" stroke="url(#paint3_linear)"/>
<defs>
<linearGradient id="paint0_linear" x1="8.51662" y1="2.35254" x2="8.51662" y2="11.6206" gradientUnits="userSpaceOnUse">
<stop stop-color="#00DBE2"/>
<stop offset="1" stop-color="#02A9D6"/>
</linearGradient>
<linearGradient id="paint1_linear" x1="12.7092" y1="6.47366" x2="13.0533" y2="10.7652" gradientUnits="userSpaceOnUse">
<stop stop-color="#00FFF3"/>
<stop offset="1" stop-color="#01D3E2"/>
</linearGradient>
<linearGradient id="paint2_linear" x1="5.6024" y1="4.80538" x2="8.65426" y2="14.9827" gradientUnits="userSpaceOnUse">
<stop stop-color="#00FFEB"/>
<stop offset="1" stop-color="#02B4E4"/>
</linearGradient>
<linearGradient id="paint3_linear" x1="45.6744" y1="-12.3747" x2="5.54418" y2="25.3224" gradientUnits="userSpaceOnUse">
<stop stop-color="#7C7B7B"/>
<stop offset="1"/>
</linearGradient>
</defs>
</svg>
