<svg width="28" height="32" fill="none" xmlns="http://www.w3.org/2000/svg"><path fill-rule="evenodd" clip-rule="evenodd" d="M18.627 18.352l.005-.003.002-.001a.164.164 0 00-.008.004z" fill="#2B2C2A"/><path clip-rule="evenodd" d="M18.627 18.352l.005-.003s0 0 0 0l.002-.001a.164.164 0 00-.008.004z" stroke="#F8F2E6" stroke-width=".8" stroke-linecap="round" stroke-linejoin="round"/><path fill-rule="evenodd" clip-rule="evenodd" d="M18.635 18.346l.009-.005-.009.005z" fill="#2B2C2A"/><path clip-rule="evenodd" d="M18.635 18.346s0 0 0 0l.009-.005s0 0 0 0l-.009.005zm4.433-2.504l-4.423 2.499s0 0 0 0a.27.27 0 01-.01.005l-.003.003s0 0 0 0c-.003.002-.007.003-.01.006h-.002s0 0 0 0c-.002.002-.002.002 0 0 0 0 0 0 0 0s0 0 0 0l-4.393 2.483c-5.442-3.077-3.625-2.05-8.84-4.996l8.84-4.995 8.84 4.995zM.966 8.35c0 11.965.002 3.982 0 14.986 10.227 5.777 3.077 1.74 13.261 7.493l13.262-7.493c0-11.965-.002-3.982-.001-14.986-10.31-5.823-3.142-1.777-13.26-7.493L.965 8.35z" stroke="#F8F2E6" stroke-width=".8" stroke-linecap="round" stroke-linejoin="round"/><path fill-rule="evenodd" clip-rule="evenodd" d="M14.227 30.828l13.261-7.493V18.34l-13.26 7.492-8.842-4.994v-4.996l8.842-4.995 8.84 4.995v-4.995l-8.842-4.995-13.26 7.493v9.99c10.227 5.776 3.077 1.74 13.261 7.493z" fill="url(#paint0_linear)" fill-opacity=".1"/><path clip-rule="evenodd" d="M14.227 30.828l13.261-7.493V18.34l-13.26 7.492-8.842-4.994v-4.996l8.842-4.995 8.84 4.995v-4.995l-8.842-4.995-13.26 7.493v9.99c10.227 5.776 3.077 1.74 13.261 7.493z" stroke="#FF8A8A" stroke-linejoin="round"/><path fill-rule="evenodd" clip-rule="evenodd" d="M14.226 5.852l8.842 4.995v4.995l-8.841 4.996c-5.432-3.072-3.428-1.939-8.84-4.996v4.996l8.841 4.994 13.26-7.492V8.35c-10.31-5.824-3.142-1.778-13.26-7.494L.965 8.35v4.996l13.26-7.493z" fill="url(#paint1_linear)" fill-opacity=".3"/><path clip-rule="evenodd" d="M14.226 5.852l8.842 4.995v4.995l-8.841 4.996c-5.432-3.072-3.428-1.939-8.84-4.996v4.996l8.841 4.994 13.26-7.492V8.35c-10.31-5.824-3.142-1.778-13.26-7.494L.965 8.35v4.996l13.26-7.493z" stroke="#FF8A8A" stroke-linejoin="round"/><defs><linearGradient id="paint0_linear" x1="24.961" y1="10.635" x2="4.733" y2="29.983" gradientUnits="userSpaceOnUse"><stop stop-color="#FF8989"/><stop offset="1" stop-color="#FFB170"/></linearGradient><linearGradient id="paint1_linear" x1="24.961" y1="5.639" x2="4.733" y2="24.988" gradientUnits="userSpaceOnUse"><stop stop-color="#FF8989"/><stop offset="1" stop-color="#FFB170"/></linearGradient></defs></svg>