<svg width="27" height="30" fill="none" xmlns="http://www.w3.org/2000/svg"><path fill-rule="evenodd" clip-rule="evenodd" d="M17.582 17.497a.192.192 0 00.005-.003h.001l-.006.003zm.008-.005h.002a.31.31 0 01.008-.005l-.01.005z" fill="#2B2C2A"/><path fill-rule="evenodd" clip-rule="evenodd" d="M22.002 15l-4.4 2.487a.366.366 0 01-.01.005l-.003.002h-.001l-.01.006h-.001l-.001.001c-.002.001-.002.001 0 0h.001l-4.372 2.47C7.79 16.909 9.598 17.93 4.41 15l8.797-4.97L22.002 15zM.011 7.545c-.001 11.905.002 3.962 0 14.91 10.175 5.748 3.06 1.732 13.195 7.456L26.4 22.456c0-11.905-.002-3.962 0-14.911C16.141 1.75 23.273 5.776 13.205.089L.01 7.545z" fill="#2B2C2A"/><path fill-rule="evenodd" clip-rule="evenodd" d="M13.206 29.911L26.4 22.456v-4.971L13.207 24.94l-8.798-4.97V15l8.797-4.97c5.407 3.056 3.38 1.911 8.796 4.97v-4.97c-1.272-.72-7.52-4.249-8.797-4.97L.01 12.515c.002 6.109.002 3.855.001 9.94 10.175 5.748 3.06 1.732 13.195 7.456z" fill="url(#paint0_linear)"/><path opacity=".2" fill-rule="evenodd" clip-rule="evenodd" d="M13.206 29.911L26.4 22.456v-4.971L13.207 24.94l-8.798-4.97V15l8.797-4.97c5.407 3.056 3.38 1.911 8.796 4.97v-4.97c-1.272-.72-7.52-4.249-8.797-4.97L.01 12.515c.002 6.109.002 3.855.001 9.94 10.175 5.748 3.06 1.732 13.195 7.456z" fill="#fff"/><path fill-rule="evenodd" clip-rule="evenodd" d="M13.205 5.06l8.798 4.97V15l-8.798 4.97L4.41 15v4.97c1.272.72 7.52 4.249 8.797 4.97l13.195-7.455c-.002-6.109-.001-3.855 0-9.94C16.141 1.75 23.273 5.777 13.205.089L.01 7.544v4.971L13.204 5.06z" fill="url(#paint1_linear)"/><path opacity=".5" fill-rule="evenodd" clip-rule="evenodd" d="M13.205 5.06l8.798 4.97V15l-8.798 4.97L4.41 15v4.97c1.272.72 7.52 4.249 8.797 4.97l13.195-7.455c-.002-6.109-.001-3.855 0-9.94C16.141 1.75 23.273 5.777 13.205.089L.01 7.544v4.971L13.204 5.06z" fill="#fff"/><defs><linearGradient id="paint0_linear" x1="23.886" y1="9.818" x2="3.758" y2="29.071" gradientUnits="userSpaceOnUse"><stop stop-color="#FF8989"/><stop offset="1" stop-color="#FFB170"/></linearGradient><linearGradient id="paint1_linear" x1="23.886" y1="4.848" x2="3.758" y2="24.1" gradientUnits="userSpaceOnUse"><stop stop-color="#FF8989"/><stop offset="1" stop-color="#FFB170"/></linearGradient></defs></svg>