<svg width="15" height="17" fill="none" xmlns="http://www.w3.org/2000/svg"><path fill-rule="evenodd" clip-rule="evenodd" d="M7.69 16.729l6.69-3.933v-2.621l-6.69 3.932-4.46-2.621V8.864l4.46-2.622c2.741 1.612 1.714 1.009 4.46 2.622V6.242l-4.46-2.62L1 7.552v5.243c5.16 3.032 1.552.913 6.69 3.933z" fill="url(#paint0_linear)"/><path clip-rule="evenodd" d="M7.69 16.729l6.69-3.933v-2.621l-6.69 3.932-4.46-2.621V8.864l4.46-2.622c2.741 1.612 1.714 1.009 4.46 2.622V6.242l-4.46-2.62L1 7.552v5.243c5.16 3.032 1.552.913 6.69 3.933z" stroke="#fff" stroke-width=".5" stroke-linecap="round" stroke-linejoin="round"/><path fill-rule="evenodd" clip-rule="evenodd" d="M7.69 3.622l4.46 2.621v2.622l-4.46 2.621-4.46-2.621v2.621l4.46 2.621 6.69-3.932V4.932L7.69 1 1 4.932v2.622l6.69-3.932z" fill="url(#paint1_linear)"/><path clip-rule="evenodd" d="M7.69 3.622l4.46 2.621v2.622l-4.46 2.621-4.46-2.621v2.621l4.46 2.621 6.69-3.932V4.932L7.69 1 1 4.932v2.622l6.69-3.932z" stroke="#fff" stroke-width=".5" stroke-linecap="round" stroke-linejoin="round"/><defs><linearGradient id="paint0_linear" x1="13.105" y1="6.131" x2="2.516" y2="15.867" gradientUnits="userSpaceOnUse"><stop stop-color="#FF8989"/><stop offset="1" stop-color="#FFB170"/></linearGradient><linearGradient id="paint1_linear" x1="13.105" y1="3.51" x2="2.516" y2="13.246" gradientUnits="userSpaceOnUse"><stop stop-color="#FF8989"/><stop offset="1" stop-color="#FFB170"/></linearGradient></defs></svg>