<svg width="15" height="16" viewBox="0 0 15 16" fill="none" xmlns="http://www.w3.org/2000/svg">
<g clip-path="url(#clip0)">
<path fill-rule="evenodd" clip-rule="evenodd" d="M9.35999 9.26728C9.36062 9.2669 9.36132 9.26652 9.36198 9.26614C9.36209 9.26607 9.36216 9.26604 9.36226 9.26597C9.36251 9.26587 9.36272 9.26573 9.36289 9.26562C9.36174 9.26628 9.36079 9.2668 9.35999 9.26728Z" fill="#2B2C2A"/>
<path fill-rule="evenodd" clip-rule="evenodd" d="M9.35999 9.26728C9.36062 9.2669 9.36132 9.26652 9.36198 9.26614C9.36209 9.26607 9.36216 9.26604 9.36226 9.26597C9.36251 9.26587 9.36272 9.26573 9.36289 9.26562C9.36174 9.26628 9.36079 9.2668 9.35999 9.26728Z" stroke="#F8F2E6" stroke-width="0.8" stroke-linecap="round" stroke-linejoin="round"/>
<path fill-rule="evenodd" clip-rule="evenodd" d="M9.36438 9.26502C9.36451 9.26493 9.36464 9.26489 9.36476 9.26481C9.36728 9.26334 9.36864 9.26258 9.36911 9.26229C9.36924 9.26225 9.36928 9.26221 9.36932 9.26221C9.36749 9.26326 9.36579 9.26422 9.36438 9.26502Z" fill="#2B2C2A"/>
<path fill-rule="evenodd" clip-rule="evenodd" d="M9.36438 9.26502C9.36451 9.26493 9.36464 9.26489 9.36476 9.26481C9.36728 9.26334 9.36864 9.26258 9.36911 9.26229C9.36924 9.26225 9.36928 9.26221 9.36932 9.26221C9.36749 9.26326 9.36579 9.26422 9.36438 9.26502Z" stroke="#F8F2E6" stroke-width="0.8" stroke-linecap="round" stroke-linejoin="round"/>
<path fill-rule="evenodd" clip-rule="evenodd" d="M11.6031 8.00023C9.82624 9.00425 9.43979 9.22258 9.36989 9.26211C9.36993 9.26206 9.36984 9.26215 9.36958 9.26224C9.36892 9.26263 9.36715 9.26366 9.36507 9.26483C9.3645 9.26513 9.36384 9.26552 9.36317 9.26587C9.36304 9.26591 9.36295 9.266 9.36282 9.26609C9.36141 9.26691 9.35964 9.2679 9.3576 9.26903C9.35743 9.26911 9.3573 9.2692 9.35721 9.26929C9.35703 9.26937 9.3569 9.26946 9.35677 9.2695C9.35579 9.27006 9.35597 9.26998 9.35677 9.2695C9.35685 9.26946 9.35703 9.26937 9.35721 9.26929C9.35725 9.26924 9.3573 9.2692 9.35734 9.26916C9.29102 9.30665 8.9127 9.5204 7.13854 10.5229C4.39043 8.96918 5.30804 9.48779 2.67446 8.0001C3.52801 7.51785 6.2869 5.95897 7.13907 5.4775C9.89712 7.03681 8.84544 6.44243 11.6031 8.00023ZM0.442137 4.2164C0.441788 10.2583 0.443114 6.22717 0.442407 11.784C5.60643 14.7011 1.99568 12.6625 7.1388 15.5677C7.81772 15.1843 13.0571 12.2238 13.8355 11.784C13.8358 5.74202 13.8345 9.7732 13.8352 4.2164C8.62907 1.27564 12.2487 3.31906 7.1388 0.432617C2.55958 3.01995 4.25845 2.06003 0.442137 4.2164Z" fill="#2B2C2A"/>
<path fill-rule="evenodd" clip-rule="evenodd" d="M11.6031 8.00023C9.82624 9.00425 9.43979 9.22258 9.36989 9.26211C9.36993 9.26206 9.36984 9.26215 9.36958 9.26224C9.36892 9.26263 9.36715 9.26366 9.36507 9.26483C9.3645 9.26513 9.36383 9.26552 9.36317 9.26587C9.36304 9.26591 9.36295 9.266 9.36282 9.26609C9.36141 9.26691 9.35964 9.2679 9.3576 9.26903C9.35743 9.26911 9.3573 9.2692 9.35721 9.26929C9.35703 9.26937 9.3569 9.26946 9.35677 9.2695C9.35579 9.27006 9.35597 9.26998 9.35677 9.2695C9.35685 9.26946 9.35703 9.26937 9.35721 9.26929C9.35725 9.26924 9.3573 9.2692 9.35734 9.26916C9.29102 9.30665 8.9127 9.5204 7.13854 10.5229C4.39043 8.96918 5.30804 9.48779 2.67446 8.0001C3.52801 7.51785 6.2869 5.95897 7.13907 5.4775C9.89712 7.03681 8.84544 6.44243 11.6031 8.00023ZM0.442137 4.2164C0.441788 10.2583 0.443114 6.22717 0.442407 11.784C5.60643 14.7011 1.99568 12.6625 7.1388 15.5677C7.81772 15.1843 13.0571 12.2238 13.8355 11.784C13.8358 5.74202 13.8345 9.7732 13.8352 4.2164C8.62907 1.27564 12.2487 3.31906 7.1388 0.432617C2.55958 3.01995 4.25845 2.06003 0.442137 4.2164Z" stroke="#F8F2E6" stroke-width="0.8" stroke-linecap="round" stroke-linejoin="round"/>
<path fill-rule="evenodd" clip-rule="evenodd" d="M7.13876 15.5675C7.8175 15.184 13.057 12.2235 13.8352 11.7838L13.8355 9.26111C13.0098 9.72766 7.96437 12.5785 7.13907 13.0448C6.4932 12.68 3.3225 10.8889 2.67402 10.5226L2.67433 7.99988C3.52929 7.51685 6.28535 5.95957 7.13894 5.47728C9.88271 7.0285 8.85459 6.44749 11.603 8.00001L11.6033 5.47733C10.9574 5.11248 7.78675 3.32143 7.13827 2.95508C6.42264 3.35945 1.1371 6.34595 0.441833 6.73877C0.442673 9.83914 0.442585 8.69549 0.442231 11.7837C5.6063 14.7008 1.99559 12.6622 7.13876 15.5675Z" fill="url(#paint0_linear)"/>
<path fill-rule="evenodd" clip-rule="evenodd" d="M7.13876 15.5675C7.8175 15.184 13.057 12.2235 13.8352 11.7838L13.8355 9.26111C13.0098 9.72766 7.96437 12.5785 7.13907 13.0448C6.4932 12.68 3.3225 10.8889 2.67402 10.5226L2.67433 7.99988C3.52929 7.51685 6.28535 5.95957 7.13893 5.47728C9.88271 7.0285 8.85459 6.44749 11.603 8.00001L11.6033 5.47733C10.9574 5.11248 7.78675 3.32143 7.13827 2.95508C6.42263 3.35945 1.1371 6.34595 0.441833 6.73877C0.442673 9.83914 0.442585 8.69549 0.442231 11.7837C5.6063 14.7008 1.99559 12.6622 7.13876 15.5675Z" stroke="white" stroke-linecap="round" stroke-linejoin="round"/>
<path fill-rule="evenodd" clip-rule="evenodd" d="M7.13827 2.9553C7.78414 3.32014 10.9548 5.11123 11.6033 5.47755L11.603 8.00023C7.01826 10.5908 11.7245 7.9316 7.1384 10.5229C4.39529 8.97199 5.40724 9.54392 2.67433 8.0001L2.67402 10.5228C3.31994 10.8877 6.49059 12.6787 7.13907 13.045C7.96451 12.5786 13.0102 9.72771 13.8355 9.26133C13.8347 6.16101 13.8348 7.30462 13.8351 4.21649C8.62889 1.27556 12.2486 3.31915 7.13858 0.432617C2.55941 3.01999 4.25831 2.06003 0.442143 4.21631L0.441833 6.73899C1.13087 6.34968 6.47623 3.3294 7.13827 2.9553Z" fill="url(#paint1_linear)"/>
<path fill-rule="evenodd" clip-rule="evenodd" d="M7.13827 2.9553C7.78414 3.32014 10.9548 5.11123 11.6033 5.47755L11.603 8.00023C7.01826 10.5908 11.7245 7.9316 7.1384 10.5229C4.39529 8.97199 5.40724 9.54392 2.67433 8.0001L2.67402 10.5228C3.31994 10.8877 6.49059 12.6787 7.13907 13.045C7.96451 12.5786 13.0102 9.72771 13.8355 9.26133C13.8347 6.16101 13.8348 7.30462 13.8351 4.21649C8.62889 1.27556 12.2486 3.31915 7.13858 0.432617C2.55941 3.01999 4.25831 2.06003 0.442143 4.21631L0.441833 6.73899C1.13087 6.34968 6.47623 3.3294 7.13827 2.9553Z" stroke="white" stroke-linecap="round" stroke-linejoin="round"/>
</g>
<defs>
<linearGradient id="paint0_linear" x1="12.559" y1="5.37023" x2="2.344" y2="15.141" gradientUnits="userSpaceOnUse">
<stop stop-color="#FF8989"/>
<stop offset="1" stop-color="#FFB170"/>
</linearGradient>
<linearGradient id="paint1_linear" x1="12.559" y1="2.84776" x2="2.34403" y2="12.6185" gradientUnits="userSpaceOnUse">
<stop stop-color="#FF8989"/>
<stop offset="1" stop-color="#FFB170"/>
</linearGradient>
<clipPath id="clip0">
<rect width="14.1395" height="16" fill="white"/>
</clipPath>
</defs>
</svg>
