<svg width="1737" height="1004" viewBox="0 0 1737 1004" fill="none" xmlns="http://www.w3.org/2000/svg"><g opacity=".4"><mask id="a" maskUnits="userSpaceOnUse" x="2" y="0" width="1735" height="1000"><rect x="2" width="1735" height="1000" rx="4" fill="url(#paint0_linear)"/></mask><g mask="url(#a)"><path d="M757.823 1338.52c408.157 0 739.027-331.11 739.027-739.566 0-408.451-330.87-739.567-739.027-739.567-408.152 0-739.025 331.116-739.025 739.567 0 408.456 330.873 739.566 739.025 739.566z" stroke="#FF8B87"/><path d="M908.132 1148.31c-.835-31.7-17.035-101.61-75.155-127.64-72.65-32.535-120.248-10.01-161.583-6.26-41.336 3.76-129.017 27.53-205.425-185.201M858.03 721.597c0 38.793 35.072 109.691 91.439 150.166 80.161 57.563 179.121 98.859 166.591 259.037M687.677 289.864c58.871-6.257 179.12-61.568 189.14-232.757M766.591 603.964c126.101 0 161.793-123.481 165.205-201.542" stroke="#FF8B87"/><path d="M282.338 538.728l78.095 208.058c22.21 3.823 35.881 9.037 35.881 14.783l-.001.108-.039-.111.132.503c.469 2.404.394 5.023-.227 7.854l.135.009-.423 1.177c-.607 2.273-1.55 4.677-2.831 7.214-20.702 48.882-66.449 83.362-122.744 83.362-55.429 0-102.757-33.427-124.18-81.106l1.255 2.227c-2.537-4.349-4.262-8.312-5.173-11.889-.11-.319-.229-.652-.347-.985l.113-.007c-.531-2.456-.664-4.722-.397-6.798l.284-1.558.058-.649c1.027-5.71 15.553-10.852 38.432-14.57l77.932-207.622c3.751-10.071 20.269-10.071 24.045 0zm411.956-.026l78.081 208.01c21.148 3.606 34.661 8.464 36.171 13.847l-.214-.438c1.235 2.373 1.593 5.11 1.077 8.21l-.326 1.575c-.447 1.758-1.137 3.595-2.079 5.536-20.163 50.412-67.345 86.217-124.732 86.217-56.781 0-105.062-35.077-125.701-84.62-1.224-2.41-2.192-4.718-2.687-6.883l-.049-.228-.008-.022.004-.005-.157-.989c-.203-1.751-.095-3.865.324-6.343l.314-1.672-.029.143c.014-.095.032-.19.053-.285l.031-.109.015.002c1.415-5.562 15.645-10.569 37.887-14.221l77.98-207.725c3.751-10.071 20.269-10.071 24.045 0zm-423.978 41.164l-61.178 162.967c17.864-1.596 38.276-2.501 59.955-2.501l3.889.01c21.252.106 41.194 1.083 58.591 2.723l-61.257-163.199zm411.956 0l-61.196 163.007c17.967-1.621 38.535-2.541 60.39-2.541l3.89.01c21.079.106 40.87 1.067 58.167 2.684l-61.251-163.16zM478.1 297.395s30.467 95.498 30.467 112.413c0 11.647-6.731 21.486-16.313 26.651 7.887 2.556 14.823 7.05 20.243 13.067 12.1-10.536 29.928-20.324 55.514-20.324 29.26 0 54.41 12.783 76.605 24.068 7.064 3.59 13.923 7.024 20.268 9.71 4.727-5.01 11.329-8.212 18.728-8.212 14.334 0 25.946 11.673 25.946 26.083 0 14.409-11.612 26.082-25.946 26.082-11.637 0-21.117-7.825-24.405-18.439-8.503-3.253-17.211-7.644-26.177-12.189-19.626-9.968-41.899-21.279-65.019-21.279-22.221 0-36.093 10.356-44.005 19.11.308 2.221.668 4.416.668 6.715 0 25.849-20.86 46.819-46.574 46.819-25.715 0-46.574-20.97-46.574-46.819 0-2.299.359-4.52.668-6.741-7.938-8.78-21.81-19.084-44.006-19.084-23.12 0-45.392 11.337-65.044 21.305-8.94 4.545-17.649 8.935-26.152 12.189-3.288 10.614-12.767 18.439-24.404 18.439-14.335 0-25.946-11.699-25.946-26.108 0-14.41 11.611-26.083 25.946-26.083 7.398 0 14 3.228 18.727 8.212 6.345-2.66 13.178-6.094 20.243-9.71 22.195-11.285 47.37-24.068 76.63-24.068 25.586 0 43.415 9.788 55.514 20.324a46.163 46.163 0 0120.243-13.067c-9.582-5.165-16.312-14.978-16.312-26.651 0-16.915 30.467-112.413 30.467-112.413z" fill="#FCE9DE"/><path d="M842.232 265.585s-31.607 2.714-52.547 14.018c0 0 83.284-.45 122.045 32.081 0 0-94.262-28.935-204.131 42.92 0 0 174.74-33.447 257.581 37.509 0 0-26.733-49.429-82.956-60.068 0 0 63.969-2.547 85.877 8.091 0 0-18.922-40.722-40.37-50.428V260.68c0-5.879-32.034-35.772-85.499-40.817v45.722z" fill="#FCE9DE" fill-opacity=".6"/><path d="M842.232 265.585s-31.607 2.714-52.547 14.018c0 0 83.284-.45 122.045 32.081 0 0-94.262-28.935-204.131 42.92 0 0 174.74-33.447 257.581 37.509 0 0-26.733-49.429-82.956-60.068 0 0 63.969-2.547 85.877 8.091 0 0-18.922-40.722-40.37-50.428V260.68c0-5.879-32.034-35.772-85.499-40.817v45.722z" stroke="#FF8B87"/><path d="M828.019 395.4s13.48 11.745 19.186 22.599c0 0-12.322 12.166-24.098 18.157 0 0 35.676 11.224 45.07 24.501-19.02-5.974-51.504-3.736-59.327 12.402 21.717-2.339 35.014 3.265 37.81 11.577 0 0-5.163 7.433-20.973 10.736-16.837 3.518-21.137 10.512-21.137 20.278 0 9.766 12.785 18.695 36.006 17.971 23.189-.74 86.436-10.298 91.216-129.841-4.78-11.241-62.553-34.194-103.901-33.942l.148 25.562z" fill="#FCE9DE" fill-opacity=".6"/><path d="M828.019 395.4s13.48 11.745 19.186 22.599c0 0-12.322 12.166-24.098 18.157 0 0 35.676 11.224 45.07 24.501-19.02-5.974-51.504-3.736-59.327 12.402 21.717-2.339 35.014 3.265 37.81 11.577 0 0-5.163 7.433-20.973 10.736-16.837 3.518-21.137 10.512-21.137 20.278 0 9.766 12.785 18.695 36.006 17.971 23.189-.74 86.436-10.298 91.216-129.841-4.78-11.241-62.553-34.194-103.901-33.942l.148 25.562z" stroke="#FF8B87"/><path d="M951.658 527.69c28.392-44.141 43.926-82.602 46.603-115.383 42.029 46.664 39.509 101.299 32.369 143.111-4.82-13.455-11.03-27.294-18.64-41.519 5.02 64.467-14.08 99.369-57.315 104.708-5.058-29.78-6.063-60.085-3.017-90.917z" fill="#FCE9DE" fill-opacity=".6"/><path d="M951.658 527.69c28.392-44.141 43.926-82.602 46.603-115.383 42.029 46.664 39.509 101.299 32.369 143.111-4.82-13.455-11.03-27.294-18.64-41.519 5.02 64.467-14.08 99.369-57.315 104.708-5.058-29.78-6.063-60.085-3.017-90.917z" stroke="#FF8B87"/><path d="M427.041 127.312c-7.89 12.124-19.454 45.835-34.694 101.132-34.247 39.152-67.748 92.887-100.503 161.204-16.173 5.024-33.33 12.115-51.469 21.275 46.521-85.455 92.039-149.963 136.546-193.533 10.284-34.147 26.991-64.173 50.12-90.078z" fill="#FCE9DE" fill-opacity=".6"/><path d="M520.824 222.644l-115.105 54.255c32.798.551 58.846-5.407 78.144-17.873 19.297-12.466 31.618-24.593 36.961-36.382z" fill="#fff" fill-opacity=".1"/><path d="M478.354 202.852c-.651-23.712-3.742-37.039-9.27-39.982-6.146-2.742-9.718-8.649-6.146-19.434 2.203-6.855 1.54-14.487-1.991-22.895l31.224-20.839 35.138 22.13c1.23 7.808-1.323 15.009-7.659 21.604 7.659 8.28 7.659 18.967-1.215 31.31.247 3.058.419 6.056.515 8.994.146 4.454-.026 10.824-.515 19.112h-40.081z" fill="#FCE9DE" fill-opacity=".6"/><path d="M478.352 202.852c-.651-23.712-3.741-37.039-9.27-39.982-6.145-2.742-9.718-8.649-6.145-19.434 2.203-6.855 1.539-14.487-1.992-22.895l31.224-20.839 35.138 22.13c1.23 7.808-1.323 15.009-7.659 21.604 7.659 8.28 7.659 18.967-1.215 31.31.247 3.058.419 6.056.515 8.994.146 4.454-.025 10.824-.515 19.112h-40.081z" stroke="#FF8B87"/><path d="M911.901 568.157c-5.507 100.24 15.856 157.205 64.087 170.895 72.342 20.535 169.122 26.53 195.432 178.753 6.53 20.59 3.35 39.508 8.77 58.055a575.748 575.748 0 01-68.79 61.93c-24.05-58.091-54.11-93.962-96.38-119.985-166.565-103.664-200.939-220.213-103.119-349.648z" fill="#FCE9DE" fill-opacity=".6"/><path d="M975.991 739.053c72.349 20.535 169.119 26.529 195.429 178.752 6.54 20.59 3.36 39.508 8.77 58.055a575.663 575.663 0 01-68.79 61.93c-24.04-58.09-54.11-93.961-96.37-119.985" stroke="#FF8B87"/><path d="M492.555 887.168C579.778 1105.93 719.403 965.759 827.263 1017c49.317 23.43 76.22 66.44 80.708 129.03-42.049 9.79-85.863 14.95-130.881 14.95-87.292 0-170.056-19.41-244.222-54.17-.271-65.85-13.714-139.062-40.313-219.642zm465.71-654.524c35.181 55.888 51.585 97.227 49.225 124.018-.9 9.681-5.16 20.482-12.776 32.403 26.766-2.387 40.156-18.834 40.156-49.341s-25.53-66.2-76.605-107.08z" fill="#FCE9DE" fill-opacity=".6"/><path d="M958.265 232.644c35.181 55.888 51.585 97.227 49.225 124.018-.9 9.681-5.16 20.482-12.776 32.403 26.766-2.387 40.156-18.834 40.156-49.341s-25.53-66.2-76.605-107.08z" stroke="#FF8B87"/><path d="M652.552 295.62c22.626-6.245 41.118-20.346 55.475-42.304-.91 13.073-4.187 24.326-9.832 33.759 65.394-11.752 116.145-51.337 152.254-118.756-66.581-36.168-135.214-11.495-172.001 33.499-24.526 29.996-33.158 61.263-25.896 93.802z" fill="#FCE9DE" fill-opacity=".6"/><ellipse cx="478.496" cy="481.328" rx="46.346" ry="46.301" stroke="#FF8A87"/><ellipse cx="478.239" cy="407.94" rx="27.6" ry="27.574" stroke="#FF8A87"/><ellipse cx="268.061" cy="731.608" rx="131.522" ry="131.395" stroke="#FF8A87"/><ellipse cx="681.414" cy="731.608" rx="131.522" ry="131.395" stroke="#FF8A87"/><ellipse cx="186.644" cy="1063.22" rx="343.209" ry="342.879" stroke="#FF8A87"/><ellipse cx="1323.99" cy="415.004" rx="295.61" ry="295.326" stroke="#FF8A87"/><ellipse cx="1005.84" cy="645.264" rx="97.702" ry="97.608" stroke="#FF8A87"/><path d="M678.588 365.624c-46.171-56.021-38.143-138.829 17.932-184.956 56.075-46.126 138.962-38.105 185.133 17.916" stroke="#FF8A87"/><ellipse cx="273.072" cy="481.325" rx="26.304" ry="26.279" stroke="#FF8A87"/><ellipse cx="683.919" cy="481.325" rx="26.304" ry="26.279" stroke="#FF8A87"/><ellipse cx="1057.19" cy="851.738" rx="78.913" ry="78.837" stroke="#FF8A87"/><ellipse cx="894.354" cy="721.59" rx="36.325" ry="36.29" stroke="#FF8A87"/><path d="M995.813 389.975c3.758-4.588 11.277-19.021 11.277-40.044 0-26.279-22.55-92.602-76.411-145.16m-524.833 71.33c35.908 7.508 117.743-7.509 150.311-127.642m-315.65 262.798c13.779-25.862 48.601-86.846 77.661-123.887 29.06-37.041 51.356-62.152 58.871-70.077 8.351-27.948 36.826-88.849 83.923-123.887m491.012 411.697c-4.593 34.204-6.012 117.129 25.052 175.193m35.074-165.179c6.26 37.125 2.5 112.625-91.44 106.368" stroke="#FF8A87"/></g></g><defs><linearGradient id="paint0_linear" x1="2685.83" y1="-450" x2="1097.46" y2="1637.55" gradientUnits="userSpaceOnUse"><stop stop-color="#FFB36D"/><stop offset="1" stop-color="#F88"/></linearGradient></defs></svg>