<svg width="16" height="16" viewBox="0 0 16 16" fill="none" xmlns="http://www.w3.org/2000/svg">
<path d="M8.30765 14.7031C12.1521 14.7031 15.2686 11.702 15.2686 7.99997C15.2686 4.29795 12.1521 1.29688 8.30765 1.29688C4.46325 1.29688 1.34674 4.29795 1.34674 7.99997C1.34674 11.702 4.46325 14.7031 8.30765 14.7031Z" fill="white" stroke="#FFCE45" stroke-miterlimit="10"/>
<path d="M8.30787 2.75391L13.6401 7.88867L8.30787 13.0235L2.97559 7.88867L8.30787 2.75391Z" fill="#FFCE45"/>
<path d="M8.30764 9.56389L2.97095 7.88812L8.30764 2.75342L13.6443 7.88812L8.30764 9.56389Z" fill="#FEBE44"/>
<path d="M4.82739 7.55299H7.26371L8.30784 6.43581L9.46799 7.55299H11.9043L8.30784 3.81055L4.82739 7.55299Z" fill="white"/>
<path opacity="0.42" d="M8.30768 13.0228V2.75342L13.6399 7.88813L8.30768 13.0228Z" fill="#D9A547"/>
</svg>
