<svg width="181" height="181" fill="none" xmlns="http://www.w3.org/2000/svg"><circle cx="90.234" cy="90.5" r="90" fill="#FFE2D7" fill-opacity=".3"/><g filter="url(#filter0_d)"><circle cx="90.232" cy="90.496" r="44.855" fill="url(#paint0_linear)"/></g><g clip-path="url(#clip0)" fill="#fff"><path d="M105.547 73.5H74.916a5.518 5.518 0 00-5.512 5.511v22.974a5.517 5.517 0 005.512 5.511h30.631a5.518 5.518 0 005.512-5.511V79.011a5.518 5.518 0 00-5.512-5.511zm2.146 28.485a2.148 2.148 0 01-2.146 2.146H74.916a2.149 2.149 0 01-2.146-2.146V79.011c0-1.183.963-2.146 2.146-2.146h30.631c1.184 0 2.146.963 2.146 2.147v22.973z"/><path d="M110.754 78.047a1.682 1.682 0 00-2.343-.414l-18.18 12.726-18.18-12.726a1.683 1.683 0 10-1.929 2.757L89.267 93.79a1.68 1.68 0 001.93 0L110.34 80.39a1.683 1.683 0 00.413-2.343z"/></g><defs><linearGradient id="paint0_linear" x1="35.651" y1="146.754" x2="117.812" y2="60.314" gradientUnits="userSpaceOnUse"><stop stop-color="#FFB070"/><stop offset="1" stop-color="#FF8989"/></linearGradient><clipPath id="clip0"><path d="M69.404 69.67h41.655v41.655H69.404V69.671z" fill="#fff"/></clipPath><filter id="filter0_d" x="42.377" y="43.642" width="95.71" height="95.71" filterUnits="userSpaceOnUse" color-interpolation-filters="sRGB"><feFlood flood-opacity="0" result="BackgroundImageFix"/><feColorMatrix in="SourceAlpha" values="0 0 0 0 0 0 0 0 0 0 0 0 0 0 0 0 0 0 127 0"/><feOffset dy="1"/><feGaussianBlur stdDeviation="1.5"/><feColorMatrix values="0 0 0 0 0 0 0 0 0 0 0 0 0 0 0 0 0 0 0.25 0"/><feBlend in2="BackgroundImageFix" result="effect1_dropShadow"/><feBlend in="SourceGraphic" in2="effect1_dropShadow" result="shape"/></filter></defs></svg>
