<svg width="181" height="181" fill="none" xmlns="http://www.w3.org/2000/svg"><path opacity=".6" fill-rule="evenodd" clip-rule="evenodd" d="M180.949 90.147c0 49.545-40.294 89.708-90 89.708-49.705 0-90-40.163-90-89.707S41.244.44 90.95.44s90 40.163 90 89.706z" fill="#F1F6F8"/><path fill-rule="evenodd" clip-rule="evenodd" d="M89.525 29.746c-2.596-4.398-15.707-6.985-20.768 0-5.945 8.205 1.121 15.266 1.121 15.266v-6.305h14.245l6.18 5.306v7.468h2.277c0-3.108 2.528-5.628 5.646-5.628.486 0 .95.08 1.399.195.524.134 1.014.34 1.468.609.945-4.065 1.527-9.761-1.327-13.288-3.5-4.325-10.241-3.623-10.241-3.623z" fill="#EC6A6A"/><path fill-rule="evenodd" clip-rule="evenodd" d="M157.545 146.907l-4.326-52.689c-.672-8.185-7.533-14.486-15.772-14.486H44.243c-7.597 0-14.123 5.382-15.544 12.822l-8.021 41.977c-.769 4.018-.617 8.162.494 12.039.592 2.067 1.444 4.064 2.602 5.914a24.46 24.46 0 0014.92 10.813c1.903.469 3.864.716 5.85.716h3.55l1.187 5.905c12.613 6.71 27.012 10.524 42.308 10.524 15.297 0 29.694-3.814 42.308-10.524l1.746-8.684 3.452.94c2.258.615 4.493.65 6.594.249 5.29-1.008 9.701-4.89 11.28-10.075a14.52 14.52 0 00.576-5.441z" fill="#000"/><path d="M92.78 123.752l-23.085-44.25h42.619l-19.534 44.25z" fill="#fff"/><path fill-rule="evenodd" clip-rule="evenodd" d="M136.315 131.861l-63.344-6.986.15-1.365 63.346 6.986-.152 1.365zm-.855 30.035L64.057 142.45l.362-1.325 71.404 19.445-.363 1.326zm-88.043 2.251l-7.304-36.327 1.35-.27 7.305 36.327-1.351.27z" fill="#2C2C4E"/><path fill-rule="evenodd" clip-rule="evenodd" d="M58.038 148.482H32.912c-2.375 0-4.43-1.625-4.94-3.907L17.778 97.149c-.69-3.1 1.71-6.032 4.939-6.032H47.84c2.377 0 4.432 1.626 4.941 3.908l10.197 47.426c.688 3.1-1.713 6.031-4.94 6.031z" fill="url(#paint0_linear)"/><path fill-rule="evenodd" clip-rule="evenodd" d="M64.25 142.005l9.104-18.135-8.836-8.697-14.918 1.289-5.95 21.794 20.6 3.749zm-51.233-14.319l7.718-10.68 10.413 3.564 3.844 17.58-14.8 3.638-7.175-14.102z" fill="#F5C5B6"/><path fill-rule="evenodd" clip-rule="evenodd" d="M125.8 130.111l-.987-28.664 1.378-.048.988 28.665-1.379.047z" fill="#2C2C4E"/><path fill-rule="evenodd" clip-rule="evenodd" d="M101.093 46.657a5.608 5.608 0 00-1.469-.608 5.577 5.577 0 00-1.398-.196c-3.118 0-5.646 2.52-5.646 5.629h-2.276v-7.47l-6.18-5.304H69.877v22.95c0 3.622 3.382 6.302 6.922 5.487l6.69-1.746v14.342l8.068 7.968 8.066-7.968V56.914c2.438-.623 4.248-2.808 4.248-5.432 0-2.061-1.123-3.844-2.779-4.825z" fill="#F5C5B6"/><path fill-rule="evenodd" clip-rule="evenodd" d="M165.157 61.597h-40.653a5.66 5.66 0 01-5.664-5.655V15.35a5.66 5.66 0 015.664-5.655h40.653a5.66 5.66 0 015.666 5.654v40.594a5.66 5.66 0 01-5.666 5.655z" fill="url(#paint1_linear)"/><g clip-path="url(#clip0)" fill="#fff"><path d="M155.35 24.047h-21.179a3.81 3.81 0 00-3.811 3.798v15.832a3.81 3.81 0 003.811 3.799h21.179a3.808 3.808 0 003.81-3.799V27.845a3.808 3.808 0 00-3.81-3.798zm1.483 19.63c0 .816-.665 1.48-1.483 1.48h-21.179a1.483 1.483 0 01-1.484-1.48V27.845c0-.815.666-1.479 1.484-1.479h21.179c.818 0 1.483.664 1.483 1.48v15.831z"/><path d="M158.95 27.18a1.165 1.165 0 00-1.62-.285l-12.57 8.77-12.569-8.77a1.166 1.166 0 00-1.62.285 1.156 1.156 0 00.286 1.615l13.236 9.236a1.167 1.167 0 001.334 0l13.237-9.236c.526-.367.654-1.09.286-1.615z"/></g><path d="M74.932 55.844l-.049.012.012.048.194.833s0 0 0 0c.652 2.795 3.12 4.683 5.837 4.683.456 0 .918-.055 1.382-.165h0c3.218-.773 5.216-4.06 4.454-7.324h0l-.195-.832-.012-.049-.049.012-11.574 2.782zm6.964 3.649c-1.959.468-3.932-.54-4.77-2.315l8.01-1.924c.037 1.966-1.28 3.766-3.24 4.239z" fill="#2C2C4E" stroke="#2C2C4E" stroke-width=".1"/><defs><linearGradient id="paint0_linear" x1="54.779" y1="81.597" x2="27.779" y2="154.597" gradientUnits="userSpaceOnUse"><stop stop-color="#6B83FF"/><stop offset="1" stop-color="#8699FF"/></linearGradient><linearGradient id="paint1_linear" x1="114.821" y1="57.16" x2="165.745" y2="16.867" gradientUnits="userSpaceOnUse"><stop stop-color="#FFB36D"/><stop offset="1" stop-color="#F88"/></linearGradient><clipPath id="clip0"><path d="M130.36 21.408h28.8v28.706h-28.8V21.408z" fill="#fff"/></clipPath></defs></svg>