<svg width="15" height="17" fill="none" xmlns="http://www.w3.org/2000/svg"><path d="M14.885 6.865a.632.632 0 00-.573-.373H8.55l.631-5.156a.649.649 0 00-.376-.673.624.624 0 00-.737.179L.869 9.666a.658.658 0 00-.087.688.632.632 0 00.573.372h5.762l-.63 5.157a.649.649 0 00.375.673.62.62 0 00.738-.18l7.198-8.824a.658.658 0 00.087-.687zm-6.876 6.99l.453-3.695a.656.656 0 00-.154-.508.627.627 0 00-.474-.218H2.706l4.952-6.071-.452 3.696a.656.656 0 00.153.507c.12.14.293.219.475.219h5.127l-4.952 6.07z" fill="#8FA4B5"/></svg>