<svg width="177" height="134" viewBox="0 0 177 134" fill="none" xmlns="http://www.w3.org/2000/svg"><path d="M167.076 31.444c-4.509 0-4.509-5.628-9.019-5.628-4.509 0-4.509 5.628-9 5.628-4.49 0-4.509-5.628-9-5.628-4.49 0-4.49 5.628-9 5.628-4.509 0-4.49-5.628-8.981-5.628-4.49 0-4.509 5.628-9 5.628-4.49 0-4.509-4.665-9-4.665v97.453h72V26.779c-4.509 0-4.509 4.665-9 4.665z" fill="url(#paint0_linear)"/><path d="M144.356 55.019c0-1.113.902-2.014 2.014-2.014h17.119a2.014 2.014 0 010 4.028H146.37a2.014 2.014 0 01-2.014-2.014zm-29.203 10.07c0-1.113.902-2.014 2.014-2.014h46.321a2.014 2.014 0 110 4.028h-46.321a2.014 2.014 0 01-2.014-2.014z" fill="#fff"/><path d="M115.153 75.159c0-1.113.902-2.014 2.014-2.014h46.321a2.013 2.013 0 110 4.028h-46.321a2.014 2.014 0 01-2.014-2.014z" fill="#fff" fill-opacity=".9"/><path d="M115.153 85.229c0-1.113.902-2.014 2.014-2.014h46.321a2.014 2.014 0 110 4.028h-46.321a2.014 2.014 0 01-2.014-2.014z" fill="#fff" fill-opacity=".8"/><path d="M115.153 95.299c0-1.113.902-2.015 2.014-2.015h46.321a2.014 2.014 0 110 4.028h-46.321a2.014 2.014 0 01-2.014-2.013z" fill="#fff" fill-opacity=".7"/><path d="M115.153 105.368c0-1.112.902-2.014 2.014-2.014h46.321a2.014 2.014 0 110 4.028h-46.321a2.014 2.014 0 01-2.014-2.014z" fill="#fff" fill-opacity=".6"/><mask id="a" maskUnits="userSpaceOnUse" x="0" y="57" width="89" height="67"><path fill-rule="evenodd" clip-rule="evenodd" d="M2.056 85.59l11.295-21.094a13.841 13.841 0 0112.185-7.304h39.322a13.823 13.823 0 0112.361 7.635L88.123 86.57a7.617 7.617 0 01.81 3.397v.68c0 3.615-2.39 6.945-5.911 7.721a7.542 7.542 0 01-8.056-3.388l-5.627-9.059-4.48 37.302s-10.812 0-22.84-4.946c-12.028-4.945-17.684-11.144-17.684-11.144l-3.697-26.07-6.531 11.301 1.592 30.859H5.619L1.017 91.499a9.653 9.653 0 011.04-5.91z" fill="#EFC16D"/></mask><g mask="url(#a)"><path fill="#242424" d="M-98.311-32.578h274.647v206.486H-98.311z"/></g><path d="M13.237 123.865a4 4 0 005.44 5.865l-5.44-5.865zM81.8 60.262l-68.563 63.603 5.44 5.865L87.24 66.127l-5.44-5.865z" fill="#8987FF"/><path fill-rule="evenodd" clip-rule="evenodd" d="M80.175 82.925l-.794-9.2H70.24l-1.185 9.2 5.56 3.982 5.56-3.981zm-64.161 39.863l3.158 3.193-3.171 5.9H6.73l-.797-9.093h10.08z" fill="#F5C5B6"/><circle cx="109.678" cy="39.091" r="34.591" fill="#fff" fill-opacity=".2" stroke="#8987FF" stroke-width="8"/><path d="M45.5 87.86l10.63-30.668H36.504L45.5 87.86z" fill="#fff"/><path fill-rule="evenodd" clip-rule="evenodd" d="M41.219 39.214c.129-.056.268-.09.404-.13a3.33 3.33 0 01.919-.143c.665 0 1.28.2 1.803.534 2.346-1.696 3.073-4.696 3.073-4.696 7.613 0 12.04 5.778 12.04 5.778v8.04c0 2.18-2.018 3.797-4.13 3.303l-3.993-1.05v8.858l-4.852 4.935-4.853-4.935-.007-.005v-14.13c-.006 0-.012-.003-.019-.005a3.375 3.375 0 01-2.431-3.238c0-1.4.843-2.6 2.046-3.116z" fill="#F5C5B6"/><path d="M37.952 33.988c-4.134 5.68-3.603 12.224-9.506 19.084-1.963 2.28-.574 6.632 2.434 6.633l10.744.003-.002-.006V45.574l-.018-.006a3.375 3.375 0 01-2.431-3.239c0-1.398.843-2.598 2.045-3.115.13-.056.268-.09.404-.13a3.33 3.33 0 01.92-.143c.664 0 1.28.2 1.802.534 2.346-1.696 3.073-4.696 3.073-4.696 7.614 0 12.189 5.907 12.189 5.907 2.25-9.697-5.792-12.467-11.485-12.467-2.594 0-5.328 1.044-7.41 2.643v-.003l-.017.017a10.666 10.666 0 00-2.742 3.112z" fill="#EC6A6A"/><path d="M44.694 34.33c1.956 6.063 10.919 6.845 14.911 6.356l-1.222-4.4-6.111-4.156-4.156-.977c-.489-.163-1.858.244-3.422 3.178z" fill="#EC6A6A"/><path d="M55.326 48.658c-1.781-1.663-4.144-2.454-7.36-2.454" stroke="#242424" stroke-width="1.5"/><path fill-rule="evenodd" clip-rule="evenodd" d="M26.571 73.085l-5.49 8.435-.936-.609 5.49-8.435.936.61z" fill="#656565"/><defs><linearGradient id="paint0_linear" x1="186.529" y1="14.422" x2="70.659" y2="124.682" gradientUnits="userSpaceOnUse"><stop stop-color="#FF8D81"/><stop offset="1" stop-color="#FFC28F"/></linearGradient></defs></svg>