<svg width="18" height="19" viewBox="0 0 18 19" fill="none" xmlns="http://www.w3.org/2000/svg">
<path d="M16.3258 2.66334C15.2508 1.58837 13.8216 0.996338 12.3013 0.996338C10.7811 0.996338 9.35178 1.58837 8.27678 2.66334L2.69491 8.24521C2.55857 8.38158 2.48193 8.56654 2.48193 8.75937V15.7884C2.48193 16.19 2.80748 16.5155 3.20904 16.5155H10.238C10.4313 16.5155 10.6165 16.4386 10.753 16.3018L16.3258 10.7124C17.4008 9.6374 17.9928 8.20812 17.9928 6.68786C17.9928 5.16763 17.4008 3.73835 16.3258 2.66334ZM15.2975 9.68408C15.2973 9.68433 15.297 9.68461 15.2968 9.68486L9.93626 15.0613H3.93617V9.06055L9.3051 3.69166C10.1054 2.89133 11.1695 2.45058 12.3013 2.45058C13.4331 2.45058 14.4972 2.89133 15.2975 3.69163C16.0978 4.49193 16.5386 5.55603 16.5386 6.68786C16.5386 7.81968 16.0978 8.88375 15.2975 9.68408Z" fill="#8FA4B5"/>
<path d="M12.8185 6.17793C12.5345 5.89398 12.0742 5.89398 11.7902 6.17793L0.212968 17.7551C-0.0709893 18.0391 -0.0709893 18.4995 0.212968 18.7834C0.354964 18.9254 0.541011 18.9964 0.727128 18.9964C0.91321 18.9964 1.09933 18.9254 1.24129 18.7834L12.8185 7.20618C13.1024 6.92226 13.1024 6.46189 12.8185 6.17793Z" fill="#8FA4B5"/>
<path d="M13.1317 11.7537H6.51616C6.11461 11.7537 5.78906 12.0792 5.78906 12.4808C5.78906 12.8824 6.11461 13.2079 6.51616 13.2079H13.1318C13.5334 13.2079 13.8588 12.8824 13.8588 12.4808C13.8588 12.0792 13.5333 11.7537 13.1317 11.7537Z" fill="#8FA4B5"/>
</svg>
