<svg width="16" height="15" viewBox="0 0 16 15" fill="none" xmlns="http://www.w3.org/2000/svg">
<path d="M13.8829 2.20613H7.6105L6.33166 0.287813C6.21178 0.108031 6.01 0 5.79388 0H2.11706C0.949719 3.125e-05 0 0.94975 0 2.11709V12.4122C0 13.5796 0.949719 14.5293 2.11706 14.5293H13.8829C15.0503 14.5293 16 13.5796 16 12.4122V4.32319C16 3.15584 15.0503 2.20613 13.8829 2.20613ZM14.7074 12.4122C14.7074 12.8668 14.3375 13.2366 13.883 13.2366H2.11706C1.66247 13.2366 1.29266 12.8668 1.29266 12.4122V2.11709C1.29266 1.6625 1.6625 1.29269 2.11706 1.29269H5.44803L6.72687 3.211C6.84675 3.39078 7.04853 3.49881 7.26463 3.49881H13.8829C14.3375 3.49881 14.7073 3.86866 14.7073 4.32322L14.7074 12.4122Z" fill="#8FA4B5"/>
</svg>
