<svg width="21" height="17" viewBox="0 0 21 17" fill="none" xmlns="http://www.w3.org/2000/svg"><g clip-path="url(#clip0)" fill-rule="evenodd" clip-rule="evenodd" fill="#8FA4B5" stroke="#8FA4B5" stroke-width=".3" stroke-linecap="round" stroke-linejoin="round"><path d="M19.34 2.65h-6.88c-1.369 0-1.728-.421-2.183-.954C9.722 1.046 9.093.31 6.878.31H2.205a1.17 1.17 0 00-1.169 1.17v14.04c0 .645.525 1.17 1.169 1.17H19.34a1.17 1.17 0 001.168-1.17V3.82a1.17 1.17 0 00-1.168-1.17zm.39 12.871a.39.39 0 01-.39.39H2.206a.39.39 0 01-.39-.39V1.48a.39.39 0 01.39-.39h4.673c1.856 0 2.318.54 2.807 1.113.491.576 1.047 1.227 2.776 1.227h6.88a.39.39 0 01.39.39v11.701z"/><path d="M20.12 5.255H1.426c-.215 0-.39.18-.39.402 0 .221.175.402.39.402H20.12c.215 0 .39-.18.39-.402a.396.396 0 00-.39-.402z"/></g><defs><clipPath id="clip0"><path fill="#fff" d="M.727 0h20.091v17H.727z"/></clipPath></defs></svg>