<svg width="41" height="28" fill="none" xmlns="http://www.w3.org/2000/svg"><path opacity=".4" fill-rule="evenodd" clip-rule="evenodd" d="M10.025 24.196a4.79 4.79 0 011.051 2.006.866.866 0 01-.453.974l.001.003c-2.098 1.062-4.818.38-6.359-1.395a4.79 4.79 0 01-1.051-2.005.866.866 0 01.453-.975c2.109-1.09 4.843-.353 6.358 1.392zm10.155-7.215c.002 1.349.003 3.009 0 0zM9.774.507c1.136 2.035.591 4.727-1.064 6.337A4.8 4.8 0 016.77 8.01a.87.87 0 01-1.043-.469 4.842 4.842 0 01-.593-2.104C5.012 3.102 6.48.72 8.731.037a.87.87 0 011.043.47zm-1.18 2.162a3.261 3.261 0 00-.102-.657C7.218 2.81 6.548 4.51 6.929 5.955c1.084-.68 1.732-2.018 1.664-3.286zM3.462 6.63a.877.877 0 00-1.112.222C.89 8.7 1.056 11.48 2.5 13.316c.472.6 1.06 1.074 1.709 1.382a.877.877 0 001.112-.223c1.944-2.463.98-6.499-1.858-7.847zm.294 2.46c.801.999 1.045 2.453.547 3.626-1.165-.962-1.602-2.727-1.017-4.104.17.14.327.3.47.479zm-2.479 5.639a.875.875 0 00-.883.68c-.52 2.303.837 4.762 2.935 5.804a4.846 4.846 0 002.175.516.875.875 0 00.882-.68c.694-3.072-1.928-6.339-5.109-6.32zm1.404 2.088c1.14.572 1.976 1.784 2.042 3.062-1.445-.388-2.587-1.798-2.664-3.3.21.056.418.136.622.238zm3.197 7.166a3.24 3.24 0 00-.671.066c.733 1.323 2.401 2.104 3.874 1.8-.624-1.127-1.927-1.859-3.203-1.866z" fill="#2ED2A1"/><path opacity=".4" fill-rule="evenodd" clip-rule="evenodd" d="M30.339 24.196a4.79 4.79 0 00-1.051 2.006.866.866 0 00.453.974l-.001.003c2.098 1.062 4.818.38 6.359-1.395a4.79 4.79 0 001.051-2.005.866.866 0 00-.453-.975c-2.109-1.09-4.843-.353-6.358 1.392zm-10.155-7.215c-.002 1.349-.003 3.009 0 0zM30.59.507c-1.136 2.035-.59 4.727 1.064 6.337a4.8 4.8 0 001.94 1.166.87.87 0 001.043-.469 4.843 4.843 0 00.593-2.104c.122-2.335-1.345-4.717-3.597-5.4a.87.87 0 00-1.043.47zm1.18 2.162c.013-.227.047-.447.102-.657 1.274.798 1.944 2.498 1.563 3.943-1.084-.68-1.732-2.018-1.664-3.286zm5.131 3.96a.877.877 0 011.112.222c1.46 1.85 1.295 4.63-.149 6.465a4.827 4.827 0 01-1.709 1.382.877.877 0 01-1.111-.223c-1.945-2.463-.98-6.499 1.857-7.847zm-.294 2.46c-.8.999-1.045 2.453-.547 3.626 1.165-.962 1.602-2.727 1.017-4.104-.169.14-.327.3-.47.479zm2.479 5.639a.875.875 0 01.883.68c.52 2.303-.837 4.762-2.935 5.804a4.846 4.846 0 01-2.175.516.875.875 0 01-.882-.68c-.694-3.072 1.928-6.339 5.109-6.32zm-1.404 2.088c-1.14.572-1.976 1.784-2.042 3.062 1.445-.388 2.587-1.798 2.664-3.3a3.31 3.31 0 00-.622.238zm-3.197 7.166c.23-.001.455.021.671.066-.733 1.323-2.401 2.104-3.874 1.8.624-1.127 1.927-1.859 3.204-1.866z" fill="#2ED2A1"/><path fill-rule="evenodd" clip-rule="evenodd" d="M23.476 3.372L17.99 8.189a1.06 1.06 0 01-1.412-.154l-.366-.412a1.049 1.049 0 01.095-1.485l5.335-4.685a1.06 1.06 0 011.492.092l.365.412c.364.41.347 1.024-.022 1.415zM9.323 20.811l-.01-.092-.006-.089c-.006-.06-.006-.114-.007-.17a2.708 2.708 0 01.05-.59c.071-.352.206-.632.391-.854.046-.056.097-.107.147-.158l.15-.154c.1-.103.203-.204.304-.305.101-.101.204-.201.307-.3.103-.1.206-.2.31-.297.208-.198.418-.392.63-.585l.317-.289.321-.285a68 68 0 011.3-1.12l.66-.551.666-.543.67-.538.675-.533.68-.527.683-.523c.23-.173.458-.346.69-.517.23-.171.46-.343.692-.512l.286.324 1.07-.726-1.613-1.825 5.49-4.835 3.967 4.488-5.491 4.835-1.613-1.825-.855.968.286.324c-.197.21-.396.416-.595.623-.199.207-.4.412-.6.617l-.605.612-.61.607-.613.602-.618.597-.623.591-.63.585A68.165 68.165 0 0114.3 18.99l-.322.281-.327.28a45.621 45.621 0 01-1.33 1.086c-.114.088-.226.177-.341.262l-.172.13c-.058.043-.114.087-.176.126a1.897 1.897 0 01-.897.281c-.18.012-.374.009-.594-.024-.055-.008-.109-.015-.168-.028l-.086-.017-.091-.022a3.277 3.277 0 01-.397-.125 3.26 3.26 0 01-.075-.409zm21.221-9.246l-5.336 4.684a1.06 1.06 0 01-1.492-.092l-.365-.412a1.048 1.048 0 01.022-1.415l5.487-4.817a1.06 1.06 0 011.413.155l.365.412c.386.435.344 1.1-.095 1.485z" fill="#2ED2A1"/></svg>