<svg width="147" height="143" viewBox="0 0 147 143" fill="none" xmlns="http://www.w3.org/2000/svg"><path opacity=".6" fill-rule="evenodd" clip-rule="evenodd" d="M137 66.968c0 36.988-29.997 66.965-67 66.965S3 103.956 3 66.968C3 29.982 32.997 0 70 0s67 29.983 67 66.968z" fill="#F1F6F8"/><mask id="a" maskUnits="userSpaceOnUse" x="0" y="68" width="88" height="67"><path fill-rule="evenodd" clip-rule="evenodd" d="M1.132 96.841L12.4 75.807a13.81 13.81 0 0112.156-7.283h39.23a13.79 13.79 0 0112.331 7.614l10.878 21.68a7.59 7.59 0 01.808 3.388v.678c0 3.605-2.383 6.925-5.897 7.699a7.526 7.526 0 01-8.037-3.378l-5.614-9.034-4.47 37.196S53 134.367 41 129.435c-12-4.931-17.642-11.113-17.642-11.113L19.67 92.326l-6.516 11.27 1.59 30.771H4.685l-4.59-31.634a9.62 9.62 0 011.037-5.892z" fill="#EFC16D"/></mask><g mask="url(#a)"><path fill="#242424" d="M-99-20.989h274v205.897H-99z"/></g><path d="M12.279 134.999a3.997 3.997 0 00-.212 5.651 4.002 4.002 0 005.654.213l-5.442-5.864zm68.4-63.422L12.28 135l5.442 5.864 68.401-63.422-5.442-5.864z" fill="url(#paint0_linear)"/><path fill-rule="evenodd" clip-rule="evenodd" d="M79.254 94.245l-.794-9.196h-9.141l-1.185 9.196 5.56 3.98 5.56-3.98zm-64.198 39.688l3.15 3.184L15.044 143h-9.25L5 133.933h10.056z" fill="#F5C5B6"/><path d="M45.12 97.498L34.828 68.513h19L45.12 97.498z" fill="#fff"/><path fill-rule="evenodd" clip-rule="evenodd" d="M39.607 51.947c.189-1.449 1.333-2.527 2.706-2.73.283-.043.58-.061.875-.021a3.15 3.15 0 011.63.723c2.409-1.296 3.46-4.012 3.46-4.012l10.608 6.892-.997 7.52a3.19 3.19 0 01-4.28 2.579l-3.622-1.478-.93 9.103H39.77l1.736-15.238a3.199 3.199 0 01-1.898-3.338z" fill="#F5C5B6"/><path fill-rule="evenodd" clip-rule="evenodd" d="M14.096 45.649c1.911-2.245 4.967-3.44 7.889-3.072 1.548.195 3.217.778 4.59.04 1.252-.674 1.737-2.182 2.49-3.394 1.71-2.772 5.332-4.197 8.482-3.331 2.181.602 4.564 2.81 5.466 5.227a11.495 11.495 0 016.597-1.1c5.344.703 12.574 3.99 9.275 12.78l-10.608-6.893s-1.05 2.717-3.46 4.012a3.158 3.158 0 00-1.629-.722 3.111 3.111 0 00-.875.02c-1.373.203-2.518 1.282-2.706 2.731a3.2 3.2 0 001.898 3.338l-.565 4.377s-4.389-3.912-3.514-10.577c.337-2.505 1.373-4.507 2.84-5.993-1.79-.251-3.513-.17-5.357 1.11-1.616 1.129-2.747 2.82-4.04 4.313a22.752 22.752 0 01-5.438 4.57c-2.329 1.395-5.062 2.38-7.74 1.929-2.68-.453-5.17-2.698-5.184-5.415-.013-1.45.66-2.842 1.589-3.95z" fill="#EC6A6A"/><path d="M52.213 58.713l.129-.077-.076-.129a4.58 4.58 0 00-2.814-2.119 4.579 4.579 0 00-3.49.496l-.128.076.076.129.556.947.076.13.13-.077a3.202 3.202 0 014.39 1.131l.076.13.13-.077.945-.56z" fill="#242424" stroke="#242424" stroke-width=".3"/><path d="M143 50.475c0 19.041-15.444 34.48-34.5 34.48-19.056 0-34.5-15.439-34.5-34.48 0-19.042 15.444-34.481 34.5-34.481 19.056 0 34.5 15.44 34.5 34.48z" fill="#fff" fill-opacity=".2" stroke="url(#paint1_linear)" stroke-width="8"/><defs><linearGradient id="paint0_linear" x1="20" y1="129.435" x2="150.457" y2="38.419" gradientUnits="userSpaceOnUse"><stop stop-color="#FFC28F"/><stop offset="1" stop-color="#FF807D"/></linearGradient><linearGradient id="paint1_linear" x1="54" y1="130.934" x2="176.94" y2="10.933" gradientUnits="userSpaceOnUse"><stop stop-color="#FFC18E"/><stop offset="1" stop-color="#FF7D7D"/></linearGradient></defs></svg>