<svg width="139" height="34" fill="none" xmlns="http://www.w3.org/2000/svg"><circle cx="16.59" cy="17" r="16.09" fill="url(#paint0_linear)" fill-opacity=".05"/><path d="M29.163 15.936c.112-2.318-1.507-3.856-3.335-4.912l-1.187 6.978c.822-.046 1.224.266 1.37.413.183.184.64.735.091 1.607 1.142-.184 2.926-1.286 3.061-4.086z" fill="url(#paint1_linear)"/><path fill-rule="evenodd" clip-rule="evenodd" d="M13.584 7.812L12.168 6.39c2.132-.26 7.757.073 13.202 3.489.092.367 0 .918 0 .918l.457.23c.396.566 1.069 2.176.594 4.085-.475 1.91-1.294 2.724-1.645 2.892-.73 0-1.973.423-2.375 2.296-.402 1.873-1.173 2.28-1.508 2.25l-8.04.091-5.299-3.122-.777-6.473 1.508-2.02 2.695-2.203 1.919-.78.685-.23zm9.496 2.674c-.355.37-.686.546-.781.595-2.07-.44-2.816-1.512-2.816-1.512 1.953-.012 3.715.452 5.005 1.238 0 0-.698-.226-1.408-.321z" fill="url(#paint2_linear)"/><path fill-rule="evenodd" clip-rule="evenodd" d="M22.428 20.3c-1.427.696-3.118 1.099-4.93 1.099-5.097 0-9.23-3.186-9.23-7.116 0-2.904 2.258-5.403 5.494-6.508-6.15.35-11.094 5.265-11.094 11.33 0 6.999 6.27 12.781 14.003 12.781 5.775 0 10.582-3.331 13.096-7.789-3.458.774-7.552-.697-7.34-3.798z" fill="url(#paint3_linear)"/><path d="M41.492 23.164h2.136v-3.95h2.413c2.69 0 4.86-1.457 4.86-4.195v-.035c0-2.475-1.77-4.108-4.618-4.108h-4.79v12.288zm2.136-5.898v-4.424h2.482c1.597 0 2.621.737 2.621 2.194v.036c0 1.281-1.007 2.194-2.621 2.194h-2.483z" fill="url(#paint4_linear)"/><path d="M71.168 23.375c3.733 0 6.372-2.914 6.372-6.355v-.035c0-3.458-2.604-6.32-6.337-6.32-3.732 0-6.37 2.915-6.37 6.355v.035c0 3.458 2.603 6.32 6.335 6.32zm.035-2.002c-2.43 0-4.131-1.966-4.131-4.353v-.035c0-2.387 1.683-4.318 4.096-4.318 2.43 0 4.132 1.966 4.132 4.353v.035c0 2.388-1.684 4.319-4.097 4.319z" fill="url(#paint5_linear)"/><path d="M82.114 23.164h2.135V12.877h3.871v-2h-9.878v2h3.872v10.287z" fill="url(#paint6_linear)"/><path d="M95.266 23.375c3.732 0 6.371-2.914 6.371-6.355v-.035c0-3.458-2.604-6.32-6.337-6.32-3.732 0-6.37 2.915-6.37 6.355v.035c0 3.458 2.603 6.32 6.336 6.32zm.034-2.002c-2.43 0-4.131-1.966-4.131-4.353v-.035c0-2.387 1.684-4.318 4.097-4.318 2.43 0 4.131 1.966 4.131 4.353v.035c0 2.388-1.684 4.319-4.097 4.319z" fill="url(#paint7_linear)"/><path d="M109.511 23.375c2.257 0 3.698-.825 4.931-2.177l-1.372-1.404c-1.041.983-2.014 1.58-3.489 1.58-2.326 0-4.01-1.949-4.01-4.354v-.035c0-2.405 1.701-4.318 3.993-4.318 1.406 0 2.106.597 3.096 1.51l1.695-1.598c-1.163-1.123-2.517-1.913-4.774-1.913-3.663 0-6.25 2.86-6.25 6.354v.035c0 3.529 2.639 6.32 6.18 6.32z" fill="url(#paint8_linear)"/><path d="M121.599 23.375c3.733 0 6.371-2.914 6.371-6.355v-.035c0-3.458-2.604-6.32-6.336-6.32s-6.371 2.915-6.371 6.355v.035c0 3.458 2.604 6.32 6.336 6.32zm.035-2.002c-2.43 0-4.132-1.966-4.132-4.353v-.035c0-2.387 1.684-4.318 4.097-4.318 2.431 0 4.132 1.966 4.132 4.353v.035c0 2.388-1.684 4.319-4.097 4.319z" fill="url(#paint9_linear)"/><path d="M129.978 23.164h8.524v-1.966h-6.389V10.876h-2.135v12.288z" fill="url(#paint10_linear)"/><path d="M58.575 10.953c1.499 0 2.674.453 3.44 1.22.63.681.989 1.57.989 2.635v.1c-.025 1.924-1.143 3.098-2.721 3.6l-.107.033 3.22 4.623h-2.488l-2.93-4.257H56.44l1.08-1.901h.901c1.465 0 2.41-.75 2.452-1.956l.001-.085v-.082c-.021-1.295-.921-1.977-2.47-1.977h-3.049v3.775h-.002v2.723h.002v3.76H53.26V10.952h5.315z" fill="url(#paint11_linear)"/><defs><linearGradient id="paint6_linear" x1="41.492" y1="21.544" x2="46.793" y2="-6.004" gradientUnits="userSpaceOnUse"><stop stop-color="#FFC58F"/><stop offset="1" stop-color="#FF7C7C"/></linearGradient><linearGradient id="paint0_linear" x1="16.59" y1="12.17" x2="16.59" y2="33.513" gradientUnits="userSpaceOnUse"><stop stop-color="#FF9230"/><stop offset="1" stop-color="#FFD5AB"/></linearGradient><linearGradient id="paint2_linear" x1="11.509" y1="3.953" x2="27.791" y2="18.723" gradientUnits="userSpaceOnUse"><stop stop-color="#FFC58F"/><stop offset="1" stop-color="#FF7C7C"/></linearGradient><linearGradient id="paint3_linear" x1="11.732" y1="13.617" x2="33.837" y2="29.679" gradientUnits="userSpaceOnUse"><stop stop-color="#FFC58F"/><stop offset="1" stop-color="#FF7C7C"/></linearGradient><linearGradient id="paint4_linear" x1="41.492" y1="21.544" x2="46.793" y2="-6.004" gradientUnits="userSpaceOnUse"><stop stop-color="#FFC58F"/><stop offset="1" stop-color="#FF7C7C"/></linearGradient><linearGradient id="paint5_linear" x1="41.492" y1="21.544" x2="46.793" y2="-6.004" gradientUnits="userSpaceOnUse"><stop stop-color="#FFC58F"/><stop offset="1" stop-color="#FF7C7C"/></linearGradient><linearGradient id="paint1_linear" x1="26.155" y1="13.204" x2="34.76" y2="15.314" gradientUnits="userSpaceOnUse"><stop stop-color="#FFC58F"/><stop offset="1" stop-color="#FF7C7C"/></linearGradient><linearGradient id="paint7_linear" x1="41.492" y1="21.544" x2="46.793" y2="-6.004" gradientUnits="userSpaceOnUse"><stop stop-color="#FFC58F"/><stop offset="1" stop-color="#FF7C7C"/></linearGradient><linearGradient id="paint8_linear" x1="41.492" y1="21.544" x2="46.793" y2="-6.004" gradientUnits="userSpaceOnUse"><stop stop-color="#FFC58F"/><stop offset="1" stop-color="#FF7C7C"/></linearGradient><linearGradient id="paint9_linear" x1="41.492" y1="21.544" x2="46.793" y2="-6.004" gradientUnits="userSpaceOnUse"><stop stop-color="#FFC58F"/><stop offset="1" stop-color="#FF7C7C"/></linearGradient><linearGradient id="paint10_linear" x1="41.492" y1="21.544" x2="46.793" y2="-6.004" gradientUnits="userSpaceOnUse"><stop stop-color="#FFC58F"/><stop offset="1" stop-color="#FF7C7C"/></linearGradient><linearGradient id="paint11_linear" x1="41.492" y1="21.544" x2="46.793" y2="-6.004" gradientUnits="userSpaceOnUse"><stop stop-color="#FFC58F"/><stop offset="1" stop-color="#FF7C7C"/></linearGradient></defs></svg>