<svg width="91" height="93" fill="none" xmlns="http://www.w3.org/2000/svg"><path d="M12.329 38.456l6.833 18.224c1.944.335 3.14.792 3.14 1.295v.01l-.003-.01.011.044c.041.21.035.44-.02.688h.012l-.037.104c-.053.199-.135.41-.247.632-1.812 4.281-5.815 7.301-10.742 7.301-4.85 0-8.992-2.928-10.866-7.104l.11.195a4.141 4.141 0 01-.453-1.041l-.03-.086.01-.001a1.757 1.757 0 01-.035-.596l.025-.136.005-.057c.09-.5 1.36-.95 3.363-1.276l6.82-18.186c.328-.882 1.773-.882 2.104 0zm36.049-.002l6.833 18.22c1.85.316 3.033.741 3.165 1.212l-.019-.038c.108.208.14.448.094.72l-.028.137c-.04.154-.1.315-.182.485-1.764 4.416-5.893 7.552-10.915 7.552-4.969 0-9.194-3.073-11-7.412a2.706 2.706 0 01-.235-.603l-.004-.02-.001-.002-.014-.087a2.014 2.014 0 01.029-.556l.027-.146-.002.013a.305.305 0 01.005-.025l.002-.01h.002c.123-.487 1.369-.925 3.315-1.245l6.824-18.195c.328-.883 1.773-.883 2.104 0zm-37.102 3.605L5.923 56.334c1.563-.14 3.35-.22 5.246-.22l.34.002a58.5 58.5 0 015.128.238l-5.36-14.295zm36.05 0L41.97 56.337a59.64 59.64 0 015.284-.222h.34a58.6 58.6 0 015.09.236l-5.36-14.292zM29.459 17.317s2.666 8.365 2.666 9.846c0 1.02-.589 1.883-1.427 2.335.69.224 1.297.617 1.771 1.144 1.06-.922 2.62-1.78 4.858-1.78 2.56 0 4.761 1.12 6.704 2.109a29.26 29.26 0 001.773.85c.414-.439.992-.72 1.64-.72a2.277 2.277 0 012.27 2.285 2.277 2.277 0 01-2.27 2.285c-1.02 0-1.849-.685-2.137-1.615-.744-.285-1.506-.67-2.29-1.068-1.718-.873-3.667-1.864-5.69-1.864-1.944 0-3.158.907-3.85 1.674.026.195.058.387.058.588 0 2.264-1.825 4.101-4.076 4.101-2.25 0-4.075-1.837-4.075-4.1 0-.202.031-.397.058-.591-.695-.77-1.909-1.672-3.85-1.672-2.024 0-3.973.993-5.693 1.866-.782.398-1.544.783-2.288 1.068-.288.93-1.117 1.615-2.136 1.615a2.279 2.279 0 01-2.27-2.287 2.277 2.277 0 012.27-2.284c.648 0 1.226.282 1.64.719a26.736 26.736 0 001.77-.85c1.943-.989 4.146-2.109 6.706-2.109 2.24 0 3.8.858 4.858 1.78a4.038 4.038 0 011.772-1.144c-.839-.453-1.428-1.312-1.428-2.335 0-1.481 2.666-9.846 2.666-9.846z" fill="url(#paint0_linear)"/><path d="M61.324 14.53s-2.766.238-4.598 1.229c0 0 7.288-.04 10.68 2.81 0 0-8.25-2.535-17.864 3.759 0 0 15.291-2.93 22.54 3.285 0 0-2.339-4.33-7.258-5.26 0 0 5.597-.224 7.514.708 0 0-1.655-3.567-3.532-4.417V14.1c0-.515-2.803-3.133-7.482-3.575v4.005z" fill="url(#paint1_linear)"/><path d="M60.08 25.9s1.18 1.03 1.679 1.98c0 0-1.078 1.066-2.109 1.59 0 0 3.122.984 3.944 2.147-1.664-.524-4.507-.328-5.192 1.086 1.9-.205 3.064.286 3.309 1.014 0 0-.452.651-1.835.94-1.474.309-1.85.921-1.85 1.777 0 .855 1.119 1.637 3.151 1.574 2.03-.065 7.564-.902 7.982-11.373-.418-.985-5.474-2.995-9.092-2.973l.013 2.239zM70.9 37.489c2.484-3.867 3.843-7.236 4.077-10.107 3.678 4.087 3.457 8.873 2.832 12.535a27.11 27.11 0 00-1.63-3.636c.44 5.646-1.232 8.704-5.016 9.171a29.865 29.865 0 01-.264-7.963zM24.991 2.418c-.69 1.062-1.702 4.015-3.036 8.859-2.997 3.43-5.928 8.136-8.795 14.12-1.415.44-2.916 1.061-4.504 1.863 4.071-7.485 8.054-13.135 11.95-16.952.9-2.99 2.361-5.62 4.385-7.89zm8.207 8.351L23.125 15.52c2.87.048 5.15-.474 6.838-1.566 1.689-1.091 2.767-2.154 3.235-3.186zm-3.717-1.734c-.057-2.077-.327-3.244-.811-3.502-.538-.24-.85-.758-.538-1.702.193-.6.135-1.27-.174-2.006L30.69 0l3.075 1.938c.108.684-.116 1.315-.67 1.893.67.725.67 1.661-.106 2.742.021.268.036.53.045.788.013.39-.002.948-.045 1.674H29.48z" fill="#CBD7E9"/><path d="M67.42 41.033c-.481 8.78 1.388 13.77 5.608 14.97 6.331 1.798 14.8 2.323 17.102 15.656.572 1.804.294 3.461.767 5.086a50.365 50.365 0 01-6.019 5.424c-2.104-5.088-4.735-8.23-8.433-10.51-14.577-9.08-17.585-19.288-9.025-30.626zM30.724 68.976c7.633 19.161 19.851 6.884 29.29 11.372 4.316 2.052 6.67 5.82 7.062 11.302a50.436 50.436 0 01-11.453 1.31c-7.638 0-14.88-1.7-21.371-4.745-.024-5.768-1.2-12.181-3.528-19.24zm40.753-57.332c3.079 4.896 4.515 8.517 4.308 10.863-.078.848-.451 1.794-1.118 2.839 2.343-.21 3.514-1.65 3.514-4.322s-2.235-5.799-6.704-9.38zm-26.752 5.517c1.98-.547 3.598-1.782 4.855-3.706-.08 1.146-.367 2.131-.86 2.958 5.722-1.03 10.163-4.497 13.323-10.403C56.216 2.842 50.21 5.004 46.99 8.945c-2.146 2.627-2.901 5.366-2.266 8.216z" fill="#CBD7E9"/><defs><linearGradient id="paint0_linear" x1="0" y1="59.625" x2="54.276" y2="15.911" gradientUnits="userSpaceOnUse"><stop stop-color="#FFC58F"/><stop offset="1" stop-color="#FF7C7C"/></linearGradient><linearGradient id="paint1_linear" x1="49.542" y1="23.44" x2="66.493" y2="6.004" gradientUnits="userSpaceOnUse"><stop stop-color="#FFC58F"/><stop offset="1" stop-color="#FF7C7C"/></linearGradient></defs></svg>