<svg width="81" height="92" fill="none" xmlns="http://www.w3.org/2000/svg"><path d="M66.92 31.056v12.797L40.727 29.036l-28.662 16.24v16.763l28.662 16.164 39.888-22.6v12.872l-39.888 22.6-40.038-22.6V38.839l39.963-22.675L66.92 31.056z" fill="url(#paint0_linear)"/><path d="M14.46 47.895v12.871L40.726 75.51l39.962-22.526V23.348L40.727.673.689 23.348v12.797L40.652 13.47 69.24 29.71v16.837L40.727 62.712 14.459 47.894z" fill="url(#paint1_linear)"/><path d="M66.42 42.996L40.973 28.601l-.246-.14-.247.14-28.662 16.24-.253.143V62.33l.254.143L40.481 78.64l.246.139.246-.14 39.142-22.177v11.722L40.726 90.501 1.19 68.183V39.13l39.462-22.39L66.42 31.348v11.648zm-25.521-29.96l-.247-.141-.247.14L1.19 35.287V23.64L40.727 1.248l39.462 22.391v29.052L40.726 74.936 14.96 60.474V48.75l25.522 14.397.246.138.247-.139 28.512-16.164.254-.144V29.419l-.253-.144L40.9 13.035z" stroke="url(#paint2_linear)"/><defs><linearGradient id="paint0_linear" x1="12.357" y1="70.68" x2="74.551" y2="30.648" gradientUnits="userSpaceOnUse"><stop stop-color="#FFA24B" stop-opacity=".15"/><stop offset="1" stop-color="#FF6767" stop-opacity=".49"/></linearGradient><linearGradient id="paint1_linear" x1="12.357" y1="70.68" x2="74.551" y2="30.648" gradientUnits="userSpaceOnUse"><stop stop-color="#FFA24B" stop-opacity=".15"/><stop offset="1" stop-color="#FF6767" stop-opacity=".49"/></linearGradient><linearGradient id="paint2_linear" x1="88.671" y1="6.323" x2="7.954" y2="82.735" gradientUnits="userSpaceOnUse"><stop stop-color="#FFBE8E"/><stop offset="1" stop-color="#FF847E"/></linearGradient></defs></svg>