<svg width="557" height="557" fill="none" xmlns="http://www.w3.org/2000/svg"><path fill-rule="evenodd" clip-rule="evenodd" d="M278.5 557C432.311 557 557 432.311 557 278.5S432.311 0 278.5 0 0 124.689 0 278.5 124.689 557 278.5 557z" fill="#FFE2D7"/><path d="M194.442 220.022C217.096 227.746 247.126 232 279 232c31.874 0 61.904-4.254 84.558-11.978C387.703 211.79 401 200.24 401 187.5c0-12.741-13.297-24.291-37.442-32.523C340.904 147.254 310.874 143 279 143c-31.874 0-61.904 4.254-84.558 11.978C170.297 163.209 157 174.759 157 187.5s13.297 24.29 37.442 32.522z" fill="#fff"/><path fill-rule="evenodd" clip-rule="evenodd" d="M392.677 237c-1.913 0-3.986.647-6.339 1.978-3.473 1.966-7.859 3.475-12.502 5.074l-1.346.465c-25.35 8.765-58.553 13.592-93.49 13.592-34.936 0-68.139-4.827-93.489-13.592-7.17-2.479-9.162-3.259-11.811-4.62-2.693-1.412-5.199-2.128-7.452-2.128-4.879 0-7.876 3.273-8.682 6.518a19.032 19.032 0 00-.566 4.587c0 12.919 13.297 24.633 37.441 32.98C217.095 289.686 247.125 294 279 294c31.874 0 61.904-4.314 84.558-12.146 24.145-8.347 37.442-20.061 37.442-32.98 0-2.012-.327-4.031-.983-6.031-1.664-5.083-5.312-5.843-7.34-5.843zm.002 60c-1.913 0-3.986.647-6.338 1.978-3.47 1.964-7.853 3.472-12.491 5.069l-1.359.469c-25.351 8.764-58.554 13.592-93.49 13.592-34.936 0-68.138-4.828-93.489-13.592-7.171-2.48-9.163-3.26-11.812-4.621-2.693-1.411-5.199-2.128-7.452-2.128-4.879 0-7.876 3.274-8.682 6.519a19.024 19.024 0 00-.566 4.586c0 12.92 13.297 24.632 37.441 32.982C217.095 349.686 247.125 354 279 354c31.874 0 61.904-4.314 84.558-12.146C387.703 333.505 401 321.792 401 308.872a19.26 19.26 0 00-.983-6.029c-1.662-5.083-5.31-5.843-7.338-5.843zm-.002 60c-1.913 0-3.986.646-6.338 1.977-3.476 1.967-7.865 3.477-12.513 5.078l-1.336.461c-25.35 8.765-58.553 13.593-93.49 13.593-34.936 0-68.139-4.828-93.489-13.593-7.17-2.479-9.162-3.259-11.811-4.62-2.693-1.412-5.199-2.128-7.452-2.128-4.879 0-7.876 3.274-8.682 6.519a19.024 19.024 0 00-.566 4.586c0 12.919 13.297 24.632 37.441 32.981C217.095 409.686 247.125 414 279 414c31.874 0 61.904-4.314 84.558-12.146C387.703 393.506 401 381.793 401 368.873c0-2.012-.327-4.032-.982-6.029-1.664-5.085-5.313-5.844-7.341-5.844z" fill="#FF9084" fill-opacity=".25"/></svg>