<svg width="558" height="557" viewBox="0 0 558 557" fill="none" xmlns="http://www.w3.org/2000/svg">
<g id="Group 78">
<g id="Group 59">
<path id="Oval" fill-rule="evenodd" clip-rule="evenodd" d="M278.95 557C432.761 557 557.45 432.311 557.45 278.5C557.45 124.689 432.761 0 278.95 0C125.139 0 0.450012 124.689 0.450012 278.5C0.450012 432.311 125.139 557 278.95 557Z" fill="#FFE2D7"/>
<path id="Path" fill-rule="evenodd" clip-rule="evenodd" d="M402.95 231.4H156.35V186.85C156.35 178.663 162.988 172 171.146 172H230.33C258.383 172 266.343 181.346 273.366 189.592C279.127 196.354 283.684 201.7 301.025 201.7H388.154C396.312 201.7 402.95 208.363 402.95 216.55V231.4Z" fill="#FF9084" fill-opacity="0.25"/>
<path id="Shape" d="M155.9 246.7H402.5V369.647C402.5 377.781 395.862 384.4 387.704 384.4H170.696C162.538 384.4 155.9 377.781 155.9 369.647V246.7Z" fill="white"/>
</g>
</g>
</svg>
