<svg width="557" height="557" fill="none" xmlns="http://www.w3.org/2000/svg"><g fill-rule="evenodd" clip-rule="evenodd"><path d="M278.5 557C432.311 557 557 432.311 557 278.5S432.311 0 278.5 0 0 124.689 0 278.5 124.689 557 278.5 557z" fill="url(#paint0_linear)"/><path d="M96.008 389.002s-.849-92.911 86.493-103.09c5 12.106 26.658 65.629 26.658 65.629l26.807-65.629s85.811 8.88 85.811 105.234c-86.855-.513-219.974 0-219.974 0l-5.795-2.144zm113.151-118.358c25.947 0 46.98-21.034 46.98-46.98 0-25.946-21.033-46.98-46.98-46.98-25.946 0-46.98 21.034-46.98 46.98 0 25.946 21.034 46.98 46.98 46.98z" fill="#fff"/><path opacity=".668" d="M224.708 343.318s-.849-92.91 86.493-103.089c5 12.105 26.658 65.628 26.658 65.628l26.807-65.628s85.811 8.879 85.811 105.233c-86.855-.513-219.974 0-219.974 0l-5.795-2.144z" fill="url(#paint1_linear)"/><path opacity=".668" d="M337.859 224.96c25.947 0 46.98-21.034 46.98-46.98 0-25.946-21.033-46.98-46.98-46.98-25.946 0-46.98 21.034-46.98 46.98 0 25.946 21.034 46.98 46.98 46.98z" fill="#fff"/></g><defs><linearGradient id="paint0_linear" x1="172.727" y1="782.523" x2="719.023" y2="350.945" gradientUnits="userSpaceOnUse"><stop stop-color="#FFB36D"/><stop offset="1" stop-color="#F88"/></linearGradient><linearGradient id="paint1_linear" x1="390.897" y1="433.938" x2="433.775" y2="250.184" gradientUnits="userSpaceOnUse"><stop stop-color="#fff" stop-opacity=".01"/><stop offset="1" stop-color="#fff"/></linearGradient></defs></svg>