<svg width="557" height="557" fill="none" xmlns="http://www.w3.org/2000/svg"><path fill-rule="evenodd" clip-rule="evenodd" d="M278.5 557C432.311 557 557 432.311 557 278.5S432.311 0 278.5 0 0 124.689 0 278.5 124.689 557 278.5 557z" fill="url(#paint0_linear)"/><path opacity=".7" fill-rule="evenodd" clip-rule="evenodd" d="M161.597 398.686c5.976 6.882 10.145 14.865 12.152 23.179 1.101 4.6-1.179 9.214-5.242 11.264l.015.03c-24.255 12.282-55.694 4.387-73.505-16.122-5.977-6.882-10.146-14.864-12.152-23.179-1.1-4.6 1.179-9.214 5.242-11.264 24.371-12.604 55.974-4.077 73.49 16.092zm117.383-83.407c.015 15.596.036 34.785 0 0zM158.69 124.855c13.136 23.533 6.835 54.645-12.298 73.256-6.567 6.388-14.288 11.013-22.422 13.478-4.866 1.474-9.978-.922-12.052-5.421-4.026-7.211-6.392-15.557-6.854-24.325-1.419-26.982 15.541-54.522 41.572-62.409 4.867-1.474 9.98.922 12.054 5.421zm-13.644 25a37.682 37.682 0 00-1.176-7.599c-14.721 9.227-22.467 28.88-18.067 45.581 12.535-7.856 20.022-23.333 19.243-37.982zm-59.305 45.761c-4.263-2.367-9.74-1.367-12.851 2.573-16.87 21.375-14.968 53.529 1.718 74.726 5.465 6.943 12.26 12.419 19.757 15.981 4.263 2.366 9.74 1.367 12.851-2.574 22.48-28.481 11.322-75.127-21.475-90.706zm3.403 28.45c9.257 11.538 12.082 28.347 6.319 41.911-13.46-11.125-18.515-31.526-11.753-47.442a38.11 38.11 0 015.434 5.531zM60.49 289.238c-4.762-.16-9.12 3.063-10.203 7.866-6.008 26.617 9.668 55.045 33.92 67.08 8.025 3.983 16.668 6.022 25.137 5.973 4.762.161 9.119-3.063 10.203-7.866 8.016-35.511-22.29-73.265-59.057-73.053zm16.224 24.141c13.178 6.605 22.848 20.623 23.603 35.388-16.703-4.483-29.9-20.781-30.79-38.139a38.146 38.146 0 017.188 2.751zm36.953 82.831a37.473 37.473 0 00-7.752.756c8.468 15.297 27.758 24.323 44.785 20.814-7.216-13.036-22.276-21.49-37.033-21.57z" fill="url(#paint1_linear)"/><path opacity=".7" fill-rule="evenodd" clip-rule="evenodd" d="M396.403 398.686c-5.976 6.882-10.145 14.865-12.152 23.179-1.101 4.6 1.179 9.214 5.242 11.264l-.015.03c24.255 12.282 55.694 4.387 73.505-16.122 5.977-6.882 10.146-14.864 12.152-23.179 1.101-4.6-1.179-9.214-5.242-11.264-24.371-12.604-55.974-4.077-73.49 16.092zM279.02 315.279c-.015 15.596-.036 34.785 0 0zm120.29-190.424c-13.136 23.533-6.835 54.645 12.298 73.256 6.567 6.388 14.288 11.013 22.422 13.478 4.866 1.474 9.978-.922 12.052-5.421 4.026-7.211 6.392-15.557 6.854-24.325 1.419-26.982-15.541-54.522-41.572-62.409-4.867-1.474-9.98.922-12.054 5.421zm13.644 25c.14-2.628.537-5.175 1.176-7.599 14.721 9.227 22.467 28.88 18.067 45.581-12.535-7.856-20.022-23.333-19.243-37.982zm59.305 45.761c4.263-2.367 9.74-1.367 12.851 2.573 16.87 21.375 14.968 53.529-1.718 74.726-5.465 6.943-12.259 12.419-19.757 15.981-4.263 2.366-9.74 1.367-12.851-2.574-22.48-28.481-11.322-75.127 21.475-90.706zm-3.403 28.45c-9.257 11.538-12.082 28.347-6.318 41.911 13.458-11.125 18.514-31.526 11.752-47.442a38.103 38.103 0 00-5.434 5.531zm28.655 65.172c4.763-.16 9.119 3.063 10.203 7.866 6.009 26.617-9.668 55.045-33.919 67.08-8.026 3.983-16.669 6.022-25.138 5.973-4.762.161-9.119-3.063-10.203-7.866-8.016-35.511 22.29-73.265 59.057-73.053zm-16.224 24.141c-13.178 6.605-22.848 20.623-23.603 35.388 16.703-4.483 29.901-20.781 30.79-38.139a38.11 38.11 0 00-7.187 2.751zm-36.953 82.831a37.473 37.473 0 017.752.756c-8.468 15.297-27.758 24.323-44.785 20.814 7.216-13.036 22.276-21.49 37.033-21.57z" fill="url(#paint2_linear)"/><path opacity=".668" d="M278.371 207.956H155.743v141.6h122.628v-141.6z" fill="url(#paint3_linear)"/><path opacity=".668" d="M401.001 207.956H278.373v141.6h122.628v-141.6z" fill="url(#paint4_linear)"/><path d="M278.371 278.753l-22.125 70.801 22.125 70.801 122.628-70.801-122.628-70.801z" fill="url(#paint5_linear)"/><path d="M155.743 349.554l122.628 70.801V278.753l-122.628 70.801z" fill="url(#paint6_linear)"/><path d="M278.371 137.156l-22.125 70.801 22.125 70.801 122.628-70.801-122.628-70.801z" fill="url(#paint7_linear)"/><path d="M155.743 207.957l122.628 70.801V137.156l-122.628 70.801z" fill="url(#paint8_linear)"/><defs><linearGradient id="paint0_linear" x1="861.609" y1="-250.65" x2="-22.058" y2="418.733" gradientUnits="userSpaceOnUse"><stop stop-color="#FFB36D"/><stop offset="1" stop-color="#F88"/></linearGradient><linearGradient id="paint1_linear" x1="103.944" y1="72.594" x2="371.396" y2="216.274" gradientUnits="userSpaceOnUse"><stop stop-color="#FFECDB"/><stop offset="1" stop-color="#FF9898"/></linearGradient><linearGradient id="paint2_linear" x1="454.056" y1="72.594" x2="186.604" y2="216.274" gradientUnits="userSpaceOnUse"><stop stop-color="#FFECDB"/><stop offset="1" stop-color="#FF9898"/></linearGradient><linearGradient id="paint3_linear" x1="317.364" y1="314.156" x2="244.845" y2="234.276" gradientUnits="userSpaceOnUse"><stop stop-color="#FFE6DC"/><stop offset="1" stop-color="#FFDBCE"/></linearGradient><linearGradient id="paint4_linear" x1="439.994" y1="314.156" x2="367.475" y2="234.276" gradientUnits="userSpaceOnUse"><stop stop-color="#FFE6DC"/><stop offset="1" stop-color="#FFDBCE"/></linearGradient><linearGradient id="paint5_linear" x1="336.611" y1="396.994" x2="385.198" y2="276.912" gradientUnits="userSpaceOnUse"><stop stop-color="#FFC9B4"/><stop offset="1" stop-color="#FFA48E"/></linearGradient><linearGradient id="paint6_linear" x1="223.825" y1="396.994" x2="278.17" y2="283.209" gradientUnits="userSpaceOnUse"><stop stop-color="#FFC9B4"/><stop offset="1" stop-color="#FFA48E"/></linearGradient><linearGradient id="paint7_linear" x1="447.027" y1="243.358" x2="376.609" y2="151.798" gradientUnits="userSpaceOnUse"><stop stop-color="#FFCEBB"/><stop offset="1" stop-color="#FFE6DD"/></linearGradient><linearGradient id="paint8_linear" x1="317.364" y1="243.358" x2="244.844" y2="163.478" gradientUnits="userSpaceOnUse"><stop stop-color="#FFCEBB"/><stop offset="1" stop-color="#FFF2ED"/></linearGradient></defs></svg>