<svg width="556" height="555" fill="none" xmlns="http://www.w3.org/2000/svg"><path fill-rule="evenodd" clip-rule="evenodd" d="M277.932 554.231c153.047 0 277.115-124.069 277.115-277.116C555.047 124.069 430.979 0 277.932 0 124.885 0 .816 124.069.816 277.115c0 153.047 124.069 277.116 277.116 277.116z" fill="#FFF3EF"/><path d="M194.291 218.928c22.541 7.685 52.422 11.918 84.138 11.918 31.715 0 61.596-4.233 84.137-11.918 24.026-8.192 37.256-19.685 37.256-32.361 0-12.677-13.23-24.17-37.256-32.361-22.541-7.685-52.422-11.918-84.137-11.918-31.716 0-61.597 4.233-84.138 11.918-24.025 8.191-37.256 19.684-37.256 32.361 0 12.677 13.231 24.169 37.256 32.361z" fill="url(#paint0_linear)"/><path opacity=".5" fill-rule="evenodd" clip-rule="evenodd" d="M391.541 235.815c-1.904 0-3.966.644-6.308 1.968-3.455 1.957-7.819 3.458-12.44 5.049l-1.339.462c-25.225 8.722-58.262 13.526-93.025 13.526-34.763 0-67.8-4.804-93.025-13.526-7.134-2.466-9.116-3.242-11.752-4.596-2.68-1.405-5.173-2.118-7.415-2.118-4.855 0-7.837 3.257-8.639 6.486a18.942 18.942 0 00-.563 4.564c0 12.855 13.231 24.51 37.255 32.816 22.542 7.793 52.422 12.086 84.138 12.086 31.716 0 61.597-4.293 84.138-12.086 24.025-8.306 37.256-19.961 37.256-32.816a19.21 19.21 0 00-.978-6.001c-1.656-5.058-5.286-5.814-7.303-5.814z" fill="url(#paint1_linear)"/><path opacity=".5" fill-rule="evenodd" clip-rule="evenodd" d="M391.543 295.519c-1.904 0-3.966.644-6.307 1.969-3.453 1.953-7.814 3.454-12.429 5.044l-1.352.466c-25.226 8.721-58.263 13.524-93.025 13.524-34.763 0-67.799-4.803-93.025-13.524-7.135-2.468-9.117-3.244-11.753-4.598-2.68-1.405-5.173-2.118-7.415-2.118-4.855 0-7.837 3.258-8.639 6.487a18.934 18.934 0 00-.563 4.563c0 12.856 13.231 24.51 37.255 32.818 22.542 7.793 52.422 12.086 84.138 12.086 31.716 0 61.597-4.293 84.138-12.086 24.025-8.307 37.256-19.962 37.256-32.818a19.19 19.19 0 00-.978-5.999c-1.654-5.058-5.284-5.814-7.301-5.814z" fill="url(#paint2_linear)"/><path opacity=".5" fill-rule="evenodd" clip-rule="evenodd" d="M391.541 355.23c-1.904 0-3.966.643-6.307 1.967-3.459 1.958-7.826 3.46-12.45 5.052l-1.33.459c-25.225 8.722-58.262 13.526-93.025 13.526-34.763 0-67.8-4.804-93.025-13.526-7.134-2.466-9.116-3.242-11.752-4.596-2.68-1.405-5.173-2.118-7.415-2.118-4.855 0-7.837 3.257-8.639 6.486a18.942 18.942 0 00-.563 4.564c0 12.855 13.231 24.51 37.255 32.817 22.542 7.793 52.422 12.086 84.138 12.086 31.716 0 61.597-4.293 84.138-12.086 24.025-8.306 37.256-19.961 37.256-32.817 0-2.002-.326-4.012-.977-5.999-1.656-5.06-5.287-5.815-7.304-5.815z" fill="url(#paint3_linear)"/><defs><linearGradient id="paint0_linear" x1="215.034" y1="129.446" x2="285.008" y2="272.835" gradientUnits="userSpaceOnUse"><stop stop-color="#FFEFE0"/><stop offset="1" stop-color="#FBB"/></linearGradient><linearGradient id="paint1_linear" x1="215.034" y1="227.59" x2="247.408" y2="331.175" gradientUnits="userSpaceOnUse"><stop stop-color="#FFEFE0"/><stop offset="1" stop-color="#FBB"/></linearGradient><linearGradient id="paint2_linear" x1="215.034" y1="287.294" x2="247.408" y2="390.879" gradientUnits="userSpaceOnUse"><stop stop-color="#FFEFE0"/><stop offset="1" stop-color="#FBB"/></linearGradient><linearGradient id="paint3_linear" x1="215.034" y1="347.005" x2="247.408" y2="450.59" gradientUnits="userSpaceOnUse"><stop stop-color="#FFEFE0"/><stop offset="1" stop-color="#FBB"/></linearGradient></defs></svg>