<svg width="22" height="23" viewBox="0 0 22 23" fill="none" xmlns="http://www.w3.org/2000/svg"><path fill-rule="evenodd" clip-rule="evenodd" d="M1.545 20.599a.551.551 0 01-.386-.937l8.876-8.877L7.94 8.678l-.319.32a.543.543 0 01-.77 0 .551.551 0 010-.776l.318-.32L5.83 6.555a.551.551 0 010-.776l4.59-4.618a.543.543 0 01.77 0l1.339 1.346.319-.32a.543.543 0 01.77 0 .551.551 0 010 .776l-.318.32 4.96 4.992.32-.321a.543.543 0 01.77 0 .551.551 0 010 .776l-.318.32 1.338 1.347a.55.55 0 010 .777l-4.59 4.618a.543.543 0 01-.77 0l-1.34-1.347-.318.32a.543.543 0 01-.771 0 .551.551 0 010-.775l.318-.32-2.094-2.109-8.875 8.877c.71-.714-.246.16-.386.16zm12.898-6.93l.953.96 3.818-3.843-.952-.959-3.82 3.842zm-3.246-3.266l2.475 2.49L17.49 9.05l-4.96-4.99-3.82 3.841 2.475 2.49.006.006.005.006zm-4.21-4.236l.953.96 3.819-3.843-.953-.959-3.819 3.842zm13.468 16.21H8.352a.547.547 0 01-.545-.549c0-.303.244-.548.545-.548h12.103c.3 0 .545.245.545.548a.547.547 0 01-.545.55zM17.73 19.98h-6.656a.547.547 0 01-.545-.549c0-.303.244-.549.545-.549h6.656c.301 0 .546.246.546.55a.547.547 0 01-.546.548z" fill="#8FA4B5"/><path d="M1.16 20.438l-.071.07.07-.07zm0-.776l-.07-.07h-.001l.07.07zm8.875-8.877l.07.071a.1.1 0 000-.141l-.07.07zM7.94 8.678l.071-.07a.1.1 0 00-.142 0l.071.07zm-.319.32l.071.071-.07-.07zm-.77 0l-.072.071.071-.07zm0-.776l.07.07-.07-.07zm.318-.32l.07.07a.1.1 0 000-.14l-.07.07zM5.83 6.555l.07-.07-.07.07zm0-.776l.07.07-.07-.07zm4.59-4.618l-.072-.07.071.07zm.77 0l.071-.07-.07.07zm1.339 1.346l-.071.07a.1.1 0 00.142 0l-.071-.07zm.319-.32l-.071-.07.07.07zm.77 0l.072-.07-.071.07zm0 .776l.072.07-.071-.07zm-.318.32l-.07-.07a.1.1 0 000 .14l.07-.07zm4.96 4.992l-.07.07a.1.1 0 00.142 0l-.071-.07zm.32-.321l-.072-.07.071.07zm.77 0l.071-.07-.07.07zm0 .776l.071.07-.07-.07zm-.318.32l-.071-.07a.1.1 0 000 .141l.07-.07zm1.338 1.347l.071-.07-.07.07zm0 .777l.071.07-.07-.07zm-4.59 4.618l.071.07-.07-.07zm-.77 0l-.072.07.071-.07zm-1.34-1.347l.072-.07a.1.1 0 00-.142 0l.07.07zm-.318.32l.071.071-.07-.07zm-.771 0l-.071.071.07-.07zm0-.775l-.071-.07.07.07zm.318-.32l.071.07a.1.1 0 000-.141l-.07.07zm-2.094-2.109l.07-.07a.1.1 0 00-.14 0l.07.07zM1.93 20.438l-.07-.07a.1.1 0 00.14.14l-.07-.07zm12.512-6.769l-.071-.07a.1.1 0 000 .14l.07-.07zm.953.96l-.071.07a.1.1 0 00.142 0l-.071-.07zm3.818-3.843l.071.07a.1.1 0 000-.14l-.07.07zm-.952-.959l.07-.07a.1.1 0 00-.141 0l.07.07zm-7.065.576l-.07.07.07-.07zm2.475 2.49l-.071.07a.1.1 0 00.142 0l-.071-.07zM17.49 9.05l.071.07a.1.1 0 000-.14l-.07.07zm-4.96-4.99l.07-.07a.1.1 0 00-.141 0l.07.07zM8.71 7.901l-.07-.07a.1.1 0 000 .14l.07-.07zm2.475 2.49l-.071.07.001.002.07-.072zM6.987 6.167l-.07-.07a.1.1 0 000 .14l.07-.07zm.953.96l-.07.07a.1.1 0 00.141 0l-.07-.07zm3.819-3.843l.07.07a.1.1 0 000-.14l-.07.07zm-.953-.959l.07-.07a.1.1 0 00-.141 0l.071.07zm-9.26 18.174a.442.442 0 01-.315-.131l-.142.14a.64.64 0 00.456.19v-.2zm-.315-.131a.451.451 0 010-.636l-.142-.14a.651.651 0 000 .917l.142-.142zm0-.635l8.874-8.877-.141-.141-8.875 8.876.141.142zm8.874-9.018L8.011 8.607l-.142.141 2.095 2.108.141-.141zM7.87 8.607l-.318.321.141.141.319-.32-.142-.142zm-.318.321a.443.443 0 01-.63 0l-.142.141a.643.643 0 00.913 0l-.141-.141zm-.63 0a.451.451 0 010-.635l-.142-.141a.651.651 0 000 .917l.142-.141zm0-.635l.319-.32-.142-.142-.319.32.142.142zm.319-.462L5.9 6.485l-.141.14 1.338 1.347.142-.14zM5.9 6.485a.451.451 0 010-.635l-.141-.141a.651.651 0 000 .917l.141-.141zm0-.635l4.59-4.619-.142-.14-4.59 4.618.142.14zm4.59-4.619a.443.443 0 01.63 0l.141-.14a.643.643 0 00-.913 0l.142.14zm.63 0l1.338 1.347.142-.141-1.339-1.347-.141.141zm1.48 1.347l.318-.32-.141-.142-.319.32.142.142zm.318-.32a.443.443 0 01.63 0l.142-.142a.643.643 0 00-.913 0l.141.141zm.63 0a.451.451 0 010 .634l.142.141a.651.651 0 000-.917l-.142.141zm0 .634l-.319.32.142.142.319-.32-.142-.142zm-.319.462l4.96 4.991.142-.14-4.96-4.992-.142.14zm5.102 4.991l.32-.32-.143-.141-.318.32.142.141zm.32-.32a.443.443 0 01.629 0l.141-.141a.643.643 0 00-.913 0l.142.14zm.628 0a.451.451 0 010 .635l.142.14a.651.651 0 000-.916l-.142.14zm0 .635l-.318.32.142.141.318-.32-.142-.141zm-.318.461l1.338 1.347.142-.141-1.338-1.347-.142.141zm1.338 1.347a.45.45 0 01.131.317h.2a.65.65 0 00-.189-.458l-.142.14zm.131.317a.45.45 0 01-.13.318l.141.14a.65.65 0 00.189-.458h-.2zm-.13.318l-4.59 4.618.141.141 4.59-4.618-.142-.141zm-4.59 4.618a.443.443 0 01-.63 0l-.142.141a.642.642 0 00.913 0l-.142-.14zm-.63 0l-1.338-1.346-.142.14 1.338 1.347.142-.14zm-1.48-1.346l-.319.32.142.141.319-.32-.142-.141zm-.319.32a.443.443 0 01-.63 0l-.141.141a.643.643 0 00.913 0l-.142-.14zm-.63 0a.451.451 0 010-.635l-.141-.14a.651.651 0 000 .916l.142-.14zm0-.635l.32-.32-.142-.141-.32.32.143.141zm.32-.461l-2.095-2.108-.142.14 2.095 2.109.141-.141zm-2.237-2.108L1.86 20.367l.142.142 8.875-8.877-.142-.141zm-8.733 9.018a9.921 9.921 0 00.246-.257.407.407 0 00.034-.05.101.101 0 00-.047-.134.102.102 0 00-.067-.008.115.115 0 00-.023.007.273.273 0 00-.044.026 2.837 2.837 0 00-.105.078c-.085.066-.194.152-.29.221a1.76 1.76 0 01-.165.105c-.012.005-.008.002.004.002v.2c.03 0 .058-.01.075-.018a.543.543 0 00.062-.032 1.84 1.84 0 00.14-.095c.1-.072.213-.16.296-.224a2.59 2.59 0 01.096-.073l.01-.006-.017.005c-.004 0-.031.006-.061-.009a.099.099 0 01-.055-.088c0-.02.006-.034.007-.037l.005-.01a9.882 9.882 0 01-.243.255l.142.142zm12.37-6.77l.953.96.142-.141-.953-.96-.142.142zm1.095.96l3.818-3.843-.142-.14-3.818 3.842.142.14zm3.818-3.984l-.953-.958-.141.14.952.96.142-.142zm-1.094-.958l-3.82 3.842.143.14 3.818-3.841-.141-.141zm-7.065.716l2.475 2.49.142-.14-2.475-2.49-.142.14zm2.617 2.49l3.818-3.842-.142-.141-3.818 3.842.142.141zM17.56 8.98L12.6 3.989l-.142.14 4.96 4.992.142-.141zm-5.1-4.991L8.64 7.83l.142.14 3.819-3.842-.142-.14zM8.64 7.972l2.475 2.49.142-.141-2.475-2.49-.142.14zm2.476 2.491a.208.208 0 01.005.004l.141-.14-.007-.007-.139.143zm.005.004l.001.002.004.004.142-.14-.002-.002-.004-.005-.141.141zm-4.205-4.23l.953.96.142-.141-.953-.959-.142.14zm1.095.96l3.819-3.843-.142-.14-3.819 3.842.142.14zm3.819-3.984l-.953-.958-.142.14.953.96.142-.142zm-1.095-.958L6.916 6.097l.142.14 3.819-3.841-.142-.141zm9.72 20.022H8.352v.2h12.103v-.2zm-12.103 0a.447.447 0 01-.445-.449h-.2c0 .358.288.65.645.65v-.2zm-.445-.449c0-.248.2-.448.445-.448v-.2a.647.647 0 00-.645.648h.2zm.445-.448h12.103v-.2H8.352v.2zm12.103 0c.245 0 .445.2.445.448h.2a.647.647 0 00-.645-.648v.2zm.445.448c0 .249-.2.45-.445.45v.2a.647.647 0 00.645-.65h-.2zm-3.169-1.948h-6.656v.2h6.656v-.2zm-6.656 0a.447.447 0 01-.445-.449h-.2c0 .358.288.649.645.649v-.2zm-.445-.449c0-.248.2-.448.445-.448v-.2a.647.647 0 00-.645.648h.2zm.445-.448h6.656v-.2h-6.656v.2zm6.656 0c.246 0 .446.2.446.448h.2a.647.647 0 00-.646-.649v.2zm.446.448c0 .249-.2.449-.446.449v.2a.647.647 0 00.646-.649h-.2z" fill="#8FA4B5"/></svg>