<svg width="557" height="557" fill="none" xmlns="http://www.w3.org/2000/svg"><path fill-rule="evenodd" clip-rule="evenodd" d="M278.5 557C432.311 557 557 432.311 557 278.5S432.311 0 278.5 0 0 124.689 0 278.5 124.689 557 278.5 557z" fill="#FFE2D7"/><path d="M203.729 242.282A38.373 38.373 0 00176.511 231c-21.264-.006-38.505 17.226-38.511 38.49-.006 21.263 17.226 38.504 38.489 38.51 21.264.006 38.505-17.226 38.511-38.489a38.505 38.505 0 00-11.271-27.229z" fill="#FF9084" fill-opacity=".25"/><path fill-rule="evenodd" clip-rule="evenodd" d="M178.061 320h-4.09c-43.019.108-77.865 35.365-77.971 78.888v5.573c0 3.059 2.45 5.539 5.475 5.539h149.05c3.024 0 5.475-2.48 5.475-5.539v-5.573c-.124-43.504-34.94-78.745-77.939-78.888z" fill="#FF9084" fill-opacity=".25"/><path d="M441.003 130.19a149.966 149.966 0 00-88.503-27.171 149.966 149.966 0 00-88.503 27.171C240.484 147.518 226 171.628 226 198.469a75.423 75.423 0 008.653 34.846 93.483 93.483 0 0019.704 25.475l-20.08 41.768c-1.923 3.952-.281 8.715 3.665 10.638a7.936 7.936 0 007.715-.42l46.179-28.536a151.769 151.769 0 0027.181 8.241 166.35 166.35 0 0033.483 3.39 149.965 149.965 0 0088.503-27.17C464.516 249.372 479 225.262 479 198.422c0-26.841-14.531-50.904-37.997-68.232z" fill="#fff"/></svg>