<svg width="564" height="564" viewBox="0 0 564 564" fill="none" xmlns="http://www.w3.org/2000/svg"><circle cx="282" cy="282" r="282" fill="url(#paint0_linear)"/><path d="M426.216 275.237c9.412 0 17.043-7.63 17.043-17.043 0-9.412-7.631-17.043-17.043-17.043-9.413 0-17.043 7.631-17.043 17.043 0 9.413 7.63 17.043 17.043 17.043zm75.531-3.379c-5.657-14.406-16.033-35.195-33.334-52.414-17.24-17.16-37.809-27.239-52.026-32.673-15.637-5.977-33.406-2.209-45.268 9.596l-41.584 41.39c-12.356 12.297-15.917 31.219-8.862 47.086a195.517 195.517 0 007.06 14.292l-91.215 91.215a10.69 10.69 0 00-3.131 7.559v46.594c0 5.904 4.785 10.689 10.689 10.689h46.594c5.904 0 10.69-4.785 10.69-10.689v-18.961l18.961-.001c5.903 0 10.689-4.785 10.689-10.689v-18.961h18.961c5.904 0 10.69-4.786 10.69-10.689 0-5.904-4.786-10.69-10.69-10.69h-29.65c-5.904 0-10.69 4.786-10.69 10.69v18.96l-18.961.001c-5.904 0-10.689 4.785-10.689 10.689v18.961h-25.215v-31.476l93.876-93.876a10.69 10.69 0 001.581-13.103c-3.668-6.045-7.037-12.505-10.014-19.201-3.477-7.82-1.706-17.163 4.409-23.249l41.583-41.388c5.909-5.881 14.762-7.756 22.555-4.779 12.288 4.697 29.994 13.341 44.576 27.856 14.671 14.602 23.605 32.57 28.516 45.075a20.926 20.926 0 01-4.724 22.494l-42.086 41.889c-6.1 6.07-15.204 7.846-23.196 4.522a137.46 137.46 0 01-19.047-9.718c-5.031-3.088-11.614-1.513-14.702 3.519-3.088 5.031-1.513 11.614 3.518 14.702a158.79 158.79 0 0022.02 11.236c15.997 6.654 34.245 3.078 46.489-9.108l42.085-41.888a42.294 42.294 0 009.542-45.462z" fill="#fff" stroke="#fff" stroke-width=".2"/><path fill-rule="evenodd" clip-rule="evenodd" d="M203.164 396.893c-45.051-22.772-76.014-69.511-76.014-123.344 0-76.15 61.955-138.105 138.105-138.105 31.556 0 61.2 10.304 85.736 29.796 5.951 4.751 14.653 3.756 19.404-2.215 4.751-5.968 3.756-14.66-2.219-19.404-29.047-23.086-65.599-35.798-102.921-35.798-91.376 0-165.726 74.35-165.726 165.726 0 64.184 36.683 119.966 90.182 147.483 3.333 1.016 11.438 2.245 15.978-7.701 4.83-10.579-.93-15.365-2.525-16.438z" fill="url(#paint1_linear)"/><path d="M268.168 163.065c7.623 0 13.81 6.188 13.81 13.811v96.673c0 7.624-6.187 13.811-13.81 13.811h-69.053c-7.623 0-13.81-6.187-13.81-13.811 0-7.623 6.187-13.81 13.81-13.81h55.242v-82.863c0-7.623 6.187-13.811 13.811-13.811z" fill="url(#paint2_linear)"/><defs><linearGradient id="paint0_linear" x1="872.438" y1="-253.8" x2="-22.336" y2="423.995" gradientUnits="userSpaceOnUse"><stop stop-color="#FFB36D"/><stop offset="1" stop-color="#F88"/></linearGradient><linearGradient id="paint1_linear" x1="-54.295" y1="269.068" x2="264.052" y2="539.419" gradientUnits="userSpaceOnUse"><stop stop-color="#fff" stop-opacity=".99"/><stop offset="1" stop-color="#fff" stop-opacity=".215"/></linearGradient><linearGradient id="paint2_linear" x1="182.471" y1="211.5" x2="261.946" y2="339.5" gradientUnits="userSpaceOnUse"><stop stop-color="#fff" stop-opacity=".85"/><stop offset="1" stop-color="#fff" stop-opacity=".215"/></linearGradient></defs></svg>