<svg width="19" height="22" fill="none" xmlns="http://www.w3.org/2000/svg"><path d="M18.014 5.516c-.011-.579-.021-1.125-.021-1.654a.75.75 0 00-.75-.75c-3.207 0-5.648-.921-7.684-2.9a.75.75 0 00-1.045 0c-2.035 1.979-4.476 2.9-7.682 2.9a.75.75 0 00-.75.75c0 .53-.01 1.076-.022 1.654-.103 5.382-.243 12.754 8.731 15.864a.75.75 0 00.491 0c8.975-3.11 8.835-10.482 8.732-15.864zm-8.977 14.36C1.34 17.08 1.457 10.956 1.56 5.545c.006-.325.012-.64.016-.948 3.003-.127 5.405-1.037 7.46-2.828 2.057 1.79 4.459 2.701 7.462 2.828.005.308.01.623.017.947.103 5.41.22 11.536-7.478 14.332z" fill="#8FA4B5"/><path d="M11.619 8.106L8 11.725 6.456 10.18a.75.75 0 00-1.06 1.06l2.074 2.074a.747.747 0 001.06 0l4.15-4.149a.75.75 0 10-1.061-1.06z" fill="#8FA4B5"/></svg>