<svg width="556" height="555" viewBox="0 0 556 555" fill="none" xmlns="http://www.w3.org/2000/svg">
<path fill-rule="evenodd" clip-rule="evenodd" d="M278.014 554.231C431.061 554.231 555.129 430.162 555.129 277.115C555.129 124.069 431.061 0 278.014 0C124.967 0 0.898438 124.069 0.898438 277.115C0.898438 430.162 124.967 554.231 278.014 554.231Z" fill="#FFF3EF"/>
<path opacity="0.7" d="M235.197 352.003C235.197 360.774 242.384 367.965 251.162 367.965H333.936L323.317 418.618C322.035 424.57 323.87 430.768 328.18 435.047L340.873 447.756L419.714 368.917C424.041 364.603 426.74 358.635 426.74 352.003V248.287C426.74 235.039 416.049 224.344 402.802 224.344H295.052C285.166 224.344 276.638 230.329 273.027 238.94L236.878 323.386C235.841 326.083 235.197 328.959 235.197 332.068V352.021L235.197 352.003Z" fill="url(#paint0_linear)"/>
<path d="M311.836 205.207C311.787 196.377 304.653 189.245 295.871 189.245H213.097L223.716 138.591C224.998 132.639 223.164 126.441 218.853 122.162L206.16 109.453L127.319 188.292C122.993 192.606 120.293 198.592 120.293 205.207V308.923C120.293 322.17 130.984 332.865 144.231 332.865H251.981C261.867 332.865 270.395 326.88 274.007 318.27L310.155 233.859C311.192 231.145 311.836 228.269 311.836 225.159V205.207Z" fill="url(#paint1_linear)"/>
<defs>
<linearGradient id="paint0_linear" x1="-94.6547" y1="-17.9175" x2="485.566" y2="114.549" gradientUnits="userSpaceOnUse">
<stop stop-color="white"/>
<stop offset="1" stop-color="#FFB6B6"/>
</linearGradient>
<linearGradient id="paint1_linear" x1="372.743" y1="277.012" x2="258.22" y2="152.127" gradientUnits="userSpaceOnUse">
<stop stop-color="#FFCEBB"/>
<stop offset="1" stop-color="#FFF2ED"/>
</linearGradient>
</defs>
</svg>
