<svg width="555" height="555" fill="none" xmlns="http://www.w3.org/2000/svg"><path fill-rule="evenodd" clip-rule="evenodd" d="M277.543 554.231c153.047 0 277.116-124.069 277.116-277.116C554.659 124.069 430.59 0 277.543 0 124.497 0 .428 124.069.428 277.115c0 153.047 124.069 277.116 277.115 277.116z" fill="#FFF3EF"/><path opacity=".668" fill-rule="evenodd" clip-rule="evenodd" d="M362.37 197.66v186.654c0 10.038-8.147 18.172-18.183 18.172H176.126c-10.044 0-18.183-8.134-18.183-18.172V138.568c0-10.037 8.139-18.172 18.183-18.172h108.935l77.309 77.264z" fill="url(#paint0_linear)"/><path fill-rule="evenodd" clip-rule="evenodd" d="M362.375 197.66h-59.126c-10.044 0-18.183-8.134-18.183-18.172v-59.092l77.309 77.264z" fill="#fff"/><path fill-rule="evenodd" clip-rule="evenodd" d="M426.411 405.595c4.536 4.249 4.77 11.375.524 15.914a10.79 10.79 0 01-.524.524 10.791 10.791 0 01-8.1 3.603 11.021 11.021 0 01-8.326-3.603l-39.377-39.182a95.186 95.186 0 009.001-7.657 69.548 69.548 0 007.425-8.782l.9.675 38.477 38.508z" fill="url(#paint1_linear)"/><path fill-rule="evenodd" clip-rule="evenodd" d="M406.38 318.414c0-45.062-36.53-81.592-81.592-81.592-45.063 0-81.593 36.53-81.593 81.592 0 45.063 36.53 81.593 81.593 81.593 45.062 0 81.592-36.53 81.592-81.593zm-141.261-.017c0-32.972 26.729-59.702 59.702-59.702 32.972 0 59.701 26.73 59.701 59.702 0 32.972-26.729 59.702-59.701 59.702-32.973 0-59.702-26.73-59.702-59.702z" fill="url(#paint2_linear)"/><defs><linearGradient id="paint0_linear" x1="427.374" y1="331.964" x2="282.709" y2="198.62" gradientUnits="userSpaceOnUse"><stop stop-color="#fff" stop-opacity=".01"/><stop offset="1" stop-color="#fff"/></linearGradient><linearGradient id="paint1_linear" x1="187.489" y1="272.632" x2="445.183" y2="324.322" gradientUnits="userSpaceOnUse"><stop stop-color="#FFEFE0"/><stop offset="1" stop-color="#FBB"/></linearGradient><linearGradient id="paint2_linear" x1="282.178" y1="213.157" x2="439.057" y2="330.414" gradientUnits="userSpaceOnUse"><stop stop-color="#FFEFE0"/><stop offset="1" stop-color="#FBB"/></linearGradient></defs></svg>