<svg width="21" height="21" viewBox="0 0 21 21" fill="none" xmlns="http://www.w3.org/2000/svg"><path d="M11.75 15.285a5.789 5.789 0 005.785-5.792c0-3.2-2.59-5.793-5.785-5.793a5.789 5.789 0 00-5.786 5.793c0 3.199 2.59 5.792 5.786 5.792z" fill="url(#paint0_linear)"/><path d="M15.871 7.911c.415.562.574 1.07.574 1.76 0 .836-.344 1.609-.931 2.235l.357 1.335h1.085l1.141-1.297.306-1.897.064-1.13-1.129-1.277c-1.003-.121-1.492-.03-1.467.271z" fill="url(#paint1_linear)"/><mask id="a" maskUnits="userSpaceOnUse" x="3" y="6" width="15" height="15"><path d="M3.247 13.395l.198.786s2.335 4.796 7.59 6.578c0 0 4.783-2.044 6.907-5.512l-2.932-2.56s-1.403 1.117-3.49 1.117c-2.085 0-4.917-1.246-4.917-3.813 0-2.568 2.934-3.507 2.934-3.507l-1.25-.306H5.09L3.062 11.07l.185 2.325z" fill="url(#paint2_linear)"/></mask><g mask="url(#a)"><circle cx="11.336" cy="11.199" fill="url(#paint3_linear)" r="8.288"/></g><mask id="b" maskUnits="userSpaceOnUse" x="1" y="0" width="20" height="16"><path d="M20.91 8.003c-.088-.09-.892-4.224-7.991-6.67-.225-.154-7.718-1.362-6.574.271C-.25 3.288 1.251 7.782 1.251 8.003c0 .221.944 3.546 1.556 4.9.051.115.868 1.558 1.474 2.344-.357-.786-.746-1.469-.746-2.644 0-3.314 2.564-6.01 5.773-6.125.076 0 .159 0 .236.007l-.766-.767s3.081-.517 7.036 1.878c0 0 .058.121 0 .479 0 0 1.863.804 2.022 2.37.16 1.564-.83 2.458-1.627 2.586 0 0 .415-.645-.223-.99a.846.846 0 00-.453-.102c-1.218 0-1.36 1.393-1.36 1.393-.012.07-.012.14-.012.21 0 0-.204 2.037 3.419 1.999 0 0 1.837-2.082 2.322-3.953.179-.69.306-1.207.39-1.59.203-.543.401-1.343.592-1.924l.027-.071z" fill="url(#paint4_radial)"/></mask><g filter="url(#filter0_i)" mask="url(#b)"><ellipse cx="11.193" cy="11.219" rx="8.148" ry="8.387" fill="#000"/></g><path d="M14.238 8.216c.051-.026.217-.109.408-.307.383.051.76.172.76.172-.696-.421-1.646-.67-2.7-.664 0 0 .403.575 1.52.811l.012-.012z" fill="#000"/><path d="M11.18 19.407a8.41 8.41 0 100-16.821 8.41 8.41 0 000 16.82z" stroke="url(#paint5_linear)"/><defs><linearGradient id="paint0_linear" x1="11.75" y1="3.7" x2="11.75" y2="15.285" gradientUnits="userSpaceOnUse"><stop stop-color="#00DBE2"/><stop offset="1" stop-color="#02A9D6"/></linearGradient><linearGradient id="paint1_linear" x1="16.991" y1="7.588" x2="16.991" y2="13.241" gradientUnits="userSpaceOnUse"><stop stop-color="#00ECE1"/><stop offset="1" stop-color="#01D3E2"/></linearGradient><linearGradient id="paint2_linear" x1="10.502" y1="6.178" x2="10.502" y2="20.759" gradientUnits="userSpaceOnUse"><stop stop-color="#00F4E1"/><stop offset="1" stop-color="#02B4E4"/></linearGradient><linearGradient id="paint3_linear" x1="8.317" y1="8.582" x2="11.336" y2="19.487" gradientUnits="userSpaceOnUse"><stop stop-color="#00F4E1"/><stop offset="1" stop-color="#02B4E4"/></linearGradient><linearGradient id="paint5_linear" x1="11.179" y1="3.086" x2="15.669" y2="17.838" gradientUnits="userSpaceOnUse"><stop stop-color="#02DEE2"/><stop offset="1" stop-color="#01B5E3"/></linearGradient><radialGradient id="paint4_radial" cx="0" cy="0" r="1" gradientUnits="userSpaceOnUse" gradientTransform="matrix(.03596 0 0 .03596 -1.347 21.848)"><stop stop-color="#00C9FF"/><stop offset="1" stop-color="#7DD6E7"/></radialGradient><filter id="filter0_i" x="3.045" y="2.831" width="16.296" height="21.775" filterUnits="userSpaceOnUse" color-interpolation-filters="sRGB"><feFlood flood-opacity="0" result="BackgroundImageFix"/><feBlend in="SourceGraphic" in2="BackgroundImageFix" result="shape"/><feColorMatrix in="SourceAlpha" values="0 0 0 0 0 0 0 0 0 0 0 0 0 0 0 0 0 0 127 0" result="hardAlpha"/><feOffset dy="8"/><feGaussianBlur stdDeviation="2.5"/><feComposite in2="hardAlpha" operator="arithmetic" k2="-1" k3="1"/><feColorMatrix values="0 0 0 0 0.0902344 0 0 0 0 0.0902344 0 0 0 0 0.0879785 0 0 0 1 0"/><feBlend in2="shape" result="effect1_innerShadow"/></filter></defs></svg>