<svg width="555" height="555" fill="none" xmlns="http://www.w3.org/2000/svg"><path fill-rule="evenodd" clip-rule="evenodd" d="M277.539 555c153.047 0 277.116-124.068 277.116-277.115C554.655 124.838 430.586.77 277.539.77 124.493.77.424 124.838.424 277.885.424 430.932 124.493 555 277.539 555z" fill="#FFF3EF"/><path opacity=".7" fill-rule="evenodd" clip-rule="evenodd" d="M161.197 397.453c5.947 6.848 10.095 14.791 12.091 23.064 1.096 4.577-1.172 9.168-5.216 11.208l.016.029c-24.135 12.221-55.417 4.366-73.14-16.041-5.947-6.848-10.095-14.79-12.092-23.065-1.095-4.576 1.173-9.167 5.216-11.207 24.25-12.541 55.696-4.057 73.125 16.012zm116.796-82.985c.015 15.519.036 34.612 0 0zM158.261 124.991c13.071 23.416 6.801 54.373-12.236 72.892-6.535 6.356-14.218 10.958-22.311 13.411-4.842 1.467-9.929-.918-11.993-5.394-4.005-7.176-6.36-15.48-6.819-24.205-1.412-26.847 15.464-54.251 41.365-62.098 4.843-1.467 9.931.917 11.994 5.394zm-13.565 24.873a37.53 37.53 0 00-1.17-7.561c-14.648 9.181-22.355 28.736-17.978 45.355 12.473-7.818 19.923-23.217 19.148-37.794zm-58.983 45.532c-4.241-2.355-9.69-1.36-12.787 2.56-16.785 21.269-14.893 53.263 1.71 74.355 5.438 6.908 12.198 12.357 19.66 15.901 4.24 2.355 9.69 1.36 12.786-2.561 22.368-28.34 11.266-74.753-21.369-90.255zm3.373 28.312c9.21 11.48 12.021 28.206 6.287 41.702-13.392-11.069-18.423-31.368-11.694-47.206a37.953 37.953 0 015.407 5.504zm-28.511 64.847c-4.74-.16-9.074 3.048-10.153 7.827-5.978 26.484 9.62 54.771 33.75 66.746 7.987 3.963 16.587 5.992 25.013 5.943 4.739.16 9.074-3.047 10.153-7.826 7.976-35.335-22.179-72.901-58.763-72.69zm16.145 24.026c13.112 6.572 22.733 20.52 23.485 35.212-16.62-4.461-29.752-20.678-30.637-37.95a37.98 37.98 0 017.152 2.738zm36.769 82.414a37.31 37.31 0 00-7.713.753c8.426 15.221 27.62 24.202 44.562 20.71-7.181-12.971-22.166-21.383-36.849-21.463z" fill="url(#paint0_linear)"/><path opacity=".7" fill-rule="evenodd" clip-rule="evenodd" d="M394.825 397.459c-5.947 6.848-10.095 14.791-12.092 23.064-1.095 4.577 1.173 9.168 5.216 11.208l-.015.03c24.134 12.221 55.417 4.365 73.14-16.042 5.947-6.848 10.095-14.79 12.091-23.064 1.096-4.577-1.173-9.168-5.216-11.208-24.25-12.541-55.696-4.057-73.124 16.012zm-116.797-82.984c-.014 15.518-.036 34.612 0 0zm119.733-189.478c-13.071 23.417-6.802 54.373 12.236 72.892 6.534 6.356 14.217 10.958 22.31 13.411 4.843 1.467 9.93-.918 11.993-5.394 4.005-7.176 6.36-15.48 6.82-24.204 1.411-26.848-15.464-54.251-41.366-62.098-4.843-1.468-9.93.917-11.993 5.393zm13.565 24.873a37.54 37.54 0 011.169-7.561c14.649 9.182 22.356 28.736 17.978 45.355-12.473-7.817-19.923-23.217-19.147-37.794zm58.982 45.532c4.241-2.355 9.691-1.36 12.787 2.561 16.786 21.268 14.893 53.262-1.71 74.354-5.437 6.908-12.198 12.357-19.659 15.901-4.241 2.355-9.691 1.36-12.787-2.56-22.368-28.34-11.265-74.754 21.369-90.256zm-3.373 28.312c-9.21 11.48-12.021 28.206-6.286 41.703 13.391-11.069 18.422-31.369 11.694-47.206a37.93 37.93 0 00-5.408 5.503zm28.512 64.847c4.739-.159 9.074 3.048 10.152 7.827 5.979 26.484-9.62 54.771-33.75 66.747-7.986 3.962-16.586 5.992-25.013 5.943-4.739.159-9.074-3.048-10.152-7.827-7.977-35.335 22.179-72.901 58.763-72.69zm-16.145 24.026c-13.112 6.573-22.734 20.52-23.486 35.213 16.621-4.461 29.753-20.679 30.637-37.95a37.984 37.984 0 00-7.151 2.737zm-36.769 82.415a37.316 37.316 0 017.713.752c-8.426 15.222-27.62 24.203-44.563 20.711 7.181-12.971 22.166-21.384 36.85-21.463z" fill="url(#paint1_linear)"/><path opacity=".668" d="M277.378 207.695H155.36v140.896h122.018V207.695z" fill="url(#paint2_linear)"/><path opacity=".668" d="M399.405 207.695H277.387v140.896h122.018V207.695z" fill="url(#paint3_linear)"/><path d="M277.403 278.128l-22.015 70.449 22.015 70.449 122.018-70.449-122.018-70.449z" fill="url(#paint4_linear)"/><path d="M155.36 348.577l122.018 70.449V278.128L155.36 348.577z" fill="url(#paint5_linear)"/><path d="M277.403 137.237l-22.015 70.449 22.015 70.449 122.018-70.449-122.018-70.449z" fill="url(#paint6_linear)"/><path d="M155.361 207.686l122.018 70.449V137.237l-122.018 70.449z" fill="url(#paint7_linear)"/><defs><linearGradient id="paint0_linear" x1="103.816" y1="72.99" x2="369.945" y2="215.972" gradientUnits="userSpaceOnUse"><stop stop-color="#FFECDB"/><stop offset="1" stop-color="#FF9898"/></linearGradient><linearGradient id="paint1_linear" x1="452.205" y1="72.997" x2="186.077" y2="215.979" gradientUnits="userSpaceOnUse"><stop stop-color="#FFECDB"/><stop offset="1" stop-color="#FF9898"/></linearGradient><linearGradient id="paint2_linear" x1="316.178" y1="313.367" x2="244.02" y2="233.884" gradientUnits="userSpaceOnUse"><stop stop-color="#FFE6DC"/><stop offset="1" stop-color="#FFDBCE"/></linearGradient><linearGradient id="paint3_linear" x1="438.204" y1="313.367" x2="366.046" y2="233.884" gradientUnits="userSpaceOnUse"><stop stop-color="#FFE6DC"/><stop offset="1" stop-color="#FFDBCE"/></linearGradient><linearGradient id="paint4_linear" x1="289.795" y1="257.695" x2="426.065" y2="361.814" gradientUnits="userSpaceOnUse"><stop stop-color="#FFEFE0"/><stop offset="1" stop-color="#FBB"/></linearGradient><linearGradient id="paint5_linear" x1="184.509" y1="257.695" x2="313.36" y2="341.098" gradientUnits="userSpaceOnUse"><stop stop-color="#FFEFE0"/><stop offset="1" stop-color="#FBB"/></linearGradient><linearGradient id="paint6_linear" x1="445.22" y1="242.91" x2="375.152" y2="151.806" gradientUnits="userSpaceOnUse"><stop stop-color="#FFCEBB"/><stop offset="1" stop-color="#FFE6DD"/></linearGradient><linearGradient id="paint7_linear" x1="316.179" y1="242.91" x2="244.019" y2="163.428" gradientUnits="userSpaceOnUse"><stop stop-color="#FFCEBB"/><stop offset="1" stop-color="#FFF2ED"/></linearGradient></defs></svg>