<svg width="557" height="557" viewBox="0 0 557 557" fill="none" xmlns="http://www.w3.org/2000/svg"><path fill-rule="evenodd" clip-rule="evenodd" d="M278.5 557C432.311 557 557 432.311 557 278.5S432.311 0 278.5 0 0 124.689 0 278.5 124.689 557 278.5 557z" fill="#FFE2D7"/><path d="M235.5 353.768c0 8.816 7.223 16.042 16.045 16.042h83.188l-10.673 50.907a17.947 17.947 0 004.887 16.511L341.704 450l79.235-79.233c4.348-4.335 7.061-10.333 7.061-16.999V249.534c0-13.314-10.744-24.062-24.058-24.062H295.654a23.977 23.977 0 00-22.136 14.668l-36.329 84.869c-1.042 2.71-1.689 5.6-1.689 8.725v20.052-.018z" fill="#FF9084" fill-opacity=".25"/><path d="M312.5 206.232c-.049-8.875-7.218-16.042-16.045-16.042h-83.188l10.673-50.907a17.947 17.947 0 00-4.887-16.511L206.296 110l-79.235 79.233A23.948 23.948 0 00120 206.232v104.234c0 13.314 10.744 24.062 24.058 24.062h108.288a23.977 23.977 0 0022.136-14.668l36.329-84.833c1.042-2.728 1.689-5.618 1.689-8.743v-20.052z" fill="#fff"/></svg>