<svg width="51" height="50" fill="none" xmlns="http://www.w3.org/2000/svg"><circle cx="25.123" cy="25" r="24.6" stroke="url(#paint0_linear)" stroke-width=".8" stroke-miterlimit="11.474" stroke-linejoin="round"/><mask id="a" fill="#fff"><path fill-rule="evenodd" clip-rule="evenodd" d="M33.386 30.115a.072.072 0 00-.099-.067c-2.022.816-4.33 1.279-6.78 1.279-7.995 0-14.476-4.928-14.476-11.006 0-4.137 3.002-7.74 7.44-9.62.093-.04.048-.193-.051-.168C10.527 12.69 4 19.814 4 28.268c0 10.166 9.437 18.406 21.078 18.406 8.71 0 16.187-4.614 19.4-11.196.03-.064-.03-.134-.098-.114-.923.261-1.93.405-2.985.405-4.423 0-8.009-2.531-8.009-5.654z"/></mask><path d="M19.47 10.7l-.312-.736.313.737zm-.05-.167l-.189-.778.189.778zm25.057 24.945l.72.351-.72-.35zm-.097-.114l-.219-.77.219.77zm-11.093-5.316l-.3-.742.3.742zm-6.78 2.079c2.55 0 4.96-.482 7.08-1.338l-.6-1.483c-1.924.777-4.13 1.22-6.48 1.22v1.6zM11.231 20.32c0 3.343 1.784 6.312 4.556 8.42 2.77 2.106 6.564 3.386 10.72 3.386v-1.6c-3.838 0-7.284-1.184-9.752-3.06-2.468-1.877-3.924-4.41-3.924-7.146h-1.6zm7.927-10.357c-4.63 1.961-7.927 5.8-7.927 10.357h1.6c0-3.716 2.705-7.085 6.951-8.884l-.624-1.473zm.45 1.346a.724.724 0 01-.857-.488c-.072-.242-.017-.678.407-.858l.624 1.473c.52-.22.598-.752.502-1.073a.876.876 0 00-1.053-.608l.378 1.554zM4.8 28.268c0-8.01 6.196-14.867 14.809-16.958l-.378-1.555C10.057 11.982 3.2 19.371 3.2 28.268h1.6zm20.278 17.606c-11.304 0-20.278-7.98-20.278-17.606H3.2c0 10.706 9.9 19.206 21.878 19.206v-1.6zm18.68-10.746c-3.063 6.277-10.24 10.746-18.68 10.746v1.6c8.982 0 16.758-4.758 20.118-11.645l-1.438-.701zm.403-.534c-.85.241-1.784.375-2.766.375v1.6c1.127 0 2.208-.154 3.203-.436l-.437-1.54zm-2.766.375c-2.066 0-3.903-.592-5.202-1.51-1.3-.918-2.007-2.112-2.007-3.344h-1.6c0 1.891 1.087 3.524 2.684 4.652 1.6 1.13 3.768 1.802 6.125 1.802v-1.6zm3.801.86c.346-.708-.324-1.437-1.035-1.235l.437 1.54c-.573.162-1.122-.427-.84-1.006l1.438.701zm-11.61-5.04a.728.728 0 01-1-.674h1.6a.872.872 0 00-1.198-.81l.599 1.485z" fill="url(#paint1_linear)" mask="url(#a)"/><path d="M34.339 14.897l.286.28-.286-.28zm.07-.024l.055-.396-.055.396zm-1.152.846l.185.355-.185-.355zm-.054.007l.084-.39-.084.39zm.02 13.541l-.398-.051.397.051zm-.05.065l.16.366-.16-.366zm3.802-3.613l.303.26-.303-.26zm-.055.028l.044.398-.044-.398zm1.496-10.107l-.174.36.174-.36zm.033.03l.344-.204-.344.204zm-.902-.47l.4-.002-.4.002zm.05.076l-.158.367.158-.367zm-.162-1.415l-.274.291.274-.29zm.025.047l.396-.057-.396.057zm-1.653 1.085l.184-.356-.184.355zm-.063.15l-.1.388.1-.387zm-15.3-4.274l.3-.265-.3.265zm-.032.132l-.143-.374.143.374zm8.818 2.653l.304-.26-.304.26zm.06-.121l-.001.4.001-.4zM18.658 8.849l-.3.265.3-.265zm-.3.265l1.787 2.02.6-.53-1.787-2.02-.6.53zM37.71 13.57c-2.556-2.41-6.245-3.776-9.799-4.514-3.561-.74-7.038-.86-9.22-.742l.043.799c2.122-.116 5.529.002 9.014.726 3.494.726 7.014 2.05 9.414 4.313l.548-.582zm.238 1.628a9.862 9.862 0 00-.091-1.347l-.792.115c.043.296.08.712.083 1.236l.8-.004zm.643.081a24.893 24.893 0 00-.836-.37l-.315.734c.473.204.722.318.803.357l.348-.72zm-1.312 10.7c3.658-4.25 2.567-8.74 1.515-10.513l-.688.408c.918 1.548 1.953 5.65-1.434 9.584l.607.522zm-3.66 3.34a3.804 3.804 0 01.827-1.918c.507-.606 1.296-1.12 2.52-1.256l-.089-.795c-1.427.158-2.405.772-3.044 1.537a4.604 4.604 0 00-1.007 2.329l.794.102zm-7.155 1.773c2.495 0 4.84-.505 6.87-1.394l-.32-.733c-1.926.843-4.162 1.327-6.55 1.327v.8zm-13.957-10.79c0 3.019 1.598 5.725 4.128 7.664 2.529 1.938 6.006 3.126 9.83 3.126v-.8c-3.664 0-6.966-1.139-9.344-2.961-2.377-1.822-3.814-4.31-3.814-7.03h-.8zm7.763-9.675c-4.55 1.742-7.763 5.384-7.763 9.674h.8c0-3.853 2.899-7.26 7.25-8.927l-.287-.747zm13.173 5.447c.186-.097.667-.37 1.183-.897l-.573-.56a3.97 3.97 0 01-.98.747l.37.71zm-4.515-2.16c.37.433 1.608 1.646 4.191 2.203l.17-.782c-2.387-.514-3.479-1.62-3.754-1.941l-.607.52zm7.064.723c-1.832-.948-4.162-1.497-6.7-1.504l-.002.8c2.43.007 4.63.533 6.334 1.415l.368-.71zm-1.637.632c.467.065.93.17 1.29.262l.2-.775c-.377-.097-.873-.209-1.38-.28l-.11.793zm.27-.092a.317.317 0 01-.27.092l.11-.792a.483.483 0 00-.412.14l.573.56zm-1.551.187a.319.319 0 01.214-.029l-.169.782c.105.023.22.011.324-.043l-.37-.71zm-.248 13.852a.318.318 0 01.188-.25l.32.732a.482.482 0 00.286-.38l-.794-.102zm3.846-3.758a.315.315 0 01.205-.108l.088.795a.485.485 0 00.314-.165l-.607-.522zM38.242 16a.323.323 0 01-.137-.126l.688-.408a.476.476 0 00-.203-.187l-.348.721zm-1.095-.798c0 .191.114.365.292.441l.316-.735c.116.05.191.165.192.29l-.8.004zm.014-1.05a.319.319 0 01-.097-.186l.792-.115a.48.48 0 00-.147-.281l-.548.582zm-1.538 1.196a.324.324 0 01-.148-.408.318.318 0 01.37-.184l-.2.775c.272.07.49-.097.568-.283a.477.477 0 00-.222-.61l-.368.71zm-15.478-4.214a.317.317 0 01.124-.507l.286.747a.483.483 0 00.19-.77l-.6.53zm9.39 2.26c.085.1.1.244.042.36a.323.323 0 01-.288.179l.002-.8a.477.477 0 00-.43.263.471.471 0 00.066.518l.607-.52zm-10.577-4.81c.08.091.098.217.058.322a.323.323 0 01-.283.207l-.044-.799c-.44.024-.572.527-.33.8l.599-.53z" fill="url(#paint2_linear)"/><mask id="b" fill="#fff"><path fill-rule="evenodd" clip-rule="evenodd" d="M37.744 26.05c-.065-.013-.092-.094-.047-.143 1.018-1.108 1.794-2.59 2.15-4.297.375-1.795.224-3.547-.331-5.018-.03-.076.057-.146.124-.1 2.19 1.507 3.927 3.582 3.78 6.503-.2 3.937-2.627 5.564-4.291 5.91-.07.014-.12-.062-.085-.124.653-1.179.034-1.928-.22-2.185-.15-.15-.481-.42-1.08-.546z"/></mask><path d="M39.847 21.61l-.783-.163.783.163zm3.572 1.385l.8.04-.8-.04zm-4.595 3.601l-.57.563.57-.563zm.305 2.309l-.163-.783.163.783zm-.085-.124l.7.388-.7-.388zm.472-12.189l-.749.283.749-.283zm-1.82 9.315l.59.542-.59-.542zm.048.143l.164-.783-.164.783zm1.32-4.603c-.328 1.572-1.04 2.921-1.956 3.919l1.178 1.083c1.12-1.22 1.96-2.833 2.345-4.676l-1.567-.326zm-.297-4.572c.5 1.321.642 2.918.297 4.572l1.567.326c.404-1.936.245-3.844-.367-5.464l-1.497.566zm5.451 6.16c.168-3.321-1.831-5.623-4.125-7.202l-.907 1.318c2.086 1.436 3.562 3.284 3.434 5.803l1.598.081zm-4.926 6.653c1.993-.414 4.708-2.326 4.926-6.653l-1.598-.08c-.179 3.547-2.32 4.89-3.654 5.167l.326 1.566zm-1.037-2.53a.968.968 0 01.25.405c.043.152.069.416-.161.83l1.4.776c.423-.765.465-1.465.3-2.046a2.564 2.564 0 00-.651-1.09l-1.138 1.125zm-.675-.325c.419.088.616.266.675.326l1.137-1.125c-.238-.242-.705-.604-1.484-.767l-.328 1.567zm1.386 1.289c.319-.067.6.09.744.302a.713.713 0 01.033.745l-1.399-.776a.886.886 0 00.04.927c.178.262.52.449.908.368l-.326-1.566zm1.298-11.813c.23.607-.455 1.271-1.078.842l.907-1.318c-.757-.52-1.613.283-1.326 1.042l1.497-.566zm-3.156 9.057c-.483.525-.174 1.332.472 1.468l.328-1.567c.517.108.77.754.378 1.182l-1.178-1.083z" fill="url(#paint3_linear)" mask="url(#b)"/><defs><linearGradient id="paint0_linear" x1="25.123" y1="0" x2="25.123" y2="50" gradientUnits="userSpaceOnUse"><stop stop-color="#FF7C7C"/><stop offset="1" stop-color="#FFC58F"/></linearGradient><linearGradient id="paint1_linear" x1="17.013" y1="13.503" x2="23.276" y2="43.38" gradientUnits="userSpaceOnUse"><stop stop-color="#FF7C7C"/><stop offset="1" stop-color="#FFC58F"/></linearGradient><linearGradient id="paint2_linear" x1="26.156" y1="8.674" x2="26.156" y2="30.692" gradientUnits="userSpaceOnUse"><stop stop-color="#FF7C7C"/><stop offset="1" stop-color="#FFC58F"/></linearGradient><linearGradient id="paint3_linear" x1="40.57" y1="16.48" x2="40.54" y2="28.91" gradientUnits="userSpaceOnUse"><stop stop-color="#FF7C7C"/><stop offset="1" stop-color="#FFC58F"/></linearGradient></defs></svg>