<svg width="50" height="50" fill="none" xmlns="http://www.w3.org/2000/svg"><circle cx="25" cy="25" r="25" fill="url(#paint0_linear)" fill-opacity=".05"/><path d="M44.523 22.511c.173-3.6-2.341-5.987-5.179-7.627L37.5 25.72c1.277-.072 1.901.413 2.128.641.284.285.993 1.14.142 2.495 1.773-.285 4.543-1.996 4.753-6.344z" fill="url(#paint1_linear)"/><path fill-rule="evenodd" clip-rule="evenodd" d="M20.33 9.897l-2.198-2.21c3.31-.404 12.044.114 20.499 5.417.142.57 0 1.426 0 1.426l.71.357c.614.879 1.66 3.378.922 6.343-.738 2.966-2.01 4.23-2.554 4.491-1.135 0-3.064.656-3.689 3.564-.624 2.908-1.82 3.54-2.34 3.493l-12.484.142-8.229-4.847-1.205-10.05 2.34-3.136 4.185-3.422 2.98-1.212 1.064-.356zm14.744 4.152a4.635 4.635 0 01-1.212.923c-3.214-.684-4.372-2.347-4.372-2.347 3.032-.018 5.768.703 7.77 1.923 0 0-1.083-.351-2.186-.5z" fill="url(#paint2_linear)"/><path fill-rule="evenodd" clip-rule="evenodd" d="M33.998 29.333c-2.217 1.081-4.845 1.707-7.663 1.707-7.921 0-14.342-4.946-14.342-11.048 0-4.507 3.503-8.384 8.527-10.103-9.555.548-17.232 8.178-17.232 17.593 0 10.867 9.743 19.845 21.762 19.845 8.976 0 16.446-5.173 20.353-12.094-5.375 1.202-11.738-1.083-11.405-5.9z" fill="url(#paint3_linear)"/><defs><linearGradient id="paint0_linear" x1="25" y1="17.496" x2="25" y2="50.657" gradientUnits="userSpaceOnUse"><stop stop-color="#FF9230"/><stop offset="1" stop-color="#FFD5AB"/></linearGradient><linearGradient id="paint1_linear" x1="39.852" y1="18.269" x2="47.776" y2="20.848" gradientUnits="userSpaceOnUse"><stop stop-color="#FFC58F"/><stop offset="1" stop-color="#FF7C7C"/></linearGradient><linearGradient id="paint2_linear" x1="17.108" y1="3.905" x2="42.389" y2="26.838" gradientUnits="userSpaceOnUse"><stop stop-color="#FFC58F"/><stop offset="1" stop-color="#FF7C7C"/></linearGradient><linearGradient id="paint3_linear" x1="17.375" y1="18.961" x2="51.706" y2="43.931" gradientUnits="userSpaceOnUse"><stop stop-color="#FFC58F"/><stop offset="1" stop-color="#FF7C7C"/></linearGradient></defs></svg>