<svg width="557" height="557" viewBox="0 0 557 557" fill="none" xmlns="http://www.w3.org/2000/svg">
<path fill-rule="evenodd" clip-rule="evenodd" d="M278.5 557C432.311 557 557 432.311 557 278.5C557 124.689 432.311 0 278.5 0C124.689 0 0 124.689 0 278.5C0 432.311 124.689 557 278.5 557Z" fill="url(#paint0_linear)"/>
<path fill-rule="evenodd" clip-rule="evenodd" d="M402.5 231.4H155.9V186.85C155.9 178.663 162.539 172 170.696 172H229.88C257.934 172 265.894 181.346 272.917 189.592C278.677 196.354 283.235 201.7 300.576 201.7H387.704C395.862 201.7 402.5 208.363 402.5 216.55V231.4Z" fill="url(#paint1_linear)"/>
<path d="M155.45 246.7H402.05V369.646C402.05 377.781 395.412 384.4 387.254 384.4H170.246C162.089 384.4 155.45 377.781 155.45 369.646V246.7Z" fill="url(#paint2_linear)"/>
<defs>
<linearGradient id="paint0_linear" x1="861.609" y1="-250.65" x2="-22.0584" y2="418.733" gradientUnits="userSpaceOnUse">
<stop stop-color="#FFB36D"/>
<stop offset="1" stop-color="#FF8888"/>
</linearGradient>
<linearGradient id="paint1_linear" x1="214.81" y1="163.386" x2="249.576" y2="271.265" gradientUnits="userSpaceOnUse">
<stop stop-color="#FFEFE0"/>
<stop offset="1" stop-color="#FFBBBB"/>
</linearGradient>
<linearGradient id="paint2_linear" x1="214.359" y1="226.731" x2="346.721" y2="403.903" gradientUnits="userSpaceOnUse">
<stop stop-color="#FFECDB"/>
<stop offset="1" stop-color="#FF9898"/>
</linearGradient>
</defs>
</svg>
