<svg width="11" height="13" fill="none" xmlns="http://www.w3.org/2000/svg"><path d="M10.732 6.168a.9.9 0 00-.649-.259h-.305V4.136c0-1.132-.42-2.105-1.26-2.917A4.193 4.193 0 005.5 0C4.329 0 3.323.406 2.483 1.219c-.84.812-1.26 1.785-1.26 2.917V5.91H.916a.9.9 0 00-.65.259.84.84 0 00-.267.628v5.318c0 .246.09.455.267.628a.9.9 0 00.65.258h9.166a.9.9 0 00.65-.258.842.842 0 00.267-.628v-5.32a.84.84 0 00-.268-.627zm-2.788-.259H3.056V4.136c0-.652.238-1.21.716-1.67A2.396 2.396 0 015.5 1.772c.675 0 1.25.23 1.728.692a2.24 2.24 0 01.716 1.671V5.91z" fill="#9096B6"/></svg>