<svg width="557" height="557" viewBox="0 0 557 557" fill="none" xmlns="http://www.w3.org/2000/svg">
<g id="Group 76">
<g id="Group 61">
<path id="Oval Copy 6" fill-rule="evenodd" clip-rule="evenodd" d="M278.5 557C432.311 557 557 432.311 557 278.5C557 124.689 432.311 0 278.5 0C124.689 0 0 124.689 0 278.5C0 432.311 124.689 557 278.5 557Z" fill="#FFE2D7"/>
<path id="Path 4 Copy" fill-rule="evenodd" clip-rule="evenodd" d="M225.008 341.318C225.008 341.318 224.159 248.408 311.501 238.229C316.501 250.334 338.159 303.857 338.159 303.857L364.966 238.229C364.966 238.229 450.777 247.108 450.777 343.462C363.922 342.949 230.803 343.462 230.803 343.462L225.008 341.318Z" fill="#FF9084" fill-opacity="0.25"/>
<path id="Path 4" fill-rule="evenodd" clip-rule="evenodd" d="M96.0082 389.002C96.0082 389.002 95.1594 296.092 182.501 285.913C187.501 298.019 209.159 351.541 209.159 351.541L235.966 285.913C235.966 285.913 321.777 294.792 321.777 391.147C234.922 390.633 101.803 391.147 101.803 391.147L96.0082 389.002Z" fill="white"/>
<path id="Oval" fill-rule="evenodd" clip-rule="evenodd" d="M209.159 270.644C235.106 270.644 256.139 249.61 256.139 223.664C256.139 197.718 235.106 176.684 209.159 176.684C183.213 176.684 162.179 197.718 162.179 223.664C162.179 249.61 183.213 270.644 209.159 270.644Z" fill="white"/>
<path id="Oval Copy 7" fill-rule="evenodd" clip-rule="evenodd" d="M337.859 223.96C363.806 223.96 384.839 202.926 384.839 176.98C384.839 151.034 363.806 130 337.859 130C311.913 130 290.879 151.034 290.879 176.98C290.879 202.926 311.913 223.96 337.859 223.96Z" fill="#FF9084" fill-opacity="0.25"/>
</g>
</g>
</svg>
