<svg width="557" height="557" fill="none" xmlns="http://www.w3.org/2000/svg"><path fill-rule="evenodd" clip-rule="evenodd" d="M278.5 557C432.311 557 557 432.311 557 278.5S432.311 0 278.5 0 0 124.689 0 278.5 124.689 557 278.5 557z" fill="url(#paint0_linear)"/><path fill-rule="evenodd" clip-rule="evenodd" d="M402.5 231.4H155.9v-44.55c0-8.187 6.639-14.85 14.796-14.85h59.184c28.054 0 36.014 9.346 43.037 17.592 5.76 6.762 10.318 12.108 27.659 12.108h87.128c8.158 0 14.796 6.663 14.796 14.85v14.85z" fill="url(#paint1_linear)"/><path d="M155.45 246.7h246.6v122.946c0 8.135-6.638 14.754-14.796 14.754H170.246c-8.157 0-14.796-6.619-14.796-14.754V246.7z" fill="url(#paint2_linear)"/><defs><linearGradient id="paint0_linear" x1="861.609" y1="-250.65" x2="-22.058" y2="418.733" gradientUnits="userSpaceOnUse"><stop stop-color="#FFB36D"/><stop offset="1" stop-color="#F88"/></linearGradient><linearGradient id="paint1_linear" x1="214.81" y1="163.386" x2="249.576" y2="271.265" gradientUnits="userSpaceOnUse"><stop stop-color="#FFEFE0"/><stop offset="1" stop-color="#FBB"/></linearGradient><linearGradient id="paint2_linear" x1="214.359" y1="226.731" x2="346.721" y2="403.903" gradientUnits="userSpaceOnUse"><stop stop-color="#FFECDB"/><stop offset="1" stop-color="#FF9898"/></linearGradient></defs></svg>