<svg width="558" height="557" fill="none" xmlns="http://www.w3.org/2000/svg"><path fill-rule="evenodd" clip-rule="evenodd" d="M278.95 557c153.811 0 278.5-124.689 278.5-278.5S432.761 0 278.95 0 .45 124.689.45 278.5 125.139 557 278.95 557z" fill="#FFE2D7"/><path fill-rule="evenodd" clip-rule="evenodd" d="M402.95 231.4h-246.6v-44.55c0-8.187 6.638-14.85 14.796-14.85h59.184c28.053 0 36.013 9.346 43.036 17.592 5.761 6.762 10.318 12.108 27.659 12.108h87.129c8.158 0 14.796 6.663 14.796 14.85v14.85z" fill="#FF9084" fill-opacity=".25"/><path d="M155.9 246.7h246.6v122.947c0 8.134-6.638 14.753-14.796 14.753H170.696c-8.158 0-14.796-6.619-14.796-14.753V246.7z" fill="#fff"/></svg>