<svg width="557" height="557" viewBox="0 0 557 557" fill="none" xmlns="http://www.w3.org/2000/svg">
<path fill-rule="evenodd" clip-rule="evenodd" d="M278.5 557C432.311 557 557 432.311 557 278.5C557 124.689 432.311 0 278.5 0C124.689 0 0 124.689 0 278.5C0 432.311 124.689 557 278.5 557Z" fill="url(#paint0_linear)"/>
<path fill-rule="evenodd" clip-rule="evenodd" d="M415.104 161.29C415.104 202.534 410 285.029 410 285.029C343.363 235.53 281.847 334.528 215.211 285.029C215.211 243.786 215.211 202.534 215.211 161.29C281.847 210.781 348.467 111.791 415.104 161.29Z" fill="url(#paint1_linear)"/>
<path fill-rule="evenodd" clip-rule="evenodd" d="M199.312 410.289V159.733C199.312 154.514 195.081 150.283 189.862 150.283C184.643 150.283 180.412 154.514 180.412 159.733V410.289C180.412 415.508 184.643 419.739 189.862 419.739C195.081 419.739 199.312 415.508 199.312 410.289Z" fill="url(#paint2_linear)"/>
<defs>
<linearGradient id="paint0_linear" x1="861.609" y1="-250.65" x2="-22.0584" y2="418.733" gradientUnits="userSpaceOnUse">
<stop stop-color="#FFB36D"/>
<stop offset="1" stop-color="#FF8888"/>
</linearGradient>
<linearGradient id="paint1_linear" x1="262.963" y1="124.911" x2="415.615" y2="274.646" gradientUnits="userSpaceOnUse">
<stop stop-color="#FFEFE0"/>
<stop offset="1" stop-color="#FFBBBB"/>
</linearGradient>
<linearGradient id="paint2_linear" x1="132" y1="190" x2="228" y2="420" gradientUnits="userSpaceOnUse">
<stop stop-color="#FFECDB"/>
<stop offset="1" stop-color="#FF9898"/>
</linearGradient>
</defs>
</svg>
