<svg width="557" height="557" fill="none" xmlns="http://www.w3.org/2000/svg"><g fill-rule="evenodd" clip-rule="evenodd"><path d="M278.5 557C432.311 557 557 432.311 557 278.5S432.311 0 278.5 0 0 124.689 0 278.5 124.689 557 278.5 557z" fill="url(#paint0_linear)"/><path d="M415.104 161.29c0 41.244-5.104 123.739-5.104 123.739-66.636-49.499-128.152 49.499-194.789 0V161.29c66.637 49.491 133.257-49.499 199.893 0z" fill="#fff"/><path d="M199.312 410.289V159.733a9.45 9.45 0 00-18.9 0v250.556a9.45 9.45 0 0018.9 0z" fill="url(#paint1_linear)"/></g><defs><linearGradient id="paint0_linear" x1="172.727" y1="782.523" x2="719.023" y2="350.945" gradientUnits="userSpaceOnUse"><stop stop-color="#FFB36D"/><stop offset="1" stop-color="#F88"/></linearGradient><linearGradient id="paint1_linear" x1="169.796" y1="288.708" x2="207.435" y2="291.278" gradientUnits="userSpaceOnUse"><stop stop-color="#fff" stop-opacity=".6"/><stop offset="1" stop-color="#fff" stop-opacity=".215"/></linearGradient></defs></svg>