<svg width="15" height="18" fill="none" xmlns="http://www.w3.org/2000/svg"><path d="M14.72 2.632A14.384 14.384 0 007.478.674l-1.926 8.18L7.48 17.07l.243-.103a14.552 14.552 0 007.236-12.589V2.77l-.239-.14z" fill="#CBD1ED"/><path d="M.239 2.632L0 2.772v1.607c0 2.593.69 5.14 1.996 7.363a14.649 14.649 0 005.24 5.226l.243.104V.675c-2.541 0-5.045.677-7.24 1.957z" fill="#E3E7FC"/><path d="M12.755 3.774A12.53 12.53 0 007.479 2.6L5.553 8.854 7.48 14.85l.281-.202a12.802 12.802 0 003.542-3.882 12.625 12.625 0 001.73-6.388v-.475l-.277-.13z" fill="#B8BDD9"/><path d="M2.203 3.774l-.277.13v.475c0 2.25.598 4.46 1.73 6.388a12.804 12.804 0 003.542 3.882l.281.202V2.601c-1.81 0-3.634.405-5.276 1.173z" fill="#CBD1ED"/><path d="M10.712 5.037a10.534 10.534 0 00-3.233-.51L5.553 8.853l1.926 3.571.334-.321A10.796 10.796 0 009.64 9.79a10.746 10.746 0 001.402-4.244l.042-.39-.373-.12z" fill="#9096B6"/><path d="M4.246 5.037l-.373.12.042.39c.163 1.492.648 2.96 1.402 4.244a10.798 10.798 0 001.828 2.313l.334.321V4.526c-1.093 0-2.18.172-3.233.51z" fill="#9EA5C9"/></svg>