<svg width="557" height="557" viewBox="0 0 557 557" fill="none" xmlns="http://www.w3.org/2000/svg">
<path fill-rule="evenodd" clip-rule="evenodd" d="M278.5 557C432.311 557 557 432.311 557 278.5C557 124.689 432.311 0 278.5 0C124.689 0 0 124.689 0 278.5C0 432.311 124.689 557 278.5 557Z" fill="url(#paint0_linear)"/>
<path opacity="0.690523" d="M320.246 146.782C309.521 136.023 294.95 129.983 279.759 130C248.13 129.992 222.483 155.624 222.475 187.253C222.466 218.882 248.099 244.529 279.728 244.537C311.357 244.546 337.004 218.913 337.012 187.284C337.016 172.094 330.985 157.525 320.246 146.782Z" fill="url(#paint1_linear)"/>
<path opacity="0.668271" fill-rule="evenodd" clip-rule="evenodd" d="M282.066 262.387H275.982C211.992 262.547 160.158 314.992 160 379.734V388.022C160 392.574 163.646 396.262 168.144 396.262H389.856C394.354 396.262 398 392.574 398 388.022V379.734C397.816 315.021 346.026 262.601 282.066 262.387Z" fill="url(#paint2_linear)"/>
<defs>
<linearGradient id="paint0_linear" x1="861.609" y1="-250.65" x2="-22.0584" y2="418.733" gradientUnits="userSpaceOnUse">
<stop stop-color="#FFB36D"/>
<stop offset="1" stop-color="#FF8888"/>
</linearGradient>
<linearGradient id="paint1_linear" x1="249.836" y1="113.39" x2="359.948" y2="195.691" gradientUnits="userSpaceOnUse">
<stop stop-color="white"/>
<stop offset="1" stop-color="#FFB6B6"/>
</linearGradient>
<linearGradient id="paint2_linear" x1="216.855" y1="242.973" x2="345.804" y2="414.317" gradientUnits="userSpaceOnUse">
<stop stop-color="white"/>
<stop offset="1" stop-color="#FFB6B6"/>
</linearGradient>
</defs>
</svg>
