<svg width="557" height="557" fill="none" xmlns="http://www.w3.org/2000/svg"><g fill-rule="evenodd" clip-rule="evenodd"><path d="M278.5 557C432.311 557 557 432.311 557 278.5S432.311 0 278.5 0 0 124.689 0 278.5 124.689 557 278.5 557z" fill="#FFE2D7"/><path d="M290.362 364.945c0-7.15 5.92-12.945 13.22-12.945h99.835c7.301 0 13.22 5.796 13.22 12.945a12.66 12.66 0 01-1.624 6.216H434V398H273v-26.839h18.986a12.674 12.674 0 01-1.624-6.216z" fill="#FF9084" fill-opacity=".25"/><path opacity=".668" d="M292.082 127.974l-74.996 65.894c-5.961 4.315-14.345 3.49-19.31-2.118l-4.993-5.635c-5.273-5.956-4.695-15.048 1.292-20.309l72.926-64.076c5.987-5.26 15.115-4.697 20.39 1.259l4.992 5.636c4.965 5.607 4.742 13.996-.301 19.349z" fill="url(#paint0_linear)"/><path d="M98.63 366.515l-.141-1.269-.084-1.206c-.076-.821-.076-1.562-.094-2.321-.07-3.034.212-5.671.684-8.09.974-4.81 2.822-8.629 5.354-11.671.628-.766 1.32-1.459 2.006-2.162l2.054-2.106c1.362-1.414 2.762-2.784 4.149-4.168a290.566 290.566 0 014.198-4.113 300.722 300.722 0 014.241-4.063 607.149 607.149 0 018.595-7.999l4.348-3.943 4.382-3.906a927.952 927.952 0 018.84-7.72 753.564 753.564 0 018.938-7.61l9.012-7.525 9.095-7.434 9.164-7.355 9.226-7.285 9.286-7.217 9.345-7.148c3.131-2.367 6.257-4.737 9.416-7.072 3.149-2.342 6.294-4.694 9.474-7.004l3.912 4.432 14.611-9.933-22.044-24.964 75.047-66.13 54.211 61.392-75.047 66.131-22.044-24.964-11.689 13.242 3.913 4.432c-2.692 2.864-5.419 5.684-8.14 8.515-2.712 2.839-5.455 5.642-8.196 8.45l-8.266 8.371-8.329 8.302-8.386 8.236-8.449 8.164-8.517 8.088-8.599 7.993a754.764 754.764 0 01-8.676 7.91 926.294 926.294 0 01-8.771 7.8l-4.425 3.854-4.458 3.816c-2.989 2.528-5.981 5.049-9.018 7.522a301.584 301.584 0 01-4.564 3.696 290.422 290.422 0 01-4.61 3.647c-1.549 1.202-3.084 2.418-4.657 3.59l-2.349 1.773c-.783.591-1.559 1.192-2.397 1.72-3.339 2.128-7.362 3.484-12.26 3.847a37.122 37.122 0 01-8.122-.329c-.752-.112-1.487-.207-2.295-.383l-1.186-.235-1.244-.298c-1.658-.401-3.453-.958-5.423-1.709a44.616 44.616 0 01-1.02-5.591z" fill="#fff"/><path opacity=".668" d="M388.672 240.035l-72.926 64.075c-5.988 5.259-15.116 4.697-20.39-1.259l-4.992-5.636c-4.966-5.609-4.741-13.996.301-19.349l74.995-65.894c5.961-4.315 14.345-3.49 19.312 2.118l4.99 5.635c5.276 5.957 4.698 15.049-1.29 20.31z" fill="url(#paint1_linear)"/></g><defs><linearGradient id="paint0_linear" x1="13.64" y1="212.598" x2="107.977" y2="24.089" gradientUnits="userSpaceOnUse"><stop stop-color="#fff" stop-opacity=".01"/><stop offset="1" stop-color="#fff"/></linearGradient><linearGradient id="paint1_linear" x1="111.222" y1="323.701" x2="205.559" y2="135.191" gradientUnits="userSpaceOnUse"><stop stop-color="#fff" stop-opacity=".01"/><stop offset="1" stop-color="#fff"/></linearGradient></defs></svg>