<svg width="260" height="352" fill="none" xmlns="http://www.w3.org/2000/svg"><path fill-rule="evenodd" clip-rule="evenodd" d="M237.864 335.99l-20.03 9.371a3.21 3.21 0 001.361 6.12H259.5V335.99h-21.636z" fill="#242424"/><path fill-rule="evenodd" clip-rule="evenodd" d="M232.695 220.718a133.761 133.761 0 01-21.403 5.024l26.572 110.247H259.5l-26.805-115.271z" fill="#7AC7DF"/><path fill-rule="evenodd" clip-rule="evenodd" d="M112.205 345.361a3.211 3.211 0 001.361 6.12h40.305V335.99h-21.634l-20.032 9.371z" fill="#242424"/><path fill-rule="evenodd" clip-rule="evenodd" d="M132.237 335.99h21.634l16.842-110.298a149.316 149.316 0 01-25.151-6.021L132.237 335.99z" fill="#7AC7DF"/><path fill-rule="evenodd" clip-rule="evenodd" d="M132.346 97.204l18.646 11.021 13.546 23.4 15.959-14.214 9.708 6.564 4.218-.813 29.801-5.701-2.888-9.236a44.11 44.11 0 002.823.037c9.848-.185 16.422-3.904 20.434-7.401 3.594-3.128 5.141-6.058 5.141-6.058l-.521-1.158-10.907-24.283a27.284 27.284 0 00-24.899-16.12h-19.1v8.682a5.12 5.12 0 01-5.122 5.123h-22.159a5.12 5.12 0 01-5.121-5.123v-8.681h-19.736a27.302 27.302 0 00-24.866 16.045L135.6 80.522l2.462 13.123-5.716 3.559zm98.806 42.397h-50.655v17.967H154.22l-26.755 70.399s8.09 4.889 21.679 9.42a149.407 149.407 0 0025.151 6.022c12.019 1.773 25.779 2.266 40.579.049a133.654 133.654 0 0021.403-5.024 140.337 140.337 0 0022.759-9.679l-27.884-89.154z" fill="#242424"/><path d="M225.043 190.294l-80.909-147.65c-12.999-21.724-44.688-21.753-57.705 0L5.524 190.295c-13.29 22.199 2.8 50.311 28.845 50.311h161.822c26.024 0 42.141-28.089 28.852-50.311zm-109.761 23.665c-7.399 0-13.421-5.978-13.421-13.322 0-7.345 6.022-13.323 13.421-13.323 7.398 0 13.42 5.978 13.42 13.323 0 7.344-6.022 13.322-13.42 13.322zm13.42-53.29c0 7.344-6.022 13.323-13.42 13.323-7.399 0-13.421-5.979-13.421-13.323V94.056c0-7.345 6.022-13.323 13.421-13.323 7.398 0 13.42 5.978 13.42 13.323v66.613z" fill="url(#paint0_linear)"/><path fill-rule="evenodd" clip-rule="evenodd" d="M238.306 69.362l10.907 24.283c10.69-9.543 3.027-26.783-8.513-32.152-4.914-2.29-11.407-2.29-14.434-6.785-3.863-5.738-.795-12.634-7.453-17.067-2.865-1.897-6.239-2.845-9.498-3.965-8.555-2.907-10.591-6.995-13.194-15.147-1.303-4.088-4.213-12.077-10.071-14.99l-.006.011A20.661 20.661 0 00175.241.48c-9.652 0-23.241 4.137-19.426 20.488 0 0 12.335.012 20.411-9.74 0 0 1.233 5.048 5.21 7.917.061-.05.128-.074.191-.11.845-.493 1.815-.801 2.866-.801.543 0 1.059.11 1.557.246 2.392.677 4.155 2.857 4.155 5.468 0 2.61-1.763 4.79-4.155 5.48V53.23l-.023.013h27.38a27.284 27.284 0 0124.899 16.119z" fill="#2C2C4E"/><path fill-rule="evenodd" clip-rule="evenodd" d="M241.275 139.601c7.181 0 12.369-6.859 10.407-13.767l-7.089-24.973c-4.012 3.497-10.585 7.216-20.434 7.401l3.071 8.62-3.006.578-29.801 5.702-4.218.813-9.708-6.564-9.651 5.381v16.809h70.429zm-78.458-99.51l6.768-1.773v14.925h-7.68v8.681c0 5.668 12.734 20.445 15.562 20.445 2.829 0 16.84-13.545 16.84-20.445v-8.681h-8.28l.023-.013V29.427c2.392-.69 4.155-2.869 4.155-5.48 0-2.61-1.763-4.79-4.155-5.467-.498-.135-1.014-.246-1.557-.246-1.051 0-2.021.308-2.866.8-.063.037-.13.062-.191.111-3.977-2.87-5.21-7.918-5.21-7.918-8.077 9.753-20.412 9.74-20.412 9.74v13.546c0 3.682 3.421 6.403 7.003 5.578z" fill="#F5C5B6"/><mask id="a" maskUnits="userSpaceOnUse" x="155" y="11" width="40" height="72"><path fill-rule="evenodd" clip-rule="evenodd" d="M162.817 40.091l6.768-1.773v14.925h-7.68v8.681c0 5.668 12.734 20.445 15.562 20.445 2.829 0 16.84-13.545 16.84-20.445v-8.681h-8.28l.023-.013V29.427c2.392-.69 4.155-2.869 4.155-5.48 0-2.61-1.763-4.79-4.155-5.467-.498-.135-1.014-.246-1.557-.246-1.051 0-2.021.308-2.866.8-.063.037-.13.062-.191.111-3.977-2.87-5.21-7.918-5.21-7.918-8.077 9.753-20.412 9.74-20.412 9.74v13.546c0 3.682 3.421 6.403 7.003 5.578z" fill="#F5C5B6"/></mask><g mask="url(#a)"><path fill="#fff" d="M160.844 60.82h35.711v23.397h-35.711z"/></g><defs><linearGradient id="paint0_linear" x1="164.548" y1="26.34" x2="8.414" y2="261.584" gradientUnits="userSpaceOnUse"><stop stop-color="#FFE4CB"/><stop offset="1" stop-color="#FFA3A3"/></linearGradient></defs></svg>