<svg width="557" height="557" fill="none" xmlns="http://www.w3.org/2000/svg"><path fill-rule="evenodd" clip-rule="evenodd" d="M278.5 557C432.311 557 557 432.311 557 278.5S432.311 0 278.5 0 0 124.689 0 278.5 124.689 557 278.5 557z" fill="url(#paint0_linear)"/><path opacity=".668" fill-rule="evenodd" clip-rule="evenodd" d="M363.774 198.65v187.586c0 10.088-8.187 18.263-18.274 18.263H176.6c-10.094 0-18.274-8.175-18.274-18.263V139.263c0-10.088 8.179-18.263 18.274-18.263h109.479l77.695 77.65z" fill="url(#paint1_linear)"/><path fill-rule="evenodd" clip-rule="evenodd" d="M363.774 198.65h-59.421c-10.095 0-18.274-8.175-18.274-18.263V121l77.695 77.65z" fill="#fff"/><path fill-rule="evenodd" clip-rule="evenodd" d="M428.116 407.627c4.558 4.271 4.794 11.432.526 15.994-.17.182-.345.357-.526.527a10.854 10.854 0 01-8.141 3.621 11.079 11.079 0 01-8.367-3.621l-39.574-39.378a95.712 95.712 0 009.046-7.695 70.005 70.005 0 007.462-8.826l.905.679 38.669 38.699z" fill="url(#paint2_linear)"/><path fill-rule="evenodd" clip-rule="evenodd" d="M408 320c0-45.287-36.713-82-82-82s-82 36.713-82 82 36.713 82 82 82 82-36.713 82-82zm-142 0c0-33.137 26.863-60 60-60s60 26.863 60 60-26.863 60-60 60-60-26.863-60-60z" fill="url(#paint3_linear)"/><defs><linearGradient id="paint0_linear" x1="861.609" y1="-250.65" x2="-22.058" y2="418.733" gradientUnits="userSpaceOnUse"><stop stop-color="#FFB36D"/><stop offset="1" stop-color="#F88"/></linearGradient><linearGradient id="paint1_linear" x1="429.103" y1="333.625" x2="283.716" y2="199.615" gradientUnits="userSpaceOnUse"><stop stop-color="#fff" stop-opacity=".01"/><stop offset="1" stop-color="#fff"/></linearGradient><linearGradient id="paint2_linear" x1="188" y1="274" x2="446.981" y2="325.949" gradientUnits="userSpaceOnUse"><stop stop-color="#FFEFE0"/><stop offset="1" stop-color="#FBB"/></linearGradient><linearGradient id="paint3_linear" x1="283.177" y1="214.217" x2="440.84" y2="332.06" gradientUnits="userSpaceOnUse"><stop stop-color="#FFEFE0"/><stop offset="1" stop-color="#FBB"/></linearGradient></defs></svg>