<svg width="557" height="557" viewBox="0 0 557 557" fill="none" xmlns="http://www.w3.org/2000/svg">
<g id="Group 77">
<g id="Group 60">
<g id="Group 79">
<path id="Oval Copy 6" fill-rule="evenodd" clip-rule="evenodd" d="M278.5 557C432.311 557 557 432.311 557 278.5C557 124.689 432.311 0 278.5 0C124.689 0 0 124.689 0 278.5C0 432.311 124.689 557 278.5 557Z" fill="#FFE2D7"/>
<path id="Shape Copy 6" fill-rule="evenodd" clip-rule="evenodd" d="M415.104 161.29C415.104 202.534 410 285.029 410 285.029C343.364 235.53 281.848 334.528 215.211 285.029C215.211 243.786 215.211 202.534 215.211 161.29C281.848 210.781 348.468 111.791 415.104 161.29Z" fill="white"/>
</g>
<path id="Line" fill-rule="evenodd" clip-rule="evenodd" d="M199.312 410.289V159.733C199.312 154.514 195.081 150.283 189.862 150.283C184.643 150.283 180.412 154.514 180.412 159.733V410.289C180.412 415.508 184.643 419.739 189.862 419.739C195.081 419.739 199.312 415.508 199.312 410.289Z" fill="#FF9084" fill-opacity="0.25"/>
</g>
</g>
</svg>
