<svg width="77" height="56" fill="none" xmlns="http://www.w3.org/2000/svg"><circle cx="39.09" cy="25.764" r="25.09" fill="url(#paint0_linear)" fill-opacity=".05"/><path d="M58.695 24.105c.174-3.615-2.351-6.013-5.2-7.66l-1.853 10.881c1.282-.071 1.91.416 2.137.645.285.286.998 1.145.143 2.505 1.78-.286 4.562-2.004 4.773-6.37z" fill="url(#paint1_linear)"/><path fill-rule="evenodd" clip-rule="evenodd" d="M34.402 11.437l-2.209-2.22c3.325-.405 12.096.115 20.587 5.441.143.573 0 1.432 0 1.432l.713.358c.617.883 1.667 3.393.926 6.371-.741 2.978-2.018 4.247-2.565 4.51-1.14 0-3.077.658-3.704 3.58-.627 2.92-1.828 3.555-2.35 3.507l-12.538.143-8.264-4.868-1.21-10.093 2.35-3.15 4.203-3.436 2.992-1.217 1.069-.358zm14.807 4.17a4.653 4.653 0 01-1.218.927c-3.228-.687-4.391-2.357-4.391-2.357 3.045-.019 5.793.705 7.804 1.93 0 0-1.088-.352-2.195-.5z" fill="url(#paint2_linear)"/><path fill-rule="evenodd" clip-rule="evenodd" d="M48.192 30.909c-2.224 1.086-4.861 1.715-7.688 1.715-7.948 0-14.39-4.968-14.39-11.096 0-4.53 3.52-8.425 8.564-10.15-9.59.546-17.298 8.211-17.298 17.67 0 10.912 9.776 19.929 21.835 19.929 9.005 0 16.501-5.195 20.42-12.146-5.391 1.207-11.774-1.086-11.443-5.922z" fill="url(#paint3_linear)"/><path opacity=".6" d="M70.25 39.576c0 1.084-.691 2.25-2.255 3.426-1.55 1.166-3.842 2.249-6.741 3.171-5.79 1.842-13.835 2.994-22.754 2.994-8.92 0-16.964-1.152-22.754-2.994-2.899-.922-5.19-2.005-6.741-3.171C7.44 41.825 6.75 40.66 6.75 39.576s.691-2.25 2.255-3.426c1.55-1.167 3.842-2.25 6.741-3.172 5.79-1.842 13.835-2.993 22.754-2.993 8.92 0 16.964 1.151 22.754 2.993 2.899.923 5.19 2.005 6.741 3.172 1.564 1.176 2.255 2.342 2.255 3.426z" stroke="url(#paint4_linear)" stroke-width="1.5"/><g opacity=".6" filter="url(#filter0_f)"><path d="M70.25 39.576c0 1.084-.691 2.25-2.255 3.426-1.55 1.166-3.842 2.249-6.741 3.171-5.79 1.842-13.835 2.994-22.754 2.994-8.92 0-16.964-1.152-22.754-2.994-2.899-.922-5.19-2.005-6.741-3.171C7.44 41.825 6.75 40.66 6.75 39.576s.691-2.25 2.255-3.426c1.55-1.167 3.842-2.25 6.741-3.172 5.79-1.842 13.835-2.993 22.754-2.993 8.92 0 16.964 1.151 22.754 2.993 2.899.923 5.19 2.005 6.741 3.172 1.564 1.176 2.255 2.342 2.255 3.426z" stroke="url(#paint5_linear)" stroke-width="1.5"/></g><path opacity=".3" d="M70.25 25.296c0 1.084-.691 2.25-2.255 3.425-1.55 1.167-3.842 2.25-6.741 3.172-5.79 1.842-13.835 2.993-22.754 2.993-8.92 0-16.964-1.15-22.754-2.993-2.899-.922-5.19-2.005-6.741-3.172C7.44 27.545 6.75 26.38 6.75 25.296c0-1.085.691-2.25 2.255-3.426 1.55-1.167 3.842-2.25 6.741-3.172 5.79-1.842 13.835-2.993 22.754-2.993 8.92 0 16.964 1.15 22.754 2.993 2.899.922 5.19 2.005 6.741 3.172 1.564 1.176 2.255 2.341 2.255 3.425z" stroke="url(#paint6_linear)" stroke-width="1.5"/><path opacity=".3" d="M70.25 25.296c0 1.084-.691 2.25-2.255 3.425-1.55 1.167-3.842 2.25-6.741 3.172-5.79 1.842-13.835 2.993-22.754 2.993-8.92 0-16.964-1.15-22.754-2.993-2.899-.922-5.19-2.005-6.741-3.172C7.44 27.545 6.75 26.38 6.75 25.296c0-1.085.691-2.25 2.255-3.426 1.55-1.167 3.842-2.25 6.741-3.172 5.79-1.842 13.835-2.993 22.754-2.993 8.92 0 16.964 1.15 22.754 2.993 2.899.922 5.19 2.005 6.741 3.172 1.564 1.176 2.255 2.341 2.255 3.425z" stroke="url(#paint7_linear)" stroke-width="1.5"/><path opacity=".1" d="M70.25 11.015c0 1.084-.691 2.25-2.255 3.426-1.55 1.167-3.842 2.25-6.741 3.172-5.79 1.842-13.835 2.993-22.754 2.993-8.92 0-16.964-1.151-22.754-2.993-2.899-.923-5.19-2.005-6.741-3.172-1.564-1.176-2.255-2.342-2.255-3.426s.691-2.25 2.255-3.426c1.55-1.166 3.842-2.249 6.741-3.171 5.79-1.842 13.835-2.994 22.754-2.994 8.92 0 16.964 1.152 22.754 2.994 2.899.922 5.19 2.005 6.741 3.171 1.564 1.177 2.255 2.342 2.255 3.426z" stroke="url(#paint8_linear)" stroke-width="1.5"/><path opacity=".2" d="M70.25 11.015c0 1.084-.691 2.25-2.255 3.426-1.55 1.167-3.842 2.25-6.741 3.172-5.79 1.842-13.835 2.993-22.754 2.993-8.92 0-16.964-1.151-22.754-2.993-2.899-.923-5.19-2.005-6.741-3.172-1.564-1.176-2.255-2.342-2.255-3.426s.691-2.25 2.255-3.426c1.55-1.166 3.842-2.249 6.741-3.171 5.79-1.842 13.835-2.994 22.754-2.994 8.92 0 16.964 1.152 22.754 2.994 2.899.922 5.19 2.005 6.741 3.171 1.564 1.177 2.255 2.342 2.255 3.426z" stroke="url(#paint9_linear)" stroke-width="1.5"/><defs><linearGradient id="paint4_linear" x1="49.087" y1="41.299" x2="49.223" y2="31.029" gradientUnits="userSpaceOnUse"><stop stop-color="#F69886"/><stop offset="1" stop-color="#FFC58F" stop-opacity="0"/></linearGradient><linearGradient id="paint9_linear" x1="49.087" y1="12.739" x2="49.223" y2="2.468" gradientUnits="userSpaceOnUse"><stop stop-color="#F69886"/><stop offset="1" stop-color="#FFC58F" stop-opacity="0"/></linearGradient><linearGradient id="paint1_linear" x1="54.004" y1="19.845" x2="67.421" y2="23.134" gradientUnits="userSpaceOnUse"><stop stop-color="#FFC58F"/><stop offset="1" stop-color="#FF7C7C"/></linearGradient><linearGradient id="paint2_linear" x1="31.166" y1="5.42" x2="56.554" y2="28.45" gradientUnits="userSpaceOnUse"><stop stop-color="#FFC58F"/><stop offset="1" stop-color="#FF7C7C"/></linearGradient><linearGradient id="paint3_linear" x1="31.514" y1="20.489" x2="65.983" y2="45.536" gradientUnits="userSpaceOnUse"><stop stop-color="#FFC58F"/><stop offset="1" stop-color="#FF7C7C"/></linearGradient><linearGradient id="paint0_linear" x1="39.09" y1="18.233" x2="39.09" y2="51.514" gradientUnits="userSpaceOnUse"><stop stop-color="#FF9230"/><stop offset="1" stop-color="#FFD5AB"/></linearGradient><linearGradient id="paint5_linear" x1="49.087" y1="41.299" x2="49.223" y2="31.029" gradientUnits="userSpaceOnUse"><stop stop-color="#F88C83"/><stop offset="1" stop-color="#FDC691"/></linearGradient><linearGradient id="paint6_linear" x1="49.087" y1="27.019" x2="49.223" y2="16.748" gradientUnits="userSpaceOnUse"><stop stop-color="#F69886"/><stop offset="1" stop-color="#FFC58F" stop-opacity="0"/></linearGradient><linearGradient id="paint7_linear" x1="49.087" y1="27.019" x2="49.223" y2="16.748" gradientUnits="userSpaceOnUse"><stop stop-color="#F69886"/><stop offset="1" stop-color="#FFC58F" stop-opacity="0"/></linearGradient><linearGradient id="paint8_linear" x1="49.087" y1="12.739" x2="49.223" y2="2.468" gradientUnits="userSpaceOnUse"><stop stop-color="#F69886"/><stop offset="1" stop-color="#FFC58F" stop-opacity="0"/></linearGradient><filter id="filter0_f" x="0" y="23.235" width="77" height="32.682" filterUnits="userSpaceOnUse" color-interpolation-filters="sRGB"><feFlood flood-opacity="0" result="BackgroundImageFix"/><feBlend in="SourceGraphic" in2="BackgroundImageFix" result="shape"/><feGaussianBlur stdDeviation="3" result="effect1_foregroundBlur"/></filter></defs></svg>