<svg width="556" height="555" fill="none" xmlns="http://www.w3.org/2000/svg"><path fill-rule="evenodd" clip-rule="evenodd" d="M278.062 554.231c153.046 0 277.115-124.069 277.115-277.116C555.177 124.069 431.108 0 278.062 0 125.015 0 .946 124.069.946 277.115c0 153.047 124.069 277.116 277.116 277.116z" fill="#FFF3EF"/><path opacity=".691" d="M319.593 146.043a56.79 56.79 0 00-40.286-16.698c-31.471-.009-56.991 25.496-56.999 56.968-.009 31.472 25.497 56.991 56.968 57 31.472.008 56.991-25.497 57-56.969a56.99 56.99 0 00-16.683-40.301z" fill="url(#paint0_linear)"/><path opacity=".668" fill-rule="evenodd" clip-rule="evenodd" d="M281.596 261.08h-6.054c-63.672.159-115.248 52.343-115.405 116.763v8.248c0 4.528 3.627 8.199 8.103 8.199h220.61c4.476 0 8.104-3.671 8.104-8.199v-8.248c-.184-64.391-51.716-116.551-115.358-116.763z" fill="url(#paint1_linear)"/><defs><linearGradient id="paint0_linear" x1="249.533" y1="112.817" x2="359.097" y2="194.709" gradientUnits="userSpaceOnUse"><stop stop-color="#fff"/><stop offset="1" stop-color="#FFB6B6"/></linearGradient><linearGradient id="paint1_linear" x1="216.709" y1="241.762" x2="345.017" y2="412.255" gradientUnits="userSpaceOnUse"><stop stop-color="#fff"/><stop offset="1" stop-color="#FFB6B6"/></linearGradient></defs></svg>