<svg width="69" height="49" viewBox="0 0 69 49" fill="none" xmlns="http://www.w3.org/2000/svg"><path fill-rule="evenodd" clip-rule="evenodd" d="M17.08 42.41c.89 1.025 1.512 2.214 1.81 3.453a1.492 1.492 0 01-.78 1.679l.002.004c-3.614 1.83-8.299.654-10.953-2.402-.89-1.026-1.512-2.215-1.81-3.454a1.492 1.492 0 01.78-1.679c3.632-1.878 8.341-.607 10.951 2.398zm17.492-12.43c.002 2.324.005 5.184 0 0zM16.647 1.605c1.957 3.507 1.019 8.143-1.833 10.916-.978.952-2.129 1.641-3.34 2.008a1.5 1.5 0 01-1.797-.807 8.341 8.341 0 01-1.021-3.625c-.211-4.02 2.316-8.125 6.195-9.3a1.5 1.5 0 011.796.808zM14.614 5.33a5.612 5.612 0 00-.175-1.132C12.245 5.573 11.09 8.5 11.746 10.99c1.868-1.17 2.984-3.477 2.868-5.66zm-8.837 6.82a1.51 1.51 0 00-1.915.383c-2.514 3.185-2.23 7.976.256 11.135a8.314 8.314 0 002.944 2.381 1.51 1.51 0 001.915-.383c3.35-4.245 1.687-11.195-3.2-13.517zm.507 4.239c1.38 1.719 1.8 4.224.941 6.245-2.005-1.658-2.759-4.698-1.751-7.07.291.241.563.517.81.825zM2.014 26.1a1.507 1.507 0 00-1.52 1.172c-.896 3.966 1.44 8.203 5.054 9.996a8.35 8.35 0 003.746.89 1.507 1.507 0 001.52-1.172c1.195-5.292-3.321-10.918-8.8-10.886zm2.417 3.597c1.964.985 3.405 3.073 3.518 5.274-2.49-.668-4.456-3.097-4.589-5.684.36.097.72.234 1.071.41zM9.938 42.04a5.582 5.582 0 00-1.155.113c1.261 2.28 4.136 3.624 6.673 3.101-1.075-1.942-3.32-3.202-5.518-3.214z" fill="url(#paint0_linear)" fill-opacity=".4"/><path fill-rule="evenodd" clip-rule="evenodd" d="M52.07 42.41c-.891 1.025-1.513 2.214-1.812 3.453a1.492 1.492 0 00.782 1.679l-.003.004c3.615 1.83 8.3.654 10.954-2.402.89-1.026 1.511-2.215 1.81-3.454a1.492 1.492 0 00-.78-1.679c-3.632-1.878-8.342-.607-10.952 2.398zM34.577 29.98c-.003 2.324-.006 5.184 0 0zM52.502 1.605c-1.957 3.507-1.018 8.143 1.833 10.916.978.952 2.13 1.641 3.341 2.008a1.5 1.5 0 001.796-.807 8.34 8.34 0 001.021-3.625c.212-4.02-2.315-8.125-6.194-9.3a1.5 1.5 0 00-1.797.808zm2.034 3.725c.02-.391.08-.771.175-1.132 2.194 1.375 3.348 4.303 2.692 6.792-1.868-1.17-2.983-3.477-2.867-5.66zm8.837 6.82a1.51 1.51 0 011.915.383c2.514 3.185 2.23 7.976-.256 11.135a8.314 8.314 0 01-2.944 2.381 1.51 1.51 0 01-1.915-.383c-3.35-4.245-1.687-11.195 3.2-13.517zm-.507 4.239c-1.38 1.719-1.8 4.224-.942 6.245 2.006-1.658 2.76-4.698 1.751-7.07-.29.241-.563.517-.81.825zm4.27 9.711a1.507 1.507 0 011.52 1.172c.895 3.966-1.44 8.203-5.054 9.996a8.35 8.35 0 01-3.746.89 1.507 1.507 0 01-1.52-1.172c-1.195-5.292 3.32-10.918 8.8-10.886zm-2.418 3.597c-1.964.985-3.405 3.073-3.517 5.274 2.489-.668 4.455-3.097 4.588-5.684-.36.097-.72.234-1.071.41zM59.212 42.04c.395-.002.783.036 1.155.113-1.262 2.28-4.136 3.624-6.674 3.101 1.076-1.942 3.32-3.202 5.519-3.214z" fill="url(#paint1_linear)" fill-opacity=".4"/><path opacity=".7" fill-rule="evenodd" clip-rule="evenodd" d="M40.25 6.54l-9.452 8.298a1.826 1.826 0 01-2.433-.266l-.63-.71a1.806 1.806 0 01.163-2.557l9.19-8.07a1.826 1.826 0 012.57.16l.63.709a1.806 1.806 0 01-.039 2.436z" fill="url(#paint2_linear)"/><path fill-rule="evenodd" clip-rule="evenodd" d="M15.87 36.58l-.017-.16-.011-.152c-.01-.104-.01-.197-.012-.293a4.666 4.666 0 01.086-1.018c.123-.606.356-1.087.675-1.47.08-.096.166-.184.253-.272l.259-.266c.171-.178.348-.35.523-.524.174-.175.351-.347.529-.518a76.933 76.933 0 011.618-1.519l.547-.497.552-.492a115.787 115.787 0 012.24-1.93l1.137-.948 1.146-.936 1.154-.926 1.163-.917 1.17-.91 1.178-.9c.395-.297.789-.596 1.187-.89.396-.295.793-.591 1.194-.882l.493.558 1.84-1.25-2.777-3.144 9.457-8.328 6.832 7.731-9.458 8.328-2.777-3.144-1.474 1.668.494.558c-.34.36-.683.716-1.026 1.072-.342.358-.688.71-1.033 1.064l-1.042 1.054-1.05 1.046-1.056 1.037-1.065 1.028-1.073 1.018-1.084 1.007a119.715 119.715 0 01-2.199 1.978l-.557.485-.562.481a79.691 79.691 0 01-2.293 1.872c-.195.151-.388.304-.586.452l-.297.223a4.13 4.13 0 01-.302.217c-.42.268-.927.439-1.545.484-.31.021-.644.015-1.023-.041-.095-.014-.187-.026-.29-.048l-.149-.03-.156-.038a5.61 5.61 0 01-.684-.215 5.623 5.623 0 01-.129-.704z" fill="url(#paint3_linear)"/><path opacity=".7" fill-rule="evenodd" clip-rule="evenodd" d="M52.422 20.652l-9.19 8.069a1.827 1.827 0 01-2.57-.159l-.629-.71a1.805 1.805 0 01.038-2.436l9.45-8.298a1.826 1.826 0 012.434.267l.63.71c.664.75.591 1.895-.163 2.557z" fill="url(#paint4_linear)"/><defs><linearGradient id="paint0_linear" x1="-2.348" y1="44.339" x2="38.935" y2="20.898" gradientUnits="userSpaceOnUse"><stop stop-color="#F85454"/><stop offset="1" stop-color="#FFA0A0"/></linearGradient><linearGradient id="paint1_linear" x1="71.497" y1="44.339" x2="30.214" y2="20.898" gradientUnits="userSpaceOnUse"><stop stop-color="#F85454"/><stop offset="1" stop-color="#FFA0A0"/></linearGradient><linearGradient id="paint2_linear" x1="42.985" y1="12.159" x2="30.284" y2="2.496" gradientUnits="userSpaceOnUse"><stop stop-color="#FF6969"/><stop offset="1" stop-color="#F88"/></linearGradient><linearGradient id="paint3_linear" x1="53.293" y1="29.904" x2="23.42" y2="6.279" gradientUnits="userSpaceOnUse"><stop stop-color="#CA4141"/><stop offset="1" stop-color="#FF6969"/></linearGradient><linearGradient id="paint4_linear" x1="55.282" y1="26.15" x2="42.581" y2="16.487" gradientUnits="userSpaceOnUse"><stop stop-color="#FF6969"/><stop offset="1" stop-color="#F88"/></linearGradient></defs></svg>