<svg width="450" height="313" fill="none" xmlns="http://www.w3.org/2000/svg"><path d="M223.237 81.378H110v130.756h113.237V81.378zM336.475 81.378H223.238v130.756h113.237V81.378z" fill="#2ED2A1"/><path d="M223.236 146.753l-20.43 65.379 20.43 65.379 113.237-65.379-113.237-65.379z" fill="#28C797"/><path d="M110 212.132l113.237 65.379V146.753L110 212.132z" fill="#16C08E"/><path d="M223.236 16l-20.43 65.379 20.43 65.379 113.237-65.38L223.236 16z" fill="#40EBB8"/><path d="M110 81.379l113.237 65.379V16L110 81.379z" fill="#54FAC8"/><path opacity=".4" fill-rule="evenodd" clip-rule="evenodd" d="M110.484 273.295c5.833 6.717 9.901 14.506 11.859 22.621 1.074 4.488-1.15 8.991-5.115 10.992l.015.028c-23.67 11.986-54.35 4.282-71.731-15.732-5.833-6.716-9.901-14.505-11.859-22.62-1.074-4.489 1.15-8.991 5.116-10.992 23.783-12.3 54.623-3.979 71.715 15.703zm114.55-81.393c.015 15.219.036 33.945 0 0zM107.647 6.074c12.82 22.966 6.671 53.326-12 71.488-6.408 6.234-13.944 10.747-21.88 13.153-4.75 1.439-9.739-.9-11.762-5.29-3.929-7.038-6.238-15.182-6.689-23.738C53.932 35.357 70.482 8.48 95.885.785c4.75-1.44 9.739.9 11.762 5.29zM94.333 30.471a36.796 36.796 0 00-1.147-7.416C78.82 32.06 71.26 51.238 75.554 67.536c12.233-7.666 19.54-22.77 18.779-37.065zM36.459 75.127c-4.16-2.31-9.504-1.334-12.54 2.512-16.463 20.859-14.606 52.236 1.677 72.922 5.332 6.775 11.963 12.119 19.28 15.595 4.16 2.309 9.504 1.334 12.54-2.512C79.355 135.85 68.465 90.33 36.46 75.127zm3.322 27.764c9.033 11.259 11.79 27.663 6.165 40.899-13.133-10.856-18.067-30.765-11.468-46.297a37.232 37.232 0 015.303 5.398zM11.817 166.49c-4.647-.157-8.899 2.989-9.957 7.676-5.863 25.974 9.435 53.716 33.1 65.461 7.833 3.886 16.267 5.876 24.532 5.828 4.647.157 8.899-2.989 9.957-7.676 7.823-34.654-21.752-71.496-57.632-71.289zm15.833 23.558c12.86 6.446 22.296 20.125 23.033 34.534-16.3-4.375-29.18-20.28-30.046-37.219a37.233 37.233 0 017.013 2.685zm36.06 80.831a36.584 36.584 0 00-7.564.738c8.263 14.928 27.088 23.736 43.704 20.312-7.043-12.721-21.739-20.971-36.14-21.05z" fill="#2ED2A1"/><path opacity=".4" fill-rule="evenodd" clip-rule="evenodd" d="M339.621 273.295c-5.832 6.716-9.901 14.506-11.859 22.62-1.074 4.489 1.151 8.991 5.116 10.992l-.015.029c23.669 11.986 54.349 4.282 71.731-15.732 5.832-6.717 9.9-14.506 11.858-22.621 1.075-4.488-1.15-8.991-5.115-10.992-23.783-12.299-54.623-3.978-71.716 15.704zm-114.55-81.393c-.014 15.219-.035 33.945 0 0zM342.458 6.074c-12.819 22.965-6.67 53.326 12.001 71.488 6.408 6.233 13.943 10.747 21.88 13.153 4.749 1.438 9.738-.9 11.762-5.29 3.928-7.038 6.238-15.182 6.688-23.739 1.385-26.33-15.166-53.206-40.568-60.902-4.75-1.439-9.74.9-11.763 5.29zm13.315 24.396c.136-2.564.524-5.05 1.147-7.415 14.366 9.004 21.924 28.182 17.631 44.481-12.232-7.667-19.539-22.77-18.778-37.066zm57.873 44.657c4.16-2.31 9.504-1.334 12.541 2.511 16.462 20.859 14.606 52.236-1.677 72.922-5.333 6.775-11.963 12.119-19.28 15.595-4.16 2.31-9.505 1.334-12.541-2.511-21.937-27.794-11.049-73.314 20.957-88.517zm-3.321 27.763c-9.033 11.259-11.79 27.663-6.166 40.899 13.134-10.855 18.068-30.764 11.469-46.296a37.206 37.206 0 00-5.303 5.397zm27.963 63.599c4.648-.156 8.899 2.989 9.957 7.677 5.864 25.974-9.435 53.715-33.1 65.46-7.833 3.887-16.267 5.877-24.531 5.829-4.648.157-8.899-2.989-9.957-7.676-7.823-34.654 21.752-71.497 57.631-71.29zm-15.833 23.558c-12.859 6.446-22.295 20.125-23.033 34.535 16.3-4.375 29.18-20.281 30.047-37.219a37.24 37.24 0 00-7.014 2.684zm-36.06 80.832a36.503 36.503 0 017.564.738c-8.263 14.928-27.087 23.736-43.704 20.311 7.043-12.721 21.739-20.971 36.14-21.049z" fill="#2ED2A1"/></svg>