<svg width="556" height="555" fill="none" xmlns="http://www.w3.org/2000/svg"><path fill-rule="evenodd" clip-rule="evenodd" d="M278.014 554.231c153.047 0 277.115-124.069 277.115-277.116C555.129 124.069 431.061 0 278.014 0 124.967 0 .898 124.069.898 277.115c0 153.047 124.069 277.116 277.116 277.116z" fill="#FFF3EF"/><path opacity=".7" d="M235.197 352.003c0 8.771 7.187 15.962 15.965 15.962h82.774l-10.619 50.653a17.86 17.86 0 004.863 16.429l12.693 12.709 78.841-78.839c4.327-4.314 7.026-10.282 7.026-16.914V248.287c0-13.248-10.691-23.943-23.938-23.943h-107.75a23.855 23.855 0 00-22.025 14.596l-36.149 84.446c-1.037 2.697-1.681 5.573-1.681 8.682v19.953-.018z" fill="url(#paint0_linear)"/><path d="M311.836 205.207c-.049-8.83-7.183-15.962-15.965-15.962h-82.774l10.619-50.654a17.857 17.857 0 00-4.863-16.429l-12.693-12.709-78.841 78.839a23.833 23.833 0 00-7.026 16.915v103.716c0 13.247 10.691 23.942 23.938 23.942h107.75a23.859 23.859 0 0022.026-14.595l36.148-84.411c1.037-2.714 1.681-5.59 1.681-8.7v-19.952z" fill="url(#paint1_linear)"/><defs><linearGradient id="paint0_linear" x1="-94.655" y1="-17.918" x2="485.566" y2="114.549" gradientUnits="userSpaceOnUse"><stop stop-color="#fff"/><stop offset="1" stop-color="#FFB6B6"/></linearGradient><linearGradient id="paint1_linear" x1="372.743" y1="277.012" x2="258.22" y2="152.127" gradientUnits="userSpaceOnUse"><stop stop-color="#FFCEBB"/><stop offset="1" stop-color="#FFF2ED"/></linearGradient></defs></svg>