<svg width="69" height="48" viewBox="0 0 69 48" fill="none" xmlns="http://www.w3.org/2000/svg"><path fill-rule="evenodd" clip-rule="evenodd" d="M16.778 41.677c.89 1.025 1.512 2.215 1.811 3.454a1.492 1.492 0 01-.781 1.678l.002.005c-3.614 1.83-8.299.653-10.953-2.403-.89-1.025-1.512-2.215-1.81-3.454a1.492 1.492 0 01.78-1.678c3.632-1.878 8.341-.608 10.951 2.398zM34.27 29.248c.002 2.324.005 5.183 0 0zM16.345.872c1.958 3.507 1.019 8.143-1.832 10.917-.979.951-2.13 1.64-3.341 2.008a1.5 1.5 0 01-1.796-.808 8.341 8.341 0 01-1.022-3.625c-.211-4.02 2.316-8.124 6.195-9.3a1.5 1.5 0 011.796.808zm-2.033 3.726a5.619 5.619 0 00-.175-1.133c-2.194 1.375-3.348 4.304-2.692 6.793 1.867-1.171 2.983-3.477 2.867-5.66zm-8.837 6.819a1.51 1.51 0 00-1.915.383c-2.514 3.185-2.23 7.977.256 11.135a8.315 8.315 0 002.944 2.382 1.51 1.51 0 001.915-.384c3.35-4.244 1.687-11.195-3.2-13.516zm.507 4.24c1.38 1.718 1.8 4.223.941 6.244-2.005-1.657-2.758-4.697-1.75-7.069.29.24.562.517.809.824zm-4.27 9.71a1.507 1.507 0 00-1.52 1.173c-.896 3.966 1.44 8.202 5.054 9.995a8.35 8.35 0 003.746.89 1.507 1.507 0 001.52-1.172c1.195-5.291-3.321-10.917-8.8-10.885zm2.418 3.598c1.963.984 3.404 3.073 3.517 5.273-2.49-.668-4.456-3.096-4.588-5.683.36.097.72.234 1.07.41zm5.506 12.343a5.575 5.575 0 00-1.155.112c1.262 2.28 4.136 3.625 6.674 3.102-1.076-1.942-3.32-3.202-5.519-3.214z" fill="url(#paint0_linear)" fill-opacity=".4"/><path fill-rule="evenodd" clip-rule="evenodd" d="M51.767 41.677c-.89 1.025-1.511 2.215-1.81 3.454a1.492 1.492 0 00.78 1.678l-.001.005c3.614 1.83 8.299.653 10.953-2.403.89-1.025 1.512-2.215 1.81-3.454a1.492 1.492 0 00-.78-1.678c-3.632-1.878-8.341-.608-10.952 2.398zM34.276 29.248c-.005 5.183-.002 2.324 0 0zM52.201.872c-1.958 3.507-1.019 8.143 1.832 10.917.979.951 2.13 1.64 3.341 2.008a1.5 1.5 0 001.796-.808 8.342 8.342 0 001.022-3.625c.211-4.02-2.316-8.124-6.195-9.3A1.5 1.5 0 0052.2.873zm2.033 3.726c.02-.392.08-.771.175-1.133 2.194 1.375 3.348 4.304 2.692 6.793-1.868-1.171-2.983-3.477-2.867-5.66zm8.837 6.819a1.51 1.51 0 011.915.383c2.514 3.185 2.23 7.977-.256 11.135a8.315 8.315 0 01-2.944 2.382 1.51 1.51 0 01-1.915-.384c-3.35-4.244-1.687-11.195 3.2-13.516zm-.507 4.24c-1.38 1.718-1.8 4.223-.942 6.244 2.006-1.657 2.76-4.697 1.752-7.069-.291.24-.564.517-.81.824zm4.27 9.71a1.507 1.507 0 011.52 1.173c.896 3.966-1.44 8.202-5.054 9.995a8.35 8.35 0 01-3.746.89 1.507 1.507 0 01-1.52-1.172c-1.195-5.291 3.321-10.917 8.8-10.885zm-2.418 3.598c-1.963.984-3.404 3.073-3.517 5.273 2.49-.668 4.456-3.096 4.588-5.683-.36.097-.72.234-1.07.41zM58.91 41.308c.396-.002.783.036 1.155.112-1.262 2.28-4.136 3.625-6.674 3.102 1.076-1.942 3.32-3.202 5.519-3.214z" fill="url(#paint1_linear)" fill-opacity=".4"/><path d="M24.421 17.095c2.675.912 6.221 1.414 9.985 1.414 3.764 0 7.31-.502 9.985-1.414 2.85-.972 4.42-2.336 4.42-3.84 0-1.505-1.57-2.869-4.42-3.84C41.716 8.501 38.17 8 34.406 8c-3.764 0-7.31.502-9.985 1.414-2.85.972-4.421 2.336-4.421 3.84 0 1.505 1.57 2.869 4.421 3.84z" fill="url(#paint2_linear)"/><path opacity=".668" fill-rule="evenodd" clip-rule="evenodd" d="M47.83 19.1c-.227 0-.472.076-.75.233-.41.232-.927.41-1.476.6l-.159.054c-2.993 1.035-6.914 1.605-11.039 1.605s-8.046-.57-11.04-1.605c-.846-.292-1.081-.385-1.394-.545-.318-.167-.614-.252-.88-.252-.576 0-.93.387-1.025.77-.045.179-.067.36-.067.542 0 1.525 1.57 2.908 4.421 3.894 2.675.925 6.221 1.434 9.985 1.434 3.764 0 7.31-.51 9.985-1.434 2.85-.986 4.42-2.369 4.42-3.894 0-.238-.038-.476-.115-.712-.197-.6-.627-.69-.867-.69z" fill="url(#paint3_linear)"/><path opacity=".668" fill-rule="evenodd" clip-rule="evenodd" d="M47.83 26.185c-.227 0-.471.076-.75.233-.409.232-.926.41-1.474.599l-.16.055c-2.994 1.035-6.915 1.605-11.04 1.605-4.125 0-8.046-.57-11.04-1.605-.846-.293-1.081-.385-1.394-.546-.318-.166-.614-.25-.88-.25-.576 0-.93.386-1.025.769-.045.178-.067.36-.067.541 0 1.526 1.57 2.91 4.421 3.895 2.675.925 6.221 1.434 9.985 1.434 3.764 0 7.31-.51 9.985-1.434 2.85-.986 4.42-2.369 4.42-3.895a2.28 2.28 0 00-.115-.711c-.197-.6-.627-.69-.867-.69z" fill="url(#paint4_linear)"/><path opacity=".668" fill-rule="evenodd" clip-rule="evenodd" d="M47.83 33.27c-.227 0-.472.076-.75.233-.41.232-.928.41-1.477.6l-.158.054c-2.993 1.035-6.914 1.605-11.039 1.605s-8.046-.57-11.04-1.605c-.846-.293-1.081-.385-1.394-.545-.318-.167-.614-.252-.88-.252-.576 0-.93.387-1.025.77-.045.178-.067.36-.067.541 0 1.526 1.57 2.91 4.421 3.895C27.096 39.49 30.642 40 34.406 40c3.764 0 7.31-.51 9.985-1.434 2.85-.986 4.42-2.369 4.42-3.895a2.28 2.28 0 00-.115-.711c-.197-.6-.627-.69-.867-.69z" fill="url(#paint5_linear)"/><defs><linearGradient id="paint0_linear" x1="-2.65" y1="43.607" x2="38.633" y2="20.166" gradientUnits="userSpaceOnUse"><stop stop-color="#2CC68F"/><stop offset="1" stop-color="#87F1CB"/></linearGradient><linearGradient id="paint1_linear" x1="71.196" y1="43.607" x2="29.913" y2="20.166" gradientUnits="userSpaceOnUse"><stop stop-color="#2CC68F"/><stop offset="1" stop-color="#87F1CB"/></linearGradient><linearGradient id="paint2_linear" x1="42" y1="-5" x2="36" y2="24.5" gradientUnits="userSpaceOnUse"><stop stop-color="#2CC68F"/><stop offset="1" stop-color="#D8FFF1"/></linearGradient><linearGradient id="paint3_linear" x1="72.3" y1="26.313" x2="70.538" y2="15.606" gradientUnits="userSpaceOnUse"><stop offset=".547" stop-color="#2CC68F"/><stop offset="1" stop-color="#87F1CB"/></linearGradient><linearGradient id="paint4_linear" x1="72.3" y1="33.397" x2="70.538" y2="22.691" gradientUnits="userSpaceOnUse"><stop offset=".547" stop-color="#2CC68F"/><stop offset="1" stop-color="#87F1CB"/></linearGradient><linearGradient id="paint5_linear" x1="72.3" y1="40.482" x2="70.538" y2="29.776" gradientUnits="userSpaceOnUse"><stop offset=".547" stop-color="#2CC68F"/><stop offset="1" stop-color="#87F1CB"/></linearGradient></defs></svg>