<svg width="78" height="62" fill="none" xmlns="http://www.w3.org/2000/svg"><g clip-path="url(#clip0)" clip-rule="evenodd"><path fill-rule="evenodd" d="M43.096 33.537c.002 0 .004-.002.005-.003h.001l.002-.002a.208.208 0 00-.008.005z" fill="#2B2C2A"/><path d="M43.096 33.537c.002 0 .004-.002.005-.003h.001l.002-.002a.208.208 0 00-.008.005z" stroke="#F8F2E6" stroke-width=".8" stroke-linecap="round" stroke-linejoin="round"/><path fill-rule="evenodd" d="M43.105 33.531l.01-.005-.01.005z" fill="#2B2C2A"/><path d="M43.105 33.531s0 0 0 0l.01-.005s0 0 0 0l-.01.005z" stroke="#F8F2E6" stroke-width=".8" stroke-linecap="round" stroke-linejoin="round"/><g clip-path="url(#clip1)"><path fill-rule="evenodd" d="M43.626 35.352l.005-.003h.001l.002-.001a.249.249 0 00-.008.004z" fill="#2B2C2A"/><path d="M43.626 35.352l.005-.003h.001l.002-.001a.249.249 0 00-.008.004zm.009-.005s0 0 0 0a.462.462 0 01.009-.005s0 0 0 0a.433.433 0 01-.01.005z" stroke="#F8F2E6" stroke-width=".8" stroke-linecap="round" stroke-linejoin="round"/><path d="M48.068 32.842c-3.519 1.989-4.284 2.42-4.423 2.5 0 0 0 0 0 0l-.01.005a.825.825 0 01-.003.002s0 0 0 0l-.011.006s0 0 0 0h-.002c-.002.002-.001.002 0 0h.001s0 0 0 0l-4.393 2.483c-5.442-3.077-3.625-2.05-8.84-4.996l8.84-4.995 8.84 4.995zM25.966 25.35c0 11.965.002 3.982 0 14.986 10.227 5.777 3.076 1.74 13.261 7.493l13.261-7.493c.001-11.965-.002-3.982 0-14.986-10.31-5.823-3.142-1.777-13.26-7.493L25.965 25.35z" stroke="#F8F2E6" stroke-width=".8" stroke-linecap="round" stroke-linejoin="round"/><path d="M39.227 47.828l13.261-7.493V35.34l-13.26 7.492-8.842-4.994v-4.996l8.842-4.995c5.433 3.072 3.397 1.92 8.84 4.995v-4.995l-8.842-4.995-13.26 7.493v9.99c10.227 5.777 3.076 1.74 13.261 7.493z" stroke="#FF8A8A" stroke-linejoin="round"/><path fill-rule="evenodd" d="M39.226 22.852l8.842 4.995v4.995l-8.841 4.996c-5.432-3.071-3.428-1.939-8.84-4.996l-.001 4.996 8.842 4.994 13.26-7.492v-9.99c-10.31-5.824-3.142-1.777-13.261-7.494l-13.26 7.493-.001 4.996 13.26-7.493z" fill="url(#paint0_linear)" fill-opacity=".2"/><path fill-rule="evenodd" d="M39.227 47.828l13.261-7.493V35.34l-13.26 7.492-8.842-4.994v-4.996l8.842-4.995c5.433 3.072 3.397 1.92 8.84 4.995v-4.995l-8.842-4.995-13.26 7.493v9.99c10.227 5.777 3.076 1.74 13.261 7.493z" fill="url(#paint1_linear)" fill-opacity=".05"/><path d="M39.226 22.852l8.842 4.995v4.995l-8.841 4.996c-5.432-3.071-3.428-1.939-8.84-4.996l-.001 4.996 8.842 4.994 13.26-7.492v-9.99c-10.31-5.824-3.142-1.777-13.261-7.494l-13.26 7.493-.001 4.996 13.26-7.493z" stroke="#FF8A8A" stroke-linejoin="round"/></g></g><path opacity=".6" d="M71.25 45.069c0 1.09-.695 2.262-2.266 3.443-1.558 1.172-3.86 2.26-6.771 3.186-5.815 1.85-13.895 3.006-22.853 3.006-8.958 0-17.038-1.156-22.852-3.006-2.912-.926-5.214-2.014-6.772-3.186-1.57-1.181-2.266-2.353-2.266-3.443 0-1.09.695-2.262 2.266-3.443 1.558-1.172 3.86-2.26 6.772-3.186 5.814-1.85 13.894-3.006 22.852-3.006s17.038 1.156 22.852 3.006c2.912.927 5.214 2.014 6.772 3.186 1.57 1.181 2.266 2.353 2.266 3.443z" stroke="url(#paint2_linear)" stroke-width="1.5"/><g opacity=".6" filter="url(#filter0_f)"><path d="M71.25 45.069c0 1.09-.695 2.262-2.266 3.443-1.558 1.172-3.86 2.26-6.771 3.186-5.815 1.85-13.895 3.006-22.853 3.006-8.958 0-17.038-1.156-22.852-3.006-2.912-.926-5.214-2.014-6.772-3.186-1.57-1.181-2.266-2.353-2.266-3.443 0-1.09.695-2.262 2.266-3.443 1.558-1.172 3.86-2.26 6.772-3.186 5.814-1.85 13.894-3.006 22.852-3.006s17.038 1.156 22.852 3.006c2.912.927 5.214 2.014 6.772 3.186 1.57 1.181 2.266 2.353 2.266 3.443z" stroke="url(#paint3_linear)" stroke-width="1.5"/></g><path opacity=".7" d="M71.25 30.727c0 1.09-.695 2.262-2.266 3.443-1.558 1.172-3.86 2.26-6.771 3.186-5.815 1.85-13.895 3.007-22.853 3.007-8.958 0-17.038-1.157-22.852-3.007-2.912-.926-5.214-2.014-6.772-3.186-1.57-1.181-2.266-2.353-2.266-3.443 0-1.09.695-2.261 2.266-3.443 1.558-1.172 3.86-2.26 6.772-3.186 5.814-1.85 13.894-3.006 22.852-3.006s17.038 1.156 22.852 3.006c2.912.927 5.214 2.014 6.772 3.186 1.57 1.182 2.266 2.353 2.266 3.443z" stroke="url(#paint4_linear)" stroke-width="1.5"/><g opacity=".7" filter="url(#filter1_f)"><path d="M71.25 30.727c0 1.09-.695 2.262-2.266 3.443-1.558 1.172-3.86 2.26-6.771 3.186-5.815 1.85-13.895 3.007-22.853 3.007-8.958 0-17.038-1.157-22.852-3.007-2.912-.926-5.214-2.014-6.772-3.186-1.57-1.181-2.266-2.353-2.266-3.443 0-1.09.695-2.261 2.266-3.443 1.558-1.172 3.86-2.26 6.772-3.186 5.814-1.85 13.894-3.006 22.852-3.006s17.038 1.156 22.852 3.006c2.912.927 5.214 2.014 6.772 3.186 1.57 1.182 2.266 2.353 2.266 3.443z" stroke="url(#paint5_linear)" stroke-width="1.5"/></g><path opacity=".8" d="M71.25 16.385c0 1.09-.695 2.262-2.266 3.443-1.558 1.172-3.86 2.26-6.771 3.186-5.815 1.85-13.895 3.007-22.853 3.007-8.958 0-17.037-1.157-22.852-3.007-2.912-.926-5.214-2.014-6.772-3.186-1.57-1.181-2.266-2.352-2.266-3.443 0-1.09.696-2.261 2.266-3.443 1.558-1.172 3.86-2.259 6.772-3.185C22.323 7.907 30.402 6.75 39.36 6.75s17.038 1.156 22.853 3.007c2.911.926 5.213 2.013 6.771 3.185 1.57 1.182 2.266 2.353 2.266 3.443z" stroke="url(#paint6_linear)" stroke-width="1.5"/><g opacity=".8" filter="url(#filter2_f)"><path d="M71.25 16.385c0 1.09-.695 2.262-2.266 3.443-1.558 1.172-3.86 2.26-6.771 3.186-5.815 1.85-13.895 3.007-22.853 3.007-8.958 0-17.037-1.157-22.852-3.007-2.912-.926-5.214-2.014-6.772-3.186-1.57-1.181-2.266-2.352-2.266-3.443 0-1.09.696-2.261 2.266-3.443 1.558-1.172 3.86-2.259 6.772-3.185C22.323 7.907 30.402 6.75 39.36 6.75s17.038 1.156 22.853 3.007c2.911.926 5.213 2.013 6.771 3.185 1.57 1.182 2.266 2.353 2.266 3.443z" stroke="url(#paint7_linear)" stroke-width="1.5"/></g><defs><linearGradient id="paint3_linear" x1="49.993" y1="46.8" x2="50.129" y2="36.485" gradientUnits="userSpaceOnUse"><stop stop-color="#FF8989"/><stop offset="1" stop-color="#FF9172" stop-opacity="0"/></linearGradient><linearGradient id="paint0_linear" x1="49.961" y1="22.639" x2="29.733" y2="41.988" gradientUnits="userSpaceOnUse"><stop stop-color="#FF8989"/><stop offset="1" stop-color="#FFB170"/></linearGradient><linearGradient id="paint1_linear" x1="49.961" y1="27.635" x2="29.733" y2="46.983" gradientUnits="userSpaceOnUse"><stop stop-color="#FF8989"/><stop offset="1" stop-color="#FFB170"/></linearGradient><linearGradient id="paint2_linear" x1="49.993" y1="46.8" x2="50.129" y2="36.485" gradientUnits="userSpaceOnUse"><stop stop-color="#FF8989"/><stop offset="1" stop-color="#FF9172" stop-opacity="0"/></linearGradient><linearGradient id="paint4_linear" x1="34.909" y1="35.425" x2="35.361" y2="23.543" gradientUnits="userSpaceOnUse"><stop stop-color="#FF8989"/><stop offset="1" stop-color="#FF9172" stop-opacity="0"/></linearGradient><linearGradient id="paint5_linear" x1="34.909" y1="35.425" x2="35.361" y2="23.543" gradientUnits="userSpaceOnUse"><stop stop-color="#FF8989"/><stop offset="1" stop-color="#FF9172" stop-opacity="0"/></linearGradient><linearGradient id="paint6_linear" x1="50.487" y1="25.782" x2="40.839" y2="-2.447" gradientUnits="userSpaceOnUse"><stop stop-color="#FFB691"/><stop offset=".838" stop-color="#FF9172" stop-opacity="0"/></linearGradient><linearGradient id="paint7_linear" x1="50.487" y1="25.782" x2="40.839" y2="-2.447" gradientUnits="userSpaceOnUse"><stop stop-color="#FFB691"/><stop offset=".838" stop-color="#FF9172" stop-opacity="0"/></linearGradient><filter id="filter0_f" x=".72" y="28.684" width="77.28" height="32.771" filterUnits="userSpaceOnUse" color-interpolation-filters="sRGB"><feFlood flood-opacity="0" result="BackgroundImageFix"/><feBlend in="SourceGraphic" in2="BackgroundImageFix" result="shape"/><feGaussianBlur stdDeviation="3" result="effect1_foregroundBlur"/></filter><filter id="filter1_f" x=".72" y="14.342" width="77.28" height="32.771" filterUnits="userSpaceOnUse" color-interpolation-filters="sRGB"><feFlood flood-opacity="0" result="BackgroundImageFix"/><feBlend in="SourceGraphic" in2="BackgroundImageFix" result="shape"/><feGaussianBlur stdDeviation="3" result="effect1_foregroundBlur"/></filter><filter id="filter2_f" x=".72" y="0" width="77.28" height="32.771" filterUnits="userSpaceOnUse" color-interpolation-filters="sRGB"><feFlood flood-opacity="0" result="BackgroundImageFix"/><feBlend in="SourceGraphic" in2="BackgroundImageFix" result="shape"/><feGaussianBlur stdDeviation="3" result="effect1_foregroundBlur"/></filter><clipPath id="clip0"><path fill="#fff" d="M22.775 13.418h30.696v34.735H22.775z"/></clipPath><clipPath id="clip1"><path fill="#fff" d="M25.091 17h28v31.684h-28z"/></clipPath></defs></svg>