<svg width="390" height="391" fill="none" xmlns="http://www.w3.org/2000/svg"><ellipse cx="195.041" cy="195.077" rx="194.911" ry="195.077" fill="url(#paint0_linear)"/><path d="M347.361 182.17c1.353-28.107-18.262-46.753-40.397-59.554l-14.388 84.6c9.961-.557 14.831 3.228 16.601 5.009 2.214 2.227 7.748 8.906 1.107 19.481 13.835-2.227 35.444-15.585 37.077-49.536z" fill="#9BF9FF"/><path fill-rule="evenodd" clip-rule="evenodd" d="M158.622 83.674L141.467 66.42c25.825-3.154 93.966.89 159.93 42.3 1.107 4.453 0 11.132 0 11.132l5.534 2.783c4.796 6.864 12.949 26.382 7.194 49.535-5.755 23.154-15.679 33.024-19.922 35.065-8.854 0-23.907 5.12-28.776 27.829-4.87 22.708-14.204 27.643-18.262 27.272l-97.397 1.113-64.194-37.847-9.407-78.478 18.262-24.489 32.65-26.716 23.242-9.462 8.301-2.783zm115.031 32.419c-4.295 4.477-8.311 6.625-9.457 7.208-25.079-5.339-34.114-18.325-34.114-18.325 23.655-.146 45.006 5.485 60.627 15.012 0 0-8.456-2.743-17.056-3.895z" fill="url(#paint1_linear)"/><path fill-rule="evenodd" clip-rule="evenodd" d="M265.322 235.071c-17.246 8.445-37.694 13.333-59.618 13.333-61.625 0-111.583-38.624-111.583-86.27 0-35.198 27.265-65.473 66.358-78.89-74.342 4.27-134.084 63.852-134.084 137.373 0 84.846 75.806 154.953 169.317 154.953 69.828 0 127.952-40.392 158.344-94.433-41.817 9.383-91.319-8.455-88.734-46.066z" fill="#A0F9FF"/><defs><linearGradient id="paint0_linear" x1="126.259" y1="41.843" x2="338.307" y2="318.906" gradientUnits="userSpaceOnUse"><stop stop-color="#00EFFF"/><stop offset="1" stop-color="#00B3EC"/></linearGradient><linearGradient id="paint1_linear" x1="98.933" y1="50.698" x2="373.035" y2="345.386" gradientUnits="userSpaceOnUse"><stop stop-color="#FDFFFF"/><stop offset="1" stop-color="#FDFFFF"/></linearGradient></defs></svg>