<svg width="557" height="557" fill="none" xmlns="http://www.w3.org/2000/svg"><path fill-rule="evenodd" clip-rule="evenodd" d="M278.5 557C432.311 557 557 432.311 557 278.5S432.311 0 278.5 0 0 124.689 0 278.5 124.689 557 278.5 557z" fill="url(#paint0_linear)"/><path fill-rule="evenodd" clip-rule="evenodd" d="M415.104 161.29c0 41.244-5.104 123.739-5.104 123.739-66.637-49.499-128.153 49.499-194.789 0V161.29c66.636 49.491 133.256-49.499 199.893 0z" fill="url(#paint1_linear)"/><path fill-rule="evenodd" clip-rule="evenodd" d="M199.312 410.289V159.733a9.45 9.45 0 00-18.9 0v250.556a9.45 9.45 0 0018.9 0z" fill="url(#paint2_linear)"/><defs><linearGradient id="paint0_linear" x1="861.609" y1="-250.65" x2="-22.058" y2="418.733" gradientUnits="userSpaceOnUse"><stop stop-color="#FFB36D"/><stop offset="1" stop-color="#F88"/></linearGradient><linearGradient id="paint1_linear" x1="262.963" y1="124.911" x2="415.615" y2="274.646" gradientUnits="userSpaceOnUse"><stop stop-color="#FFEFE0"/><stop offset="1" stop-color="#FBB"/></linearGradient><linearGradient id="paint2_linear" x1="132" y1="190" x2="228" y2="420" gradientUnits="userSpaceOnUse"><stop stop-color="#FFECDB"/><stop offset="1" stop-color="#FF9898"/></linearGradient></defs></svg>