<svg width="557" height="557" fill="none" xmlns="http://www.w3.org/2000/svg"><g fill-rule="evenodd" clip-rule="evenodd"><path d="M278.5 557C432.311 557 557 432.311 557 278.5S432.311 0 278.5 0 0 124.689 0 278.5 124.689 557 278.5 557z" fill="#FFE2D7"/><path opacity=".668" d="M363.774 198.65v187.586c0 10.088-8.187 18.263-18.273 18.263H176.6c-10.094 0-18.274-8.175-18.274-18.263V139.263c0-10.088 8.179-18.263 18.274-18.263h109.479l77.695 77.65z" fill="url(#paint0_linear)"/><path d="M363.774 198.65h-59.421c-10.094 0-18.274-8.175-18.274-18.263V121l77.695 77.65z" fill="#fff"/><path d="M428.116 407.627c4.559 4.272 4.794 11.432.526 15.995-.169.181-.345.357-.526.526a10.849 10.849 0 01-8.141 3.621 11.073 11.073 0 01-8.367-3.621l-39.573-39.378a95.7 95.7 0 009.045-7.695 69.78 69.78 0 007.462-8.826l.905.679 38.669 38.699z" fill="#FF9084" fill-opacity=".25"/><path d="M408 320c0-45.287-36.713-82-82-82s-82 36.713-82 82 36.713 82 82 82 82-36.713 82-82zm-142 0c0-33.137 26.863-60 60-60s60 26.863 60 60-26.863 60-60 60-60-26.863-60-60z" fill="#fff"/></g><defs><linearGradient id="paint0_linear" x1="429.103" y1="333.625" x2="283.716" y2="199.615" gradientUnits="userSpaceOnUse"><stop stop-color="#fff" stop-opacity=".01"/><stop offset="1" stop-color="#fff"/></linearGradient></defs></svg>