<svg width="22" height="15" fill="none" xmlns="http://www.w3.org/2000/svg"><path fill-rule="evenodd" clip-rule="evenodd" d="M5.091 11.893c-.029-3.177 1.45-4.94 4.438-5.289.171.414.627 1.537 1.368 3.367l1.375-3.367c2.935.304 4.403 2.104 4.403 5.4-2.971-.018-6.733-.018-11.286 0l-.298-.11z" fill="#fff"/><path d="M10.897 5.82a2.41 2.41 0 100-4.82 2.41 2.41 0 000 4.82z" fill="#fff"/><path opacity=".668" fill-rule="evenodd" clip-rule="evenodd" d="M5.362 13.093c.28.322.475.696.569 1.085a.469.469 0 01-.246.527l.001.002c-1.135.575-2.607.205-3.441-.755a2.592 2.592 0 01-.569-1.085.469.469 0 01.246-.527c1.14-.59 2.62-.191 3.44.753zm5.495-3.905c0 .73.002 1.629 0 0zM5.226.274c.615 1.102.32 2.558-.576 3.43a2.597 2.597 0 01-1.05.63.471.471 0 01-.564-.253 2.62 2.62 0 01-.32-1.14C2.648 1.68 3.442.39 4.66.022a.471.471 0 01.565.253zm-.639 1.17a1.765 1.765 0 00-.055-.355c-.69.432-1.052 1.352-.846 2.134.587-.368.938-1.093.901-1.779zM1.811 3.587a.474.474 0 00-.602.12c-.79 1-.7 2.506.08 3.498.256.325.575.582.926.748.2.111.455.064.601-.12 1.052-1.333.53-3.517-1.005-4.246zm.16 1.331c.432.54.565 1.328.295 1.962-.63-.52-.867-1.475-.55-2.22.091.075.177.162.254.258zM.628 7.97a.473.473 0 00-.478.369c-.281 1.246.453 2.577 1.588 3.14.376.186.78.282 1.177.28a.474.474 0 00.477-.369C3.77 9.727 2.35 7.96.63 7.97zm.76 1.13c.616.31 1.069.966 1.104 1.657-.782-.21-1.4-.973-1.441-1.785.113.03.226.073.336.129zm1.729 3.878a1.81 1.81 0 00-.363.035c.397.717 1.3 1.14 2.097.975-.338-.61-1.043-1.006-1.734-1.01z" fill="#FFDACB"/><path opacity=".668" fill-rule="evenodd" clip-rule="evenodd" d="M16.354 13.093a2.59 2.59 0 00-.569 1.085.469.469 0 00.245.527v.002c1.135.575 2.607.205 3.44-.755.28-.322.476-.696.57-1.085a.469.469 0 00-.246-.527c-1.14-.59-2.62-.191-3.44.753zm-5.495-3.905c0 .73-.002 1.629 0 0zM16.49.274c-.615 1.102-.32 2.558.576 3.43.307.298.669.515 1.05.63a.471.471 0 00.564-.253c.188-.338.299-.729.32-1.14.067-1.262-.727-2.551-1.946-2.92a.471.471 0 00-.564.253zm.639 1.17c.006-.123.025-.242.055-.355.689.432 1.051 1.352.846 2.134-.587-.368-.938-1.093-.901-1.779zm2.776 2.143a.475.475 0 01.602.12c.79 1 .7 2.506-.08 3.498a2.612 2.612 0 01-.926.748.474.474 0 01-.601-.12c-1.053-1.333-.53-3.517 1.005-4.246zm-.16 1.331c-.433.54-.565 1.328-.295 1.962.63-.52.867-1.475.55-2.22a1.79 1.79 0 00-.254.258zm1.342 3.051a.473.473 0 01.478.369c.281 1.246-.453 2.577-1.588 3.14-.376.186-.78.282-1.177.28a.474.474 0 01-.478-.369c-.375-1.662 1.044-3.43 2.765-3.42zm-.76 1.13c-.616.31-1.069.966-1.104 1.657.782-.21 1.4-.973 1.441-1.785-.113.03-.226.073-.336.129zm-1.73 3.878c.125 0 .247.011.364.035-.397.717-1.3 1.14-2.097.975.338-.61 1.043-1.006 1.734-1.01z" fill="#FFDACB"/></svg>