<svg width="150" height="241" fill="none" xmlns="http://www.w3.org/2000/svg"><g clip-path="url(#clip0)"><path d="M102.82 180.343l-15.628-11.057a4.147 4.147 0 01-.038-.027c-1.953-1.387-1.953-4.494 0-5.882l.038-.027 15.628-11.057c14.593-10.325 23.112-26.108 23.112-42.816H24.372c0 16.708 8.52 32.491 23.114 42.816l15.628 11.057.037.027c1.953 1.387 1.953 4.494 0 5.882a3.11 3.11 0 00-.038.027l-15.627 11.057c-14.593 10.325-23.113 26.108-23.113 42.816h101.559c0-16.708-8.519-32.491-23.112-42.816z" fill="url(#paint0_linear)"/><path d="M113.719 222.99c-.024-9.252-4.558-17.825-11.874-22.769l-15.928-10.763c-5.719-3.865-9.186-10.593-9.186-17.826 0-5.059 4.173-8.282 4.173-8.282l15.26-11.055a49.889 49.889 0 004.534-4.834c.894-1.09.363-2.81-.96-3.135a102.738 102.738 0 00-49.17 0c-1.322.325-1.854 2.045-.96 3.135a49.799 49.799 0 004.534 4.834l15.26 11.055s4.173 3.223 4.173 8.282c0 7.233-3.467 13.961-9.186 17.826L48.46 200.221c-7.316 4.944-11.85 13.517-11.874 22.769v.168h77.132v-.168z" fill="url(#paint1_linear)"/><path d="M113.719 222.99c-.024-9.252-4.558-17.825-11.874-22.769l-15.928-10.763c-5.719-3.865-9.186-10.593-9.186-17.826 0-1.944.617-3.616 1.376-4.939a12.65 12.65 0 00-2.954-.375c-.996 0-1.991.144-2.954.375.76 1.323 1.376 2.995 1.376 4.939 0 7.233-3.467 13.961-9.186 17.826L48.46 200.221c-7.316 4.944-11.85 13.517-11.874 22.769v.168h77.132v-.168z" fill="url(#paint2_linear)"/><path d="M113.719 222.99c-.024-9.252-4.558-17.825-11.874-22.769l-15.928-10.763c-5.719-3.865-9.186-10.593-9.186-17.826 0-1.944.617-3.616 1.376-4.939a12.65 12.65 0 00-2.954-.375c-.996 0-1.991.144-2.954.375.76 1.323 1.376 2.995 1.376 4.939 0 7.233-3.467 13.961-9.186 17.826L48.46 200.221c-7.316 4.944-11.85 13.517-11.874 22.769v.168h77.132v-.168z" fill="url(#paint3_linear)"/><path d="M30.369 111.483h-5.996v109.055h5.996V111.483z" fill="url(#paint4_linear)"/><path d="M125.931 111.483h-5.996v109.055h5.996V111.483z" fill="url(#paint5_linear)"/><path d="M128.041 240.963H22.262a4.75 4.75 0 01-4.75-4.751v-14.726a4.75 4.75 0 014.75-4.751h105.779a4.75 4.75 0 014.751 4.751v14.726a4.75 4.75 0 01-4.751 4.751z" fill="url(#paint6_linear)"/><path d="M128.041 115.902H22.262a4.75 4.75 0 01-4.75-4.75V96.425a4.75 4.75 0 014.75-4.75h105.779a4.75 4.75 0 014.751 4.75v14.726a4.75 4.75 0 01-4.751 4.751z" fill="url(#paint7_linear)"/></g><path d="M48.498 54.968c4.122-8.93 19-6.175 19-6.175v15.049l4.867 3.53 13.875-3.109 9.805-2.196-3.052-22.356a11.385 11.385 0 00-11.28-9.845H68.202l-8.201 7.982-1.698-7.982H45.52c-5.021 0-9.45 3.29-10.899 8.1L31.433 48.54c4.167-.397 13.862-.514 17.065 6.427z" fill="#FF6361"/><path d="M65.428 77.012l-16.931 5.502-14.664-4.764c-3.944 1.543-6.748 5.361-6.773 9.85l-.345 60.506h12.728l7.638-55.607h8.54l1.973 55.607H70.32l4.068-55.607h5.99c5.512 0 9.028-5.886 6.412-10.739l-2.558-4.746H65.428v-.002z" fill="#6893C0"/><path d="M31.435 48.543c-1.195.115-1.938.25-1.938.25l1.695.552 17.306 5.623c-3.203-6.94-12.898-6.824-17.063-6.425z" fill="#EBEBE2"/><path d="M48.497 54.967l19-6.174s-14.876-2.756-19 6.174z" fill="#EBEBE2"/><path d="M71.207 16.16c-.127-4.215-1.534-10.974-7.604-13.882a11.734 11.734 0 00-4.428-1.27l-.017-.002v.002c-1.19-.1-2.393-.035-3.554.213-5.552 1.184-12.864 5.228-8.665 14.167L57.487 7.28s1.33 2.759 3.97 3.917a3.39 3.39 0 01.833-.593c.255-.13.522-.238.814-.3a3.3 3.3 0 01.925-.053 3.354 3.354 0 013.063 2.638 3.352 3.352 0 01-1.72 3.656s-.002 0-.002.002l2.127 10.001 9.887-3.9c.002.002-6.024-1.389-6.177-6.488zM31.195 49.345l-1.695-.552v15.049l4.629 3.53v9.64h-2.562l2.27.737 14.661 4.765 16.932-5.502h-2.065v-9.64l4.134-3.53V48.793l-19 6.175-17.304-5.623z" fill="#203254"/><path d="M97.013 69.151l-.967-7.082-9.807 2.196-13.875 3.11-4.867-3.531-4.134 3.53v9.64h26.786c4.2-.001 7.431-3.706 6.864-7.863z" fill="#F1A1A2"/><path d="M67.5 26.55L65.371 16.55s.002 0 .002-.002a3.352 3.352 0 001.72-3.656 3.347 3.347 0 00-3.063-2.637 3.301 3.301 0 00-.925.052 3.33 3.33 0 00-.814.3 3.263 3.263 0 00-.833.594c-2.64-1.157-3.97-3.915-3.97-3.918L46.942 15.39l1.662 7.797a3.362 3.362 0 004.713 2.344l3.677-1.85 1.315 6.187 1.698 7.982 8.201-7.982-.707-3.318z" fill="#F5C5B6"/><path d="M25.633 67.372v9.64h8.496v-9.64l-4.63-3.53-3.866 3.53z" fill="#F1A1A2"/><path d="M26.718 148.106l-11.783 5.516a1.888 1.888 0 00.8 3.598h23.709v-9.114H26.718zM57.595 148.106l-11.783 5.516a1.888 1.888 0 00.8 3.598H70.32v-9.114H57.595zM80.45 46.854l-.916.14 2.776 18.102.916-.14-2.776-18.102z" fill="#203254"/><path d="M57.283 20.777a6.353 6.353 0 01-3.49 1.027L53.779 20a4.55 4.55 0 003.274-1.359 4.605 4.605 0 001.332-3.3l1.797.002a6.388 6.388 0 01-2.899 5.435z" fill="#000"/><defs><linearGradient id="paint0_linear" x1="48.634" y1="92.991" x2="153.886" y2="163.271" gradientUnits="userSpaceOnUse"><stop stop-color="#FFD3AA"/><stop offset="1" stop-color="#FF9696"/></linearGradient><linearGradient id="paint1_linear" x1="-85.573" y1="13.959" x2="151.283" y2="102.489" gradientUnits="userSpaceOnUse"><stop stop-color="#FFBE81"/><stop offset="1" stop-color="#FF5F5F"/></linearGradient><linearGradient id="paint2_linear" x1="75.155" y1="181.839" x2="75.155" y2="224.767" gradientUnits="userSpaceOnUse"><stop stop-color="#FFCF95"/><stop offset=".427" stop-color="#FFC954"/><stop offset="1" stop-color="#FFC200"/></linearGradient><linearGradient id="paint3_linear" x1="-85.573" y1="77.824" x2="123.774" y2="190.457" gradientUnits="userSpaceOnUse"><stop stop-color="#FFBE81"/><stop offset="1" stop-color="#FF5F5F"/></linearGradient><linearGradient id="paint4_linear" x1="27.729" y1="220.551" x2="27.729" y2="117.686" gradientUnits="userSpaceOnUse"><stop stop-color="#FFD3AA"/><stop offset="1" stop-color="#FF9696"/></linearGradient><linearGradient id="paint5_linear" x1="123.292" y1="220.551" x2="123.292" y2="117.686" gradientUnits="userSpaceOnUse"><stop stop-color="#FFD3AA"/><stop offset="1" stop-color="#FF9696"/></linearGradient><linearGradient id="paint6_linear" x1="17.553" y1="217.747" x2="30.809" y2="256.001" gradientUnits="userSpaceOnUse"><stop stop-color="#FFBE81"/><stop offset="1" stop-color="#FF5F5F"/></linearGradient><linearGradient id="paint7_linear" x1="17.553" y1="92.686" x2="30.809" y2="130.94" gradientUnits="userSpaceOnUse"><stop stop-color="#FFBE81"/><stop offset="1" stop-color="#FF5F5F"/></linearGradient><clipPath id="clip0"><path fill="#fff" transform="translate(.508 91.674)" d="M0 0h149.289v149.289H0z"/></clipPath></defs></svg>