<svg width="238" height="140" viewBox="0 0 238 140" fill="none" xmlns="http://www.w3.org/2000/svg"><path fill-rule="evenodd" clip-rule="evenodd" d="M223.401 39.99h-66.604a14.194 14.194 0 00-11.08 5.331l-.263.328 8.949 14.572.736 1.199 12.186 19.846h34.264v3.924l-.008 1.342 11.016 4.19 11.739 3.854c6.398 2.47 13.275-2.268 13.275-9.146V54.247c0-7.874-6.362-14.256-14.21-14.256z" fill="#242424"/><path d="M179.439 77.607V39.09h31.23l-31.23 38.517z" fill="#fff"/><path fill-rule="evenodd" clip-rule="evenodd" d="M201.589 87.846h-43.994l42.757 27.899 12.326-25.06-11.089-4.28v1.441z" fill="#242424"/><path fill-rule="evenodd" clip-rule="evenodd" d="M190.064 12.6l.569 3.082a3.915 3.915 0 013.753-2.426l-.963-5.216-8.439 1.566 5.08 2.994z" fill="#D66969" fill-opacity=".53"/><path fill-rule="evenodd" clip-rule="evenodd" d="M2.689 104.341c-1.27 0-2.3 1.034-2.3 2.308v32.376H11.49v-18.953l-6.718-14.401a2.3 2.3 0 00-2.084-1.33zm60.614 13.406l-14.9-5.417a2.295 2.295 0 00-2.41.538c-.9.902-.9 2.363 0 3.265l22.817 22.893 7.85-7.878-13.357-13.401zm132.516-96.955a3.935 3.935 0 00-1.416-7.534l-.017-.002a3.917 3.917 0 00-3.754 2.426l-.568-3.081-5.08-2.994-.067.012-12.698 2.357 3.036 16.467c.479 2.6 3.244 4.075 5.661 3.022l4.538-2.138 3.678 19.957 10.226-9.293-3.539-19.199z" fill="#F5C5B6"/><path fill-rule="evenodd" clip-rule="evenodd" d="M11.491 120.072v18.954H68.81L48.69 118.84l-37.2 1.232z" fill="#6893C0"/><path fill-rule="evenodd" clip-rule="evenodd" d="M172.219 11.975l12.698-2.357.067-.012 8.439-1.566c-1.47-7.97-6.907-8.21-13.561-6.81-6.653 1.4-11.964.595-11.964.595-2.134 5.705 4.321 10.15 4.321 10.15z" fill="#EC6A6A"/><path fill-rule="evenodd" clip-rule="evenodd" d="M201.589 85.19v-3.924h-34.264L155.138 61.42l-.773-1.283-8.911-14.488-.026-.043H76.66l24.096 39.24 10.603-9.314a20.42 20.42 0 0120.68-3.766 20.424 20.424 0 013.976 2l21.58 14.08h43.994v-2.655z" fill="url(#paint0_linear)"/><path fill-rule="evenodd" clip-rule="evenodd" d="M189.846 81.266l3.578-10.823-10.544-3.717-8.185 5.785v8.755h15.151z" fill="#F5C5B6"/><path fill-rule="evenodd" clip-rule="evenodd" d="M228.817 75.69l-35.467-4.686.148-1.122 35.466 4.686-.147 1.123z" fill="#3E3F71"/><path fill-rule="evenodd" clip-rule="evenodd" d="M218.996 73.774l-1.126-.053.86-18.512 1.127.052-.861 18.513z" fill="#3E3F71"/><path fill-rule="evenodd" clip-rule="evenodd" d="M95.063 117.303l23.951-18.02 21.683 16.508-45.634 1.512zm105.289-1.558l-64.337-41.98a20.432 20.432 0 00-3.977-1.999 20.418 20.418 0 00-20.679 3.766l-48.057 42.215 13.358 13.401-7.85 7.877h116.087c11.182 0 19.196-10.821 15.971-21.563l-.516-1.717z" fill="#6893C0"/><path fill-rule="evenodd" clip-rule="evenodd" d="M157.322 129.159l-38.649-29.424.681-.902 38.65 29.423-.682.903z" fill="#352C47"/><path fill-rule="evenodd" clip-rule="evenodd" d="M76.998 131.602l-.677-.906 47.353-35.625.676.906-47.352 35.625z" fill="#352C47"/><defs><linearGradient id="paint0_linear" x1="76.66" y1="109.039" x2="163.653" y2="28.861" gradientUnits="userSpaceOnUse"><stop stop-color="#FFAF70"/><stop offset="1" stop-color="#FF8D85"/></linearGradient></defs></svg>