<svg width="40" height="40" fill="none" xmlns="http://www.w3.org/2000/svg"><circle cx="20" cy="20" r="20" fill="#242C3D"/><path d="M7.128 18.065l2.288 6.09c.65.112 1.051.265 1.051.433v.002a.556.556 0 01-.004.243h.004l-.013.036a1.107 1.107 0 01-.081.208c-.607 1.431-1.947 2.442-3.597 2.442-1.626 0-3.014-.981-3.64-2.38a1.26 1.26 0 01-.114-.278l-.01-.028h.004a.572.572 0 01-.01-.216l.006-.03v-.011c.02-.17.448-.323 1.128-.434l2.283-6.077c.11-.295.594-.295.705 0zm12.07-.001l2.287 6.089c.62.106 1.017.248 1.06.406l-.004-.008.01.02a.408.408 0 01.01.26.86.86 0 01-.061.164c-.59 1.475-1.973 2.523-3.654 2.523-1.663 0-3.078-1.026-3.683-2.476a.912.912 0 01-.079-.203l-.001-.006v-.001l-.004-.017a.67.67 0 01.012-.216l.004-.024.001-.005.002-.007c.039-.164.457-.311 1.111-.418l2.284-6.081c.11-.295.594-.295.705 0zm-4.1 6.499l-.002.008.002-.008zm-8.322-5.294l-1.793 4.77a20.04 20.04 0 011.757-.073h.071a19.7 19.7 0 011.76.08L6.776 19.27zm12.07 0l-1.793 4.772a20.012 20.012 0 011.77-.075h.07c.634.002 1.229.03 1.747.079l-1.794-4.776zM12.864 11s.892 2.796.892 3.29c0 .342-.197.63-.478.78.231.076.435.207.593.383a2.4 2.4 0 011.627-.595c.857 0 1.594.375 2.244.705.207.105.408.206.594.284a.753.753 0 01.549-.24c.42 0 .76.341.76.763s-.34.764-.76.764a.75.75 0 01-.715-.54 8.385 8.385 0 01-.767-.357c-.575-.291-1.228-.623-1.905-.623a1.68 1.68 0 00-1.29.56c.01.065.02.13.02.196 0 .757-.611 1.37-1.364 1.37a1.368 1.368 0 01-1.365-1.37c0-.067.01-.132.02-.197a1.68 1.68 0 00-1.29-.559c-.677 0-1.33.332-1.906.624a8.251 8.251 0 01-.766.357.75.75 0 01-.715.54.762.762 0 01-.76-.765.756.756 0 011.309-.523c.186-.078.386-.178.593-.284.65-.33 1.388-.705 2.245-.705a2.4 2.4 0 011.627.595c.159-.176.362-.308.593-.382a.887.887 0 01-.478-.78c0-.495.893-3.291.893-3.291z" fill="url(#paint0_linear)"/><path d="M22.684 9.232s-.998.086-1.659.443c0 0 2.63-.015 3.853 1.011 0 0-2.976-.912-6.444 1.354 0 0 5.516-1.055 8.131 1.183 0 0-.843-1.559-2.618-1.894 0 0 2.02-.08 2.71.255 0 0-.597-1.285-1.274-1.59v-.916c0-.186-1.011-1.129-2.699-1.288v1.442z" fill="url(#paint1_linear)"/><path d="M22.235 13.326s.425.37.605.713c0 0-.389.384-.76.573 0 0 1.126.354 1.423.773-.6-.189-1.626-.118-1.873.39.685-.073 1.105.104 1.193.366 0 0-.163.234-.662.339-.531.11-.667.331-.667.64 0 .307.404.589 1.137.566.732-.023 2.728-.325 2.88-4.095-.152-.355-1.976-1.079-3.28-1.07l.004.805zm3.523 4.174c.896-1.393 1.386-2.606 1.47-3.64 1.328 1.472 1.248 3.195 1.022 4.514a9.764 9.764 0 00-.588-1.31c.159 2.034-.444 3.134-1.81 3.303-.159-.94-.19-1.895-.094-2.868zM10.151 5.87c-.249.383-.614 1.446-1.095 3.19-1.149 1.312-2.27 3.143-3.366 5.493-.53.179-1.094.426-1.69.742 1.559-2.934 3.082-5.129 4.569-6.583A7.422 7.422 0 0110.15 5.87zm2.961 3.007L9.478 10.59c1.035.017 1.858-.17 2.467-.564.61-.393.998-.776 1.167-1.148zm-1.341-.624c-.02-.747-.118-1.168-.293-1.26-.194-.087-.306-.273-.194-.614.07-.216.049-.457-.063-.722L12.207 5l1.11.698c.038.246-.042.473-.242.681.241.262.241.599-.039.988.008.096.014.19.017.284a7.13 7.13 0 01-.017.602h-1.265z" fill="#fff"/><path d="M24.74 18.939c-.156 2.869.449 4.5 1.815 4.891 2.049.588 5.691.666 5.458 5.117.186.589.355 1.149.508 1.68-.6.642-1.252 1.235-1.948 1.772-.681-1.662-1.716-2.708-2.913-3.453-4.717-2.967-5.69-6.303-2.92-10.008zm-13.268 9.898c2.754 6.9 7.162 2.479 10.567 4.095 1.557.739 2.406 2.096 2.547 4.07-1.327.308-2.71.471-4.131.471-2.756 0-5.369-.612-7.71-1.708-.009-2.078-.433-4.387-1.273-6.928zm5.224-18.657c.714-.198 1.298-.642 1.75-1.335a2.362 2.362 0 01-.31 1.065c2.065-.37 3.667-1.62 4.807-3.746-2.102-1.14-4.269-.362-5.43 1.057-.774.946-1.047 1.932-.817 2.958z" fill="#fff"/><defs><linearGradient id="paint0_linear" x1="31.777" y1="2.62" x2="4.293" y2="26.839" gradientUnits="userSpaceOnUse"><stop stop-color="#FFAD61"/><stop offset="1" stop-color="#FF7676"/></linearGradient><linearGradient id="paint1_linear" x1="30.522" y1="5.034" x2="21.474" y2="15.218" gradientUnits="userSpaceOnUse"><stop stop-color="#FFAD61"/><stop offset="1" stop-color="#FF7676"/></linearGradient></defs></svg>