<svg width="241" height="263" fill="none" xmlns="http://www.w3.org/2000/svg"><circle cx="148.517" cy="93.281" r="92.318" fill="url(#paint0_linear)" fill-opacity=".05"/><path d="M220.661 87.177c.641-13.302-8.649-22.126-19.134-28.184l-6.814 40.036c4.718-.263 7.024 1.528 7.863 2.371 1.048 1.053 3.669 4.214.524 9.219 6.553-1.054 16.788-7.375 17.561-23.442z" fill="url(#paint1_linear)"/><path fill-rule="evenodd" clip-rule="evenodd" d="M131.269 40.564l-8.125-8.165c12.231-1.493 44.506.421 75.749 20.018.525 2.107 0 5.268 0 5.268l2.621 1.317c2.272 3.248 6.134 12.485 3.408 23.442-2.726 10.957-7.427 15.628-9.436 16.594-4.194 0-11.323 2.423-13.63 13.17-2.306 10.746-6.727 13.082-8.649 12.906l-46.132.527L96.67 107.73l-4.456-37.139 8.65-11.59 15.465-12.642 11.008-4.478 3.932-1.317zm54.483 15.341c-2.034 2.12-3.936 3.136-4.479 3.411-11.878-2.526-16.158-8.671-16.158-8.671 11.204-.07 21.317 2.595 28.716 7.104 0 0-4.005-1.298-8.079-1.844z" fill="url(#paint2_linear)"/><path fill-rule="evenodd" clip-rule="evenodd" d="M182.015 112.212c-8.183 3.995-17.886 6.309-28.289 6.309-29.242 0-52.948-18.279-52.948-40.827 0-16.655 12.935-30.981 31.482-37.331-35.274 2.022-63.62 30.218-63.62 65.009 0 40.153 35.971 73.331 80.344 73.331 33.134 0 60.715-19.115 75.137-44.69-19.844 4.44-43.334-4.002-42.106-21.801z" fill="url(#paint3_linear)"/><path d="M54.395 72.9h30.91a17.382 17.382 0 0113.622 6.585l2.835 3.578-13.164 43.36h-45.1L37.314 93.49c-2.01-10.698 6.197-20.59 17.081-20.59z" fill="url(#paint4_linear)"/><path d="M105.26 253.592l12.046 5.639a1.93 1.93 0 01-.818 3.678H92.25v-9.317h13.01zM51.012 253.592l12.045 5.639a1.93 1.93 0 01-.817 3.678H38v-9.317h13.01z" fill="#203254"/><path d="M88.597 126.423l16.663 127.171H92.25l-21.364-113.32H58.6l-7.582 113.32h-13.01L39.6 144.505a47.05 47.05 0 013.902-18.082h45.095z" fill="#6893C0"/><path d="M20.495 39.064c1.737-2.437 4.815-3.796 7.803-3.623 5.33.312 9.978 5.004 15.259 4.215 2.908-.436 5.44-2.514 8.38-2.6 2.11-.06 4.156.96 5.642 2.456.48.483.931 1.05 1.344 1.65 2.276-1.482 4.114-2.276 6.81-2.276 6.632 0 13.974 5.47 11.006 14.426L65.18 48.313s-1.017 2.176-3.749 4.14c-.61-.388-.32 0-1.093 0-.374 0-1.16 1.093-1.16 1.093s-2.856-.341-2.856 1.452 1.212 2.845 2.857 3.313v5.857s-5.972-4.056-5.972-12.304c0-4.015 1.612-7.19 4.025-9.399a5.07 5.07 0 00-1.97-.03c-1.992.35-3.736 1.494-5.453 2.554a87.533 87.533 0 01-12.675 6.454c-2.122.872-4.335 1.669-6.63 1.686-2.364.017-4.677-.806-6.702-2.022-1.502-.904-2.902-2.056-3.785-3.57-1.515-2.582-1.26-6.037.478-8.473z" fill="#203254"/><path d="M58.626 51.827c.299-.085.608-.145.937-.145a3.4 3.4 0 011.838.542c2.39-1.718 3.134-4.762 3.134-4.762l12.274 5.857v8.15a3.438 3.438 0 01-4.212 3.35l-4.07-1.066v15.71l-9.903-6.736V58.406a3.425 3.425 0 01-2.5-3.29 3.432 3.432 0 012.502-3.289z" fill="#F5C5B6"/><path d="M139.993 48.072l6.63 6.633 6.63 6.63L20.726 193.86l-6.63-6.632-6.63-6.63-6.63-6.63L133.363 41.442l6.63 6.63z" fill="#FF6361"/><path d="M146.299 54.371l.67.67L14.443 187.567l-.67-.67L146.298 54.371zM139.666 47.74l.67.67L7.81 180.936l-.67-.67L139.666 47.74zM159.116 35.579l-2.557 11.234-8.675-8.677 11.232-2.557z" fill="#203254"/><path d="M156.557 46.813l-3.306 14.522-19.891-19.893 14.522-3.306 8.675 8.677z" fill="#F5C5B6"/><path d="M29.118 83.93l-7.806 19.892a12.844 12.844 0 005.033 15.508l29.78 19.049 8.045-10.712-23.933-18.588 18.385-36.183-13.33.002a17.376 17.376 0 00-16.174 11.031z" fill="#FF6361"/><path d="M64.174 127.667l4.241-1.244 6.26 7.548-6.958 12.897-11.589-8.489 8.046-10.712z" fill="#F5C5B6"/><path d="M34.49 103.967l20.417 15.85-.581.748-20.417-15.85.58-.748z" fill="#203254"/><path d="M44.889 88.31l.884.34-7.275 18.876-.884-.341 7.275-18.876z" fill="#203254"/><path d="M123.115 97.939v-6.47l-4.698-2.97-11.19 11.47 6.998 7.409 8.89-9.44z" fill="#F5C5B6"/><path d="M64.964 60.344c-1.87-1.526-2.161-4.27-.65-6.122l.42-.516 6.778 5.53-.42.516c-1.512 1.852-4.259 2.117-6.128.592zm.03-4.707a3.029 3.029 0 00.812 3.674 3.029 3.029 0 003.762.059l-4.575-3.733z" fill="#203254"/><path fill-rule="evenodd" clip-rule="evenodd" d="M133.153 32.336a85.371 85.371 0 00-2.226-.011.614.614 0 11-.01-1.229 86.48 86.48 0 012.258.011.615.615 0 11-.022 1.229zm-3.86-.599a.614.614 0 01-.592.636c-.738.026-1.478.063-2.221.11a.615.615 0 11-.079-1.225 78.473 78.473 0 012.256-.113.614.614 0 01.636.592zm5.498.026a.614.614 0 01.64-.588c.76.033 1.512.074 2.255.123a.614.614 0 11-.082 1.227 93.259 93.259 0 00-2.225-.122.614.614 0 01-.588-.64zm4.478.268a.614.614 0 01.667-.557c.76.069 1.508.145 2.243.227a.615.615 0 01-.137 1.221 99.368 99.368 0 00-2.216-.224.614.614 0 01-.557-.666zm-14.942.62a.615.615 0 00-.18-1.214c-.375.036-.75.074-1.125.116a.615.615 0 00-.381 1.03c.225.24.446.477.665.709a.614.614 0 001.021-.641zm19.399-.146a.614.614 0 01.691-.527c.762.103 1.507.212 2.233.327a.614.614 0 01-.191 1.214 101.18 101.18 0 00-2.207-.323.614.614 0 01-.526-.691zm4.434.67a.615.615 0 01.714-.495 97.22 97.22 0 012.216.427.614.614 0 11-.246 1.204 95.858 95.858 0 00-2.188-.421.615.615 0 01-.496-.714zm4.403.873a.614.614 0 01.737-.46c.779.18 1.511.36 2.191.538a.614.614 0 01-.312 1.189 75.554 75.554 0 00-2.156-.53.614.614 0 01-.46-.737zm-27.901-.216a.615.615 0 01.869.021c.465.489.912.955 1.338 1.396a.615.615 0 01-.885.853c-.427-.443-.876-.91-1.343-1.4a.614.614 0 01.021-.87zm32.246 1.317a.614.614 0 01.766-.41c.39.118.752.233 1.082.344a.615.615 0 01-.39 1.165 38.41 38.41 0 00-1.049-.333.614.614 0 01-.409-.766zm-29.562 1.477a.615.615 0 01.869.01c.495.505.949.965 1.357 1.376a.614.614 0 11-.872.867c-.41-.414-.867-.877-1.363-1.384a.614.614 0 01.009-.87zm2.725 2.756a.615.615 0 01.869-.007c.285.28.516.504.687.668a.616.616 0 01-.417 1.058c-.37.005-.756.016-1.156.034a.614.614 0 01-.15-1.216.612.612 0 01.167-.537zm-1.781 1.248a.614.614 0 01-.552.671c-.736.072-1.506.163-2.306.276a.614.614 0 01-.172-1.217c.817-.115 1.605-.209 2.359-.282a.614.614 0 01.671.552zm-4.665.605a.614.614 0 01-.494.714c-.744.135-1.507.288-2.288.46a.615.615 0 11-.263-1.2c.795-.175 1.573-.331 2.331-.469.334-.06.654.161.714.495zm-4.61.966a.614.614 0 01-.442.748c-.738.19-1.488.395-2.249.618a.614.614 0 11-.345-1.18 70.069 70.069 0 012.288-.628.614.614 0 01.748.442zm-4.531 1.285a.615.615 0 01-.391.776c-.728.24-1.463.496-2.204.768a.615.615 0 01-.424-1.153 70.942 70.942 0 012.243-.782.615.615 0 01.776.391zm-4.432 1.584a.614.614 0 01-.338.8c-.713.29-1.429.594-2.148.915a.615.615 0 01-.5-1.123c.731-.326 1.46-.636 2.186-.93a.614.614 0 01.8.338zm-4.32 1.88a.614.614 0 01-.283.821c-.693.338-1.387.69-2.082 1.059a.614.614 0 01-.576-1.086 68.481 68.481 0 012.12-1.078.614.614 0 01.821.284zm-4.179 2.17a.615.615 0 01-.226.839c-.668.385-1.334.785-1.999 1.2a.614.614 0 11-.651-1.042c.677-.423 1.356-.83 2.036-1.223a.615.615 0 01.84.226zm-4.015 2.457a.615.615 0 01-.164.854c-.639.432-1.275.88-1.906 1.342a.614.614 0 11-.726-.992 64.472 64.472 0 011.943-1.368.614.614 0 01.853.164zm-3.825 2.745a.614.614 0 01-.1.863c-.605.479-1.206.972-1.8 1.481a.614.614 0 11-.8-.933c.608-.52 1.22-1.023 1.837-1.511a.614.614 0 01.863.1zm-3.608 3.025c.23.25.215.638-.034.868a59.662 59.662 0 00-1.68 1.615.614.614 0 11-.869-.869 60.978 60.978 0 011.715-1.648.614.614 0 01.868.034zm-3.364 3.294c.25.23.265.62.034.869a58.997 58.997 0 00-1.548 1.741.614.614 0 11-.934-.798c.519-.607 1.046-1.2 1.58-1.778.23-.249.62-.264.868-.033zm-3.094 3.549c.267.21.313.596.102.863a59.032 59.032 0 00-1.405 1.858.614.614 0 01-.995-.722c.47-.647.948-1.28 1.435-1.897a.614.614 0 01.863-.102zm-2.804 3.78c.282.19.358.57.17.853-.216.323-.43.65-.64.98a.615.615 0 01-1.036-.662c.215-.337.433-.67.654-1a.614.614 0 01.852-.17z" fill="#203254"/><defs><linearGradient id="paint0_linear" x1="148.517" y1="65.57" x2="148.517" y2="188.027" gradientUnits="userSpaceOnUse"><stop stop-color="#FF9230"/><stop offset="1" stop-color="#FFD5AB"/></linearGradient><linearGradient id="paint1_linear" x1="203.403" y1="71.502" x2="252.771" y2="83.605" gradientUnits="userSpaceOnUse"><stop stop-color="#FFC58F"/><stop offset="1" stop-color="#FF7C7C"/></linearGradient><linearGradient id="paint2_linear" x1="119.363" y1="18.423" x2="212.78" y2="103.165" gradientUnits="userSpaceOnUse"><stop stop-color="#FFC58F"/><stop offset="1" stop-color="#FF7C7C"/></linearGradient><linearGradient id="paint3_linear" x1="120.649" y1="73.883" x2="247.473" y2="166.043" gradientUnits="userSpaceOnUse"><stop stop-color="#FFC58F"/><stop offset="1" stop-color="#FF7C7C"/></linearGradient><linearGradient id="paint4_linear" x1="69.409" y1="83.45" x2="101.751" y2="117.792" gradientUnits="userSpaceOnUse"><stop stop-color="#FF6361"/><stop offset="1" stop-color="#D15453"/></linearGradient></defs></svg>