<svg width="217" height="173" fill="none" xmlns="http://www.w3.org/2000/svg"><path d="M181.647 33.833h-.006l-7.156 5.8v-5.8h-8.894a12.36 12.36 0 00-11.881 8.96l-13.236 46.282 7.758 3.002 12.661-32.14 2.232 12.608h32.62l3.528-33.21a12.657 12.657 0 01-2.949 1.421c-10.465 3.557-14.641-6.836-14.677-6.923z" fill="#FF6361"/><path d="M181.646 18.712a2.49 2.49 0 00-.468-.085c-.07-.006-.137-.021-.208-.021-.491 0-.945.146-1.33.392-1.729-1.243-2.266-3.443-2.266-3.443-3.513 4.244-8.878 4.236-8.878 4.236v5.895c0 1.6 1.489 2.782 3.046 2.422l2.945-.77v12.295l7.156-5.8.004-.004V23.47a2.477 2.477 0 001.808-2.38 2.479 2.479 0 00-1.809-2.379z" fill="#F5C5B6"/><path d="M160.169 164.524l-8.713 4.079a1.396 1.396 0 00.592 2.66h17.531v-6.739h-9.41zM205.28 162.105l-6.835 6.77a1.398 1.398 0 001.453 2.308l16.511-5.893-2.265-6.347-8.864 3.162z" fill="#203254"/><path d="M198.486 118.534l.025-4.87c-4.26 1.946-8.623 3.216-12.852 4.008a36.724 36.724 0 002.809 8.64l16.81 35.791 8.863-3.163-15.655-40.406zM161.662 118.046l-1.494 46.48h9.41l4.857-45.713c-5.1.11-9.552-.31-12.773-.767z" fill="#F5C5B6"/><path d="M195.746 72.544h-32.62l-6.853 44.5s2.023.522 5.391 1.001a79.44 79.44 0 0012.775.765c3.5-.075 7.304-.403 11.224-1.138 4.229-.793 8.592-2.064 12.852-4.008a47.37 47.37 0 008.707-5.139c-.003 0-3.129-25.36-11.476-35.981z" fill="#FF6361"/><path d="M195.745 72.201h-32.62v.686h32.62V72.2z" fill="#203254"/><path d="M199.858 33.833l7.049 22.716a8.654 8.654 0 01-5.283 10.69l-18.172 6.674-4.017-7.881 16.859-10.886 3.564-21.313z" fill="#FF6361"/><path d="M140.474 89.073l-3.035 1.975v5.826l8.567 1.884 2.228-6.682-7.76-3.003z" fill="#F5C5B6"/><path d="M158.918 46.805l-.675.12 2.625 14.827.675-.12-2.625-14.827zM198.084 53.59l-18.825 12.17.372.576 18.825-12.17-.372-.576zM175.85 25.688c-1.502.782-3.352.208-4.126-1.28l-.216-.415 5.446-2.834.216.415c.774 1.488.182 3.333-1.32 4.114zm-3.025-1.326c.622.731 1.699.962 2.594.496a2.126 2.126 0 001.082-2.408l-3.676 1.912z" fill="#203254"/><path d="M195.181 26.023c-7.539-.487-8.11-11.851-14.213-14.183a9.027 9.027 0 00-4.025-.959c-4.198 0-10.109 1.8-8.45 8.91 0 0 5.365.008 8.878-4.236 0 0 .537 2.2 2.266 3.443.386-.246.84-.392 1.33-.392.071 0 .139.015.208.021a2.478 2.478 0 012.276 2.464 2.478 2.478 0 01-1.808 2.38v10.358l.001.004c.036.087 4.212 10.48 14.677 6.923a12.657 12.657 0 002.949-1.422c6.605-4.386 2.62-12.88-4.089-13.311zM58.488 165.401l8.712 4.079a1.397 1.397 0 01-.591 2.66H47.02v-6.739h11.467zM20.485 165.402l8.712 4.079a1.395 1.395 0 01-.591 2.66H9.018v-6.739h11.467zM33.65 3.747c1.257-2.285 6.968-4.456 11.08-.914 4.114 3.542 1.433 7.746 1.433 7.746h-6.557c1.731-2.078 0-4.238 0-4.238l-3.78 4.1a2.473 2.473 0 00-2.138-1.238c-.236 0-.46.043-.677.105a2.452 2.452 0 00-.924.494 5.096 5.096 0 01-.883-3.46c.297-2.89 2.446-2.595 2.446-2.595z" fill="#203254"/><path d="M92.697 20.725l-14.85 16.369-10.737-9.138a14.024 14.024 0 00-9.091-3.341H42.464c0 2.226-2.813 4.026-6.282 4.026-3.47 0-6.282-1.8-6.282-4.026h-9.605a14.024 14.024 0 00-13.386 9.831L.704 54.27c-1.283 4.1 1.78 8.269 6.077 8.269h7.013l.793 7.903h35.371l8.578-29.731 14.992 9.74a9.62 9.62 0 0012.92-2.272l15.39-20.4-9.141-7.053z" fill="#FF6361"/><path d="M39.608 10.579c1.73-2.078 0-4.238 0-4.238l-3.78 4.1a2.473 2.473 0 00-2.138-1.238c-.236 0-.46.043-.678.105a2.45 2.45 0 00-.923.494 2.469 2.469 0 00-.883 1.885c0 1.137.767 2.083 1.808 2.38v10.55H29.9c0 2.225 2.813 4.026 6.282 4.026 3.47 0 6.282-1.8 6.282-4.027h-2.29v-6.49l2.945.77a2.486 2.486 0 003.046-2.422V10.58h-6.557v-.001z" fill="#F5C5B6"/><path d="M49.957 70.443l8.531 94.958H47.022l-12.355-84.9h-6.943l-7.24 84.9H9.016l3.464-83.073a45.353 45.353 0 012.103-11.885h35.373z" fill="#6893C0"/><path d="M12.318 47.205l-.113.676 26.812 4.477.113-.676-26.813-4.477zM39.098 62.197H13.707v.685h25.391v-.685z" fill="#203254"/><path d="M19.426 39.41l-2.521 8.86.66.187 2.52-8.86-.66-.187zM60.492 33.209l-2.336 7.357.653.208 2.337-7.358-.654-.207zM40.124 16.813a2.955 2.955 0 01-2.208-3.544l.104-.441 5.763 1.354-.104.441a2.955 2.955 0 01-3.555 2.19zm-1.375-2.88a2.052 2.052 0 003.89.913l-3.89-.914zM47.022 47.19l-4.428-2.51v-6.71h8.855v6.71l-4.427 2.51zm-3.743-2.909l3.742 2.121 3.743-2.121v-5.626h-7.485v5.626z" fill="#203254"/><path fill-rule="evenodd" clip-rule="evenodd" d="M46.549 19.987L65.575 8.662l83.145 48.16.032-.018v.038l.018.01v-.02l65.372 37.685-.064.037-.01 21.515-83.935 48.426.019-21.507-84.685-48.897.457-.255V19.63l.625.356zm83.465 47.63v53.714l.119.068V67.571l.655-.378-.774.424zm18.738-10.262l.014 20.036.074.042-.068-20.089-.02.011zM83.5 72.822l-.009-10.309 9.065 5.244L83.5 72.82zm.009 21.695l27.686-15.979.006.004-27.692 15.975zm18.665 10.761l9.103-5.252v10.501l-9.103-5.249zm56.409-.308l-9.802-5.346.008 11.02 9.794-5.674zm-25.436 14.736l-2.975 1.716.007.004 2.968-1.72zm-87.68-4.103v-21.48l84.547 48.901v21.48l-84.548-48.901z" fill="url(#paint0_linear)"/><path d="M45.575 115.603v-21.48l84.547 48.901v21.48l-84.547-48.901z" fill="url(#paint1_linear)"/><path d="M158.915 105.092l-10.055-5.484-2.285-1.828-.457-21.937 33.362 18.738-20.565 10.511z" fill="url(#paint2_linear)"/><path d="M83.608 72.992L64.597 84.413V51.377l19.002 10.801.01 10.814z" fill="url(#paint3_linear)"/><path d="M148.897 110.686l-18.656 10.758V67.571l18.619-10.767.037 53.882z" fill="url(#paint4_linear)"/><path d="M111.587 99.91l.027-21.544-27.997 16.15 18.656 10.768 9.314-5.375z" fill="url(#paint5_linear)"/><path d="M214.186 94.508l-.009 21.561-83.936 48.426.019-21.507 83.926-48.48z" fill="url(#paint6_linear)"/><path d="M111.586 78.375L83.617 94.517l46.67 26.909 46.543-26.964-27.878-16.133-.073-21.498 65.371 37.686-83.99 48.47-84.685-48.896L92.93 67.608l18.655 10.767z" fill="url(#paint7_linear)"/><path d="M46.032 94.028L64.77 83.516v-31.79l46.615 26.963v31.991l18.738 11.213V67.721l-84.09-47.987v74.294z" fill="url(#paint8_linear)"/><path d="M65.317 8.443L46.123 19.868l83.633 47.53 19.195-10.512L65.317 8.443z" fill="url(#paint9_linear)"/><path d="M179.437 66.032l-5.587-1.371-3.769 4.905 4.99 8.46 8.384-4.113-4.018-7.881zM39.1 52.005l7.065-2.574 4.187 4.634v8.474H39.1V52.005zM101.368 23.846l1.208 7.125-7.509 3.648-8.89-6.07 4.638-9.383 10.553 4.68z" fill="#F5C5B6"/><defs><linearGradient id="paint0_linear" x1="70.944" y1=".113" x2="128.021" y2="74.522" gradientUnits="userSpaceOnUse"><stop stop-color="#FFD3AA"/><stop offset="1" stop-color="#FF9696"/></linearGradient><linearGradient id="paint1_linear" x1="-88.329" y1="-15.453" x2="152.857" y2="99.419" gradientUnits="userSpaceOnUse"><stop stop-color="#FFBE81"/><stop offset="1" stop-color="#FF5F5F"/></linearGradient><linearGradient id="paint2_linear" x1="141.43" y1="84.93" x2="164.582" y2="56.17" gradientUnits="userSpaceOnUse"><stop stop-color="#FFBE81"/><stop offset=".946" stop-color="#FF5F5F"/></linearGradient><linearGradient id="paint3_linear" x1="61.925" y1="61.64" x2="86.015" y2="46.542" gradientUnits="userSpaceOnUse"><stop stop-color="#FFBE81"/><stop offset=".946" stop-color="#FF5F5F"/></linearGradient><linearGradient id="paint4_linear" x1="100.696" y1="-43.836" x2="165.141" y2="-36.462" gradientUnits="userSpaceOnUse"><stop stop-color="#FFBE81"/><stop offset="1" stop-color="#FF5F5F"/></linearGradient><linearGradient id="paint5_linear" x1="79.683" y1="86.728" x2="101.325" y2="62.215" gradientUnits="userSpaceOnUse"><stop stop-color="#FFBE81"/><stop offset=".946" stop-color="#FF5F5F"/></linearGradient><linearGradient id="paint6_linear" x1="-2.707" y1="-14.457" x2="236.896" y2="99.483" gradientUnits="userSpaceOnUse"><stop stop-color="#FFBE81"/><stop offset="1" stop-color="#FF5F5F"/></linearGradient><linearGradient id="paint7_linear" x1="21.87" y1="83.597" x2="75.544" y2="-30.844" gradientUnits="userSpaceOnUse"><stop stop-color="#FFBE81"/><stop offset=".946" stop-color="#FF5F5F"/></linearGradient><linearGradient id="paint8_linear" x1="-87.148" y1="-139.319" x2="178.823" y2="-52.52" gradientUnits="userSpaceOnUse"><stop stop-color="#FFBE81"/><stop offset="1" stop-color="#FF5F5F"/></linearGradient><linearGradient id="paint9_linear" x1="70.687" y1="-.107" x2="127.763" y2="74.302" gradientUnits="userSpaceOnUse"><stop stop-color="#FFD3AA"/><stop offset="1" stop-color="#FF9696"/></linearGradient></defs></svg>