<svg width="206" height="167" viewBox="0 0 206 167" fill="none" xmlns="http://www.w3.org/2000/svg"><circle cx="125.704" cy="80.796" r="80.296" fill="#FEF3F1"/><path fill-rule="evenodd" clip-rule="evenodd" d="M140.272 88.35l.016-.01.003-.001a.022.022 0 00.005-.003l-.024.014z" fill="#2B2C2A"/><path clip-rule="evenodd" d="M140.272 88.35l.016-.01.003-.001a.022.022 0 00.005-.003l-.024.014z" stroke="#F8F2E6" stroke-width=".8" stroke-linecap="round" stroke-linejoin="round"/><path fill-rule="evenodd" clip-rule="evenodd" d="M140.3 88.332l.002-.001.026-.016h.002a.667.667 0 00-.03.017z" fill="#2B2C2A"/><path clip-rule="evenodd" d="M140.3 88.332l.002-.001.026-.016h.002a.667.667 0 00-.03.017z" stroke="#F8F2E6" stroke-width=".8" stroke-linecap="round" stroke-linejoin="round"/><path clip-rule="evenodd" d="M154.537 80.289l-14.204 8.026h-.002l-.029.017-.012.007-.002.001-.034.019-.002.001a.013.013 0 01-.003.002c-.006.003-.005.003 0 0l.003-.002h.001l-14.112 7.973c-17.479-9.882-11.643-6.583-28.393-16.045l28.396-16.044c17.542 9.917 10.853 6.137 28.393 16.045zM83.55 56.223c-.002 38.428.006 12.789.001 48.131 32.845 18.554 9.88 5.588 42.591 24.066l42.593-24.066c.002-38.428-.006-12.789-.002-48.131-33.112-18.704-10.09-5.708-42.591-24.066-29.125 16.456-18.32 10.35-42.592 24.066z" stroke="#F8F2E6" stroke-width=".8" stroke-linecap="round" stroke-linejoin="round"/><path fill-rule="evenodd" clip-rule="evenodd" d="M126.143 128.42l42.591-24.065.002-16.045-42.591 24.065-28.399-16.042.002-16.045 28.396-16.044c17.452 9.866 10.912 6.17 28.393 16.045l.002-16.045-28.399-16.042-42.59 24.065c.004 19.72.004 12.445.002 32.087 32.844 18.553 9.88 5.588 42.591 24.066z" fill="url(#paint0_linear)"/><path clip-rule="evenodd" d="M126.143 128.42l42.591-24.065.002-16.045-42.591 24.065-28.399-16.042.002-16.045 28.396-16.044c17.452 9.866 10.912 6.17 28.393 16.045l.002-16.045-28.399-16.042-42.59 24.065c.004 19.72.004 12.445.002 32.087 32.844 18.553 9.88 5.588 42.591 24.066z" stroke="#FF8A8A" stroke-linejoin="round"/><path fill-rule="evenodd" clip-rule="evenodd" d="M126.14 48.202l28.399 16.042-.002 16.045-28.396 16.044c-17.447-9.864-11.011-6.226-28.393-16.045l-.002 16.045 28.399 16.042 42.591-24.065c-.005-19.72-.004-12.445-.002-32.087-33.113-18.705-10.091-5.707-42.592-24.066l-42.59 24.065-.003 16.045 42.591-24.065z" fill="url(#paint1_linear)" fill-opacity=".7"/><path clip-rule="evenodd" d="M126.14 48.202l28.399 16.042-.002 16.045-28.396 16.044c-17.447-9.864-11.011-6.226-28.393-16.045l-.002 16.045 28.399 16.042 42.591-24.065c-.005-19.72-.004-12.445-.002-32.087-33.113-18.705-10.091-5.707-42.592-24.066l-42.59 24.065-.003 16.045 42.591-24.065z" stroke="#FF8A8A" stroke-linejoin="round"/><path d="M97.173 108.961l24.664 43.499h-13.134l-13.995-20.343 1.032 19.153H50.614l-10.647-28.88-21.341 39.624H5.35l23.864-51.161c2.212-4.743 7.019-7.782 12.307-7.782h44.422c4.502 0 8.709 2.207 11.229 5.89z" fill="#242424"/><path fill-rule="evenodd" clip-rule="evenodd" d="M186.293 153.863l5.804-11.989a2.005 2.005 0 011.804-1.107c1.1 0 1.988.861 1.988 1.922v24.123h-9.596v-12.949z" fill="#242424"/><path fill-rule="evenodd" clip-rule="evenodd" d="M50.587 151.048v2.765c0 6.335 2.366 12.999 10.927 12.999h124.779v-12.868l-90.814-2.896H50.587z" fill="#6893C0"/><path fill-rule="evenodd" clip-rule="evenodd" d="M50.587 151.048v2.765c0 6.335 2.365 12.999 10.926 12.999h87.173v-15.831l-53.207-2.891-44.892 2.958z" fill="#242424"/><path fill-rule="evenodd" clip-rule="evenodd" d="M39.381 122.262l-2.502-7.187.926-.353 2.501 7.187-.925.353zm54.588 9.595l-.888-14.34 1.168-.053.888 14.34-1.168.053z" fill="#656565"/><path fill-rule="evenodd" clip-rule="evenodd" d="M5.694 162.014L0 164.109v2.703h16.514l2.545-4.798H5.694z" fill="#F5C5B6"/><path d="M72.69 131.569l-15.694-29.324h20.651l-4.956 29.324z" fill="#fff"/><path fill-rule="evenodd" clip-rule="evenodd" d="M62.721 85.437c.113-.05.235-.08.354-.114.258-.073.524-.125.805-.125.582 0 1.12.175 1.578.467 2.054-1.484 2.69-4.11 2.69-4.11 6.665 0 10.54 5.057 10.54 5.057v7.039c0 1.909-1.766 3.324-3.616 2.892l-3.495-.92v7.755l-4.248 4.32-4.247-4.32-.007-.005V91.004c-.005 0-.01-.003-.016-.004a2.955 2.955 0 01-2.128-2.836c0-1.224.738-2.275 1.79-2.727z" fill="#F5C5B6"/><path fill-rule="evenodd" clip-rule="evenodd" d="M45.177 99.828c6.704-2.468 9.913-12.41 14.685-18.966a9.34 9.34 0 012.4-2.724l.015-.015v.002c1.823-1.4 4.216-2.313 6.487-2.313 4.984 0 11.894 2.31 9.924 10.8 0 0-3.875-5.058-10.54-5.058 0 0-.637 2.627-2.69 4.111a2.918 2.918 0 00-1.579-.467c-.28 0-.546.052-.804.125-.12.035-.241.065-.354.114a2.966 2.966 0 00-1.79 2.727c0 1.35.901 2.476 2.128 2.836l.016.004v12.374c.015.102 2.314 17.504-12.69 16.826-6.028-.273-9.539-3.893-10.949-7.263-2.108-5.042-1.226-10.549 5.741-13.113z" fill="#EC6A6A"/><path fill-rule="evenodd" clip-rule="evenodd" d="M69.85 91.897a4.34 4.34 0 01-2.56-2.141l.953-.5a3.282 3.282 0 004.435 1.386l.496.955a4.335 4.335 0 01-3.324.3z" fill="#242424"/><defs><linearGradient id="paint0_linear" x1="165.041" y1="49.066" x2="-29.013" y2="207.289" gradientUnits="userSpaceOnUse"><stop stop-color="#FFE6CF"/><stop offset="1" stop-color="#F88"/></linearGradient><linearGradient id="paint1_linear" x1="215.323" y1="-3.941" x2="86.189" y2="99.938" gradientUnits="userSpaceOnUse"><stop stop-color="#FFB36D"/><stop offset="1" stop-color="#F88"/></linearGradient></defs></svg>