<svg width="238" height="112" fill="none" xmlns="http://www.w3.org/2000/svg"><path fill-rule="evenodd" clip-rule="evenodd" d="M74.894 28.306V96.69a6.66 6.66 0 01-6.662 6.658H6.662A6.659 6.659 0 010 96.689V6.658A6.659 6.659 0 016.661 0h39.91l28.323 28.306z" fill="url(#paint0_linear)"/><path fill-rule="evenodd" clip-rule="evenodd" d="M74.894 28.306H53.233a6.659 6.659 0 01-6.661-6.657V0l28.322 28.306z" fill="url(#paint1_linear)"/><path fill-rule="evenodd" clip-rule="evenodd" d="M196.696 44.146a19.967 19.967 0 00-4.995-.634h-58.663a19.993 19.993 0 00-15.779 7.717l-12.65 16.256-28.213-7.568-5.269 15.133 33.138 11.606a14.617 14.617 0 0015.783-4.114L132.819 68.1l6.148 20.417s13.376 8.498 31.848 8.498 27.867-2.811 27.867-2.811l-2.297-30.353 20.183 2.857-4.816 30.307 11.719 2.348 12.762-31.615c2.594-6.426-1.057-13.669-7.764-15.4l-31.773-8.202z" fill="#000"/><path fill-rule="evenodd" clip-rule="evenodd" d="M211.752 97.015l-5.581 4.023 2.791 10.33h13.392l1.116-12.005-11.718-2.348z" fill="#F5C5B6"/><path fill-rule="evenodd" clip-rule="evenodd" d="M132.299 68.303L126.973 54.6l1.04-.406 5.326 13.704-1.04.406zm64.036-3.896l-10.024-.895.099-1.113 10.024.896-.099 1.112z" fill="#2C2C4E"/><path fill-rule="evenodd" clip-rule="evenodd" d="M76.396 59.918L72.8 54.193H62.384l-2.469 3.738 5.733 7.702 5.479 9.417 5.269-15.132z" fill="#F4C2B2"/><path d="M158.5 81l-13-37.5h24l-11 37.5z" fill="#fff"/><path fill-rule="evenodd" clip-rule="evenodd" d="M163.882 21.663a4.012 4.012 0 00-1.103-.171 4.02 4.02 0 00-2.165.639c-2.817-2.026-3.691-5.611-3.691-5.611l-14.457 6.903v9.605c0 2.606 2.423 4.534 4.961 3.948l4.793-1.256v10.569l11.662.006V29.417c1.695-.483 2.943-2.026 2.943-3.877 0-1.85-1.248-3.393-2.943-3.877z" fill="#F5C5B6"/><path fill-rule="evenodd" clip-rule="evenodd" d="M200.246 16.33c-.721-3.49-4.395-6.247-7.88-5.51-1.324.28-2.513.989-3.782 1.461-3.662 1.364-8.039.578-10.999-1.974-1.328-1.145-2.394-2.617-3.912-3.493a6.25 6.25 0 00-5.453-.347c-2.101.88-3.355 2.681-4.236 4.683a14.62 14.62 0 00-7.758-2.245c-6.836 0-16.462 2.932-13.759 14.518l14.457-6.903s.874 3.585 3.691 5.61a4.015 4.015 0 012.165-.638c.385 0 .749.071 1.102.171 1.695.484 2.943 2.027 2.943 3.877a4.035 4.035 0 01-2.943 3.877v5.592s6.156-4.187 6.156-12.703c0-4.059-1.595-7.282-3.995-9.555.043-.003.087-.01.13-.012 2.283-.103 4.462 1.052 6.18 2.56 1.719 1.508 3.084 3.37 4.627 5.057 2.403 2.63 5.321 4.885 8.708 5.99 3.386 1.105 7.28.951 10.311-.92 3.031-1.873 4.969-5.605 4.247-9.095z" fill="#EC6A6A"/><path fill-rule="evenodd" clip-rule="evenodd" d="M156.487 27.662a2.967 2.967 0 01-.176 1.484 2.987 2.987 0 01-5.07.844l5.246-2.328zm-.155 4.085a4.591 4.591 0 001.51-2.013 4.58 4.58 0 00-.081-3.535l-.333-.749-8.459 3.753.333.75a4.62 4.62 0 007.03 1.794z" fill="#000"/><defs><linearGradient id="paint0_linear" x1="10" y1="0" x2="179" y2="141" gradientUnits="userSpaceOnUse"><stop stop-color="#FFCDBA"/><stop offset="1" stop-color="#FFCDBA" stop-opacity="0"/></linearGradient><linearGradient id="paint1_linear" x1="44.382" y1="25.886" x2="72.148" y2="3.938" gradientUnits="userSpaceOnUse"><stop stop-color="#FFB36D"/><stop offset="1" stop-color="#F88"/></linearGradient></defs></svg>