<svg width="191" height="163" viewBox="0 0 191 163" fill="none" xmlns="http://www.w3.org/2000/svg"><path fill-rule="evenodd" clip-rule="evenodd" d="M190.5 81.2c0 44.848-36.134 81.196-80.708 81.196S29.083 126.048 29.083 81.2c0-44.846 36.135-81.2 80.709-81.2C154.366 0 190.5 36.354 190.5 81.2z" fill="#DDE4E9" fill-opacity=".272"/><path d="M172.542 141.462l-10.26-45.44c-2.691 6.433-9.288 11.674-20.795 12.195-28.645 1.294-24.36-30.256-24.333-30.451h-.01l-16.219 13.033V77.765H77.14c-5.836 0-11.049 3.668-13.043 9.19l-5.335 14.755h24.89l13.335 52.59h32.85v8.565l16.952-5.391 13.689-.568c10.076-.502 13.527-8.201 12.064-15.444z" fill="#fff"/><path d="M172.542 141.462l-10.26-45.44c-2.691 6.433-9.288 11.674-20.795 12.195-28.645 1.294-24.36-30.256-24.333-30.451h-.01l-16.219 13.033V77.765H77.14c-5.836 0-11.049 3.668-13.043 9.19l-5.335 14.755h24.89l13.335 52.59h32.85v8.565l16.952-5.391 13.689-.568c10.076-.502 13.527-8.201 12.064-15.444z" fill="#242424"/><path fill-rule="evenodd" clip-rule="evenodd" d="M117.831 43.516c-.216-.093-.448-.15-.676-.216a5.562 5.562 0 00-1.536-.24c-1.11 0-2.14.334-3.013.893-3.92-2.834-5.135-7.848-5.135-7.848-12.724 0-20.12 9.656-20.12 9.656v13.435c0 3.645 3.371 6.346 6.902 5.521l6.671-1.756V90.8l16.219-13.034.012-.009v-23.61c.009-.004.02-.007.031-.01a5.64 5.64 0 004.063-5.413 5.662 5.662 0 00-3.418-5.207z" fill="#F5C5B6"/><path fill-rule="evenodd" clip-rule="evenodd" d="M96.987 154.3L83.65 101.71H.5l15.51 61.154h113.826V154.3h-32.85z" fill="url(#paint0_linear)"/><path fill-rule="evenodd" clip-rule="evenodd" d="M118.909 135.318l-9.869 6.246V154.3h20.796l4.942-14.709-15.869-4.273z" fill="#F5C5B6"/><path fill-rule="evenodd" clip-rule="evenodd" d="M135.008 140.773l-.263-1.36 21.796-4.273.263 1.36-21.796 4.273z" fill="#656565"/><path fill-rule="evenodd" clip-rule="evenodd" d="M146.932 137.915l-7.716-36.894 1.344-.289 7.717 36.894-1.345.289z" fill="#656565"/><path fill-rule="evenodd" clip-rule="evenodd" d="M151.323 70.988c-14.807-4.515-18.925-23.69-28.033-36.205a17.838 17.838 0 00-4.581-5.2l-.03-.028v.004c-3.479-2.672-8.049-4.416-12.383-4.416-9.514 0-22.705 4.412-18.945 20.618 0 0 7.397-9.656 20.121-9.656 0 0 1.215 5.014 5.135 7.848a5.572 5.572 0 013.014-.893c.535 0 1.043.1 1.535.24.228.066.46.123.676.216a5.662 5.662 0 013.419 5.207 5.641 5.641 0 01-4.063 5.413c-.011.002-.022.006-.032.009v23.611l-.002.01c-.027.195-4.416 33.414 24.228 32.12 11.507-.522 18.209-7.432 20.9-13.864 4.026-9.627-2.548-22.47-10.959-25.034z" fill="#2C2C4E"/><defs><linearGradient id="paint0_linear" x1="-9.499" y1="157.636" x2="44.838" y2="66.85" gradientUnits="userSpaceOnUse"><stop stop-color="#FFB36D"/><stop offset="1" stop-color="#F88"/></linearGradient></defs></svg>