<svg width="128" height="141" fill="none" xmlns="http://www.w3.org/2000/svg"><path d="M92.916 90.343l-57.096-.006-7.13 12.371 85.643-.006-49.962-86.593-14.276-.006 42.822 74.24z" fill="url(#paint0_linear)"/><path d="M50.094 40.857l28.552 49.48 14.27.006-42.822-74.234L.132 102.714l7.147 12.372 42.816-74.229z" fill="url(#paint1_linear)"/><path d="M28.683 102.708l28.546-49.48-7.141-12.37-42.81 74.228 99.913-.006 7.135-12.372H28.684z" fill="url(#paint2_linear)"/><path d="M123.815 54.504l-2.137-8.938a7.45 7.45 0 00-7.246-5.718h-9.959l-3.375 4.195-1.533-4.195H89.22a7.45 7.45 0 00-7.067 5.09l-3.772 11.3 5.473 4.502 3.41-3.354 2.697 13.874h24.242l2.417-12.433 7.194-4.323z" fill="#FF6361"/><path d="M79.95 136.344l-5.972 2.796a.957.957 0 00.405 1.823h13.425v-4.619H79.95zM110.158 136.344l-5.972 2.796a.958.958 0 00.406 1.823h13.425v-4.619h-7.859zM103.971 25.318c-.882-1.579-3.352-1.65-5.057-1.579-1.705.071-1.47-1.721-1.47-1.721-3.763 1.29-2.071 5.41-2.071 5.41h5.408l1.855 1.96v1.587c.291-.546.795-.908 1.37-.908.12 0 .237.017.35.048l.008.002c.266.072.507.226.707.437 1.927-5.115-1.1-5.236-1.1-5.236z" fill="#203254"/><path d="M104.436 29.53l-.008-.003a1.628 1.628 0 00-1.718.705v-1.3l-1.852-1.605h-5.401v6.945a1.704 1.704 0 002.088 1.66l2.018-.528v4.447l1.533 4.195 3.375-4.193-.024-7.144a1.628 1.628 0 00.696-2.822 1.635 1.635 0 00-.707-.358z" fill="#F5C5B6"/><path d="M89.958 71.261L79.95 136.344h7.86l12.281-57.083h5.619l4.449 57.083h7.859l-1.794-55.41a28.55 28.55 0 00-2.022-9.673H89.958z" fill="#6893C0"/><path d="M78.23 52.1L74.228 56.1l9.464 9.464 4.002-4.002L78.23 52.1z" fill="#203254"/><path d="M125.494 103.356a5.392 5.392 0 01-7.626 0L81.885 67.373l7.626-7.626 35.983 35.983a5.392 5.392 0 010 7.626z" fill="#B6D5E1"/><path d="M92.925 63.174L85.3 70.8l1.938 1.938 7.626-7.626-1.938-1.938z" fill="#fff"/><path d="M78.378 11.145c-12.453-12.453-32.642-12.453-45.095 0-12.453 12.453-12.453 32.642 0 45.095 12.453 12.452 32.642 12.452 45.095 0 12.453-12.452 12.453-32.642 0-45.095zM74.957 52.82c-10.564 10.564-27.69 10.564-38.254 0-10.564-10.564-10.564-27.69 0-38.254 10.564-10.564 27.69-10.564 38.254 0 10.564 10.564 10.564 27.69 0 38.254z" fill="#B6D5E1"/><path fill-rule="evenodd" clip-rule="evenodd" d="M78.975 10.549c12.782 12.782 12.782 33.506 0 46.286-12.781 12.781-33.504 12.781-46.286 0-12.781-12.781-12.781-33.505 0-46.286 12.782-12.781 33.505-12.781 46.286 0zM37.3 52.224c10.235 10.235 26.828 10.235 37.063 0 10.235-10.235 10.235-26.828 0-37.063-10.235-10.235-26.828-10.235-37.063 0-10.235 10.235-10.235 26.828 0 37.063zm-4.015-41.08c12.452-12.452 32.642-12.452 45.094 0 12.453 12.454 12.453 32.644 0 45.096-12.452 12.452-32.642 12.452-45.095 0-12.452-12.453-12.452-32.643 0-45.096zm3.42 41.675c10.563 10.564 27.69 10.564 38.253 0 10.564-10.563 10.564-27.69 0-38.253-10.563-10.564-27.69-10.564-38.253 0-10.564 10.563-10.564 27.69 0 38.254z" fill="#B6D5E1"/><path d="M76.131 62.368V58.28l2.245-2.041 5.473 4.502-3.859 5.211-3.859-3.585zM123.811 54.504l-22.995 13.184-3.758-.273-2.85 2.176 3.304 8 6.123-3.21 18.537-8.699a5.258 5.258 0 002.881-5.984l-1.242-5.194z" fill="#F5C5B6"/><path d="M112.323 48.385l-.451.135 3.251 10.91.451-.134-3.251-10.91zM86.42 51.776l-.459.098 1.987 9.288.46-.098-1.987-9.288z" fill="#203254"/><path d="M98.025 34.03c.825-1.347 1.92-1.988 3.411-1.988" stroke="#203254"/><defs><linearGradient id="paint0_linear" x1="32.268" y1="102.678" x2="73.665" y2="35.177" gradientUnits="userSpaceOnUse"><stop stop-color="#FFBE81"/><stop offset="1" stop-color="#FF5F5F"/></linearGradient><linearGradient id="paint1_linear" x1="-13.323" y1="91.442" x2="58.97" y2=".773" gradientUnits="userSpaceOnUse"><stop stop-color="#FFD3AA"/><stop offset="1" stop-color="#FF9696"/></linearGradient><linearGradient id="paint2_linear" x1="-159.385" y1="232.647" x2="-92.985" y2="-8.881" gradientUnits="userSpaceOnUse"><stop stop-color="#FFBE81"/><stop offset="1" stop-color="#FF5F5F"/></linearGradient></defs></svg>