<svg width="217" height="240" fill="none" xmlns="http://www.w3.org/2000/svg"><path d="M158.622 153.049l-97.154-.01-12.13 21.05 145.726-.01L110.05 26.734l-24.291-.01 72.863 126.325z" fill="url(#paint0_linear)"/><path d="M85.759 68.846l48.582 84.192 24.281.011L85.759 26.734.745 174.1l12.16 21.05L85.76 68.845z" fill="url(#paint1_linear)"/><path d="M49.327 174.089l48.572-84.193-12.15-21.05L12.905 195.15l170.007-.01 12.141-21.051H49.327z" fill="url(#paint2_linear)"/><path d="M211.197 92.067l-3.635-15.207a12.678 12.678 0 00-12.33-9.73h-16.945l-5.744 7.139-2.609-7.14h-17.6a12.676 12.676 0 00-12.024 8.663l-6.419 19.228 9.312 7.659 5.802-5.707 4.589 23.607h41.251l4.112-21.155 12.24-7.357z" fill="#FF6361"/><path d="M136.559 231.323l-10.161 4.757a1.629 1.629 0 00.69 3.103h22.843v-7.86h-13.372zM187.96 231.323l-10.16 4.757a1.629 1.629 0 00.689 3.103h22.844v-7.86H187.96zM177.433 42.405c-1.5-2.686-5.703-2.807-8.604-2.686-2.901.121-2.501-2.93-2.501-2.93-6.402 2.198-3.525 9.205-3.525 9.205h9.203l3.156 3.337v2.7c.496-.93 1.354-1.545 2.331-1.545.206 0 .404.028.597.08l.012.005c.453.123.864.385 1.203.744 3.28-8.704-1.872-8.91-1.872-8.91z" fill="#203254"/><path d="M178.224 49.57l-.012-.003a2.772 2.772 0 00-2.924 1.2v-2.212l-3.151-2.731h-9.19V57.64a2.9 2.9 0 003.552 2.825l3.434-.899v7.566l2.609 7.14 5.744-7.136-.042-12.156a2.774 2.774 0 002.15-2.703c0-.84-.376-1.59-.965-2.099a2.783 2.783 0 00-1.205-.609z" fill="#F5C5B6"/><path d="M153.589 120.581l-17.031 110.743h13.372l20.899-97.131h9.561l7.57 97.131h13.372l-3.052-94.286a48.567 48.567 0 00-3.44-16.457h-41.251z" fill="#6893C0"/><path d="M133.632 87.977l-6.809 6.809 16.104 16.103 6.808-6.809-16.103-16.103z" fill="#203254"/><path d="M214.055 175.193a9.177 9.177 0 01-12.977 0l-61.228-61.228 12.977-12.976 61.228 61.227a9.177 9.177 0 010 12.977z" fill="#B6D5E1"/><path d="M158.637 106.818l-12.976 12.976 3.297 3.298 12.977-12.976-3.298-3.298z" fill="#fff"/><path d="M133.883 18.288c-21.189-21.19-55.543-21.19-76.732 0-21.19 21.189-21.19 55.543 0 76.732 21.189 21.189 55.543 21.189 76.732 0 21.189-21.187 21.189-55.542 0-76.732zM128.062 89.2c-17.975 17.974-47.117 17.974-65.092 0-17.975-17.975-17.975-47.117 0-65.092s47.117-17.975 65.092 0 17.975 47.117 0 65.092z" fill="#B6D5E1"/><path fill-rule="evenodd" clip-rule="evenodd" d="M134.898 17.274c21.749 21.75 21.749 57.013 0 78.76-21.748 21.748-57.01 21.748-78.759 0-21.748-21.75-21.748-57.011 0-78.76 21.749-21.748 57.011-21.748 78.759 0zM63.985 88.187c17.415 17.415 45.65 17.415 63.065 0s17.415-45.65 0-63.065-45.65-17.415-63.065 0-17.415 45.65 0 63.065zm-6.833-69.9c21.19-21.188 55.544-21.188 76.733 0 21.189 21.191 21.189 55.546 0 76.733-21.189 21.189-55.544 21.189-76.733 0-21.188-21.189-21.188-55.543 0-76.732zm5.82 70.913c17.975 17.975 47.117 17.975 65.092 0 17.974-17.974 17.974-47.116 0-65.091-17.975-17.975-47.117-17.975-65.092 0s-17.975 47.117 0 65.091z" fill="#B6D5E1"/><path d="M130.061 105.449v-6.954l3.821-3.473 9.312 7.659-6.566 8.868-6.567-6.1zM211.192 92.067l-39.128 22.435-6.393-.465-4.851 3.702 5.623 13.612 10.418-5.461 31.542-14.802a8.948 8.948 0 004.903-10.182l-2.114-8.84z" fill="#F5C5B6"/><path d="M191.644 81.655l-.766.229 5.532 18.564.766-.228-5.532-18.565zM147.572 87.421l-.782.168 3.381 15.804.782-.167-3.381-15.805z" fill="#203254"/><path d="M167.315 57.229c1.405-2.292 3.268-3.383 5.805-3.383" stroke="#203254"/><defs><linearGradient id="paint0_linear" x1="55.424" y1="174.037" x2="125.864" y2="59.18" gradientUnits="userSpaceOnUse"><stop stop-color="#FFBE81"/><stop offset="1" stop-color="#FF5F5F"/></linearGradient><linearGradient id="paint1_linear" x1="-22.151" y1="154.918" x2="100.862" y2=".638" gradientUnits="userSpaceOnUse"><stop stop-color="#FFD3AA"/><stop offset="1" stop-color="#FF9696"/></linearGradient><linearGradient id="paint2_linear" x1="-270.685" y1="395.188" x2="-157.7" y2="-15.788" gradientUnits="userSpaceOnUse"><stop stop-color="#FFBE81"/><stop offset="1" stop-color="#FF5F5F"/></linearGradient></defs></svg>