<svg width="246" height="348" viewBox="0 0 246 348" fill="none" xmlns="http://www.w3.org/2000/svg"><path d="M59.888 333.5v-19.6h-1.96v16.212c-.28-.504-.532-.924-.812-1.372l-9.1-14.84h-1.988v19.6h1.96v-15.988c.252.448.532.896.784 1.316L57.9 333.5h1.988zm10.614.336c3.668 0 6.132-2.8 6.132-7.504 0-4.76-2.464-7.476-6.132-7.476-3.668 0-6.132 2.8-6.132 7.504 0 4.76 2.464 7.476 6.132 7.476zm0-1.764c-2.66 0-4.088-2.156-4.088-5.712 0-3.724 1.428-5.74 4.088-5.74s4.088 2.156 4.088 5.712c0 3.584-1.484 5.74-4.088 5.74zm20.225 1.764c1.092 0 1.876-.252 2.604-.644l.224-2.044c-.532.364-1.204.84-2.156.84-1.372 0-1.54-1.036-1.54-2.268v-8.764h3.64v-1.764h-3.64v-5.908l-1.96.98v4.928h-2.436v1.764h2.436v9.604c0 1.876.784 3.276 2.828 3.276zm14.711-.336h1.82v-9.688c0-4.06-2.716-4.956-4.76-4.956-1.96 0-3.865.84-5.013 1.568l.56 1.68c1.064-.728 2.829-1.54 4.257-1.54 1.596 0 3.136.616 3.136 3.5v1.204c-1.4-.756-2.66-1.008-3.864-1.008-2.716 0-5.209 1.428-5.209 4.732 0 3.22 1.989 4.844 4.873 4.844 1.54 0 3.052-.7 4.2-1.736v1.4zm-4.004-1.372c-2.072 0-3.248-1.26-3.248-3.136 0-2.072 1.651-3.024 3.584-3.024 1.232 0 2.744.56 3.668 1.176v2.772c-.868 1.064-2.268 2.212-4.004 2.212zm14.323 1.708c2.968 0 4.816-1.54 4.816-3.92 0-2.884-2.436-3.864-4.564-4.704-1.68-.672-3.276-1.288-3.276-2.744 0-1.148 1.064-1.876 2.716-1.876 1.568 0 2.688.812 3.416 1.54l1.288-1.092c-1.148-1.372-2.716-2.184-4.648-2.184-2.688 0-4.62 1.456-4.62 3.64 0 2.408 2.016 3.416 4.284 4.34 1.736.7 3.556 1.456 3.556 3.192 0 1.344-1.232 2.072-2.8 2.072-1.484 0-2.856-.924-3.724-1.96l-1.372 1.204c1.204 1.428 2.996 2.492 4.928 2.492zm20.017-.336l-5.376-10.5 3.584-3.808h-2.268l-5.068 5.46v-11.368l-1.96.952V333.5h1.96v-6.524l2.38-2.548 4.592 9.072h2.156zm7.245.336c2.968 0 4.816-1.54 4.816-3.92 0-2.884-2.436-3.864-4.564-4.704-1.68-.672-3.276-1.288-3.276-2.744 0-1.148 1.064-1.876 2.716-1.876 1.568 0 2.688.812 3.416 1.54l1.288-1.092c-1.148-1.372-2.716-2.184-4.648-2.184-2.688 0-4.62 1.456-4.62 3.64 0 2.408 2.016 3.416 4.284 4.34 1.736.7 3.556 1.456 3.556 3.192 0 1.344-1.232 2.072-2.8 2.072-1.484 0-2.856-.924-3.724-1.96l-1.372 1.204c1.204 1.428 2.996 2.492 4.928 2.492zm17.09 5.096h1.932l7.308-19.74h-2.1l-3.668 10.164-.504 1.456c-.168-.504-.308-.98-.476-1.456l-3.612-10.164h-1.988l5.236 13.86-2.128 5.88zm18.129-5.096c1.652 0 3.248-.7 4.368-1.624l-1.064-1.316c-1.092.812-2.184 1.12-3.22 1.12-2.436 0-3.892-1.96-4.228-4.872h9.744c.056-.616.056-1.064.056-1.372 0-4.816-2.604-6.916-5.656-6.916-3.668 0-6.216 2.716-6.216 7.476 0 4.032 2.352 7.504 6.216 7.504zm-4.2-8.456c.168-3.248 1.904-4.76 4.2-4.76 1.512 0 3.64.896 3.668 4.76h-7.868zm17.095 8.456c1.092 0 1.876-.252 2.604-.644l.224-2.044c-.532.364-1.204.84-2.156.84-1.372 0-1.54-1.036-1.54-2.268v-8.764h3.64v-1.764h-3.64v-5.908l-1.96.98v4.928h-2.436v1.764h2.436v9.604c0 1.876.784 3.276 2.828 3.276zm7.9-5.74h.308l.868-8.456v-6.076h-2.016v6.076l.84 8.456zm.112 5.796c1.008 0 1.764-.868 1.764-1.764s-.756-1.764-1.764-1.764-1.764.868-1.764 1.764.756 1.764 1.764 1.764z" fill="#212B36"/><g clip-path="url(#clip0)"><path d="M179.938 274.187H66.061c0-8.984 7.284-16.268 16.269-16.268h81.34c8.984 0 16.268 7.284 16.268 16.268z" fill="url(#paint0_linear)"/><path d="M163.67 257.919h-32.536c8.984 0 16.268 7.284 16.268 16.268h32.536c0-8.984-7.284-16.268-16.268-16.268z" fill="url(#paint1_linear)"/><path d="M147.402 257.919H98.598l16.268-16.268h16.268l16.268 16.268z" fill="url(#paint2_linear)"/><path d="M196.206 116.246c-.805 0-1.59-.236-2.257-.684a44.19 44.19 0 00-24.585-7.45H76.656a44.2 44.2 0 00-24.606 7.45 4.097 4.097 0 01-4.067.257l-16.268-8.135 3.636-7.28 14.235 7.109a52.314 52.314 0 0127.07-7.536h92.708a52.335 52.335 0 0127.099 7.536l14.214-7.109 3.636 7.28-16.268 8.135c-.57.284-1.2.43-1.839.427z" fill="#FFD9C6"/><path d="M130.753 87.696h-16.349V241.65h16.349V87.696z" fill="#FFD9C6"/><path d="M131.134 87.776h-16.268l-4.189-16.752c-1.704-6.804 2.432-13.702 9.24-15.406A12.712 12.712 0 01123 55.24c7.015 0 12.701 5.686 12.701 12.701 0 1.041-.126 2.075-.378 3.083l-4.189 16.752z" fill="url(#paint3_linear)"/><path d="M123 55.24c-1.297.02-2.582.24-3.815.651 6.394 2.002 10.123 8.635 8.509 15.134l-4.185 16.752h7.625l4.189-16.752c1.704-6.804-2.432-13.702-9.24-15.406A12.847 12.847 0 00123 55.24z" fill="#FA982F"/><path d="M89.138 199.652l-39.345-85.846-39.344 85.846a4.069 4.069 0 01-7.394-3.391l43.041-93.912a4.068 4.068 0 017.394 0l43.042 93.912a4.068 4.068 0 01-7.394 3.391z" fill="url(#paint4_linear)"/><path d="M235.551 199.652l-39.344-85.846-39.345 85.846a4.068 4.068 0 01-7.394-3.391l43.041-93.912a4.068 4.068 0 017.394 0l43.042 93.912a4.068 4.068 0 01-7.394 3.391z" fill="url(#paint5_linear)"/><path d="M151.47 201.654h89.474c0 13.478-10.924 24.402-24.402 24.402h-40.671c-13.473-.001-24.401-10.925-24.401-24.402z" fill="url(#paint6_linear)"/><path d="M216.541 201.654c0 13.478-10.924 24.402-24.402 24.402h24.402c13.479 0 24.403-10.924 24.403-24.402h-24.403z" fill="url(#paint7_linear)"/><path d="M5.057 201.654H94.53c0 13.478-10.924 24.402-24.402 24.402h-40.67c-13.474-.001-24.402-10.925-24.402-24.402z" fill="url(#paint8_linear)"/><path d="M70.128 201.654c0 13.478-10.924 24.402-24.402 24.402h24.402c13.479 0 24.403-10.924 24.403-24.402H70.128z" fill="url(#paint9_linear)"/></g><path fill-rule="evenodd" clip-rule="evenodd" d="M173.436 181.509l3.688 8.868 25.728-10.74a1.994 1.994 0 001.07-2.605 1.989 1.989 0 00-1.749-1.222l-13.675-.588-9.484 3.957-5.578 2.33zm-49.196 10.899h27.872a1.984 1.984 0 001.986-1.986c0-.779-.446-1.481-1.144-1.81l-12.398-5.813H124.24v9.609z" fill="#242424"/><path fill-rule="evenodd" clip-rule="evenodd" d="M169.179 98.338a12.9 12.9 0 00-12.505-9.768h-51.592l-4.539 9.736c-1.576 3.379.886 7.255 4.609 7.255h19.089v77.238h16.316l3.807-77.238h7.737l21.335 75.947 5.578-2.329 9.483-3.957-19.318-76.884z" fill="#6893C0"/><path d="M156.674 88.57a12.9 12.9 0 0112.505 9.768l17.093 53.319h-67.234l1.431-46.096h-15.317c-3.723 0-6.185-3.876-4.609-7.256l4.539-9.735h51.592z" fill="#242424"/><path fill-rule="evenodd" clip-rule="evenodd" d="M46.283 101.512v4.05h14.909l2.275-4.05-9.752-4.446-7.432 4.446zm162.563 0v4.05h-14.909l-2.276-4.05 9.753-4.446 7.432 4.446z" fill="#F5C5B6"/><path d="M101.646 32.426h33.014V88.57h-29.578l-8.653-33.212-32.96 46.154-9.753-4.446 31.198-54.894a19.247 19.247 0 0116.732-9.746z" fill="#242424"/><path d="M153.483 32.426h-33.014V88.57h29.578l8.653-33.212 32.96 46.154 9.753-4.446-31.199-54.894a19.245 19.245 0 00-16.731-9.746z" fill="#242424"/><path d="M126.444 62.965l-12.651-30.994h23.842l-11.191 30.994z" fill="#fff"/><path fill-rule="evenodd" clip-rule="evenodd" d="M124.107 3.147c-1.585-2.693-9.587-4.278-12.676 0-3.629 5.025.684 9.348.684 9.348v-3.86h8.695l3.773 3.248v4.574h1.389a3.446 3.446 0 013.446-3.447c.297 0 .579.05.854.12.32.082.619.208.896.373.577-2.49.932-5.978-.81-8.138-2.136-2.648-6.251-2.218-6.251-2.218z" fill="#242424"/><path fill-rule="evenodd" clip-rule="evenodd" d="M131.168 13.503a3.418 3.418 0 00-.896-.373 3.395 3.395 0 00-.854-.12 3.446 3.446 0 00-3.446 3.447h-1.389v-4.573l-3.773-3.25h-8.695V22.69a3.449 3.449 0 004.225 3.36l4.084-1.07v8.783l4.924 4.88 4.924-4.88V19.784a3.438 3.438 0 002.593-3.327 3.434 3.434 0 00-1.697-2.954z" fill="#F5C5B6"/><path fill-rule="evenodd" clip-rule="evenodd" d="M121.2 18.604c.015.397-.068.794-.253 1.16a2.374 2.374 0 01-4.075.28l4.328-1.44zm-.435 3.219a3.652 3.652 0 001.348-1.477 3.644 3.644 0 00.206-2.802l-.206-.618-6.977 2.321.205.62a3.672 3.672 0 005.424 1.956z" fill="#242424"/><defs><linearGradient id="paint0_linear" x1="242.214" y1="250.598" x2="232.449" y2="302.378" gradientUnits="userSpaceOnUse"><stop stop-color="#FFB36D"/><stop offset="1" stop-color="#F88"/></linearGradient><linearGradient id="paint1_linear" x1="177.821" y1="258.094" x2="148.469" y2="325.704" gradientUnits="userSpaceOnUse"><stop stop-color="#FFB36D"/><stop offset="1" stop-color="#F88"/></linearGradient><linearGradient id="paint2_linear" x1="174.092" y1="234.33" x2="154.324" y2="279.253" gradientUnits="userSpaceOnUse"><stop stop-color="#FFB36D"/><stop offset="1" stop-color="#F88"/></linearGradient><linearGradient id="paint3_linear" x1="134.599" y1="55.59" x2="63.722" y2="98.087" gradientUnits="userSpaceOnUse"><stop stop-color="#FFB36D"/><stop offset="1" stop-color="#F88"/></linearGradient><linearGradient id="paint4_linear" x1="92.815" y1="101.077" x2="-144.994" y2="269.657" gradientUnits="userSpaceOnUse"><stop stop-color="#FFE6CF"/><stop offset="1" stop-color="#F88"/></linearGradient><linearGradient id="paint5_linear" x1="239.228" y1="101.077" x2="1.419" y2="269.656" gradientUnits="userSpaceOnUse"><stop stop-color="#FFE6CF"/><stop offset="1" stop-color="#F88"/></linearGradient><linearGradient id="paint6_linear" x1="289.875" y1="190.673" x2="264.24" y2="261.875" gradientUnits="userSpaceOnUse"><stop stop-color="#FFB36D"/><stop offset="1" stop-color="#F88"/></linearGradient><linearGradient id="paint7_linear" x1="238.826" y1="201.916" x2="183.71" y2="286.553" gradientUnits="userSpaceOnUse"><stop stop-color="#FFB36D"/><stop offset="1" stop-color="#F88"/></linearGradient><linearGradient id="paint8_linear" x1="143.462" y1="190.673" x2="117.827" y2="261.875" gradientUnits="userSpaceOnUse"><stop stop-color="#FFB36D"/><stop offset="1" stop-color="#F88"/></linearGradient><linearGradient id="paint9_linear" x1="92.413" y1="201.916" x2="37.297" y2="286.553" gradientUnits="userSpaceOnUse"><stop stop-color="#FFB36D"/><stop offset="1" stop-color="#F88"/></linearGradient><clipPath id="clip0"><path fill="#fff" d="M2.685 52.868h240.632V293.5H2.685z"/></clipPath></defs></svg>