<svg width="14" height="17" viewBox="0 0 14 17" fill="none" xmlns="http://www.w3.org/2000/svg">
<path d="M13.5723 0.880178C13.3133 0.767921 13.0153 0.829974 12.8171 1.03735C12.8112 1.04348 12.1096 1.64996 10.1536 1.64996C9.10441 1.64996 8.20723 1.27441 7.25732 0.876813C6.22744 0.445769 5.16251 0 3.84648 0C1.26869 0 0.304442 0.931223 0.202961 1.03735C0.0730365 1.17334 0 1.35778 0 1.55008V11.4499C0 11.7514 0.163595 12.0376 0.432993 12.1444C0.69894 12.2497 0.984754 12.1901 1.17555 11.9711C1.25787 11.9029 1.98365 11.35 3.84645 11.35C4.89559 11.35 5.79277 11.7256 6.74261 12.1231C7.77253 12.5542 8.83749 13 10.1535 13C12.7313 13 13.6956 12.0688 13.797 11.9626C13.927 11.8267 14 11.6422 14 11.4499V1.55008C14 1.25681 13.8311 0.9924 13.5723 0.880178ZM12.6141 11.0658C12.2774 11.2511 11.5226 11.5498 10.1536 11.5498C9.10441 11.5498 8.20723 11.1743 7.25732 10.7767C6.22744 10.3456 5.16251 9.89981 3.84648 9.89981C2.75693 9.89981 1.95557 10.0662 1.38585 10.2663V1.93425C1.72256 1.74882 2.47748 1.45019 3.84648 1.45019C4.89563 1.45019 5.7928 1.82574 6.74265 2.22334C7.77256 2.65438 8.83752 3.10019 10.1536 3.10019C11.2431 3.10019 12.0444 2.93383 12.6141 2.73372V11.0658Z" fill="#8FA4B5"/>
<path d="M0.69291 10.0954C0.310238 10.0954 0 10.4056 0 10.7883V16.307C0 16.6897 0.310238 16.9999 0.69291 16.9999C1.07558 16.9999 1.38582 16.6897 1.38582 16.307V10.7883C1.38582 10.4056 1.07558 10.0954 0.69291 10.0954Z" fill="#8FA4B5"/>
</svg>
