<svg width="16" height="16" viewBox="0 0 16 16" fill="none" xmlns="http://www.w3.org/2000/svg">
<g clip-path="url(#clip0)">
<path d="M12.262 2.10384C10.9054 0.747156 9.10156 0 7.18294 0C5.26428 0 3.46053 0.747156 2.10384 2.10384C0.747156 3.4605 0 5.26428 0 7.18294C0 9.10156 0.747156 10.9054 2.10384 12.262C3.4605 13.6187 5.26431 14.3658 7.18294 14.3658C9.10156 14.3658 10.9054 13.6187 12.262 12.262C13.6187 10.9054 14.3658 9.10156 14.3658 7.18294C14.3658 5.26428 13.6187 3.4605 12.262 2.10384ZM7.18294 13.0732C3.93503 13.0732 1.29262 10.4309 1.29262 7.18294C1.29262 3.935 3.935 1.29262 7.18294 1.29262C10.4309 1.29262 13.0732 3.935 13.0732 7.18294C13.0732 10.4309 10.4308 13.0732 7.18294 13.0732Z" fill="#8FA4B5"/>
<path d="M15.8109 14.8966L12.2566 11.3424C12.0042 11.09 11.595 11.09 11.3426 11.3424C11.0902 11.5948 11.0902 12.004 11.3426 12.2564L14.8969 15.8107C15.0231 15.9369 15.1885 16 15.3539 16C15.5193 16 15.6848 15.9369 15.811 15.8107C16.0633 15.5583 16.0633 15.149 15.8109 14.8966Z" fill="#8FA4B5"/>
</g>
<defs>
<clipPath id="clip0">
<rect width="16" height="16" fill="white"/>
</clipPath>
</defs>
</svg>
