<svg width="141" height="141" fill="none" xmlns="http://www.w3.org/2000/svg"><circle cx="70.723" cy="70.627" r="69" stroke="#FF7163" stroke-width="2"/><g opacity=".3"><path d="M95.98 56.859v11.89L71.394 54.981l-26.903 15.09v15.576l26.903 15.02 37.44-21v11.96l-37.44 21-37.58-21V64.091l37.51-21.07L95.98 56.859z" fill="url(#paint0_linear)"/><path d="M46.738 72.504v11.96l24.656 13.7 37.51-20.931V49.696l-37.51-21.069-37.58 21.07v11.89l37.51-21.07 26.833 15.09v15.646l-26.763 15.02-24.656-13.769z" fill="url(#paint1_linear)"/></g><path d="M95.48 67.896L71.638 54.545l-.244-.137-.245.137-26.903 15.09-.255.143V85.94l.256.143 26.903 15.02.245.137.244-.137 36.695-20.583v10.814l-36.94 20.72-37.08-20.72v-26.95l37.01-20.79L95.48 57.151v10.745zM71.569 40.082l-.245-.138-.245.138-36.765 20.65V49.99L71.393 29.2l37.01 20.79v26.95L71.394 97.59l-24.156-13.42V73.356L71.15 86.71l.245.137.244-.137 26.763-15.02.255-.143V55.315l-.255-.144-26.833-15.09z" stroke="url(#paint2_linear)"/><circle cx="94.904" cy="90.99" r="21.636" fill="#fff"/><circle cx="94.904" cy="90.99" r="21.636" fill="#fff"/><circle cx="94.904" cy="90.99" r="21.136" stroke="url(#paint3_linear)"/><path d="M104.604 82.416l-1.125-1.124-8.575 8.575-8.574-8.576-1.125 1.125 8.575 8.575-8.575 8.574 1.125 1.125 8.574-8.575 8.575 8.575 1.125-1.125-8.576-8.574 8.576-8.575z" fill="#FF7163" stroke="#FF7C7C"/><defs><linearGradient id="paint0_linear" x1="71.359" y1="28.627" x2="71.359" y2="112.627" gradientUnits="userSpaceOnUse"><stop stop-color="#FF7C7C"/><stop offset="1" stop-color="#FF7C7C" stop-opacity="0"/></linearGradient><linearGradient id="paint1_linear" x1="71.359" y1="28.627" x2="71.359" y2="112.627" gradientUnits="userSpaceOnUse"><stop stop-color="#FF7C7C"/><stop offset="1" stop-color="#FF7C7C" stop-opacity="0"/></linearGradient><linearGradient id="paint2_linear" x1="71.359" y1="41.991" x2="71.359" y2="146.991" gradientUnits="userSpaceOnUse"><stop stop-color="#FF7163"/><stop offset="1" stop-color="#FF7C7C" stop-opacity="0"/></linearGradient><linearGradient id="paint3_linear" x1="94.904" y1="76.238" x2="94.904" y2="130.329" gradientUnits="userSpaceOnUse"><stop stop-color="#FF7163"/><stop offset="1" stop-color="#FF7C7C" stop-opacity="0"/></linearGradient></defs></svg>
