<svg width="141" height="141" fill="none" xmlns="http://www.w3.org/2000/svg"><circle cx="70.637" cy="70.627" r="69" stroke="#38CCB6" stroke-width="2"/><path d="M95.894 56.859v11.89L71.308 54.981l-26.903 15.09v15.576l26.903 15.02 37.44-21v11.96l-37.44 21-37.58-21V64.091l37.51-21.07 24.656 13.838z" fill="#38CCB6"/><path d="M46.653 72.504v11.96l24.655 13.7 37.511-20.931V49.696l-37.51-21.069-37.581 21.07v11.89l37.51-21.07 26.833 15.09v15.646l-26.763 15.02-24.656-13.769z" fill="#38CCB6"/><circle cx="96.728" cy="92.263" r="20.886" fill="#fff" stroke="#38CCB6" stroke-width="1.5"/><path d="M106.121 84.093h0L92.504 97.69l-5.17-5.162s0 0 0 0a1.297 1.297 0 00-1.831 0h0a1.293 1.293 0 000 1.83l6.085 6.076a1.297 1.297 0 001.832 0l14.533-14.512a1.293 1.293 0 000-1.83 1.297 1.297 0 00-1.832 0z" fill="#38CCB6" stroke="#38CCB6" stroke-width=".3"/></svg>
