<svg width="485" height="284" fill="none" xmlns="http://www.w3.org/2000/svg"><path d="M249.474 338.62c110.911 0 200.822-90.064 200.822-201.162 0-111.099-89.911-201.162-200.822-201.162S48.653 26.359 48.653 137.458c0 111.098 89.91 201.162 200.821 201.162z" stroke="#FF8B87"/><path d="M290.319 286.883c-.227-8.623-4.629-27.639-20.422-34.719-19.742-8.849-32.676-2.723-43.909-1.702-11.232 1.022-35.058 7.489-55.821-50.375m106.537-29.272c0 10.551 9.531 29.836 24.848 40.845 21.784 15.657 48.673 26.889 45.27 70.457M230.413 53.385c15.998-1.702 48.674-16.746 51.397-63.31m-29.953 148.744c34.266 0 43.965-33.586 44.892-54.819" stroke="#FF8B87"/><path d="M120.267 121.077l21.222 56.591c6.035 1.04 9.75 2.458 9.75 4.021l-.001.03-.01-.031.036.137c.127.654.107 1.366-.062 2.137l.037.002-.115.32a10.276 10.276 0 01-.769 1.962c-5.626 13.296-18.057 22.675-33.355 22.675-15.062 0-27.923-9.092-33.744-22.061l.341.605c-.69-1.182-1.158-2.26-1.406-3.233l-.094-.268.03-.002c-.144-.668-.18-1.284-.107-1.849l.077-.424.016-.177c.279-1.552 4.226-2.951 10.443-3.962l21.177-56.473c1.02-2.74 5.508-2.74 6.534 0zm111.944-.008l21.218 56.579c5.747.981 9.419 2.302 9.829 3.766l-.058-.119c.335.646.433 1.39.292 2.233l-.088.429a7.998 7.998 0 01-.565 1.506c-5.479 13.711-18.3 23.451-33.894 23.451-15.43 0-28.55-9.541-34.158-23.017-.333-.656-.596-1.283-.73-1.872l-.014-.062-.002-.006.001-.002-.043-.269c-.055-.476-.025-1.051.089-1.725l.085-.455-.008.039.014-.077.009-.03.004.001c.384-1.513 4.251-2.875 10.295-3.869l21.191-56.501c1.019-2.739 5.507-2.739 6.533 0zM117 132.266l-16.624 44.327c4.854-.434 10.401-.68 16.292-.68l1.057.002c5.775.029 11.194.295 15.921.741L117 132.266zm111.945 0l-16.63 44.338c4.882-.441 10.472-.691 16.411-.691l1.056.002c5.729.029 11.107.291 15.807.73l-16.644-44.379zm-55.482-76.832s8.279 25.976 8.279 30.576c0 3.168-1.829 5.844-4.433 7.25a12.598 12.598 0 015.501 3.553c3.288-2.865 8.133-5.528 15.085-5.528 7.951 0 14.786 3.478 20.817 6.547 1.92.976 3.783 1.91 5.508 2.641 1.284-1.363 3.078-2.234 5.089-2.234 3.895 0 7.05 3.175 7.05 7.095 0 3.919-3.155 7.094-7.05 7.094-3.163 0-5.739-2.128-6.632-5.015-2.311-.885-4.677-2.079-7.113-3.315-5.334-2.712-11.386-5.788-17.669-5.788-6.038 0-9.807 2.816-11.957 5.198.083.604.181 1.201.181 1.826 0 7.031-5.668 12.735-12.656 12.735s-12.656-5.704-12.656-12.735c0-.625.098-1.229.182-1.833-2.157-2.389-5.927-5.191-11.958-5.191-6.283 0-12.335 3.083-17.675 5.795-2.43 1.236-4.796 2.43-7.107 3.315-.893 2.887-3.469 5.015-6.631 5.015-3.896 0-7.051-3.182-7.051-7.101 0-3.92 3.155-7.095 7.051-7.095 2.01 0 3.804.878 5.089 2.234 1.724-.723 3.581-1.658 5.5-2.641 6.032-3.07 12.873-6.546 20.824-6.546 6.952 0 11.797 2.662 15.085 5.528a12.543 12.543 0 015.501-3.555c-2.604-1.404-4.433-4.074-4.433-7.249 0-4.6 8.279-30.576 8.279-30.576z" fill="#FCE9DE"/><path d="M272.412 46.782s-8.589.738-14.279 3.813c0 0 22.632-.123 33.165 8.726 0 0-25.615-7.87-55.471 11.674 0 0 47.484-9.098 69.995 10.202 0 0-7.264-13.445-22.542-16.338 0 0 17.382-.693 23.336 2.2 0 0-5.142-11.076-10.97-13.716v-7.896c0-1.599-8.705-9.73-23.234-11.102v12.437z" fill="#FCE9DE" fill-opacity=".6"/><path d="M272.412 46.782s-8.588.738-14.279 3.813c0 0 22.632-.123 33.165 8.726 0 0-25.615-7.87-55.47 11.674 0 0 47.483-9.098 69.994 10.202 0 0-7.264-13.445-22.542-16.338 0 0 17.383-.693 23.336 2.2 0 0-5.142-11.076-10.97-13.716v-7.896c0-1.599-8.705-9.73-23.234-11.102v12.437z" stroke="#FF8B87"/><path d="M268.55 82.09s3.663 3.194 5.213 6.146c0 0-3.348 3.31-6.548 4.939 0 0 9.694 3.053 12.247 6.664-5.168-1.625-13.995-1.016-16.121 3.373 5.901-.636 9.514.888 10.274 3.15 0 0-1.403 2.021-5.699 2.92-4.575.957-5.744 2.859-5.744 5.515 0 2.656 3.474 5.085 9.784 4.888 6.302-.201 23.488-2.801 24.787-35.316-1.299-3.058-16.998-9.301-28.234-9.233l.041 6.953z" fill="#FCE9DE" fill-opacity=".6"/><path d="M268.549 82.09s3.663 3.194 5.214 6.146c0 0-3.348 3.31-6.548 4.939 0 0 9.694 3.053 12.247 6.664-5.169-1.625-13.996-1.016-16.122 3.373 5.902-.636 9.515.888 10.275 3.15 0 0-1.403 2.021-5.699 2.92-4.576.957-5.744 2.859-5.744 5.515 0 2.656 3.474 5.085 9.784 4.888 6.301-.201 23.488-2.801 24.787-35.316-1.299-3.058-16.998-9.301-28.234-9.233l.04 6.953z" stroke="#FF8B87"/><path d="M302.147 118.073c7.715-12.007 11.936-22.468 12.664-31.384 11.422 12.692 10.735 27.553 8.795 38.926-1.309-3.66-2.998-7.424-5.066-11.294 1.367 17.535-3.825 27.029-15.573 28.481-1.374-8.1-1.648-16.343-.82-24.729z" fill="#FCE9DE" fill-opacity=".6"/><path d="M302.147 118.073c7.715-12.007 11.936-22.468 12.664-31.384 11.422 12.692 10.735 27.553 8.795 38.926-1.309-3.66-2.998-7.424-5.066-11.294 1.367 17.535-3.825 27.029-15.573 28.481-1.374-8.1-1.648-16.343-.82-24.729z" stroke="#FF8B87"/><path d="M159.588 9.169c-2.144 3.298-5.286 12.467-9.427 27.508-9.307 10.65-18.41 25.265-27.311 43.847-4.395 1.367-9.057 3.296-13.986 5.787 12.642-23.244 25.011-40.79 37.105-52.64 2.794-9.289 7.334-17.456 13.619-24.502z" fill="#FCE9DE" fill-opacity=".6"/><path d="M185.073 35.1l-31.279 14.757c8.913.15 15.991-1.47 21.235-4.862 5.244-3.39 8.592-6.69 10.044-9.896z" fill="#fff" fill-opacity=".1"/><path d="M173.532 29.716c-.177-6.449-1.017-10.074-2.519-10.875-1.67-.745-2.641-2.352-1.67-5.286.598-1.864.418-3.94-.541-6.227l8.484-5.668 9.549 6.019c.334 2.124-.36 4.083-2.082 5.876 2.082 2.252 2.082 5.16-.33 8.517.067.832.114 1.647.14 2.446.04 1.211-.007 2.944-.14 5.198h-10.891z" fill="#FCE9DE" fill-opacity=".6"/><path d="M173.532 29.716c-.177-6.449-1.017-10.074-2.52-10.875-1.669-.745-2.64-2.352-1.669-5.286.598-1.864.418-3.94-.542-6.227l8.485-5.668 9.548 6.019c.335 2.124-.359 4.083-2.081 5.876 2.081 2.252 2.081 5.16-.33 8.517.067.832.114 1.647.14 2.446.04 1.211-.007 2.944-.14 5.198h-10.891z" stroke="#FF8B87"/><path d="M291.344 129.079c-1.496 27.266 4.309 42.76 17.415 46.484 19.659 5.585 45.956 7.216 53.105 48.621 1.777 5.6.913 10.746 2.383 15.791a156.425 156.425 0 01-18.692 16.843c-6.534-15.799-14.703-25.556-26.188-32.634-45.264-28.197-54.605-59.898-28.023-95.105z" fill="#FCE9DE" fill-opacity=".6"/><path d="M308.759 175.563c19.659 5.585 45.956 7.216 53.105 48.621 1.777 5.6.913 10.746 2.383 15.791a156.425 156.425 0 01-18.692 16.843c-6.534-15.799-14.703-25.556-26.188-32.634" stroke="#FF8B87"/><path d="M177.391 215.85c23.702 59.502 61.644 21.377 90.953 35.315 13.402 6.373 20.712 18.072 21.932 35.097a156.652 156.652 0 01-35.566 4.065c-23.72 0-46.21-5.281-66.364-14.734-.074-17.911-3.727-37.825-10.955-59.743zM303.942 37.819c9.56 15.201 14.019 26.446 13.377 33.733-.244 2.633-1.401 5.57-3.472 8.813 7.275-.649 10.912-5.122 10.912-13.42s-6.939-18.007-20.817-29.126z" fill="#FCE9DE" fill-opacity=".6"/><path d="M303.942 37.819c9.56 15.201 14.019 26.446 13.377 33.733-.244 2.633-1.401 5.57-3.472 8.813 7.275-.649 10.912-5.122 10.912-13.42s-6.939-18.007-20.817-29.126z" stroke="#FF8B87"/><path d="M220.869 54.95c6.148-1.699 11.173-5.534 15.075-11.507-.248 3.556-1.138 6.617-2.672 9.183 17.77-3.197 31.561-13.964 41.373-32.302-18.093-9.838-36.743-3.127-46.739 9.112-6.665 8.159-9.01 16.663-7.037 25.514z" fill="#FCE9DE" fill-opacity=".6"/><circle cx="173.57" cy="105.462" r="12.594" stroke="#FF8A87"/><circle cx="173.5" cy="85.5" r="7.5" stroke="#FF8A87"/><circle cx="116.387" cy="173.538" r="35.739" stroke="#FF8A87"/><circle cx="228.711" cy="173.538" r="35.739" stroke="#FF8A87"/><circle cx="94.263" cy="263.737" r="93.263" stroke="#FF8A87"/><circle cx="403.324" cy="87.422" r="80.329" stroke="#FF8A87"/><circle cx="316.869" cy="150.052" r="26.549" stroke="#FF8A87"/><path d="M227.943 73.992c-12.547-15.237-10.365-37.76 4.873-50.307 15.237-12.547 37.761-10.365 50.307 4.873" stroke="#FF8A87"/><circle cx="117.749" cy="105.462" r="7.148" stroke="#FF8A87"/><circle cx="229.392" cy="105.462" r="7.148" stroke="#FF8A87"/><circle cx="330.824" cy="206.214" r="21.444" stroke="#FF8A87"/><circle cx="286.575" cy="170.815" r="9.871" stroke="#FF8A87"/><circle cx="249.815" cy="268.843" r="21.444" stroke="#FF8A87"/><path d="M314.146 80.615c1.021-1.248 3.063-5.174 3.063-10.892 0-7.148-6.127-25.188-20.763-39.484M153.829 49.64c9.757 2.043 31.995-2.041 40.845-34.718m-85.775 71.479c3.744-7.034 13.207-23.622 21.103-33.697C137.899 42.63 143.958 35.8 146 33.644c2.269-7.603 10.007-24.167 22.805-33.698M302.232 111.93c-1.248 9.303-1.634 31.859 6.808 47.652m9.531-44.929c1.701 10.097.68 30.633-24.848 28.932" stroke="#FF8A87"/></svg>