<svg width="147" height="145" viewBox="0 0 147 145" fill="none" xmlns="http://www.w3.org/2000/svg"><path opacity=".6" fill-rule="evenodd" clip-rule="evenodd" d="M137 67.002C137 104.008 107.003 134 70 134S3 104.008 3 67.002C3 29.998 32.997 0 70 0s67 29.997 67 67.002z" fill="#F1F6F8"/><mask id="a" maskUnits="userSpaceOnUse" x="0" y="68" width="88" height="67"><path fill-rule="evenodd" clip-rule="evenodd" d="M1.131 96.89L12.4 75.844a13.809 13.809 0 0112.157-7.287h39.23a13.79 13.79 0 0112.331 7.618l10.878 21.691a7.598 7.598 0 01.808 3.39v.678c0 3.607-2.383 6.928-5.897 7.703a7.524 7.524 0 01-8.037-3.38l-5.614-9.038-4.47 37.214S53 134.434 41 129.5s-17.642-11.119-17.642-11.119l-3.689-26.008-6.516 11.275 1.589 30.786H4.686L.095 102.785A9.63 9.63 0 011.13 96.89z" fill="#EFC16D"/></mask><g mask="url(#a)"><path fill="#242424" d="M-99-21h274v206H-99z"/></g><path d="M12.28 135.068a3.999 3.999 0 105.44 5.864l-5.44-5.864zm68.4-63.454l-68.4 63.454 5.44 5.864 68.401-63.453-5.44-5.865z" fill="#8987FF"/><path fill-rule="evenodd" clip-rule="evenodd" d="M79.254 94.292l-.794-9.2h-9.141l-1.185 9.2 5.56 3.981 5.56-3.98zM15.057 134l3.15 3.186-3.164 5.886H5.794L5 134h10.057z" fill="#F5C5B6"/><path d="M45.12 97.547l-10.292-29h19l-8.708 29z" fill="#fff"/><path fill-rule="evenodd" clip-rule="evenodd" d="M39.608 51.973c.188-1.45 1.332-2.529 2.705-2.732.283-.042.58-.06.875-.02.62.08 1.185.345 1.63.723 2.41-1.297 3.46-4.014 3.46-4.014l10.608 6.896-.997 7.523c-.269 2.04-2.355 3.3-4.28 2.58l-3.622-1.478-.929 9.108H39.77l1.737-15.246a3.2 3.2 0 01-1.898-3.34z" fill="#F5C5B6"/><path fill-rule="evenodd" clip-rule="evenodd" d="M14.095 45.672c1.912-2.246 4.968-3.442 7.89-3.074 1.547.196 3.217.778 4.59.04 1.252-.674 1.737-2.183 2.49-3.396 1.71-2.773 5.332-4.198 8.482-3.332 2.18.603 4.564 2.812 5.466 5.23a11.49 11.49 0 016.596-1.102c5.345.704 12.574 3.992 9.276 12.787L48.277 45.93s-1.05 2.718-3.46 4.014a3.157 3.157 0 00-1.63-.723 3.111 3.111 0 00-.874.02c-1.373.204-2.518 1.283-2.706 2.733a3.2 3.2 0 001.898 3.34l-.566 4.379s-4.388-3.914-3.513-10.582c.336-2.506 1.373-4.51 2.84-5.997-1.79-.25-3.513-.17-5.358 1.11-1.615 1.13-2.746 2.822-4.039 4.316a22.757 22.757 0 01-5.438 4.572c-2.33 1.396-5.062 2.382-7.741 1.93-2.68-.453-5.17-2.698-5.183-5.417-.014-1.452.66-2.844 1.588-3.952z" fill="#EC6A6A"/><path d="M52.213 58.742l.129-.076-.076-.129a4.582 4.582 0 00-2.815-2.12 4.578 4.578 0 00-3.488.496l-.129.076.076.129.556.947.076.13.13-.076a3.202 3.202 0 014.39 1.13l.076.13.13-.076.945-.56z" fill="#242424" stroke="#242424" stroke-width=".3"/><circle cx="108.5" cy="50.5" r="34.5" fill="#fff" fill-opacity=".2" stroke="#8987FF" stroke-width="8"/></svg>