<svg width="16" height="16" viewBox="0 0 16 16" fill="none" xmlns="http://www.w3.org/2000/svg">
<path fill-rule="evenodd" clip-rule="evenodd" d="M12.0963 6.73501C12.1702 6.34867 12.4848 6.10916 12.799 6.20004C13.7442 6.47348 14.5189 6.92573 15.0706 7.48298C15.6114 8.02908 15.9999 8.74616 15.9999 9.54032C15.9999 10.914 15.0336 11.9689 13.8996 12.6357C12.7136 13.3331 11.1124 13.7596 9.36715 13.7596C7.75376 13.7596 6.2667 13.3955 5.11663 12.7933C4.00378 12.2107 3.0609 11.3238 2.8017 10.1612C2.71637 9.7784 2.89952 9.38304 3.21078 9.2781C3.52203 9.17317 3.84353 9.39839 3.92886 9.78116C4.04186 10.2881 4.55293 10.9361 5.57447 11.471C6.55879 11.9863 7.88657 12.3223 9.36715 12.3223C10.9718 12.3223 12.3948 11.9275 13.3955 11.3391C14.4482 10.7201 14.8312 10.0247 14.8312 9.54032C14.8312 9.34143 14.7238 8.99249 14.3289 8.59365C13.945 8.20595 13.3446 7.83436 12.5313 7.5991C12.2172 7.50822 12.0224 7.12135 12.0963 6.73501Z" fill="white"/>
<path fill-rule="evenodd" clip-rule="evenodd" d="M2.57599 2.29649C1.52432 2.85137 1.16874 3.48402 1.16874 3.94483C1.16874 4.42854 1.55014 5.12235 2.59812 5.73996C3.5945 6.32716 5.01152 6.72127 6.60952 6.72127C8.20753 6.72127 9.62454 6.32716 10.6209 5.73996C11.6689 5.12235 12.0503 4.42854 12.0503 3.94483C12.0503 3.48402 11.6947 2.85137 10.643 2.29648C9.64506 1.76992 8.22159 1.43725 6.60952 1.43725C4.99746 1.43725 3.57398 1.76992 2.57599 2.29649ZM2.11516 0.97567C3.29549 0.352903 4.88458 0 6.60952 0C8.33447 0 9.92356 0.352903 11.1039 0.975671C12.2305 1.57012 13.219 2.55057 13.219 3.94483C13.219 5.31618 12.2564 6.36991 11.126 7.03606C9.94407 7.73263 8.34852 8.15853 6.60952 8.15853C4.87053 8.15853 3.27497 7.73263 2.09302 7.03607C0.962676 6.36991 0 5.31618 0 3.94483C0 2.55057 0.988503 1.57012 2.11516 0.97567Z" fill="#8FA4B5"/>
<path fill-rule="evenodd" clip-rule="evenodd" d="M3.36513 8.96167C3.68787 8.96167 3.94951 9.28341 3.94951 9.6803C3.94951 10.1536 4.3273 10.8412 5.37724 11.4551C6.37403 12.0378 7.79164 12.429 9.39027 12.429C10.9889 12.429 12.4065 12.0378 13.4033 11.4551C14.4532 10.8412 14.831 10.1536 14.831 9.6803C14.831 9.28341 15.0927 8.96167 15.4154 8.96167C15.7382 8.96167 15.9998 9.28341 15.9998 9.6803V11.9207C15.9998 13.3086 15.0255 14.3262 13.8954 14.9558C12.7139 15.614 11.1216 16 9.39027 16C7.65897 16 6.06668 15.614 4.88518 14.9558C3.75508 14.3262 2.78076 13.3086 2.78076 11.9207V9.6803C2.78076 9.28341 3.04239 8.96167 3.36513 8.96167ZM3.9646 12.0926C4.04337 12.551 4.43963 13.1297 5.36748 13.6466C6.3643 14.2019 7.78458 14.5627 9.39027 14.5627C10.996 14.5627 12.4162 14.2019 13.4131 13.6466C14.3409 13.1297 14.7372 12.551 14.8159 12.0926C14.5382 12.3435 14.2283 12.5641 13.9051 12.7531C12.7236 13.4439 11.1286 13.8662 9.39027 13.8662C7.65191 13.8662 6.05695 13.4439 4.87542 12.7531C4.55221 12.5641 4.24231 12.3435 3.9646 12.0926Z" fill="#8FA4B5"/>
<path fill-rule="evenodd" clip-rule="evenodd" d="M2.59649 5.85402C3.59327 6.4368 5.01089 6.82795 6.60952 6.82795C8.20816 6.82795 9.62577 6.4368 10.6225 5.85402C11.6725 5.24016 12.0503 4.55257 12.0503 4.07922H13.219V6.31965C13.219 7.70757 12.2447 8.72511 11.1146 9.3547C9.93311 10.0129 8.34083 10.3989 6.60952 10.3989C4.87822 10.3989 3.28593 10.0129 2.10443 9.3547C0.97432 8.72511 0 7.70757 0 6.31965V4.07922H1.16874C1.16874 4.55257 1.54654 5.24015 2.59649 5.85402ZM1.18384 6.49159C1.26261 6.94996 1.65887 7.52862 2.58672 8.04553C3.58354 8.60086 5.00383 8.96167 6.60952 8.96167C8.21522 8.96167 9.6355 8.60086 10.6323 8.04553C11.5601 7.52862 11.9564 6.94997 12.0352 6.49159C11.7575 6.74242 11.4476 6.96308 11.1244 7.15204C9.94285 7.84284 8.34789 8.2652 6.60952 8.2652C4.87116 8.2652 3.2762 7.84284 2.09466 7.15204C1.77145 6.96308 1.46155 6.74241 1.18384 6.49159Z" fill="#8FA4B5"/>
</svg>
