<svg width="21" height="17" viewBox="0 0 21 17" fill="none" xmlns="http://www.w3.org/2000/svg">
<path fill-rule="evenodd" clip-rule="evenodd" d="M1.32967 15H13.0911C12.9661 13.852 12.5092 13.1354 11.97 12.687C11.3132 12.1408 10.452 11.925 9.6841 11.925H4.71845C3.24237 11.925 2.41375 12.5414 1.93291 13.2727C1.57473 13.8175 1.39502 14.4521 1.32967 15ZM0.846666 12.5585C1.56436 11.467 2.79833 10.625 4.71845 10.625H9.6841C10.6657 10.625 11.85 10.8964 12.8012 11.6875C13.7748 12.4972 14.425 13.7858 14.425 15.65C14.425 16.009 14.134 16.3 13.775 16.3H0.653304C0.304719 16.3 0.018192 16.025 0.00385425 15.6767C-0.0302341 14.8487 0.154608 13.6111 0.846666 12.5585Z" fill="#8FA4B5"/>
<path fill-rule="evenodd" clip-rule="evenodd" d="M4.14062 6.31406C4.14062 4.59594 5.53344 3.20312 7.25156 3.20312C8.96969 3.20312 10.3625 4.59594 10.3625 6.31406C10.3625 8.03219 8.96969 9.425 7.25156 9.425C5.53344 9.425 4.14062 8.03219 4.14062 6.31406ZM7.25156 4.50312C6.25141 4.50312 5.44062 5.31391 5.44062 6.31406C5.44062 7.31422 6.25141 8.125 7.25156 8.125C8.25172 8.125 9.0625 7.31422 9.0625 6.31406C9.0625 5.31391 8.25172 4.50312 7.25156 4.50312Z" fill="#8FA4B5"/>
<path fill-rule="evenodd" clip-rule="evenodd" d="M11.6665 8.07187C11.6665 7.71289 11.9575 7.42188 12.3165 7.42188H15.7256C16.7072 7.42188 17.8915 7.6933 18.8428 8.48441C19.8164 9.29411 20.4665 10.5827 20.4665 12.4469C20.4665 12.8059 20.1755 13.0969 19.8165 13.0969H15.3243C14.9653 13.0969 14.6743 12.8059 14.6743 12.4469C14.6743 12.0879 14.9653 11.7969 15.3243 11.7969H19.1327C19.0076 10.6489 18.5507 9.93232 18.0115 9.48392C17.3547 8.93766 16.4936 8.72187 15.7256 8.72187H12.3165C11.9575 8.72187 11.6665 8.43086 11.6665 8.07187Z" fill="#8FA4B5"/>
<path fill-rule="evenodd" clip-rule="evenodd" d="M10.3125 3.11094C10.3125 1.39281 11.7053 0 13.4234 0C15.1416 0 16.5344 1.39281 16.5344 3.11094C16.5344 4.82906 15.1416 6.22188 13.4234 6.22188C11.7053 6.22188 10.3125 4.82906 10.3125 3.11094ZM13.4234 1.3C12.4233 1.3 11.6125 2.11078 11.6125 3.11094C11.6125 4.11109 12.4233 4.92188 13.4234 4.92188C14.4236 4.92188 15.2344 4.11109 15.2344 3.11094C15.2344 2.11078 14.4236 1.3 13.4234 1.3Z" fill="#8FA4B5"/>
</svg>
