<svg width="18" height="20" viewBox="0 0 18 20" fill="none" xmlns="http://www.w3.org/2000/svg">
<path fill-rule="evenodd" clip-rule="evenodd" d="M5.02274 0.177909C5.27337 -0.0593073 5.67072 -0.0593026 5.92133 0.17792L6.63436 0.852842C6.63436 0.852847 6.63437 0.852851 6.63437 0.852855C6.93644 1.13877 7.12775 1.538 7.12775 1.98356C7.12775 2.10447 7.112 2.21648 7.09191 2.31154C7.0915 2.31348 7.09108 2.31542 7.09066 2.31735L6.66416 4.24464H10.5127C11.3418 4.24464 12.0563 4.88983 12.0563 5.72728V6.78845C12.0563 7.04678 11.9997 7.27886 11.9167 7.48441C11.9135 7.49232 11.9101 7.50017 11.9066 7.50795L9.87633 11.996C9.56951 12.6896 8.85409 13.1524 8.04616 13.1524H1.99206C0.911794 13.1524 0 12.3205 0 11.2453V5.72728C0 5.19114 0.232799 4.71166 0.592068 4.37161C0.592069 4.37161 0.59207 4.37161 0.592071 4.37161L5.02274 0.177909ZM1.49064 5.28325L1.04136 4.82743L1.49064 5.28325C1.36559 5.40162 1.29341 5.55884 1.29341 5.72728V11.2453C1.29341 11.5794 1.58344 11.885 1.99206 11.885H8.04616C8.34922 11.885 8.59253 11.7125 8.69008 11.4909C8.69093 11.489 8.69179 11.487 8.69267 11.4851L10.7182 7.00753C10.7489 6.92862 10.7628 6.85817 10.7628 6.78845V5.72728C10.7628 5.63094 10.6701 5.5121 10.5127 5.5121H5.86218C5.66661 5.5121 5.48153 5.42536 5.35877 5.27617C5.236 5.12698 5.18872 4.93136 5.23017 4.74406L5.82587 2.05215C5.83229 2.02109 5.83434 1.99806 5.83434 1.98356C5.83434 1.90282 5.80141 1.82661 5.73578 1.76449L5.73577 1.76448L5.47202 1.51482L1.49064 5.28325Z" fill="#8FA4B5"/>
<path fill-rule="evenodd" clip-rule="evenodd" d="M12.9773 19.8221C12.7266 20.0593 12.3293 20.0593 12.0787 19.8221L11.3656 19.1472C11.3656 19.1472 11.3656 19.1471 11.3656 19.1471C11.0636 18.8612 10.8722 18.462 10.8722 18.0164C10.8722 17.8955 10.888 17.7835 10.9081 17.6885C10.9085 17.6865 10.9089 17.6846 10.9093 17.6827L11.3358 15.7554L7.48734 15.7554C6.65823 15.7554 5.94375 15.1102 5.94375 14.2727L5.94375 13.2116C5.94375 12.9532 6.00029 12.7211 6.08333 12.5156L7.28592 12.9822C7.25234 13.0653 7.23716 13.1388 7.23716 13.2116L7.23716 14.2727C7.23716 14.3691 7.32988 14.4879 7.48734 14.4879L12.1378 14.4879C12.3334 14.4879 12.5185 14.5746 12.6412 14.7238C12.764 14.873 12.8113 15.0686 12.7698 15.2559L12.1741 17.9478C12.1677 17.9789 12.1657 18.0019 12.1657 18.0164C12.1657 18.0972 12.1986 18.1734 12.2642 18.2355L12.2642 18.2355L12.528 18.4852L16.5094 14.7167L16.9586 15.1726L16.5094 14.7167C16.6344 14.5984 16.7066 14.4412 16.7066 14.2727L16.7066 8.7547C16.7066 8.42064 16.4166 8.11505 16.0079 8.11505L11.519 8.11505L11.519 6.84759L16.0079 6.84759C17.0882 6.84759 18 7.67953 18 8.7547L18 14.2727C18 14.8089 17.7672 15.2883 17.4079 15.6284C17.4079 15.6284 17.4079 15.6284 17.4079 15.6284L12.9773 19.8221Z" fill="#8FA4B5"/>
</svg>
