<svg width="24" height="24" fill="none" xmlns="http://www.w3.org/2000/svg"><path d="M22.5 10.286V8.143c0-.79-.672-1.429-1.5-1.429H4.5c-.827 0-1.5-.64-1.5-1.428 0-.788.673-1.429 1.5-1.429H21c.828 0 1.5-.64 1.5-1.428C22.5 1.639 21.828 1 21 1H4.5C2.019 1 0 2.922 0 5.286v12.857C0 19.72 1.343 21 3 21h18c.828 0 1.5-.64 1.5-1.429V17.43c.828 0 1.5-.64 1.5-1.429v-4.286c0-.789-.672-1.428-1.5-1.428zm-2.25 5c-.828 0-1.5-.64-1.5-1.429s.672-1.428 1.5-1.428 1.5.64 1.5 1.428c0 .79-.672 1.429-1.5 1.429z" fill="url(#paint0_linear)"/><defs><linearGradient id="paint0_linear" x1="37.125" y1="-8" x2="4.313" y2="21.826" gradientUnits="userSpaceOnUse"><stop stop-color="#FFB36D"/><stop offset="1" stop-color="#F88"/></linearGradient></defs></svg>